%TF.GenerationSoftware,KiCad,Pcbnew,7.0.1*%
%TF.CreationDate,2023-09-20T00:41:55-04:00*%
%TF.ProjectId,Teacup.kicad_pcb-revB,54656163-7570-42e6-9b69-6361645f7063,B*%
%TF.SameCoordinates,Original*%
%TF.FileFunction,Copper,L1,Top*%
%TF.FilePolarity,Positive*%
%FSLAX46Y46*%
G04 Gerber Fmt 4.6, Leading zero omitted, Abs format (unit mm)*
G04 Created by KiCad (PCBNEW 7.0.1) date 2023-09-20 00:41:55*
%MOMM*%
%LPD*%
G01*
G04 APERTURE LIST*
G04 Aperture macros list*
%AMRoundRect*
0 Rectangle with rounded corners*
0 $1 Rounding radius*
0 $2 $3 $4 $5 $6 $7 $8 $9 X,Y pos of 4 corners*
0 Add a 4 corners polygon primitive as box body*
4,1,4,$2,$3,$4,$5,$6,$7,$8,$9,$2,$3,0*
0 Add four circle primitives for the rounded corners*
1,1,$1+$1,$2,$3*
1,1,$1+$1,$4,$5*
1,1,$1+$1,$6,$7*
1,1,$1+$1,$8,$9*
0 Add four rect primitives between the rounded corners*
20,1,$1+$1,$2,$3,$4,$5,0*
20,1,$1+$1,$4,$5,$6,$7,0*
20,1,$1+$1,$6,$7,$8,$9,0*
20,1,$1+$1,$8,$9,$2,$3,0*%
%AMRotRect*
0 Rectangle, with rotation*
0 The origin of the aperture is its center*
0 $1 length*
0 $2 width*
0 $3 Rotation angle, in degrees counterclockwise*
0 Add horizontal line*
21,1,$1,$2,0,0,$3*%
G04 Aperture macros list end*
%TA.AperFunction,SMDPad,CuDef*%
%ADD10RoundRect,0.237500X0.300000X0.237500X-0.300000X0.237500X-0.300000X-0.237500X0.300000X-0.237500X0*%
%TD*%
%TA.AperFunction,SMDPad,CuDef*%
%ADD11RoundRect,0.237500X-0.300000X-0.237500X0.300000X-0.237500X0.300000X0.237500X-0.300000X0.237500X0*%
%TD*%
%TA.AperFunction,SMDPad,CuDef*%
%ADD12C,1.500000*%
%TD*%
%TA.AperFunction,SMDPad,CuDef*%
%ADD13RoundRect,0.140000X-0.219203X-0.021213X-0.021213X-0.219203X0.219203X0.021213X0.021213X0.219203X0*%
%TD*%
%TA.AperFunction,SMDPad,CuDef*%
%ADD14R,1.500000X2.000000*%
%TD*%
%TA.AperFunction,SMDPad,CuDef*%
%ADD15R,3.800000X2.000000*%
%TD*%
%TA.AperFunction,ComponentPad*%
%ADD16C,0.800000*%
%TD*%
%TA.AperFunction,ComponentPad*%
%ADD17C,5.400000*%
%TD*%
%TA.AperFunction,SMDPad,CuDef*%
%ADD18R,0.400000X0.650000*%
%TD*%
%TA.AperFunction,SMDPad,CuDef*%
%ADD19RoundRect,0.250000X-0.337500X-0.475000X0.337500X-0.475000X0.337500X0.475000X-0.337500X0.475000X0*%
%TD*%
%TA.AperFunction,SMDPad,CuDef*%
%ADD20R,1.000000X1.600000*%
%TD*%
%TA.AperFunction,SMDPad,CuDef*%
%ADD21RoundRect,0.140000X0.219203X0.021213X0.021213X0.219203X-0.219203X-0.021213X-0.021213X-0.219203X0*%
%TD*%
%TA.AperFunction,SMDPad,CuDef*%
%ADD22RoundRect,0.237500X0.237500X-0.250000X0.237500X0.250000X-0.237500X0.250000X-0.237500X-0.250000X0*%
%TD*%
%TA.AperFunction,ComponentPad*%
%ADD23R,1.700000X1.700000*%
%TD*%
%TA.AperFunction,ComponentPad*%
%ADD24O,1.700000X1.700000*%
%TD*%
%TA.AperFunction,SMDPad,CuDef*%
%ADD25RoundRect,0.237500X0.250000X0.237500X-0.250000X0.237500X-0.250000X-0.237500X0.250000X-0.237500X0*%
%TD*%
%TA.AperFunction,SMDPad,CuDef*%
%ADD26RoundRect,0.250000X0.337500X0.475000X-0.337500X0.475000X-0.337500X-0.475000X0.337500X-0.475000X0*%
%TD*%
%TA.AperFunction,SMDPad,CuDef*%
%ADD27RoundRect,0.237500X-0.250000X-0.237500X0.250000X-0.237500X0.250000X0.237500X-0.250000X0.237500X0*%
%TD*%
%TA.AperFunction,SMDPad,CuDef*%
%ADD28RoundRect,0.140000X0.021213X-0.219203X0.219203X-0.021213X-0.021213X0.219203X-0.219203X0.021213X0*%
%TD*%
%TA.AperFunction,SMDPad,CuDef*%
%ADD29R,0.950000X1.400000*%
%TD*%
%TA.AperFunction,SMDPad,CuDef*%
%ADD30R,1.750000X0.700000*%
%TD*%
%TA.AperFunction,SMDPad,CuDef*%
%ADD31R,1.000000X1.450000*%
%TD*%
%TA.AperFunction,SMDPad,CuDef*%
%ADD32R,1.550000X1.000000*%
%TD*%
%TA.AperFunction,SMDPad,CuDef*%
%ADD33R,1.500000X0.800000*%
%TD*%
%TA.AperFunction,SMDPad,CuDef*%
%ADD34R,1.500000X1.300000*%
%TD*%
%TA.AperFunction,SMDPad,CuDef*%
%ADD35R,1.500000X1.500000*%
%TD*%
%TA.AperFunction,SMDPad,CuDef*%
%ADD36R,1.400000X0.800000*%
%TD*%
%TA.AperFunction,SMDPad,CuDef*%
%ADD37R,0.600000X1.450000*%
%TD*%
%TA.AperFunction,SMDPad,CuDef*%
%ADD38R,0.300000X1.450000*%
%TD*%
%TA.AperFunction,ComponentPad*%
%ADD39O,1.000000X2.100000*%
%TD*%
%TA.AperFunction,ComponentPad*%
%ADD40O,1.000000X1.600000*%
%TD*%
%TA.AperFunction,SMDPad,CuDef*%
%ADD41R,2.500000X1.200000*%
%TD*%
%TA.AperFunction,SMDPad,CuDef*%
%ADD42RoundRect,0.150000X-0.256326X-0.468458X0.468458X0.256326X0.256326X0.468458X-0.468458X-0.256326X0*%
%TD*%
%TA.AperFunction,SMDPad,CuDef*%
%ADD43RoundRect,0.140000X-0.021213X0.219203X-0.219203X0.021213X0.021213X-0.219203X0.219203X-0.021213X0*%
%TD*%
%TA.AperFunction,SMDPad,CuDef*%
%ADD44RotRect,0.150000X0.850000X45.000000*%
%TD*%
%TA.AperFunction,SMDPad,CuDef*%
%ADD45RotRect,0.150000X0.850000X315.000000*%
%TD*%
%TA.AperFunction,SMDPad,CuDef*%
%ADD46RotRect,5.800000X5.800000X315.000000*%
%TD*%
%TA.AperFunction,SMDPad,CuDef*%
%ADD47RoundRect,0.150000X0.150000X-0.650000X0.150000X0.650000X-0.150000X0.650000X-0.150000X-0.650000X0*%
%TD*%
%TA.AperFunction,SMDPad,CuDef*%
%ADD48RoundRect,0.140000X0.170000X-0.140000X0.170000X0.140000X-0.170000X0.140000X-0.170000X-0.140000X0*%
%TD*%
%TA.AperFunction,SMDPad,CuDef*%
%ADD49R,3.000000X1.250000*%
%TD*%
%TA.AperFunction,ComponentPad*%
%ADD50C,3.000000*%
%TD*%
%TA.AperFunction,SMDPad,CuDef*%
%ADD51RoundRect,0.237500X-0.380070X0.044194X0.044194X-0.380070X0.380070X-0.044194X-0.044194X0.380070X0*%
%TD*%
%TA.AperFunction,SMDPad,CuDef*%
%ADD52RoundRect,0.237500X-0.237500X0.250000X-0.237500X-0.250000X0.237500X-0.250000X0.237500X0.250000X0*%
%TD*%
%TA.AperFunction,ComponentPad*%
%ADD53R,1.600000X2.400000*%
%TD*%
%TA.AperFunction,ComponentPad*%
%ADD54O,1.600000X2.400000*%
%TD*%
%TA.AperFunction,SMDPad,CuDef*%
%ADD55R,0.760000X2.650000*%
%TD*%
%TA.AperFunction,SMDPad,CuDef*%
%ADD56RoundRect,0.140000X0.140000X0.170000X-0.140000X0.170000X-0.140000X-0.170000X0.140000X-0.170000X0*%
%TD*%
%TA.AperFunction,SMDPad,CuDef*%
%ADD57RotRect,0.900000X0.800000X45.000000*%
%TD*%
%TA.AperFunction,ComponentPad*%
%ADD58R,4.400000X1.800000*%
%TD*%
%TA.AperFunction,ComponentPad*%
%ADD59O,4.000000X1.800000*%
%TD*%
%TA.AperFunction,ComponentPad*%
%ADD60O,1.800000X4.000000*%
%TD*%
%TA.AperFunction,SMDPad,CuDef*%
%ADD61RoundRect,0.135000X0.035355X-0.226274X0.226274X-0.035355X-0.035355X0.226274X-0.226274X0.035355X0*%
%TD*%
%TA.AperFunction,SMDPad,CuDef*%
%ADD62RoundRect,0.140000X-0.140000X-0.170000X0.140000X-0.170000X0.140000X0.170000X-0.140000X0.170000X0*%
%TD*%
%TA.AperFunction,ViaPad*%
%ADD63C,0.600000*%
%TD*%
%TA.AperFunction,ViaPad*%
%ADD64C,1.000000*%
%TD*%
%TA.AperFunction,ViaPad*%
%ADD65C,3.000000*%
%TD*%
%TA.AperFunction,Conductor*%
%ADD66C,0.500000*%
%TD*%
%TA.AperFunction,Conductor*%
%ADD67C,0.750000*%
%TD*%
%TA.AperFunction,Conductor*%
%ADD68C,0.200000*%
%TD*%
%TA.AperFunction,Conductor*%
%ADD69C,1.000000*%
%TD*%
%TA.AperFunction,Conductor*%
%ADD70C,0.150000*%
%TD*%
%TA.AperFunction,Conductor*%
%ADD71C,0.180000*%
%TD*%
%TA.AperFunction,Conductor*%
%ADD72C,2.000000*%
%TD*%
G04 APERTURE END LIST*
D10*
%TO.P,C19,1*%
%TO.N,GND*%
X37922500Y-18419999D03*
%TO.P,C19,2*%
%TO.N,Net-(IC1-VREF)*%
X36197500Y-18419999D03*
%TD*%
D11*
%TO.P,C2,1*%
%TO.N,Net-(U1-VI)*%
X52737500Y-9800000D03*
%TO.P,C2,2*%
%TO.N,GND*%
X54462500Y-9800000D03*
%TD*%
D12*
%TO.P,TP8,1,1*%
%TO.N,GND*%
X80200000Y-5600000D03*
%TD*%
D13*
%TO.P,C20,1*%
%TO.N,GND*%
X18951922Y-16693954D03*
%TO.P,C20,2*%
%TO.N,Net-(IC1-EXCLK_I)*%
X19630744Y-17372776D03*
%TD*%
D14*
%TO.P,U2,1,GND*%
%TO.N,GND*%
X59900000Y-5350000D03*
%TO.P,U2,2,VO*%
%TO.N,Net-(U2-VO)*%
X62200000Y-5350000D03*
D15*
X62200000Y950000D03*
D14*
%TO.P,U2,3,VI*%
%TO.N,Net-(U2-VI)*%
X64500000Y-5350000D03*
%TD*%
D16*
%TO.P,H4,1,1*%
%TO.N,GND*%
X77975000Y0D03*
X78568109Y1431891D03*
X78568109Y-1431891D03*
X80000000Y2025000D03*
D17*
X80000000Y0D03*
D16*
X80000000Y-2025000D03*
X81431891Y1431891D03*
X81431891Y-1431891D03*
X82025000Y0D03*
%TD*%
D18*
%TO.P,U6,1,VIN*%
%TO.N,+3V3*%
X2950000Y-4750000D03*
%TO.P,U6,2,GND*%
%TO.N,GND*%
X2300000Y-4750000D03*
%TO.P,U6,3,EN*%
%TO.N,+3V3*%
X1650000Y-4750000D03*
%TO.P,U6,4,NC*%
%TO.N,unconnected-(U6-NC-Pad4)*%
X1650000Y-6650000D03*
%TO.P,U6,5,VOUT*%
%TO.N,+2V8*%
X2950000Y-6650000D03*
%TD*%
D19*
%TO.P,C1,1*%
%TO.N,Net-(U1-VI)*%
X52762500Y-11600000D03*
%TO.P,C1,2*%
%TO.N,GND*%
X54837500Y-11600000D03*
%TD*%
D20*
%TO.P,S1,1*%
%TO.N,GND*%
X34850000Y-15000000D03*
%TO.P,S1,2C*%
%TO.N,Net-(IC1-BOOT_SEL0_PC00)*%
X36600000Y-12700000D03*
%TO.P,S1,3*%
%TO.N,+3V3*%
X38350000Y-15000000D03*
%TD*%
D12*
%TO.P,TP6,1,1*%
%TO.N,Net-(U3-VO)*%
X77600000Y-15200000D03*
%TD*%
D21*
%TO.P,C37,1*%
%TO.N,+0V8*%
X21529411Y-20209411D03*
%TO.P,C37,2*%
%TO.N,GND*%
X20850589Y-19530589D03*
%TD*%
D22*
%TO.P,R2,1*%
%TO.N,+5V*%
X53600000Y-15712500D03*
%TO.P,R2,2*%
%TO.N,Net-(U1-VI)*%
X53600000Y-13887500D03*
%TD*%
%TO.P,R3,1*%
%TO.N,+3V3*%
X50000000Y-15712500D03*
%TO.P,R3,2*%
%TO.N,Net-(U1-VO)*%
X50000000Y-13887500D03*
%TD*%
D16*
%TO.P,H3,1,1*%
%TO.N,GND*%
X77975000Y-50000000D03*
X78568109Y-48568109D03*
X78568109Y-51431891D03*
X80000000Y-47975000D03*
D17*
X80000000Y-50000000D03*
D16*
X80000000Y-52025000D03*
X81431891Y-48568109D03*
X81431891Y-51431891D03*
X82025000Y-50000000D03*
%TD*%
D23*
%TO.P,J12,1,Pin_1*%
%TO.N,GND*%
X35010000Y-35590000D03*
D24*
%TO.P,J12,2,Pin_2*%
%TO.N,/HPOUTL*%
X37550000Y-35590000D03*
%TO.P,J12,3,Pin_3*%
%TO.N,/MICLP*%
X40090000Y-35590000D03*
%TO.P,J12,4,Pin_4*%
%TO.N,GND*%
X42630000Y-35590000D03*
%TD*%
D25*
%TO.P,R27,1*%
%TO.N,GND*%
X7512500Y-20300000D03*
%TO.P,R27,2*%
%TO.N,Net-(J9-Pin_7)*%
X5687500Y-20300000D03*
%TD*%
%TO.P,R28,1*%
%TO.N,GND*%
X7412500Y-18300000D03*
%TO.P,R28,2*%
%TO.N,Net-(J9-Pin_11)*%
X5587500Y-18300000D03*
%TD*%
D26*
%TO.P,C16,1*%
%TO.N,Net-(U3-VO)*%
X75437500Y-11600000D03*
%TO.P,C16,2*%
%TO.N,GND*%
X73362500Y-11600000D03*
%TD*%
D27*
%TO.P,R18,1*%
%TO.N,+3V3*%
X55587500Y-18987500D03*
%TO.P,R18,2*%
%TO.N,/MMC0_CLK*%
X57412500Y-18987500D03*
%TD*%
D11*
%TO.P,C29,1*%
%TO.N,+2V8*%
X6037500Y-8000000D03*
%TO.P,C29,2*%
%TO.N,GND*%
X7762500Y-8000000D03*
%TD*%
D13*
%TO.P,C21,1*%
%TO.N,Net-(IC1-EXCLK_O)*%
X21855224Y-13612939D03*
%TO.P,C21,2*%
%TO.N,GND*%
X22534046Y-14291761D03*
%TD*%
%TO.P,C38,1*%
%TO.N,+3V3*%
X31100589Y-28500589D03*
%TO.P,C38,2*%
%TO.N,GND*%
X31779411Y-29179411D03*
%TD*%
D23*
%TO.P,J7,1,Pin_1*%
%TO.N,/MDCK*%
X43825000Y1175000D03*
D24*
%TO.P,J7,2,Pin_2*%
%TO.N,/MDIO*%
X43825000Y-1365000D03*
%TO.P,J7,3,Pin_3*%
%TO.N,/RXD0*%
X41285000Y1175000D03*
%TO.P,J7,4,Pin_4*%
%TO.N,/RXDV*%
X41285000Y-1365000D03*
%TO.P,J7,5,Pin_5*%
%TO.N,/TXCLK*%
X38745000Y1175000D03*
%TO.P,J7,6,Pin_6*%
%TO.N,/RXD1*%
X38745000Y-1365000D03*
%TO.P,J7,7,Pin_7*%
%TO.N,/TXD0*%
X36205000Y1175000D03*
%TO.P,J7,8,Pin_8*%
%TO.N,/PHYCLK*%
X36205000Y-1365000D03*
%TO.P,J7,9,Pin_9*%
%TO.N,/TXEN*%
X33665000Y1175000D03*
%TO.P,J7,10,Pin_10*%
%TO.N,/TXD1*%
X33665000Y-1365000D03*
%TO.P,J7,11,Pin_11*%
%TO.N,/PB27*%
X31125000Y1175000D03*
%TO.P,J7,12,Pin_12*%
%TO.N,GND*%
X31125000Y-1365000D03*
%TO.P,J7,13,Pin_13*%
%TO.N,+3V3*%
X28585000Y1175000D03*
%TO.P,J7,14,Pin_14*%
%TO.N,+5V*%
X28585000Y-1365000D03*
%TD*%
D27*
%TO.P,R17,1*%
%TO.N,+3V3*%
X63537500Y-18987500D03*
%TO.P,R17,2*%
%TO.N,/MMC0_CMD*%
X65362500Y-18987500D03*
%TD*%
D10*
%TO.P,C18,1*%
%TO.N,Net-(U3-VO)*%
X75062500Y-8000000D03*
%TO.P,C18,2*%
%TO.N,GND*%
X73337500Y-8000000D03*
%TD*%
D27*
%TO.P,R13,1*%
%TO.N,Net-(U4-VCC)*%
X66217500Y-36480000D03*
%TO.P,R13,2*%
%TO.N,Net-(U4-IO2)*%
X68042500Y-36480000D03*
%TD*%
D22*
%TO.P,R8,1*%
%TO.N,+3V3*%
X70600000Y-15712500D03*
%TO.P,R8,2*%
%TO.N,Net-(U3-VI)*%
X70600000Y-13887500D03*
%TD*%
D28*
%TO.P,C25,1*%
%TO.N,+1V8*%
X23960589Y-17739411D03*
%TO.P,C25,2*%
%TO.N,GND*%
X24639411Y-17060589D03*
%TD*%
D29*
%TO.P,S2,1*%
%TO.N,Net-(IC1-PPRST_)*%
X34682500Y-8280000D03*
%TO.P,S2,2*%
%TO.N,GND*%
X38832500Y-8280000D03*
%TD*%
D21*
%TO.P,C30,1*%
%TO.N,+1V8*%
X23039411Y-18889411D03*
%TO.P,C30,2*%
%TO.N,GND*%
X22360589Y-18210589D03*
%TD*%
D27*
%TO.P,R15,1*%
%TO.N,+3V3*%
X70662500Y-18987500D03*
%TO.P,R15,2*%
%TO.N,/MMC0_D2*%
X72487500Y-18987500D03*
%TD*%
D30*
%TO.P,J2,1,DAT2*%
%TO.N,/MMC0_D2*%
X81110000Y-24645000D03*
%TO.P,J2,2,DAT3/CD*%
%TO.N,/MMC0_D3*%
X81110000Y-25745000D03*
%TO.P,J2,3,CMD*%
%TO.N,/MMC0_CMD*%
X81110000Y-26845000D03*
%TO.P,J2,4,VDD*%
%TO.N,+3V3*%
X81110000Y-27945000D03*
%TO.P,J2,5,CLK*%
%TO.N,/MMC0_CLK*%
X81110000Y-29045000D03*
%TO.P,J2,6,VSS*%
%TO.N,GND*%
X81110000Y-30145000D03*
%TO.P,J2,7,DAT0*%
%TO.N,/MMC0_D0*%
X81110000Y-31245000D03*
%TO.P,J2,8,DAT1*%
%TO.N,/MMC0_D1*%
X81110000Y-32345000D03*
D31*
%TO.P,J2,9,SHIELD*%
%TO.N,GND*%
X71885000Y-33470000D03*
D32*
%TO.P,J2,10*%
%TO.N,N/C*%
X70310000Y-22245000D03*
D33*
%TO.P,J2,11*%
X73385000Y-33795000D03*
D34*
X80985000Y-33545000D03*
D35*
X80985000Y-22195000D03*
D36*
X72735000Y-21845000D03*
%TD*%
D37*
%TO.P,J1,A1,GND*%
%TO.N,GND*%
X10892500Y-44822500D03*
%TO.P,J1,A4,VBUS*%
%TO.N,+5V*%
X11692500Y-44822500D03*
D38*
%TO.P,J1,A5,CC1*%
%TO.N,Net-(J1-CC1)*%
X12892500Y-44822500D03*
%TO.P,J1,A6,D+*%
%TO.N,/USB_D+*%
X13892500Y-44822500D03*
%TO.P,J1,A7,D-*%
%TO.N,/USB_D-*%
X14392500Y-44822500D03*
%TO.P,J1,A8,SBU1*%
%TO.N,/UART0_RXD*%
X15392500Y-44822500D03*
D37*
%TO.P,J1,A9,VBUS*%
%TO.N,+5V*%
X16592500Y-44822500D03*
%TO.P,J1,A12,GND*%
%TO.N,GND*%
X17392500Y-44822500D03*
%TO.P,J1,B1,GND*%
X17392500Y-44822500D03*
%TO.P,J1,B4,VBUS*%
%TO.N,+5V*%
X16592500Y-44822500D03*
D38*
%TO.P,J1,B5,CC2*%
%TO.N,Net-(J1-CC2)*%
X15892500Y-44822500D03*
%TO.P,J1,B6,D+*%
%TO.N,/USB_D+*%
X14892500Y-44822500D03*
%TO.P,J1,B7,D-*%
%TO.N,/USB_D-*%
X13392500Y-44822500D03*
%TO.P,J1,B8,SBU2*%
%TO.N,/UART0_TXD*%
X12392500Y-44822500D03*
D37*
%TO.P,J1,B9,VBUS*%
%TO.N,+5V*%
X11692500Y-44822500D03*
%TO.P,J1,B12,GND*%
%TO.N,GND*%
X10892500Y-44822500D03*
D39*
%TO.P,J1,S1,SHIELD*%
%TO.N,Net-(J1-SHIELD)*%
X9822500Y-45737500D03*
D40*
X9822500Y-49917500D03*
D39*
X18462500Y-45737500D03*
D40*
X18462500Y-49917500D03*
%TD*%
D11*
%TO.P,C15,1*%
%TO.N,Net-(U3-VI)*%
X69737500Y-8000000D03*
%TO.P,C15,2*%
%TO.N,GND*%
X71462500Y-8000000D03*
%TD*%
D41*
%TO.P,J10,R1*%
%TO.N,/HPOUTL*%
X36780000Y-46895000D03*
%TO.P,J10,R2*%
%TO.N,GND*%
X36780000Y-49895000D03*
%TO.P,J10,S*%
%TO.N,/MICLP*%
X43280000Y-41795000D03*
%TO.P,J10,T*%
%TO.N,/HPOUTL*%
X36780000Y-42895000D03*
%TD*%
D10*
%TO.P,C5,1*%
%TO.N,Net-(U1-VO)*%
X50862500Y-9800000D03*
%TO.P,C5,2*%
%TO.N,GND*%
X49137500Y-9800000D03*
%TD*%
D12*
%TO.P,TP1,1,1*%
%TO.N,Net-(U1-VI)*%
X56800000Y-14800000D03*
%TD*%
D42*
%TO.P,D1,1,A1*%
%TO.N,/USB_D-*%
X16119581Y-39736917D03*
%TO.P,D1,2,A2*%
%TO.N,/USB_D+*%
X17463083Y-41080419D03*
%TO.P,D1,3,common*%
%TO.N,GND*%
X18400000Y-38800000D03*
%TD*%
D10*
%TO.P,C12,1*%
%TO.N,Net-(U2-VO)*%
X61262500Y-8000000D03*
%TO.P,C12,2*%
%TO.N,GND*%
X59537500Y-8000000D03*
%TD*%
D25*
%TO.P,R19,1*%
%TO.N,+3V3*%
X53862500Y-18987500D03*
%TO.P,R19,2*%
%TO.N,/MMC0_D0*%
X52037500Y-18987500D03*
%TD*%
D43*
%TO.P,C43,1*%
%TO.N,+0V8*%
X23689411Y-31760589D03*
%TO.P,C43,2*%
%TO.N,GND*%
X23010589Y-32439411D03*
%TD*%
%TO.P,C44,1*%
%TO.N,+0V8*%
X19789411Y-28610589D03*
%TO.P,C44,2*%
%TO.N,GND*%
X19110589Y-29289411D03*
%TD*%
D44*
%TO.P,IC1,1,PWM0_SSI1_DT_PB17*%
%TO.N,/PB17*%
X25151992Y-18954757D03*
%TO.P,IC1,2,PWM1_SSI1_DR_PB18*%
%TO.N,/PB18*%
X24904505Y-19202245D03*
%TO.P,IC1,3,VDDIO_OSC*%
%TO.N,+1V8*%
X24657017Y-19449732D03*
%TO.P,IC1,4,EXCLK_O*%
%TO.N,Net-(IC1-EXCLK_O)*%
X24409530Y-19697220D03*
%TO.P,IC1,5,EXCLK_I*%
%TO.N,Net-(IC1-EXCLK_I)*%
X24162043Y-19944707D03*
%TO.P,IC1,6,PLL_VDDHV*%
%TO.N,+1V8*%
X23914555Y-20192194D03*
%TO.P,IC1,7,PPRST_*%
%TO.N,Net-(IC1-PPRST_)*%
X23667068Y-20439682D03*
%TO.P,IC1,8,EFUSE_AVD*%
%TO.N,GND*%
X23419581Y-20687169D03*
%TO.P,IC1,9,VDDIO0*%
%TO.N,+1V8*%
X23172093Y-20934656D03*
%TO.P,IC1,10,VDD_1*%
%TO.N,+0V8*%
X22924606Y-21182144D03*
%TO.P,IC1,11,SA2_PA18*%
%TO.N,/CAM_PE*%
X22677119Y-21429631D03*
%TO.P,IC1,12,SD7_SMB0_SCK_PA13*%
%TO.N,/I2C0_SCK*%
X22429631Y-21677119D03*
%TO.P,IC1,13,SD6_SMB0_SDA_PA12*%
%TO.N,/I2C0_SDA*%
X22182144Y-21924606D03*
%TO.P,IC1,14,RD_DVP_VSYNC_SMB1_SCK_MSC1_CMD_PA17*%
%TO.N,/PA17*%
X21934656Y-22172093D03*
%TO.P,IC1,15,CS2_DVP_HSYNC_SMB1_SDA_MSC1_CLK_PA16*%
%TO.N,/PA16*%
X21687169Y-22419581D03*
%TO.P,IC1,16,SA1_DVP_MCLK_PA15*%
%TO.N,/PA15*%
X21439682Y-22667068D03*
%TO.P,IC1,17,SA0_DVP_PCLK_PWM0_PA14*%
%TO.N,/PA14*%
X21192194Y-22914555D03*
%TO.P,IC1,18,SD5_DVP_D11_UART2_RXD_MSC1_D3_PA11*%
%TO.N,/PA11*%
X20944707Y-23162043D03*
%TO.P,IC1,19,SD4_DVP_D10_UART2_TXD_MSC1_D2_PA10*%
%TO.N,/PA10*%
X20697220Y-23409530D03*
%TO.P,IC1,20,SD3_DVP_D9_UART2_RTS_MSC1_D1_PA09*%
%TO.N,/PA09*%
X20449732Y-23657017D03*
%TO.P,IC1,21,SD2_DVP_D8_UART2_CTS_MSC1_D0_PA08*%
%TO.N,/PA08*%
X20202245Y-23904505D03*
%TO.P,IC1,22,SD1_DVP_D7_UART1_RXD_PA07*%
%TO.N,/PA07*%
X19954757Y-24151992D03*
D45*
%TO.P,IC1,23,SD0_DVP6_UART1_TXD_PA06*%
%TO.N,/PA06*%
X19954757Y-25248008D03*
%TO.P,IC1,24,MIPI_DATAN0_DVP_D5*%
%TO.N,/MIPI_0_N*%
X20202245Y-25495495D03*
%TO.P,IC1,25,MIPI_DATAP0_DVP_D4*%
%TO.N,/MIPI_0_P*%
X20449732Y-25742983D03*
%TO.P,IC1,26,MIPI_CLKN_DVP_D3*%
%TO.N,/MIPI_CLK_N*%
X20697220Y-25990470D03*
%TO.P,IC1,27,MIPI_CLKP_DVP_D2*%
%TO.N,/MIPI_CLK_P*%
X20944707Y-26237957D03*
%TO.P,IC1,28,MIPI_DATAN1_DVP_D1*%
%TO.N,/MIPI_1_N*%
X21192194Y-26485445D03*
%TO.P,IC1,29,MIPI_DATAP1_DVP_D0*%
%TO.N,/MIPI_1_P*%
X21439682Y-26732932D03*
%TO.P,IC1,30,MIPI_AVD08*%
%TO.N,+0V8*%
X21687169Y-26980419D03*
%TO.P,IC1,31,MIPI_AVD18*%
%TO.N,+1V8*%
X21934656Y-27227907D03*
%TO.P,IC1,32,ADC_AUX0*%
%TO.N,/AUX0*%
X22182144Y-27475394D03*
%TO.P,IC1,33,ADC_VREF*%
%TO.N,+1V8*%
X22429631Y-27722881D03*
%TO.P,IC1,34,ADC_AVDD*%
X22677119Y-27970369D03*
%TO.P,IC1,35,USB0PN*%
%TO.N,/USB_D-*%
X22924606Y-28217856D03*
%TO.P,IC1,36,USB0PP*%
%TO.N,/USB_D+*%
X23172093Y-28465344D03*
%TO.P,IC1,37,USB_AVD33*%
%TO.N,+3V3*%
X23419581Y-28712831D03*
%TO.P,IC1,38,USB_AVD18*%
%TO.N,+1V8*%
X23667068Y-28960318D03*
%TO.P,IC1,39,VDD_2*%
%TO.N,+0V8*%
X23914555Y-29207806D03*
%TO.P,IC1,40,VDDIO2*%
%TO.N,+3V3*%
X24162043Y-29455293D03*
%TO.P,IC1,41,MICLP*%
%TO.N,/MICLP*%
X24409530Y-29702780D03*
%TO.P,IC1,42,VCM*%
%TO.N,Net-(IC1-VCM)*%
X24657017Y-29950268D03*
%TO.P,IC1,43,CODEC_AVDD*%
%TO.N,+1V8*%
X24904505Y-30197755D03*
%TO.P,IC1,44,HPOUTL*%
%TO.N,/HPOUTL*%
X25151992Y-30445243D03*
D44*
%TO.P,IC1,45,SFC_CE0_PA28*%
%TO.N,/NOR_CE*%
X26248008Y-30445243D03*
%TO.P,IC1,46,SFC_DR_PA24*%
%TO.N,/NOR_DR*%
X26495495Y-30197755D03*
%TO.P,IC1,47,SFC_DT_PA23*%
%TO.N,/NOR_DT*%
X26742983Y-29950268D03*
%TO.P,IC1,48,SFC_CLK_PA27*%
%TO.N,/NOR_CK*%
X26990470Y-29702780D03*
%TO.P,IC1,49,MSC0_D1_SSI_SLV_DR_PB01*%
%TO.N,/MMC0_D1*%
X27237957Y-29455293D03*
%TO.P,IC1,50,MSC0_D0_SSI_SLV_DT_PB00*%
%TO.N,/MMC0_D0*%
X27485445Y-29207806D03*
%TO.P,IC1,51,MSC0_CLK_SSI_SLV_CLK_PB04*%
%TO.N,/MMC0_CLK*%
X27732932Y-28960318D03*
%TO.P,IC1,52,MSC0_CMD_SSI_SLV_CE0_PB05*%
%TO.N,/MMC0_CMD*%
X27980419Y-28712831D03*
%TO.P,IC1,53,MSC0_D3_PB03*%
%TO.N,/MMC0_D3*%
X28227907Y-28465344D03*
%TO.P,IC1,54,MSC0_D2_PB02*%
%TO.N,/MMC0_D2*%
X28475394Y-28217856D03*
%TO.P,IC1,55,VDD_3*%
%TO.N,+0V8*%
X28722881Y-27970369D03*
%TO.P,IC1,56,VDDIO1_1*%
%TO.N,+3V3*%
X28970369Y-27722881D03*
%TO.P,IC1,57,GMAC_MDIO_MSC1_D1_SLCD_D5_PB11*%
%TO.N,/MDIO*%
X29217856Y-27475394D03*
%TO.P,IC1,58,GMAC_MDCK_MSC1_D0_I2S_SDTO_SLCD_D4_PB10*%
%TO.N,/MDCK*%
X29465344Y-27227907D03*
%TO.P,IC1,59,GMAC_RXDV_MSC1_CMD_I2S_SDTI_SLCD_D3_PB09*%
%TO.N,/RXDV*%
X29712831Y-26980419D03*
%TO.P,IC1,60,GMAC_RXD0_I2S_DAC_LRCK_SLCD_WR_PB15/_SFC_CE1_PA26*%
%TO.N,/RXD0*%
X29960318Y-26732932D03*
%TO.P,IC1,61,GMAC_RXD1_SLCD_TE_PB16/_SFC_GPC_PA25*%
%TO.N,/RXD1*%
X30207806Y-26485445D03*
%TO.P,IC1,62,GMAC_TXCLK_SLCD_D0_PB06*%
%TO.N,/TXCLK*%
X30455293Y-26237957D03*
%TO.P,IC1,63,GMAC_PHY_CLK_SLCD_D1_PB07*%
%TO.N,/PHYCLK*%
X30702780Y-25990470D03*
%TO.P,IC1,64,GMAC_TXD0_MSC1_D2_I2S_ADC_LRCK_SLCD_D6_PB13*%
%TO.N,/TXD0*%
X30950268Y-25742983D03*
%TO.P,IC1,65,GMAC_TXD1_MSC1_D3_I2S_DAC_MCLK_SLCD_D7_PB14*%
%TO.N,/TXD1*%
X31197755Y-25495495D03*
%TO.P,IC1,66,GMAC_TXEN_MSC1_CLK_I2S_ADC_MCLK_SLCD_D2_PB08*%
%TO.N,/TXEN*%
X31445243Y-25248008D03*
D45*
%TO.P,IC1,67,BOOT_SEL0_PC00*%
%TO.N,Net-(IC1-BOOT_SEL0_PC00)*%
X31445243Y-24151992D03*
%TO.P,IC1,68,UART0_RTS_I2S_DAC_BCLK_SLCD_DC_PB21*%
%TO.N,/UART0_RTS*%
X31197755Y-23904505D03*
%TO.P,IC1,69,UART0_CTS_I2S_ADC_BCLK_SLCD_CS_PB20*%
%TO.N,/UART0_CTS*%
X30950268Y-23657017D03*
%TO.P,IC1,70,UART0_TXD_TDO_SLCD_RDY_PB22*%
%TO.N,/UART0_TXD*%
X30702780Y-23409530D03*
%TO.P,IC1,71,UART0_RXD_TDI_PB19*%
%TO.N,/UART0_RXD*%
X30455293Y-23162043D03*
%TO.P,IC1,72,VDD_4*%
%TO.N,+0V8*%
X30207806Y-22914555D03*
%TO.P,IC1,73,UART1_RXD_TMS_PB24*%
%TO.N,/UART_RX*%
X29960318Y-22667068D03*
%TO.P,IC1,74,UART1_TXD_TCK_PB23*%
%TO.N,/UART_TX*%
X29712831Y-22419581D03*
%TO.P,IC1,75,DDRVDD*%
%TO.N,+1V8*%
X29465344Y-22172093D03*
%TO.P,IC1,76,VDDMEM*%
X29217856Y-21924606D03*
%TO.P,IC1,77,VREF*%
%TO.N,Net-(IC1-VREF)*%
X28970369Y-21677119D03*
%TO.P,IC1,78,DDRPLL_VCCD*%
%TO.N,+0V8*%
X28722881Y-21429631D03*
%TO.P,IC1,79,DDRPLL_VCCA*%
%TO.N,+1V8*%
X28475394Y-21182144D03*
%TO.P,IC1,80,GPIO_PB31*%
%TO.N,/PB31*%
X28227907Y-20934656D03*
%TO.P,IC1,81,SSI1_CE0_DMIC_DAT1_PB30*%
%TO.N,/PB30*%
X27980419Y-20687169D03*
%TO.P,IC1,82,SSI1_CLK_DMIC_DAT0_PB29*%
%TO.N,/PB29*%
X27732932Y-20439682D03*
%TO.P,IC1,83,VDD_5*%
%TO.N,+0V8*%
X27485445Y-20192194D03*
%TO.P,IC1,84,VDDIO1_2*%
%TO.N,+3V3*%
X27237957Y-19944707D03*
%TO.P,IC1,85,PWM3_SSI1_DR_DMIC_CLK_PB28*%
%TO.N,/PB28*%
X26990470Y-19697220D03*
%TO.P,IC1,86,PWM2_SSI1_DT_DRV_VBUS_PB27*%
%TO.N,/PB27*%
X26742983Y-19449732D03*
%TO.P,IC1,87,SMB1_SCK_SSI1_CLK_PB26*%
%TO.N,/PB26*%
X26495495Y-19202245D03*
%TO.P,IC1,88,SMB1_SDA_SSI1_CE0_PB25*%
%TO.N,/PB25*%
X26248008Y-18954757D03*
D46*
%TO.P,IC1,89,EP*%
%TO.N,GND*%
X25700000Y-24700000D03*
%TD*%
D25*
%TO.P,R16,1*%
%TO.N,+3V3*%
X68912500Y-18987500D03*
%TO.P,R16,2*%
%TO.N,/MMC0_D3*%
X67087500Y-18987500D03*
%TD*%
D23*
%TO.P,J6,1,Pin_1*%
%TO.N,/UART0_RTS*%
X24025000Y1175000D03*
D24*
%TO.P,J6,2,Pin_2*%
%TO.N,/UART0_CTS*%
X24025000Y-1365000D03*
%TO.P,J6,3,Pin_3*%
%TO.N,/UART0_TXD*%
X21485000Y1175000D03*
%TO.P,J6,4,Pin_4*%
%TO.N,/UART0_RXD*%
X21485000Y-1365000D03*
%TO.P,J6,5,Pin_5*%
%TO.N,/PB30*%
X18945000Y1175000D03*
%TO.P,J6,6,Pin_6*%
%TO.N,/PB31*%
X18945000Y-1365000D03*
%TO.P,J6,7,Pin_7*%
%TO.N,/PB27*%
X16405000Y1175000D03*
%TO.P,J6,8,Pin_8*%
%TO.N,/PB28*%
X16405000Y-1365000D03*
%TO.P,J6,9,Pin_9*%
%TO.N,/PB25*%
X13865000Y1175000D03*
%TO.P,J6,10,Pin_10*%
%TO.N,/PB26*%
X13865000Y-1365000D03*
%TO.P,J6,11,Pin_11*%
%TO.N,/AUX0*%
X11325000Y1175000D03*
%TO.P,J6,12,Pin_12*%
%TO.N,GND*%
X11325000Y-1365000D03*
%TO.P,J6,13,Pin_13*%
%TO.N,+3V3*%
X8785000Y1175000D03*
%TO.P,J6,14,Pin_14*%
%TO.N,+5V*%
X8785000Y-1365000D03*
%TD*%
D22*
%TO.P,R1,1*%
%TO.N,GND*%
X5050000Y-48622500D03*
%TO.P,R1,2*%
%TO.N,Net-(J3-Shield)*%
X5050000Y-46797500D03*
%TD*%
%TO.P,R12,1*%
%TO.N,/NOR_CE*%
X75200000Y-49232500D03*
%TO.P,R12,2*%
%TO.N,Net-(U4-VCC)*%
X75200000Y-47407500D03*
%TD*%
D14*
%TO.P,U3,1,VI*%
%TO.N,Net-(U3-VI)*%
X70100000Y-5350000D03*
%TO.P,U3,2,GND*%
%TO.N,GND*%
X72400000Y-5350000D03*
D15*
X72400000Y950000D03*
D14*
%TO.P,U3,3,VO*%
%TO.N,Net-(U3-VO)*%
X74700000Y-5350000D03*
%TD*%
D25*
%TO.P,R11,1*%
%TO.N,GND*%
X37972500Y-20020000D03*
%TO.P,R11,2*%
%TO.N,Net-(IC1-VREF)*%
X36147500Y-20020000D03*
%TD*%
D16*
%TO.P,H1,1,1*%
%TO.N,GND*%
X-2025000Y-50000000D03*
X-1431891Y-48568109D03*
X-1431891Y-51431891D03*
X0Y-47975000D03*
D17*
X0Y-50000000D03*
D16*
X0Y-52025000D03*
X1431891Y-48568109D03*
X1431891Y-51431891D03*
X2025000Y-50000000D03*
%TD*%
D19*
%TO.P,C13,1*%
%TO.N,Net-(U3-VI)*%
X69362500Y-11600000D03*
%TO.P,C13,2*%
%TO.N,GND*%
X71437500Y-11600000D03*
%TD*%
D43*
%TO.P,C39,1*%
%TO.N,+3V3*%
X22109411Y-30450589D03*
%TO.P,C39,2*%
%TO.N,GND*%
X21430589Y-31129411D03*
%TD*%
D12*
%TO.P,TP2,1,1*%
%TO.N,Net-(U1-VO)*%
X45400000Y-10200000D03*
%TD*%
D14*
%TO.P,U1,1,GND*%
%TO.N,GND*%
X49500000Y-5350000D03*
%TO.P,U1,2,VO*%
%TO.N,Net-(U1-VO)*%
X51800000Y-5350000D03*
D15*
X51800000Y950000D03*
D14*
%TO.P,U1,3,VI*%
%TO.N,Net-(U1-VI)*%
X54100000Y-5350000D03*
%TD*%
D11*
%TO.P,C9,1*%
%TO.N,Net-(U2-VI)*%
X63037500Y-8000000D03*
%TO.P,C9,2*%
%TO.N,GND*%
X64762500Y-8000000D03*
%TD*%
D47*
%TO.P,U4,1,~{CS}*%
%TO.N,/NOR_CE*%
X65835000Y-48810000D03*
%TO.P,U4,2,DO(IO1)*%
%TO.N,/NOR_DR*%
X67105000Y-48810000D03*
%TO.P,U4,3,IO2*%
%TO.N,Net-(U4-IO2)*%
X68375000Y-48810000D03*
%TO.P,U4,4,GND*%
%TO.N,GND*%
X69645000Y-48810000D03*
%TO.P,U4,5,DI(IO0)*%
%TO.N,/NOR_DT*%
X69645000Y-41610000D03*
%TO.P,U4,6,CLK*%
%TO.N,/NOR_CK*%
X68375000Y-41610000D03*
%TO.P,U4,7,IO3*%
%TO.N,Net-(U4-IO3)*%
X67105000Y-41610000D03*
%TO.P,U4,8,VCC*%
%TO.N,Net-(U4-VCC)*%
X65835000Y-41610000D03*
%TD*%
D12*
%TO.P,TP7,1,1*%
%TO.N,/I2C0_SDA*%
X1400000Y-19700000D03*
%TD*%
D23*
%TO.P,J5,1,Pin_1*%
%TO.N,/UART_TX*%
X81170000Y-38570000D03*
D24*
%TO.P,J5,2,Pin_2*%
%TO.N,/UART_RX*%
X81170000Y-41110000D03*
%TO.P,J5,3,Pin_3*%
%TO.N,GND*%
X81170000Y-43650000D03*
%TD*%
D11*
%TO.P,C33,1*%
%TO.N,+2V8*%
X6037500Y-10800000D03*
%TO.P,C33,2*%
%TO.N,GND*%
X7762500Y-10800000D03*
%TD*%
D23*
%TO.P,J4,1,Pin_1*%
%TO.N,+2V8*%
X11525000Y-9775000D03*
D24*
%TO.P,J4,2,Pin_2*%
%TO.N,+3V3*%
X11525000Y-7235000D03*
%TO.P,J4,3,Pin_3*%
%TO.N,GND*%
X14065000Y-9775000D03*
%TO.P,J4,4,Pin_4*%
%TO.N,+5V*%
X14065000Y-7235000D03*
%TO.P,J4,5,Pin_5*%
%TO.N,/PA06*%
X16605000Y-9775000D03*
%TO.P,J4,6,Pin_6*%
%TO.N,/PA07*%
X16605000Y-7235000D03*
%TO.P,J4,7,Pin_7*%
%TO.N,/PA09*%
X19145000Y-9775000D03*
%TO.P,J4,8,Pin_8*%
%TO.N,/PA08*%
X19145000Y-7235000D03*
%TO.P,J4,9,Pin_9*%
%TO.N,/PA11*%
X21685000Y-9775000D03*
%TO.P,J4,10,Pin_10*%
%TO.N,/PA10*%
X21685000Y-7235000D03*
%TO.P,J4,11,Pin_11*%
%TO.N,/PA16*%
X24225000Y-9775000D03*
%TO.P,J4,12,Pin_12*%
%TO.N,/PA14*%
X24225000Y-7235000D03*
%TO.P,J4,13,Pin_13*%
%TO.N,/PA17*%
X26765000Y-9775000D03*
%TO.P,J4,14,Pin_14*%
%TO.N,/PB29*%
X26765000Y-7235000D03*
%TO.P,J4,15,Pin_15*%
%TO.N,/PB17*%
X29305000Y-9775000D03*
%TO.P,J4,16,Pin_16*%
%TO.N,/PB18*%
X29305000Y-7235000D03*
%TD*%
D23*
%TO.P,J11,1,Pin_1*%
%TO.N,+5V*%
X10890000Y-32910000D03*
D24*
%TO.P,J11,2,Pin_2*%
%TO.N,/USB_D-*%
X10890000Y-35450000D03*
%TO.P,J11,3,Pin_3*%
%TO.N,/USB_D+*%
X10890000Y-37990000D03*
%TO.P,J11,4,Pin_4*%
%TO.N,GND*%
X10890000Y-40530000D03*
%TD*%
D21*
%TO.P,C34,1*%
%TO.N,+1V8*%
X22339411Y-19589411D03*
%TO.P,C34,2*%
%TO.N,GND*%
X21660589Y-18910589D03*
%TD*%
D48*
%TO.P,C23,1*%
%TO.N,+3V3*%
X48500000Y-30870000D03*
%TO.P,C23,2*%
%TO.N,GND*%
X48500000Y-29910000D03*
%TD*%
D49*
%TO.P,J3,1,VBUS*%
%TO.N,+5V*%
X7080000Y-33600000D03*
%TO.P,J3,2,D-*%
%TO.N,/USB_D-*%
X7080000Y-36100000D03*
%TO.P,J3,3,D+*%
%TO.N,/USB_D+*%
X7080000Y-38100000D03*
%TO.P,J3,4,GND*%
%TO.N,GND*%
X7080000Y-40600000D03*
D50*
%TO.P,J3,5,Shield*%
%TO.N,Net-(J3-Shield)*%
X3400000Y-30530000D03*
X3400000Y-43670000D03*
%TD*%
D10*
%TO.P,C11,1*%
%TO.N,Net-(U2-VO)*%
X61262500Y-9800000D03*
%TO.P,C11,2*%
%TO.N,GND*%
X59537500Y-9800000D03*
%TD*%
D22*
%TO.P,R9,1*%
%TO.N,+0V8*%
X74200000Y-15712500D03*
%TO.P,R9,2*%
%TO.N,Net-(U3-VO)*%
X74200000Y-13887500D03*
%TD*%
D28*
%TO.P,C46,1*%
%TO.N,+0V8*%
X31960589Y-21739411D03*
%TO.P,C46,2*%
%TO.N,GND*%
X32639411Y-21060589D03*
%TD*%
%TO.P,C45,1*%
%TO.N,+0V8*%
X28460589Y-18739411D03*
%TO.P,C45,2*%
%TO.N,GND*%
X29139411Y-18060589D03*
%TD*%
D16*
%TO.P,H2,1,1*%
%TO.N,GND*%
X-2025000Y0D03*
X-1431891Y1431891D03*
X-1431891Y-1431891D03*
X0Y2025000D03*
D17*
X0Y0D03*
D16*
X0Y-2025000D03*
X1431891Y1431891D03*
X1431891Y-1431891D03*
X2025000Y0D03*
%TD*%
D11*
%TO.P,C8,1*%
%TO.N,Net-(U2-VI)*%
X63075000Y-9800000D03*
%TO.P,C8,2*%
%TO.N,GND*%
X64800000Y-9800000D03*
%TD*%
D25*
%TO.P,R22,1*%
%TO.N,Net-(U5-IO3)*%
X52612500Y-37990000D03*
%TO.P,R22,2*%
%TO.N,Net-(U5-VCC)*%
X50787500Y-37990000D03*
%TD*%
D51*
%TO.P,C22,1*%
%TO.N,Net-(IC1-VCM)*%
X24890120Y-33940120D03*
%TO.P,C22,2*%
%TO.N,GND*%
X26109880Y-35159880D03*
%TD*%
D10*
%TO.P,C6,1*%
%TO.N,Net-(U1-VO)*%
X50862500Y-8000000D03*
%TO.P,C6,2*%
%TO.N,GND*%
X49137500Y-8000000D03*
%TD*%
D52*
%TO.P,R23,1*%
%TO.N,Net-(U5-VCC)*%
X46750000Y-43117500D03*
%TO.P,R23,2*%
%TO.N,Net-(U5-IO2)*%
X46750000Y-44942500D03*
%TD*%
D22*
%TO.P,R25,1*%
%TO.N,GND*%
X7000000Y-48622500D03*
%TO.P,R25,2*%
%TO.N,Net-(J1-SHIELD)*%
X7000000Y-46797500D03*
%TD*%
%TO.P,R24,1*%
%TO.N,/NOR_CE*%
X46780000Y-49452500D03*
%TO.P,R24,2*%
%TO.N,Net-(U5-VCC)*%
X46780000Y-47627500D03*
%TD*%
D10*
%TO.P,C17,1*%
%TO.N,Net-(U3-VO)*%
X75062500Y-9800000D03*
%TO.P,C17,2*%
%TO.N,GND*%
X73337500Y-9800000D03*
%TD*%
D53*
%TO.P,U5,1,~{CS}*%
%TO.N,/NOR_CE*%
X50600000Y-48440000D03*
D54*
%TO.P,U5,2,DO(IO1)*%
%TO.N,/NOR_DR*%
X53140000Y-48440000D03*
%TO.P,U5,3,IO2*%
%TO.N,Net-(U5-IO2)*%
X55680000Y-48440000D03*
%TO.P,U5,4,GND*%
%TO.N,GND*%
X58220000Y-48440000D03*
%TO.P,U5,5,DI(IO0)*%
%TO.N,/NOR_DT*%
X58220000Y-40820000D03*
%TO.P,U5,6,CLK*%
%TO.N,/NOR_CK*%
X55680000Y-40820000D03*
%TO.P,U5,7,IO3*%
%TO.N,Net-(U5-IO3)*%
X53140000Y-40820000D03*
%TO.P,U5,8,VCC*%
%TO.N,Net-(U5-VCC)*%
X50600000Y-40820000D03*
%TD*%
D13*
%TO.P,C42,1*%
%TO.N,+0V8*%
X30350589Y-29200589D03*
%TO.P,C42,2*%
%TO.N,GND*%
X31029411Y-29879411D03*
%TD*%
D22*
%TO.P,R7,1*%
%TO.N,+1V8*%
X60400000Y-15712500D03*
%TO.P,R7,2*%
%TO.N,Net-(U2-VO)*%
X60400000Y-13887500D03*
%TD*%
D28*
%TO.P,C41,1*%
%TO.N,+0V8*%
X30540589Y-20339411D03*
%TO.P,C41,2*%
%TO.N,GND*%
X31219411Y-19660589D03*
%TD*%
%TO.P,C26,1*%
%TO.N,+1V8*%
X31250589Y-21029411D03*
%TO.P,C26,2*%
%TO.N,GND*%
X31929411Y-20350589D03*
%TD*%
D43*
%TO.P,C32,1*%
%TO.N,+1V8*%
X21339411Y-28810589D03*
%TO.P,C32,2*%
%TO.N,GND*%
X20660589Y-29489411D03*
%TD*%
D55*
%TO.P,SW1,1*%
%TO.N,+3V3*%
X51530000Y-35215000D03*
%TO.P,SW1,2*%
%TO.N,Net-(U5-VCC)*%
X52800000Y-35215000D03*
%TO.P,SW1,3*%
%TO.N,Net-(U4-VCC)*%
X54070000Y-35215000D03*
%TO.P,SW1,4*%
%TO.N,Net-(SW1-Pad4)*%
X54070000Y-29965000D03*
%TO.P,SW1,5*%
X52800000Y-29965000D03*
%TO.P,SW1,6*%
X51530000Y-29965000D03*
%TD*%
D56*
%TO.P,C40,1*%
%TO.N,+3V3*%
X3280000Y-3500000D03*
%TO.P,C40,2*%
%TO.N,GND*%
X2320000Y-3500000D03*
%TD*%
D13*
%TO.P,C31,1*%
%TO.N,+1V8*%
X25010589Y-32160589D03*
%TO.P,C31,2*%
%TO.N,GND*%
X25689411Y-32839411D03*
%TD*%
D25*
%TO.P,R10,1*%
%TO.N,+1V8*%
X37972500Y-21619999D03*
%TO.P,R10,2*%
%TO.N,Net-(IC1-VREF)*%
X36147500Y-21619999D03*
%TD*%
%TO.P,R14,1*%
%TO.N,Net-(U4-IO3)*%
X67082500Y-34840000D03*
%TO.P,R14,2*%
%TO.N,Net-(U4-VCC)*%
X65257500Y-34840000D03*
%TD*%
D19*
%TO.P,C7,1*%
%TO.N,Net-(U2-VI)*%
X63162500Y-11600000D03*
%TO.P,C7,2*%
%TO.N,GND*%
X65237500Y-11600000D03*
%TD*%
D22*
%TO.P,R5,1*%
%TO.N,GND*%
X21170000Y-42072500D03*
%TO.P,R5,2*%
%TO.N,Net-(J1-CC2)*%
X21170000Y-40247500D03*
%TD*%
D43*
%TO.P,C28,1*%
%TO.N,+1V8*%
X22849411Y-31210589D03*
%TO.P,C28,2*%
%TO.N,GND*%
X22170589Y-31889411D03*
%TD*%
D57*
%TO.P,Y1,1,1*%
%TO.N,Net-(IC1-EXCLK_I)*%
X20652514Y-16450000D03*
%TO.P,Y1,2,2*%
%TO.N,GND*%
X21642463Y-15460051D03*
%TO.P,Y1,3,3*%
%TO.N,Net-(IC1-EXCLK_O)*%
X20864646Y-14682234D03*
%TO.P,Y1,4,4*%
%TO.N,GND*%
X19874697Y-15672183D03*
%TD*%
D58*
%TO.P,J8,1*%
%TO.N,+5V*%
X27740000Y-38900000D03*
D59*
%TO.P,J8,2*%
%TO.N,GND*%
X27740000Y-44700000D03*
D60*
%TO.P,J8,3*%
%TO.N,N/C*%
X32540000Y-41900000D03*
%TD*%
D28*
%TO.P,C36,1*%
%TO.N,+3V3*%
X27860589Y-17939411D03*
%TO.P,C36,2*%
%TO.N,GND*%
X28539411Y-17260589D03*
%TD*%
D22*
%TO.P,R6,1*%
%TO.N,+3V3*%
X63800000Y-15712500D03*
%TO.P,R6,2*%
%TO.N,Net-(U2-VI)*%
X63800000Y-13887500D03*
%TD*%
D25*
%TO.P,R26,1*%
%TO.N,/PA15*%
X7412500Y-16800000D03*
%TO.P,R26,2*%
%TO.N,Net-(J9-Pin_14)*%
X5587500Y-16800000D03*
%TD*%
D11*
%TO.P,C14,1*%
%TO.N,Net-(U3-VI)*%
X69737500Y-9800000D03*
%TO.P,C14,2*%
%TO.N,GND*%
X71462500Y-9800000D03*
%TD*%
D61*
%TO.P,R21,1*%
%TO.N,Net-(IC1-EXCLK_I)*%
X21730852Y-17280852D03*
%TO.P,R21,2*%
%TO.N,Net-(IC1-EXCLK_O)*%
X22452100Y-16559604D03*
%TD*%
D11*
%TO.P,C3,1*%
%TO.N,Net-(U1-VI)*%
X52737500Y-8000000D03*
%TO.P,C3,2*%
%TO.N,GND*%
X54462500Y-8000000D03*
%TD*%
D27*
%TO.P,R20,1*%
%TO.N,+3V3*%
X48437500Y-18987500D03*
%TO.P,R20,2*%
%TO.N,/MMC0_D1*%
X50262500Y-18987500D03*
%TD*%
D12*
%TO.P,TP4,1,1*%
%TO.N,Net-(U2-VO)*%
X57000000Y-2800000D03*
%TD*%
D52*
%TO.P,R4,1*%
%TO.N,GND*%
X13530000Y-40437500D03*
%TO.P,R4,2*%
%TO.N,Net-(J1-CC1)*%
X13530000Y-42262500D03*
%TD*%
D28*
%TO.P,C35,1*%
%TO.N,+1V8*%
X29840589Y-19619411D03*
%TO.P,C35,2*%
%TO.N,GND*%
X30519411Y-18940589D03*
%TD*%
D26*
%TO.P,C10,1*%
%TO.N,Net-(U2-VO)*%
X61237500Y-11600000D03*
%TO.P,C10,2*%
%TO.N,GND*%
X59162500Y-11600000D03*
%TD*%
D12*
%TO.P,TP9,1,1*%
%TO.N,/I2C0_SCK*%
X1200000Y-16900000D03*
%TD*%
D62*
%TO.P,C24,1*%
%TO.N,+3V3*%
X60145000Y-18987500D03*
%TO.P,C24,2*%
%TO.N,GND*%
X61105000Y-18987500D03*
%TD*%
D19*
%TO.P,C27,1*%
%TO.N,+2V8*%
X5962500Y-5000000D03*
%TO.P,C27,2*%
%TO.N,GND*%
X8037500Y-5000000D03*
%TD*%
D26*
%TO.P,C4,1*%
%TO.N,Net-(U1-VO)*%
X50837500Y-11600000D03*
%TO.P,C4,2*%
%TO.N,GND*%
X48762500Y-11600000D03*
%TD*%
D63*
%TO.N,GND*%
X47600000Y-11650000D03*
X54600000Y-23800000D03*
D64*
X20000000Y-52000000D03*
D63*
X20870000Y-31640000D03*
X29100000Y-16700000D03*
X58000000Y-11600000D03*
D64*
X-2000000Y-15000000D03*
D63*
X28579500Y-24090000D03*
X73300000Y-7000000D03*
X20400000Y-18940000D03*
X29700000Y-17500000D03*
D64*
X82000000Y-10000000D03*
X71830000Y-31820000D03*
X25000000Y-52000000D03*
D63*
X19410000Y-43230000D03*
D64*
X79300000Y-29000000D03*
D63*
X62100000Y-23800000D03*
X55700000Y-8000000D03*
X23210000Y-14690000D03*
D64*
X30000000Y-52000000D03*
D63*
X20900000Y-18600000D03*
X7800000Y-11900000D03*
X31730000Y-19150000D03*
X32440000Y-19840000D03*
X31030000Y-18430000D03*
X19050000Y-14880000D03*
X71500000Y-8950000D03*
D64*
X-2000000Y-35000000D03*
D63*
X55650000Y-9800000D03*
X49500000Y-4000000D03*
D64*
X48350000Y-52090000D03*
D63*
X56000000Y-11600000D03*
X8000000Y-6300000D03*
D64*
X-2000000Y-10000000D03*
X-2000000Y-20000001D03*
D63*
X26850000Y-35850000D03*
X21400000Y-18000000D03*
X26200000Y-32300000D03*
D64*
X-2000000Y-29999999D03*
X-1860000Y-3800000D03*
X48500000Y-29100000D03*
D63*
X73150000Y-4350000D03*
D64*
X-2000000Y-40000000D03*
X15000000Y-52000000D03*
D63*
X71500000Y-7100000D03*
D64*
X80225000Y-7575000D03*
X44320000Y-52090000D03*
D63*
X18600000Y-29800000D03*
X70500000Y1900000D03*
X18400000Y-16100000D03*
X58300000Y-9800000D03*
X66050000Y-8000000D03*
X31850000Y-30240000D03*
X700000Y-3800000D03*
D64*
X75000000Y-52000000D03*
D63*
X22500000Y-33000000D03*
D64*
X-2000000Y-45000000D03*
X71632500Y-49157500D03*
X5000000Y-52000000D03*
X65000000Y-52000000D03*
X60000000Y-52000000D03*
D63*
X73350000Y-10600000D03*
X21660000Y-32450000D03*
X7800000Y-8900000D03*
D65*
X25700000Y-24700000D03*
D63*
X23070000Y-24740000D03*
X20100000Y-30000000D03*
X70500000Y0D03*
D64*
X81850000Y-35390000D03*
D63*
X74300000Y2000000D03*
X7412000Y-21600000D03*
X23200000Y-13700000D03*
X66400000Y-11600000D03*
X22949500Y-23950000D03*
X24100000Y-16500000D03*
X32875500Y-20300000D03*
X7412500Y-20300000D03*
D64*
X5010000Y-50060000D03*
D63*
X48000000Y-8050000D03*
D64*
X82000000Y-5000000D03*
X70000000Y-52000000D03*
D63*
X49500000Y-6800000D03*
X36660000Y-10810000D03*
X47950000Y-9850000D03*
D64*
X82000000Y-20000000D03*
X55700000Y-52060000D03*
X-2000000Y-25000001D03*
D63*
X27132863Y-22444315D03*
D64*
X82000000Y-15000000D03*
D63*
X59900000Y-6800000D03*
D64*
X51900000Y-52090000D03*
D63*
X29140000Y-24650000D03*
X4700000Y-22900000D03*
X32340000Y-29690000D03*
X19040000Y-37680000D03*
X58350000Y-8000000D03*
X59900000Y-3900000D03*
X23350000Y-25575000D03*
X66000000Y-9800000D03*
X37900000Y-17120000D03*
X74300000Y-100000D03*
X25360000Y-27620000D03*
X71500000Y-10600000D03*
X28680000Y-25340000D03*
D64*
X33930000Y-50520000D03*
X10000000Y-52000000D03*
D63*
X71650000Y-4350000D03*
X73350000Y-8950000D03*
%TO.N,Net-(IC1-VREF)*%
X35650000Y-22685500D03*
X28550000Y-22625000D03*
%TO.N,+3V3*%
X28300000Y-26900000D03*
X0Y-7100000D03*
X39530000Y-15740000D03*
D64*
X36800000Y-5400000D03*
X47050000Y-30870000D03*
X47050000Y-20775000D03*
D63*
X47400000Y-19000000D03*
D64*
X62200000Y-18900000D03*
D63*
X70700000Y-20000000D03*
X78629240Y-23960996D03*
D64*
X47425000Y-5400000D03*
D63*
X55587500Y-19900000D03*
X63500000Y-20000000D03*
X46875000Y-15725000D03*
X27525500Y-17025000D03*
X68900000Y-20000000D03*
X26200000Y-20300000D03*
D64*
X74100000Y-18900000D03*
X51400000Y-15700000D03*
D63*
X76200000Y-20374500D03*
X59400000Y-19000000D03*
X53800000Y-19900000D03*
X24400000Y-28400000D03*
%TO.N,/USB_D-*%
X13390000Y-47070000D03*
X14630000Y-46640000D03*
%TO.N,/USB_D+*%
X13960000Y-38600000D03*
%TO.N,+1V8*%
X39105000Y-20905000D03*
D64*
X59100000Y-15700000D03*
D63*
X22800000Y-20000000D03*
X15324198Y-19475802D03*
X5326056Y-21473944D03*
X30600500Y-21666028D03*
X29287878Y-20202122D03*
X22000000Y-28350000D03*
X25010589Y-32160589D03*
X25300000Y-20100000D03*
X23200000Y-27200000D03*
X23221962Y-30539074D03*
%TO.N,+0V8*%
X23851886Y-32550000D03*
X22300000Y-26200000D03*
D64*
X72900000Y-15700000D03*
D63*
X27800000Y-27600000D03*
X23400000Y-22100000D03*
X26743815Y-20933824D03*
X31300000Y-22149114D03*
X29890901Y-20816528D03*
%TO.N,Net-(IC1-PPRST_)*%
X24454762Y-20945238D03*
X34280000Y-10060000D03*
%TO.N,/PA15*%
X12900000Y-16800000D03*
X16702603Y-16797397D03*
%TO.N,/MIPI_0_N*%
X17100000Y-23300000D03*
%TO.N,/MIPI_0_P*%
X17051658Y-24048331D03*
%TO.N,/MIPI_CLK_N*%
X17100000Y-25400000D03*
%TO.N,/MIPI_CLK_P*%
X16643390Y-25994357D03*
%TO.N,/MIPI_1_N*%
X14939500Y-26804104D03*
%TO.N,/MIPI_1_P*%
X14400000Y-27500000D03*
%TO.N,/MMC0_D1*%
X50800000Y-24400000D03*
X50800000Y-26900000D03*
%TO.N,/MMC0_D0*%
X52200000Y-26500000D03*
X52200000Y-24400000D03*
%TO.N,/MMC0_CLK*%
X57000000Y-26200000D03*
X57000000Y-24300000D03*
%TO.N,/MMC0_CMD*%
X64600000Y-24400000D03*
X64600000Y-25900000D03*
%TO.N,/MMC0_D3*%
X67100000Y-25524500D03*
X67100000Y-24300000D03*
%TO.N,/MICLP*%
X25770000Y-30910000D03*
X25700000Y-29480000D03*
%TO.N,/UART_RX*%
X43046538Y-28416538D03*
X34010886Y-23930000D03*
X29750000Y-23710000D03*
X38957184Y-23882684D03*
%TO.N,/UART_TX*%
X28977521Y-23240613D03*
X32320000Y-24520000D03*
X39487162Y-23352705D03*
X44290000Y-27730000D03*
%TO.N,/PB29*%
X25300000Y-15500000D03*
X27430000Y-21530000D03*
%TO.N,+5V*%
X3900000Y-8500000D03*
X17080000Y-43160000D03*
D64*
X45900500Y-24100000D03*
D63*
X10900000Y-29800000D03*
X11692500Y-43252500D03*
%TO.N,/CAM_PE*%
X14360000Y-18840000D03*
X8300000Y-18840000D03*
X21680000Y-21150000D03*
%TO.N,/I2C0_SCK*%
X1200000Y-16900000D03*
X21300000Y-25200000D03*
%TO.N,/I2C0_SDA*%
X20700000Y-24700000D03*
X1400000Y-19700000D03*
%TO.N,/MDCK*%
X28976284Y-26301299D03*
X32168744Y-27900500D03*
%TO.N,/RXD0*%
X33166257Y-27124500D03*
X29700000Y-25700000D03*
%TO.N,/TXD1*%
X33400000Y-25175500D03*
X30270000Y-25050000D03*
%TO.N,/UART0_TXD*%
X1240000Y-45690000D03*
X12080000Y-47030000D03*
%TO.N,/UART0_RXD*%
X1847054Y-46129591D03*
X15780000Y-46980000D03*
%TO.N,Net-(U5-VCC)*%
X45834500Y-46830000D03*
X46150000Y-43990000D03*
%TO.N,Net-(J9-Pin_7)*%
X5687500Y-20364500D03*
%TO.N,Net-(J9-Pin_11)*%
X5587500Y-18300000D03*
%TO.N,Net-(J9-Pin_14)*%
X5587500Y-16800000D03*
%TO.N,+2V8*%
X2300000Y-7400000D03*
X6037500Y-9400000D03*
%TD*%
D66*
%TO.N,Net-(U1-VI)*%
X53600000Y-13887500D02*
X55887500Y-13887500D01*
D67*
X54100000Y-6450000D02*
X54100000Y-5350000D01*
X53600000Y-13887500D02*
X53600000Y-13650000D01*
X52737500Y-11600000D02*
X52737500Y-8000000D01*
X52737500Y-12787500D02*
X52737500Y-11600000D01*
X53600000Y-13650000D02*
X52737500Y-12787500D01*
D66*
X55887500Y-13887500D02*
X56800000Y-14800000D01*
D67*
X52737500Y-8000000D02*
X52737500Y-7812500D01*
X52737500Y-7812500D02*
X54100000Y-6450000D01*
%TO.N,GND*%
X72400000Y-6300000D02*
X72400000Y-5350000D01*
D68*
X71885000Y-31875000D02*
X71830000Y-31820000D01*
X29139411Y-18060589D02*
X29700000Y-17500000D01*
X18600000Y-29800000D02*
X19110589Y-29289411D01*
X2320000Y-3500000D02*
X2300000Y-3520000D01*
D66*
X62100000Y-22262500D02*
X62075000Y-22237500D01*
D67*
X47950000Y-9850000D02*
X49087500Y-9850000D01*
D69*
X5050000Y-48622500D02*
X5050000Y-50020000D01*
D68*
X20400000Y-18940000D02*
X20400000Y-19080000D01*
D66*
X62100000Y-23800000D02*
X62100000Y-22262500D01*
D68*
X21610589Y-18210589D02*
X21400000Y-18000000D01*
D67*
X73300000Y-7000000D02*
X72600000Y-6300000D01*
X71462500Y-7137500D02*
X71462500Y-11600000D01*
D68*
X10890000Y-44820000D02*
X10892500Y-44822500D01*
X20150000Y-30000000D02*
X20660589Y-29489411D01*
D66*
X62075000Y-22237500D02*
X62075000Y-21075000D01*
D68*
X7762500Y-10800000D02*
X7762500Y-11862500D01*
X37900000Y-17120000D02*
X37922500Y-17142500D01*
X32639411Y-21060589D02*
X32639411Y-20536089D01*
X23210000Y-14690000D02*
X22439949Y-15460051D01*
X38832500Y-8280000D02*
X38832500Y-9857500D01*
X21660000Y-32400000D02*
X22170589Y-31889411D01*
X37972500Y-18469999D02*
X37922500Y-18419999D01*
X26850000Y-35850000D02*
X26800000Y-35850000D01*
X18400000Y-38800000D02*
X18400000Y-38320000D01*
D67*
X48000000Y-8050000D02*
X49087500Y-8050000D01*
D68*
X21660000Y-32450000D02*
X21660000Y-32400000D01*
X8037500Y-5000000D02*
X8037500Y-6262500D01*
X22534046Y-14291761D02*
X22608239Y-14291761D01*
X71632500Y-49157500D02*
X69992500Y-49157500D01*
X21210589Y-18910589D02*
X20900000Y-18600000D01*
X25550000Y-22817588D02*
X23419581Y-20687169D01*
D67*
X72150000Y-6300000D02*
X72400000Y-6300000D01*
D68*
X18400000Y-38320000D02*
X19040000Y-37680000D01*
X22500000Y-32950000D02*
X23010589Y-32439411D01*
X2300000Y-3520000D02*
X2300000Y-4750000D01*
X20400000Y-19080000D02*
X20850589Y-19530589D01*
D69*
X5050000Y-48622500D02*
X7000000Y-48622500D01*
D68*
X7762500Y-11862500D02*
X7800000Y-11900000D01*
D67*
X73300000Y-7000000D02*
X73337500Y-7037500D01*
X54462500Y-9800000D02*
X55650000Y-9800000D01*
D68*
X1000000Y-3500000D02*
X2320000Y-3500000D01*
X21660589Y-18910589D02*
X21210589Y-18910589D01*
X8037500Y-6262500D02*
X8000000Y-6300000D01*
X22360589Y-18210589D02*
X21610589Y-18210589D01*
D66*
X80200000Y-7550000D02*
X80225000Y-7575000D01*
D67*
X72600000Y-6300000D02*
X72400000Y-6300000D01*
D68*
X6000000Y-21600000D02*
X4700000Y-22900000D01*
D67*
X73337500Y-7037500D02*
X73337500Y-11600000D01*
D68*
X26800000Y-35850000D02*
X26109880Y-35159880D01*
D66*
X80200000Y-5600000D02*
X80200000Y-7550000D01*
D68*
X37972500Y-20020000D02*
X37972500Y-18469999D01*
D67*
X65237500Y-11600000D02*
X64787500Y-11150000D01*
D68*
X32639411Y-20536089D02*
X32875500Y-20300000D01*
D66*
X19410000Y-43230000D02*
X20012500Y-43230000D01*
D67*
X59900000Y-10862500D02*
X59900000Y-6800000D01*
D66*
X19410000Y-43230000D02*
X18570000Y-43230000D01*
D67*
X71500000Y-7100000D02*
X71462500Y-7137500D01*
D68*
X25550000Y-27430000D02*
X25360000Y-27620000D01*
D66*
X62075000Y-21075000D02*
X61105000Y-20105000D01*
D67*
X49087500Y-8050000D02*
X49137500Y-8000000D01*
X54462500Y-11225000D02*
X54462500Y-8000000D01*
D66*
X17392500Y-44407500D02*
X17392500Y-44822500D01*
D68*
X25689411Y-32839411D02*
X25689411Y-32810589D01*
D67*
X58300000Y-9800000D02*
X59537500Y-9800000D01*
D68*
X7762500Y-8862500D02*
X7800000Y-8900000D01*
X22500000Y-33000000D02*
X22500000Y-32950000D01*
D67*
X66400000Y-11600000D02*
X65237500Y-11600000D01*
D66*
X61105000Y-20105000D02*
X61105000Y-18987500D01*
D68*
X38832500Y-9857500D02*
X37880000Y-10810000D01*
D67*
X49500000Y-4000000D02*
X49500000Y-6800000D01*
X59900000Y-6800000D02*
X59900000Y-3900000D01*
D68*
X25550000Y-24550000D02*
X25550000Y-22817588D01*
X35890000Y-10810000D02*
X34850000Y-11850000D01*
X31390000Y-30240000D02*
X31029411Y-29879411D01*
D69*
X10820000Y-40600000D02*
X7080000Y-40600000D01*
D67*
X64787500Y-8000000D02*
X66050000Y-8000000D01*
D68*
X19050000Y-14880000D02*
X19082514Y-14880000D01*
D66*
X18570000Y-43230000D02*
X17392500Y-44407500D01*
D68*
X13530000Y-40437500D02*
X13437500Y-40530000D01*
X25550000Y-24850000D02*
X25550000Y-27430000D01*
X71885000Y-33470000D02*
X71885000Y-31875000D01*
D66*
X20012500Y-43230000D02*
X21170000Y-42072500D01*
D67*
X59162500Y-11600000D02*
X59900000Y-10862500D01*
D68*
X22608239Y-14291761D02*
X23200000Y-13700000D01*
X24639411Y-17039411D02*
X24100000Y-16500000D01*
X34850000Y-11850000D02*
X34850000Y-15000000D01*
D67*
X49137500Y-7162500D02*
X49500000Y-6800000D01*
X58350000Y-8000000D02*
X59537500Y-8000000D01*
D68*
X31850000Y-30240000D02*
X31390000Y-30240000D01*
D67*
X49087500Y-9850000D02*
X49137500Y-9800000D01*
D66*
X10890000Y-40530000D02*
X10890000Y-44820000D01*
D67*
X54837500Y-11600000D02*
X54462500Y-11225000D01*
D66*
X13437500Y-40530000D02*
X10890000Y-40530000D01*
X31929411Y-20350589D02*
X32440000Y-19840000D01*
D68*
X18951922Y-16693954D02*
X18951922Y-16651922D01*
X18951922Y-16651922D02*
X18400000Y-16100000D01*
X24639411Y-17060589D02*
X24639411Y-17039411D01*
D69*
X5050000Y-50020000D02*
X5010000Y-50060000D01*
D67*
X56000000Y-11600000D02*
X54837500Y-11600000D01*
D68*
X28539411Y-17260589D02*
X29100000Y-16700000D01*
X32290000Y-29690000D02*
X31779411Y-29179411D01*
D67*
X66000000Y-9800000D02*
X64800000Y-9800000D01*
X54462500Y-8000000D02*
X55700000Y-8000000D01*
D69*
X34555000Y-49895000D02*
X36780000Y-49895000D01*
D68*
X48500000Y-29910000D02*
X48500000Y-29100000D01*
X19082514Y-14880000D02*
X19874697Y-15672183D01*
X30519411Y-18940589D02*
X31030000Y-18430000D01*
D67*
X58000000Y-11600000D02*
X59162500Y-11600000D01*
D68*
X7762500Y-8000000D02*
X7762500Y-8862500D01*
D67*
X49137500Y-11600000D02*
X49137500Y-7162500D01*
D68*
X7412000Y-21600000D02*
X6000000Y-21600000D01*
D67*
X64787500Y-11150000D02*
X64787500Y-8000000D01*
D68*
X25700000Y-24700000D02*
X25550000Y-24850000D01*
D67*
X71500000Y-7100000D02*
X71500000Y-6950000D01*
D68*
X700000Y-3800000D02*
X1000000Y-3500000D01*
X31219411Y-19660589D02*
X31730000Y-19150000D01*
D67*
X71500000Y-6950000D02*
X72150000Y-6300000D01*
X49087500Y-11650000D02*
X49137500Y-11600000D01*
D68*
X80445000Y-30145000D02*
X81110000Y-30145000D01*
D67*
X47600000Y-11650000D02*
X49087500Y-11650000D01*
D68*
X37880000Y-10810000D02*
X36660000Y-10810000D01*
X25689411Y-32810589D02*
X26200000Y-32300000D01*
X37922500Y-17142500D02*
X37922500Y-18419999D01*
X7412500Y-20300000D02*
X7412500Y-18300000D01*
X20920000Y-31640000D02*
X21430589Y-31129411D01*
X25700000Y-24700000D02*
X25550000Y-24550000D01*
D69*
X33930000Y-50520000D02*
X34555000Y-49895000D01*
D68*
X69992500Y-49157500D02*
X69645000Y-48810000D01*
X36660000Y-10810000D02*
X35890000Y-10810000D01*
X79300000Y-29000000D02*
X80445000Y-30145000D01*
X22439949Y-15460051D02*
X21642463Y-15460051D01*
D66*
%TO.N,Net-(U1-VO)*%
X50000000Y-13887500D02*
X46787500Y-13887500D01*
X45400000Y-12500000D02*
X45400000Y-10200000D01*
D67*
X51800000Y-5350000D02*
X51800000Y-6600000D01*
D66*
X46787500Y-13887500D02*
X45400000Y-12500000D01*
D67*
X50862500Y-11600000D02*
X50862500Y-13025000D01*
X50862500Y-7537500D02*
X50862500Y-11600000D01*
X51800000Y-6600000D02*
X50862500Y-7537500D01*
X51800000Y-5350000D02*
X51800000Y950000D01*
X50862500Y-13025000D02*
X50000000Y-13887500D01*
%TO.N,Net-(U2-VI)*%
X64500000Y-5350000D02*
X64500000Y-6150000D01*
X63062500Y-13150000D02*
X63800000Y-13887500D01*
X63062500Y-11600000D02*
X63062500Y-13150000D01*
X63062500Y-7587500D02*
X63062500Y-11600000D01*
X64500000Y-6150000D02*
X63062500Y-7587500D01*
D66*
%TO.N,Net-(U2-VO)*%
X61050000Y-2800000D02*
X57000000Y-2800000D01*
D67*
X62200000Y-6500000D02*
X61262500Y-7437500D01*
D66*
X62200000Y-3950000D02*
X61050000Y-2800000D01*
D67*
X61262500Y-11600000D02*
X61262500Y-13025000D01*
X62200000Y-5350000D02*
X62200000Y-6500000D01*
X61262500Y-7437500D02*
X61262500Y-11600000D01*
X62200000Y-5350000D02*
X62200000Y950000D01*
X61262500Y-13025000D02*
X60400000Y-13887500D01*
D66*
X62200000Y-5350000D02*
X62200000Y-3950000D01*
D67*
%TO.N,Net-(U3-VI)*%
X70600000Y-13200000D02*
X70600000Y-13887500D01*
X69650000Y-5800000D02*
X69650000Y-12250000D01*
X70100000Y-5350000D02*
X69650000Y-5800000D01*
X69650000Y-12250000D02*
X70600000Y-13200000D01*
%TO.N,Net-(U3-VO)*%
X74212500Y-13887500D02*
X75062500Y-13037500D01*
D66*
X76300000Y-13900000D02*
X74212500Y-13900000D01*
X77600000Y-15200000D02*
X76300000Y-13900000D01*
D67*
X75062500Y-5712500D02*
X74700000Y-5350000D01*
X74200000Y-13887500D02*
X74212500Y-13887500D01*
D66*
X74212500Y-13900000D02*
X74200000Y-13887500D01*
D67*
X75062500Y-13037500D02*
X75062500Y-8000000D01*
X75062500Y-8000000D02*
X75062500Y-5712500D01*
D68*
%TO.N,Net-(IC1-VREF)*%
X36147500Y-18469999D02*
X36197500Y-18419999D01*
X35650000Y-22117499D02*
X36147500Y-21619999D01*
X28550000Y-22097488D02*
X28550000Y-22625000D01*
X36147500Y-21619999D02*
X36147500Y-18469999D01*
X35650000Y-22685500D02*
X35650000Y-22117499D01*
X28970369Y-21677119D02*
X28550000Y-22097488D01*
D70*
%TO.N,Net-(IC1-EXCLK_I)*%
X22187456Y-17280852D02*
X23623614Y-18717010D01*
X21730852Y-17280852D02*
X22187456Y-17280852D01*
X20900000Y-16450000D02*
X21730852Y-17280852D01*
X23623614Y-19406278D02*
X24162043Y-19944707D01*
X19630744Y-17372776D02*
X19729738Y-17372776D01*
X19729738Y-17372776D02*
X20652514Y-16450000D01*
X23623614Y-18717010D02*
X23623614Y-19406278D01*
X20652514Y-16450000D02*
X20900000Y-16450000D01*
X21730852Y-17280852D02*
X22042051Y-17280852D01*
D68*
%TO.N,+3V3*%
X53862500Y-19837500D02*
X53800000Y-19900000D01*
X28300000Y-27052512D02*
X28970369Y-27722881D01*
D69*
X51387500Y-15712500D02*
X51400000Y-15700000D01*
D68*
X1700000Y-5325000D02*
X1650000Y-5275000D01*
X53862500Y-18987500D02*
X53862500Y-19837500D01*
D66*
X48500000Y-32185000D02*
X51530000Y-35215000D01*
D68*
X27851386Y-17350886D02*
X27851386Y-19331278D01*
X6975000Y1175000D02*
X8785000Y1175000D01*
X2950000Y-5275000D02*
X2900000Y-5325000D01*
X68900000Y-20000000D02*
X68900000Y-19000000D01*
D69*
X73400000Y-17300000D02*
X74100000Y-18000000D01*
D68*
X3280000Y-2520000D02*
X6975000Y1175000D01*
D69*
X50000000Y-15712500D02*
X51387500Y-15712500D01*
X74100000Y-18000000D02*
X74100000Y-18900000D01*
D68*
X24400000Y-28400000D02*
X24610000Y-28610000D01*
X2900000Y-5325000D02*
X1700000Y-5325000D01*
X1650000Y-5100000D02*
X1650000Y-4750000D01*
D69*
X62200000Y-17312500D02*
X63800000Y-15712500D01*
D66*
X48500000Y-30870000D02*
X48500000Y-32185000D01*
D68*
X38790000Y-15000000D02*
X38350000Y-15000000D01*
X22109411Y-30023001D02*
X22109411Y-30450589D01*
D69*
X71700000Y-17300000D02*
X73400000Y-17300000D01*
D68*
X3280000Y-3500000D02*
X3280000Y-2520000D01*
D70*
X80585000Y-27945000D02*
X78500000Y-25860000D01*
D68*
X23419581Y-28712831D02*
X22109411Y-30023001D01*
X55587500Y-18987500D02*
X55587500Y-19900000D01*
X68900000Y-19000000D02*
X68912500Y-18987500D01*
X23842412Y-28290000D02*
X24290000Y-28290000D01*
X2950000Y-4750000D02*
X3280000Y-4420000D01*
X63500000Y-19025000D02*
X63537500Y-18987500D01*
D70*
X78500000Y-24090236D02*
X78629240Y-23960996D01*
D68*
X28970369Y-27722881D02*
X29397488Y-28150000D01*
D70*
X81110000Y-27945000D02*
X80585000Y-27945000D01*
D68*
X70700000Y-20000000D02*
X70700000Y-19025000D01*
X26220000Y-20320000D02*
X26862664Y-20320000D01*
X1650000Y-5450000D02*
X1650000Y-5100000D01*
X24290000Y-28290000D02*
X24400000Y-28400000D01*
X29397488Y-28150000D02*
X30750000Y-28150000D01*
X27851386Y-19331278D02*
X27237957Y-19944707D01*
X24610000Y-28610000D02*
X24610000Y-29007336D01*
X47400000Y-19000000D02*
X48425000Y-19000000D01*
D69*
X70600000Y-15712500D02*
X70600000Y-16200000D01*
D68*
X30750000Y-28150000D02*
X31100589Y-28500589D01*
X48425000Y-19000000D02*
X48437500Y-18987500D01*
D66*
X60132500Y-19000000D02*
X60145000Y-18987500D01*
D69*
X62200000Y-18900000D02*
X62200000Y-17312500D01*
D68*
X2950000Y-4750000D02*
X2950000Y-5275000D01*
X39530000Y-15740000D02*
X38790000Y-15000000D01*
D70*
X78500000Y-25860000D02*
X78500000Y-24090236D01*
D66*
X47050000Y-30870000D02*
X48500000Y-30870000D01*
X59400000Y-19000000D02*
X60132500Y-19000000D01*
D68*
X23419581Y-28712831D02*
X23842412Y-28290000D01*
X0Y-7100000D02*
X1650000Y-5450000D01*
X1650000Y-5275000D02*
X1650000Y-5100000D01*
X26862664Y-20320000D02*
X27237957Y-19944707D01*
X63500000Y-20000000D02*
X63500000Y-19025000D01*
X24610000Y-29007336D02*
X24162043Y-29455293D01*
X28300000Y-26900000D02*
X28300000Y-27052512D01*
X27525500Y-17025000D02*
X27851386Y-17350886D01*
X26200000Y-20300000D02*
X26220000Y-20320000D01*
X3280000Y-4420000D02*
X3280000Y-3500000D01*
D69*
X70600000Y-16200000D02*
X71700000Y-17300000D01*
D68*
X70700000Y-19025000D02*
X70662500Y-18987500D01*
%TO.N,/USB_D-*%
X14392500Y-43566877D02*
X16233274Y-41726103D01*
X17436380Y-33706077D02*
X17287702Y-33854758D01*
X17287702Y-33854758D02*
X16233274Y-34909188D01*
X13220000Y-37780000D02*
X13220000Y-38637818D01*
X13392500Y-43576929D02*
X13392500Y-44822500D01*
X19047471Y-31851231D02*
X19047472Y-31851231D01*
X18803713Y-31851231D02*
X18623207Y-32031736D01*
X16233274Y-34909188D02*
X16233274Y-39577487D01*
X14392500Y-46402500D02*
X14392500Y-44822500D01*
X14780000Y-42189429D02*
X13392500Y-43576929D01*
X14780000Y-40197818D02*
X14780000Y-42189429D01*
X18623207Y-32519253D02*
X18136230Y-33006230D01*
X7080000Y-36100000D02*
X10240000Y-36100000D01*
X18623206Y-32519254D02*
X18623207Y-32519253D01*
X22610000Y-28532462D02*
X19291231Y-31851231D01*
X14630000Y-46640000D02*
X14392500Y-46402500D01*
X18803713Y-31851230D02*
X18803713Y-31851231D01*
X14392500Y-44822500D02*
X14392500Y-43566877D01*
X13392500Y-47067500D02*
X13390000Y-47070000D01*
X13220000Y-38637818D02*
X14780000Y-40197818D01*
X10890000Y-35450000D02*
X13220000Y-37780000D01*
X17860646Y-33006230D02*
X17860645Y-33006229D01*
X17585061Y-33006229D02*
X17436380Y-33154909D01*
X13392500Y-44822500D02*
X13392500Y-47067500D01*
X10240000Y-36100000D02*
X10890000Y-35450000D01*
X16233274Y-41726103D02*
X16233274Y-39577487D01*
X18623206Y-32275495D02*
X18623207Y-32275495D01*
X19047471Y-31851231D02*
G75*
G03*
X19291231Y-31851231I121880J121881D01*
G01*
X17860646Y-33006230D02*
G75*
G03*
X18136230Y-33006230I137792J137793D01*
G01*
X17860645Y-33006229D02*
G75*
G03*
X17585061Y-33006229I-137792J-137793D01*
G01*
X18623232Y-32519280D02*
G75*
G03*
X18623207Y-32275495I-121932J121880D01*
G01*
X18623192Y-32031721D02*
G75*
G03*
X18623207Y-32275494I121908J-121879D01*
G01*
X17436395Y-33706092D02*
G75*
G03*
X17436380Y-33430493I-137795J137792D01*
G01*
X19047480Y-31851223D02*
G75*
G03*
X18803713Y-31851230I-121880J-121877D01*
G01*
X17436380Y-33154909D02*
G75*
G03*
X17436381Y-33430492I137820J-137791D01*
G01*
%TO.N,/USB_D+*%
X13892500Y-43571903D02*
X13892500Y-44822500D01*
X17152513Y-40496726D02*
X17152513Y-34484924D01*
X10780000Y-38100000D02*
X10890000Y-37990000D01*
X13892500Y-46680318D02*
X14402182Y-47190000D01*
X15130000Y-39770000D02*
X15130000Y-42334403D01*
X15180000Y-45985000D02*
X14892500Y-45697500D01*
X17152513Y-34484924D02*
X23172093Y-28465344D01*
X7080000Y-38100000D02*
X10780000Y-38100000D01*
X13892500Y-44822500D02*
X13892500Y-46680318D01*
X14402182Y-47190000D02*
X14870000Y-47190000D01*
X14870000Y-47190000D02*
X15180000Y-46880000D01*
X17152513Y-41637487D02*
X17152513Y-40496726D01*
X15130000Y-42334403D02*
X13892500Y-43571903D01*
X15180000Y-46880000D02*
X15180000Y-45985000D01*
X13960000Y-38600000D02*
X15130000Y-39770000D01*
X14892500Y-44822500D02*
X14892500Y-43897500D01*
X14892500Y-43897500D02*
X17152513Y-41637487D01*
X14892500Y-45697500D02*
X14892500Y-44822500D01*
D70*
%TO.N,Net-(IC1-EXCLK_O)*%
X22452100Y-16559604D02*
X21787422Y-16559604D01*
X20864646Y-14603517D02*
X21855224Y-13612939D01*
X20816422Y-15588604D02*
X20816422Y-14730458D01*
X22452100Y-17121232D02*
X23923614Y-18592746D01*
X23923614Y-18592746D02*
X23923614Y-19211304D01*
X20816422Y-14730458D02*
X20864646Y-14682234D01*
X21787422Y-16559604D02*
X20816422Y-15588604D01*
X23923614Y-19211304D02*
X24409530Y-19697220D01*
X20864646Y-14682234D02*
X20864646Y-14603517D01*
X22452100Y-16559604D02*
X22452100Y-17121232D01*
D68*
%TO.N,Net-(IC1-VCM)*%
X24401386Y-33451386D02*
X24401386Y-31696361D01*
X24401386Y-31696361D02*
X24150000Y-31444975D01*
X24150000Y-31444975D02*
X24150000Y-30457285D01*
X24150000Y-30457285D02*
X24657017Y-29950268D01*
X24890120Y-33940120D02*
X24401386Y-33451386D01*
D70*
%TO.N,+1V8*%
X24223614Y-18468482D02*
X23960589Y-18205457D01*
X24657017Y-19449732D02*
X24223614Y-19016329D01*
D68*
X29287878Y-20172122D02*
X29840589Y-19619411D01*
D70*
X24657017Y-19449732D02*
X24657017Y-19457017D01*
X22800000Y-20000000D02*
X22891028Y-20091028D01*
D68*
X23221962Y-30256937D02*
X22930000Y-29964975D01*
D70*
X23039411Y-19317050D02*
X23039411Y-18889411D01*
X22800000Y-20000000D02*
X23261181Y-19538819D01*
X22429631Y-27722881D02*
X22429631Y-27770369D01*
D68*
X25010589Y-31810589D02*
X25010589Y-32160589D01*
D70*
X23172093Y-20934656D02*
X22800000Y-20562563D01*
D66*
X31250589Y-21029411D02*
X30613972Y-21666028D01*
D70*
X24223614Y-19016329D02*
X24223614Y-18468482D01*
D66*
X22050000Y-28350000D02*
X23200000Y-27200000D01*
D70*
X24657017Y-19457017D02*
X25300000Y-20100000D01*
X5725000Y-21075000D02*
X13725000Y-21075000D01*
X13725000Y-21075000D02*
X15324198Y-19475802D01*
D68*
X22930000Y-29697386D02*
X23667068Y-28960318D01*
D70*
X22389411Y-19589411D02*
X22339411Y-19589411D01*
X22800000Y-20182056D02*
X22891028Y-20091028D01*
D68*
X22930000Y-29964975D02*
X22930000Y-29697386D01*
D70*
X5326056Y-21473944D02*
X5725000Y-21075000D01*
D68*
X23200000Y-27200000D02*
X22830000Y-26830000D01*
X24500000Y-30602260D02*
X24500000Y-31300000D01*
D70*
X22950000Y-27697488D02*
X22677119Y-27970369D01*
D68*
X37972500Y-21619999D02*
X38390001Y-21619999D01*
D70*
X22800000Y-20562563D02*
X22800000Y-20182056D01*
D68*
X23221962Y-30539074D02*
X23221962Y-30256937D01*
D66*
X29733972Y-21666028D02*
X29150000Y-22250000D01*
X22000000Y-28350000D02*
X22050000Y-28350000D01*
D70*
X23914555Y-20192194D02*
X23261181Y-19538819D01*
X23960589Y-18205457D02*
X23960589Y-17739411D01*
D68*
X29287878Y-20369660D02*
X28475394Y-21182144D01*
D70*
X22891028Y-20091028D02*
X22389411Y-19589411D01*
D68*
X23221962Y-30539074D02*
X23221962Y-30838038D01*
X22830000Y-26830000D02*
X22339634Y-26830000D01*
X29287878Y-20202122D02*
X29287878Y-20172122D01*
D69*
X59100000Y-15700000D02*
X60387500Y-15700000D01*
X60387500Y-15700000D02*
X60400000Y-15712500D01*
D66*
X21539411Y-28810589D02*
X22000000Y-28350000D01*
D68*
X22339634Y-26830000D02*
X21938191Y-27231443D01*
X24904505Y-30197755D02*
X24500000Y-30602260D01*
D70*
X23261181Y-19538819D02*
X23039411Y-19317050D01*
D68*
X38390001Y-21619999D02*
X39105000Y-20905000D01*
X23221962Y-30838038D02*
X22849411Y-31210589D01*
D66*
X30513972Y-21666028D02*
X29733972Y-21666028D01*
X30613972Y-21666028D02*
X30513972Y-21666028D01*
D68*
X24500000Y-31300000D02*
X25010589Y-31810589D01*
D66*
X21339411Y-28810589D02*
X21539411Y-28810589D01*
D68*
X29287878Y-20202122D02*
X29287878Y-20369660D01*
D69*
%TO.N,+0V8*%
X72912500Y-15712500D02*
X74200000Y-15712500D01*
D68*
X19789411Y-28610589D02*
X20064071Y-28610589D01*
D70*
X21870000Y-20550000D02*
X22292462Y-20550000D01*
D68*
X30063472Y-20816528D02*
X30390589Y-20489411D01*
X29650000Y-28500000D02*
X30350589Y-29200589D01*
D70*
X21529411Y-20209411D02*
X21870000Y-20550000D01*
X23400000Y-21657538D02*
X22924606Y-21182144D01*
D68*
X28460589Y-19217050D02*
X28460589Y-18739411D01*
X29710901Y-21016528D02*
X29644373Y-20950000D01*
X29644373Y-20950000D02*
X29202512Y-20950000D01*
X26743815Y-20933824D02*
X27485445Y-20192194D01*
X23500000Y-29622361D02*
X23914555Y-29207806D01*
X27485445Y-20192194D02*
X28460589Y-19217050D01*
X20064071Y-28610589D02*
X21690705Y-26983955D01*
X23500000Y-30040000D02*
X23500000Y-29622361D01*
X30973247Y-22149114D02*
X30207806Y-22914555D01*
X27876257Y-27523743D02*
X28276257Y-27523743D01*
X31300000Y-22149114D02*
X30973247Y-22149114D01*
X28722881Y-27970369D02*
X29252512Y-28500000D01*
X29710901Y-21016528D02*
X29883472Y-21016528D01*
X31300000Y-22149114D02*
X31550886Y-22149114D01*
X23800000Y-32498114D02*
X23800000Y-30340000D01*
X27800000Y-27600000D02*
X27876257Y-27523743D01*
X23851886Y-32550000D02*
X23851886Y-31923064D01*
X29252512Y-28500000D02*
X29650000Y-28500000D01*
D70*
X22292462Y-20550000D02*
X22924606Y-21182144D01*
D68*
X23851886Y-32550000D02*
X23800000Y-32498114D01*
X23851886Y-31923064D02*
X23689411Y-31760589D01*
D70*
X22300000Y-26367588D02*
X22300000Y-26200000D01*
D68*
X28276257Y-27523743D02*
X28722881Y-27970369D01*
D69*
X72900000Y-15700000D02*
X72912500Y-15712500D01*
D70*
X23400000Y-22100000D02*
X23400000Y-21657538D01*
D68*
X29202512Y-20950000D02*
X28722881Y-21429631D01*
X23800000Y-30340000D02*
X23500000Y-30040000D01*
D70*
X21687169Y-26980419D02*
X22300000Y-26367588D01*
D68*
X31550886Y-22149114D02*
X31960589Y-21739411D01*
D70*
%TO.N,Net-(IC1-PPRST_)*%
X34682500Y-9657500D02*
X34682500Y-8280000D01*
X34280000Y-10060000D02*
X34682500Y-9657500D01*
D68*
X23667068Y-20439682D02*
X24127386Y-20900000D01*
X24409524Y-20900000D02*
X24454762Y-20945238D01*
X24127386Y-20900000D02*
X24300000Y-20900000D01*
X24300000Y-20900000D02*
X24409524Y-20900000D01*
D70*
%TO.N,/PA17*%
X20300000Y-19851472D02*
X19165142Y-18716614D01*
X23540000Y-13000000D02*
X26765000Y-9775000D01*
X19165142Y-18065142D02*
X16100000Y-15000000D01*
X21934656Y-22172093D02*
X20300000Y-20537437D01*
X20300000Y-20537437D02*
X20300000Y-19851472D01*
X17400000Y-13000000D02*
X23540000Y-13000000D01*
X16100000Y-14300000D02*
X17400000Y-13000000D01*
X16100000Y-15000000D02*
X16100000Y-14300000D01*
X19165142Y-18716614D02*
X19165142Y-18065142D01*
%TO.N,/PA16*%
X18865142Y-18218179D02*
X15800000Y-15153037D01*
X20000000Y-20732412D02*
X20000000Y-19975736D01*
X17275736Y-12700000D02*
X23100000Y-12700000D01*
X15800000Y-14175736D02*
X17275736Y-12700000D01*
X21687169Y-22419581D02*
X20000000Y-20732412D01*
X23100000Y-12700000D02*
X24225000Y-11575000D01*
X15800000Y-15153037D02*
X15800000Y-14175736D01*
X20000000Y-19975736D02*
X18865142Y-18840878D01*
X18865142Y-18840878D02*
X18865142Y-18218179D01*
X24225000Y-11575000D02*
X24225000Y-9775000D01*
%TO.N,/PA15*%
X19700000Y-20930000D02*
X21401714Y-22631714D01*
X12900000Y-16800000D02*
X7412500Y-16800000D01*
X19700000Y-20140000D02*
X19700000Y-20930000D01*
X18565142Y-18659936D02*
X18565142Y-19005142D01*
X16702603Y-16797397D02*
X18565142Y-18659936D01*
X18565142Y-19005142D02*
X19700000Y-20140000D01*
%TO.N,/PA14*%
X19400000Y-21122361D02*
X19400000Y-20264264D01*
X21192194Y-22914555D02*
X19400000Y-21122361D01*
X15500000Y-16364264D02*
X15500000Y-14051472D01*
X15500000Y-14051472D02*
X17151472Y-12400000D01*
X23100000Y-8360000D02*
X24225000Y-7235000D01*
X23100000Y-10900000D02*
X23100000Y-8360000D01*
X17151472Y-12400000D02*
X21600000Y-12400000D01*
X19400000Y-20264264D02*
X15500000Y-16364264D01*
X21600000Y-12400000D02*
X23100000Y-10900000D01*
%TO.N,/PA11*%
X15200000Y-16488528D02*
X15200000Y-13927208D01*
X19100000Y-20388528D02*
X15200000Y-16488528D01*
X21685000Y-10915000D02*
X21685000Y-9775000D01*
X19100000Y-21317336D02*
X19100000Y-20388528D01*
X20500000Y-12100000D02*
X21685000Y-10915000D01*
X20944707Y-23162043D02*
X19100000Y-21317336D01*
X15200000Y-13927208D02*
X17027208Y-12100000D01*
X17027208Y-12100000D02*
X20500000Y-12100000D01*
%TO.N,/PA10*%
X20697220Y-23409530D02*
X18800000Y-21512310D01*
X20610000Y-8310000D02*
X21685000Y-7235000D01*
X14900000Y-16612792D02*
X14900000Y-13802944D01*
X20610000Y-10890000D02*
X20610000Y-8310000D01*
X19700000Y-11800000D02*
X20610000Y-10890000D01*
X18800000Y-20512792D02*
X14900000Y-16612792D01*
X18800000Y-21512310D02*
X18800000Y-20512792D01*
X16902944Y-11800000D02*
X19700000Y-11800000D01*
X14900000Y-13802944D02*
X16902944Y-11800000D01*
%TO.N,/PA09*%
X14600000Y-13678680D02*
X16778680Y-11500000D01*
X18500000Y-20637056D02*
X14600000Y-16737056D01*
X20449732Y-23657017D02*
X18500000Y-21707285D01*
X17420000Y-11500000D02*
X19145000Y-9775000D01*
X18500000Y-21707285D02*
X18500000Y-20637056D01*
X14600000Y-16737056D02*
X14600000Y-13678680D01*
X16778680Y-11500000D02*
X17420000Y-11500000D01*
%TO.N,/PA08*%
X17295736Y-11200000D02*
X18000000Y-10495736D01*
X18200000Y-20761320D02*
X14300000Y-16861320D01*
X18200000Y-21902260D02*
X18200000Y-20761320D01*
X16654416Y-11200000D02*
X17295736Y-11200000D01*
X18000000Y-10495736D02*
X18000000Y-8380000D01*
X14300000Y-13554416D02*
X16654416Y-11200000D01*
X14300000Y-16861320D02*
X14300000Y-13554416D01*
X20202245Y-23904505D02*
X18200000Y-21902260D01*
X18000000Y-8380000D02*
X19145000Y-7235000D01*
%TO.N,/PA07*%
X17700000Y-10371472D02*
X17700000Y-8330000D01*
X17900000Y-20885584D02*
X14000000Y-16985584D01*
X14000000Y-12900000D02*
X16000000Y-10900000D01*
X17171472Y-10900000D02*
X17700000Y-10371472D01*
X14000000Y-16985584D02*
X14000000Y-12900000D01*
X17700000Y-8330000D02*
X16605000Y-7235000D01*
X16000000Y-10900000D02*
X17171472Y-10900000D01*
X17900000Y-22097235D02*
X17900000Y-20885584D01*
X19954757Y-24151992D02*
X17900000Y-22097235D01*
%TO.N,/PA06*%
X17600000Y-22221499D02*
X17600000Y-21009848D01*
X19954757Y-25248008D02*
X19500000Y-24793251D01*
X19500000Y-24793251D02*
X19500000Y-24121499D01*
X19500000Y-24121499D02*
X17600000Y-22221499D01*
X17600000Y-21009848D02*
X13600000Y-17009848D01*
X13600000Y-17009848D02*
X13600000Y-12780000D01*
X13600000Y-12780000D02*
X16605000Y-9775000D01*
D71*
%TO.N,/MIPI_0_N*%
X19607858Y-25841561D02*
X19856179Y-25841561D01*
X17100000Y-23300000D02*
X17100000Y-23333703D01*
X17100000Y-23333703D02*
X19607858Y-25841561D01*
X19856179Y-25841561D02*
X20202245Y-25495495D01*
%TO.N,/MIPI_0_P*%
X20021155Y-26171560D02*
X20449732Y-25742983D01*
X19174887Y-26171560D02*
X20021155Y-26171560D01*
X17051658Y-24048331D02*
X19174887Y-26171560D01*
%TO.N,/MIPI_CLK_N*%
X17100000Y-25400000D02*
X18201560Y-26501560D01*
X18201560Y-26501560D02*
X20186130Y-26501560D01*
X20186130Y-26501560D02*
X20697220Y-25990470D01*
%TO.N,/MIPI_CLK_P*%
X20250535Y-26953343D02*
X20944707Y-26259171D01*
X17602376Y-26953343D02*
X20250535Y-26953343D01*
X16643390Y-25994357D02*
X17602376Y-26953343D01*
%TO.N,/MIPI_1_N*%
X15745396Y-27610000D02*
X20067639Y-27610000D01*
X20067639Y-27610000D02*
X21192194Y-26485445D01*
X14939500Y-26804104D02*
X15745396Y-27610000D01*
%TO.N,/MIPI_1_P*%
X14400000Y-27500000D02*
X14890000Y-27990000D01*
X14890000Y-27990000D02*
X20203828Y-27990000D01*
X20203828Y-27990000D02*
X21439682Y-26754146D01*
D70*
%TO.N,/NOR_CE*%
X75200000Y-49232500D02*
X74192500Y-50240000D01*
X29267765Y-33465000D02*
X34582056Y-33465000D01*
X63975000Y-50670000D02*
X65835000Y-48810000D01*
X45310000Y-33792792D02*
X45310000Y-47982500D01*
X52830000Y-50670000D02*
X63975000Y-50670000D01*
X26248008Y-30445243D02*
X29267765Y-33465000D01*
X45310000Y-47982500D02*
X46780000Y-49452500D01*
X65835000Y-49275000D02*
X65835000Y-48810000D01*
X50600000Y-48440000D02*
X52830000Y-50670000D01*
X47792500Y-48440000D02*
X50600000Y-48440000D01*
X36197056Y-31850000D02*
X43367208Y-31850000D01*
X34582056Y-33465000D02*
X36197056Y-31850000D01*
X66800000Y-50240000D02*
X65835000Y-49275000D01*
X43367208Y-31850000D02*
X45310000Y-33792792D01*
X46780000Y-49452500D02*
X47792500Y-48440000D01*
X74192500Y-50240000D02*
X66800000Y-50240000D01*
%TO.N,/NOR_DR*%
X63140000Y-47040000D02*
X65940000Y-47040000D01*
X53140000Y-48440000D02*
X53140000Y-48230000D01*
X59810000Y-50370000D02*
X63140000Y-47040000D01*
X65940000Y-47040000D02*
X67105000Y-48205000D01*
X34457792Y-33165000D02*
X29462740Y-33165000D01*
X43491472Y-31550000D02*
X36072792Y-31550000D01*
X55070000Y-50370000D02*
X59810000Y-50370000D01*
X51620000Y-46710000D02*
X46662463Y-46710000D01*
X53140000Y-48230000D02*
X51620000Y-46710000D01*
X45610000Y-33668528D02*
X43491472Y-31550000D01*
X45610000Y-45657537D02*
X45610000Y-33668528D01*
X53140000Y-48440000D02*
X55070000Y-50370000D01*
X46662463Y-46710000D02*
X45610000Y-45657537D01*
X67105000Y-48205000D02*
X67105000Y-48810000D01*
X36072792Y-31550000D02*
X34457792Y-33165000D01*
X29462740Y-33165000D02*
X26495495Y-30197755D01*
%TO.N,/NOR_DT*%
X58220000Y-40820000D02*
X55880000Y-43160000D01*
X34333528Y-32865000D02*
X29657715Y-32865000D01*
X55880000Y-43160000D02*
X48910000Y-43160000D01*
X48910000Y-43160000D02*
X45910000Y-40160000D01*
X58220000Y-40820000D02*
X59930000Y-40820000D01*
X63450000Y-44340000D02*
X66975330Y-44340000D01*
X45910000Y-33544264D02*
X43615736Y-31250000D01*
X59930000Y-40820000D02*
X63450000Y-44340000D01*
X66975330Y-44340000D02*
X69645000Y-41670330D01*
X43615736Y-31250000D02*
X35948528Y-31250000D01*
X45910000Y-40160000D02*
X45910000Y-33544264D01*
X35948528Y-31250000D02*
X34333528Y-32865000D01*
X29657715Y-32865000D02*
X26742983Y-29950268D01*
X69645000Y-41670330D02*
X69645000Y-41610000D01*
%TO.N,/NOR_CK*%
X55160000Y-42860000D02*
X49034264Y-42860000D01*
X43590000Y-30800000D02*
X35974264Y-30800000D01*
X68375000Y-42185000D02*
X68375000Y-41610000D01*
X57450000Y-39050000D02*
X58584264Y-39050000D01*
X35974264Y-30800000D02*
X34209264Y-32565000D01*
X58584264Y-39050000D02*
X63574264Y-44040000D01*
X55680000Y-40820000D02*
X55680000Y-42340000D01*
X49034264Y-42860000D02*
X46210000Y-40035736D01*
X55680000Y-42340000D02*
X55160000Y-42860000D01*
X34209264Y-32565000D02*
X29852690Y-32565000D01*
X55680000Y-40820000D02*
X57450000Y-39050000D01*
X63574264Y-44040000D02*
X66520000Y-44040000D01*
X46210000Y-40035736D02*
X46210000Y-33420000D01*
X46210000Y-33420000D02*
X43590000Y-30800000D01*
X29852690Y-32565000D02*
X26990470Y-29702780D01*
X66520000Y-44040000D02*
X68375000Y-42185000D01*
%TO.N,/MMC0_D1*%
X70668147Y-24170000D02*
X67763147Y-27075000D01*
X50500000Y-27200000D02*
X43521320Y-27200000D01*
X40221320Y-30500000D02*
X35850000Y-30500000D01*
X76620000Y-23640000D02*
X74157056Y-23640000D01*
X80585000Y-32345000D02*
X77200000Y-28960000D01*
X43521320Y-27200000D02*
X40221320Y-30500000D01*
X50800000Y-26900000D02*
X50500000Y-27200000D01*
X35850000Y-30500000D02*
X34085000Y-32265000D01*
X34085000Y-32265000D02*
X30047664Y-32265000D01*
X73684112Y-24170000D02*
X70668147Y-24170000D01*
X50450000Y-22237500D02*
X50450000Y-19175000D01*
X74157056Y-23697056D02*
X73684112Y-24170000D01*
X50450000Y-19175000D02*
X50262500Y-18987500D01*
X67763147Y-27075000D02*
X50975000Y-27075000D01*
X50450000Y-24050000D02*
X50450000Y-22237500D01*
X50975000Y-27075000D02*
X50800000Y-26900000D01*
X30047664Y-32265000D02*
X27237957Y-29455293D01*
X50800000Y-24400000D02*
X50450000Y-24050000D01*
X77200000Y-24220000D02*
X76620000Y-23640000D01*
X74157056Y-23640000D02*
X74157056Y-23697056D01*
D68*
X81110000Y-32345000D02*
X80585000Y-32345000D01*
D70*
X77200000Y-28960000D02*
X77200000Y-24220000D01*
%TO.N,/MMC0_D0*%
X77600000Y-28600000D02*
X77600000Y-24180000D01*
X33960736Y-31965000D02*
X35725736Y-30200000D01*
X73502792Y-23870000D02*
X70543883Y-23870000D01*
X52150000Y-24350000D02*
X52150000Y-22237500D01*
X43397056Y-26900000D02*
X49872057Y-26900000D01*
D68*
X81110000Y-31245000D02*
X80585000Y-31245000D01*
D70*
X80585000Y-31245000D02*
X80245000Y-31245000D01*
X80245000Y-31245000D02*
X77600000Y-28600000D01*
X70543883Y-23870000D02*
X67663883Y-26750000D01*
X50536029Y-26236028D02*
X51936028Y-26236028D01*
X52150000Y-22237500D02*
X52150000Y-19100000D01*
X52200000Y-24400000D02*
X52150000Y-24350000D01*
X49872057Y-26900000D02*
X50536029Y-26236028D01*
X51936028Y-26236028D02*
X52200000Y-26500000D01*
X27485445Y-29207806D02*
X30242639Y-31965000D01*
X52150000Y-19100000D02*
X52037500Y-18987500D01*
X76760000Y-23340000D02*
X74032792Y-23340000D01*
X52450000Y-26750000D02*
X52200000Y-26500000D01*
X74032792Y-23340000D02*
X73502792Y-23870000D01*
X67663883Y-26750000D02*
X52450000Y-26750000D01*
X30242639Y-31965000D02*
X33960736Y-31965000D01*
X40097056Y-30200000D02*
X43397056Y-26900000D01*
X77600000Y-24180000D02*
X76760000Y-23340000D01*
X35725736Y-30200000D02*
X40097056Y-30200000D01*
%TO.N,/MMC0_CLK*%
X50447793Y-25900000D02*
X56700000Y-25900000D01*
X57412500Y-20087500D02*
X57412500Y-18987500D01*
X33836472Y-31665000D02*
X35601472Y-29900000D01*
X67529264Y-26425000D02*
X57225000Y-26425000D01*
X79795000Y-28255000D02*
X78000000Y-26460000D01*
X76965781Y-23040000D02*
X73908528Y-23040000D01*
X78000000Y-24074219D02*
X76965781Y-23040000D01*
X57000000Y-24300000D02*
X57075000Y-24225000D01*
X30437614Y-31665000D02*
X33836472Y-31665000D01*
X43272792Y-26600000D02*
X49747793Y-26600000D01*
X57075000Y-22237500D02*
X57075000Y-20425000D01*
X35601472Y-29900000D02*
X39972792Y-29900000D01*
X56700000Y-25900000D02*
X57000000Y-26200000D01*
X80235000Y-28679695D02*
X79810305Y-28255000D01*
X73378528Y-23570000D02*
X70384264Y-23570000D01*
X81110000Y-29045000D02*
X80585000Y-29045000D01*
X73908528Y-23040000D02*
X73378528Y-23570000D01*
X70384264Y-23570000D02*
X67529264Y-26425000D01*
X27732932Y-28960318D02*
X30437614Y-31665000D01*
X79810305Y-28255000D02*
X79795000Y-28255000D01*
X57075000Y-20425000D02*
X57412500Y-20087500D01*
X39972792Y-29900000D02*
X43272792Y-26600000D01*
X78000000Y-26460000D02*
X78000000Y-24074219D01*
X80235000Y-28695000D02*
X80235000Y-28679695D01*
X57225000Y-26425000D02*
X57000000Y-26200000D01*
X49747793Y-26600000D02*
X50447793Y-25900000D01*
X80585000Y-29045000D02*
X80235000Y-28695000D01*
X57075000Y-24225000D02*
X57075000Y-22237500D01*
%TO.N,/MMC0_CMD*%
X80585000Y-26845000D02*
X79300000Y-25560000D01*
X67480500Y-26049500D02*
X64749500Y-26049500D01*
X33712208Y-31365000D02*
X35477208Y-29600000D01*
X81110000Y-26845000D02*
X80585000Y-26845000D01*
X64749500Y-26049500D02*
X64600000Y-25900000D01*
X27980419Y-28712831D02*
X30632588Y-31365000D01*
X39848528Y-29600000D02*
X43148528Y-26300000D01*
X30632588Y-31365000D02*
X33712208Y-31365000D01*
X73784264Y-22740000D02*
X73254264Y-23270000D01*
X49623529Y-26300000D02*
X50323529Y-25600000D01*
X43148528Y-26300000D02*
X49623529Y-26300000D01*
X70260000Y-23270000D02*
X67480500Y-26049500D01*
X64300000Y-25600000D02*
X64600000Y-25900000D01*
X64600000Y-24400000D02*
X64575000Y-24375000D01*
X50323529Y-25600000D02*
X64300000Y-25600000D01*
X78340000Y-22740000D02*
X73784264Y-22740000D01*
X79300000Y-25560000D02*
X79300000Y-23700000D01*
X79300000Y-23700000D02*
X78340000Y-22740000D01*
X35477208Y-29600000D02*
X39848528Y-29600000D01*
X73254264Y-23270000D02*
X70260000Y-23270000D01*
X64575000Y-24375000D02*
X64575000Y-22237500D01*
X65362500Y-20037500D02*
X65362500Y-18987500D01*
X64575000Y-22237500D02*
X64575000Y-20825000D01*
X64575000Y-20825000D02*
X65362500Y-20037500D01*
%TO.N,/MMC0_D3*%
X67075000Y-22237500D02*
X67075000Y-19000000D01*
X39724264Y-29300000D02*
X35352944Y-29300000D01*
X80535000Y-25745000D02*
X79800000Y-25010000D01*
X67100000Y-24300000D02*
X67075000Y-24275000D01*
X67075000Y-24275000D02*
X67075000Y-22237500D01*
X49499265Y-26000000D02*
X43024264Y-26000000D01*
X50199265Y-25300000D02*
X49499265Y-26000000D01*
X79800000Y-23700000D02*
X78540000Y-22440000D01*
X67075000Y-19000000D02*
X67087500Y-18987500D01*
X66875500Y-25300000D02*
X50199265Y-25300000D01*
X69934264Y-22970000D02*
X67379764Y-25524500D01*
X73660000Y-22440000D02*
X73130000Y-22970000D01*
X67379764Y-25524500D02*
X67100000Y-25524500D01*
X43024264Y-26000000D02*
X39724264Y-29300000D01*
X67100000Y-25524500D02*
X66875500Y-25300000D01*
X33587944Y-31065000D02*
X30827563Y-31065000D01*
X79800000Y-25010000D02*
X79800000Y-23700000D01*
X35352944Y-29300000D02*
X33587944Y-31065000D01*
X30827563Y-31065000D02*
X28227907Y-28465344D01*
X78540000Y-22440000D02*
X73660000Y-22440000D01*
X73130000Y-22970000D02*
X69934264Y-22970000D01*
X81110000Y-25745000D02*
X80535000Y-25745000D01*
%TO.N,/MMC0_D2*%
X67870000Y-24610000D02*
X67870000Y-22090000D01*
X69150000Y-20810000D02*
X71000000Y-20810000D01*
X71000000Y-20810000D02*
X72487500Y-19322500D01*
X81110000Y-24645000D02*
X81110000Y-24480000D01*
X31022538Y-30765000D02*
X33463680Y-30765000D01*
X67870000Y-22090000D02*
X69150000Y-20810000D01*
X33463680Y-30765000D02*
X35228680Y-29000000D01*
X39600000Y-29000000D02*
X42900000Y-25700000D01*
X35228680Y-29000000D02*
X39600000Y-29000000D01*
X49375001Y-25700000D02*
X50075001Y-25000000D01*
X42900000Y-25700000D02*
X49375001Y-25700000D01*
X72487500Y-19322500D02*
X72487500Y-18987500D01*
X67480000Y-25000000D02*
X67870000Y-24610000D01*
X28475394Y-28217856D02*
X31022538Y-30765000D01*
X81110000Y-24480000D02*
X76480000Y-19850000D01*
X73350000Y-19850000D02*
X72487500Y-18987500D01*
X50075001Y-25000000D02*
X67480000Y-25000000D01*
X76480000Y-19850000D02*
X73350000Y-19850000D01*
D68*
%TO.N,/MICLP*%
X25566715Y-29346715D02*
X25700000Y-29480000D01*
D70*
X38265000Y-33765000D02*
X40090000Y-35590000D01*
X26335000Y-31475000D02*
X26541727Y-31475000D01*
X40090000Y-38605000D02*
X43280000Y-41795000D01*
D68*
X24409530Y-29702780D02*
X24765595Y-29346715D01*
D70*
X40090000Y-35590000D02*
X40090000Y-38605000D01*
D68*
X24765595Y-29346715D02*
X25566715Y-29346715D01*
D70*
X25770000Y-30910000D02*
X26335000Y-31475000D01*
X26541727Y-31475000D02*
X28831727Y-33765000D01*
X28831727Y-33765000D02*
X38265000Y-33765000D01*
%TO.N,/HPOUTL*%
X36780000Y-42895000D02*
X36780000Y-46965000D01*
X25151992Y-31161992D02*
X25765000Y-31775000D01*
X37550000Y-42125000D02*
X36780000Y-42895000D01*
X37550000Y-35590000D02*
X37550000Y-42125000D01*
X25151992Y-30445243D02*
X25151992Y-31161992D01*
X25765000Y-31775000D02*
X26417463Y-31775000D01*
X28707463Y-34065000D02*
X36025000Y-34065000D01*
X26417463Y-31775000D02*
X28707463Y-34065000D01*
X36025000Y-34065000D02*
X37550000Y-35590000D01*
%TO.N,Net-(IC1-BOOT_SEL0_PC00)*%
X35010000Y-17370000D02*
X36600000Y-15780000D01*
X35010000Y-21390000D02*
X35010000Y-17370000D01*
X36600000Y-15780000D02*
X36600000Y-12700000D01*
X31723621Y-23873614D02*
X32526386Y-23873614D01*
X31445243Y-24151992D02*
X31723621Y-23873614D01*
X32526386Y-23873614D02*
X35010000Y-21390000D01*
%TO.N,/UART_RX*%
X44732463Y-28030000D02*
X63555736Y-28030000D01*
X29629253Y-23589253D02*
X29750000Y-23710000D01*
X38957184Y-23882684D02*
X38939868Y-23900000D01*
X76620736Y-41095000D02*
X81170000Y-41095000D01*
X29629253Y-22998133D02*
X29629253Y-23589253D01*
X29960318Y-22667068D02*
X29600000Y-23027386D01*
X38939868Y-23900000D02*
X34040886Y-23900000D01*
X43046538Y-28416538D02*
X44345925Y-28416538D01*
X44345925Y-28416538D02*
X44732463Y-28030000D01*
X63555736Y-28030000D02*
X76620736Y-41095000D01*
X29960318Y-22667068D02*
X29629253Y-22998133D01*
%TO.N,/UART_TX*%
X63680000Y-27730000D02*
X73400000Y-37450000D01*
X33630000Y-23210000D02*
X38304590Y-23210000D01*
X38304590Y-23210000D02*
X38447295Y-23352705D01*
X32320000Y-24520000D02*
X33630000Y-23210000D01*
X28977521Y-23240613D02*
X28977521Y-23154891D01*
X38447295Y-23352705D02*
X39487162Y-23352705D01*
X44290000Y-27730000D02*
X63680000Y-27730000D01*
X80050000Y-37450000D02*
X81170000Y-38570000D01*
X28977521Y-23154891D02*
X29712831Y-22419581D01*
X73400000Y-37450000D02*
X80050000Y-37450000D01*
%TO.N,/PB30*%
X27980419Y-20687169D02*
X28410000Y-20257588D01*
X31950000Y-5574264D02*
X30705736Y-4330000D01*
X31950000Y-6250000D02*
X31950000Y-5574264D01*
X31950000Y-16220000D02*
X31950000Y-6250000D01*
X30705736Y-4330000D02*
X20120000Y-4330000D01*
X28410000Y-20257588D02*
X28410000Y-19760000D01*
X20120000Y-4330000D02*
X17680000Y-1890000D01*
X28410000Y-19760000D02*
X31950000Y-16220000D01*
X17680000Y-90000D02*
X18945000Y1175000D01*
X17680000Y-1890000D02*
X17680000Y-90000D01*
%TO.N,/PB29*%
X27840000Y-8310000D02*
X26765000Y-7235000D01*
X27840000Y-12960000D02*
X27840000Y-8310000D01*
X27310000Y-21410000D02*
X27430000Y-21530000D01*
X27310000Y-20862614D02*
X27310000Y-21410000D01*
X27732932Y-20439682D02*
X27310000Y-20862614D01*
X25300000Y-15500000D02*
X27840000Y-12960000D01*
%TO.N,/PB28*%
X31650000Y-12158037D02*
X31650000Y-5698528D01*
X30581472Y-4630000D02*
X19670000Y-4630000D01*
X26990470Y-19697220D02*
X27526386Y-19161304D01*
X27526386Y-19161304D02*
X27526386Y-18368849D01*
X19670000Y-4630000D02*
X16405000Y-1365000D01*
X31650000Y-5698528D02*
X30581472Y-4630000D01*
X27526386Y-18368849D02*
X27000500Y-17842963D01*
X27000500Y-16807537D02*
X31650000Y-12158037D01*
X27000500Y-17842963D02*
X27000500Y-16807537D01*
%TO.N,/PB27*%
X15160000Y-70000D02*
X16405000Y1175000D01*
D68*
X29810000Y2490000D02*
X17720000Y2490000D01*
D70*
X31350000Y-12033773D02*
X31350000Y-5840000D01*
X18240000Y-4930000D02*
X15160000Y-1850000D01*
X26700500Y-16683273D02*
X31350000Y-12033773D01*
X27226386Y-18966329D02*
X27226386Y-18493113D01*
X31350000Y-5840000D02*
X30440000Y-4930000D01*
X26742983Y-19449732D02*
X27226386Y-18966329D01*
D68*
X31125000Y1175000D02*
X29810000Y2490000D01*
D70*
X26700500Y-17967227D02*
X26700500Y-16683273D01*
D68*
X17720000Y2490000D02*
X16405000Y1175000D01*
D70*
X27226386Y-18493113D02*
X26700500Y-17967227D01*
X15160000Y-1850000D02*
X15160000Y-70000D01*
X30440000Y-4930000D02*
X18240000Y-4930000D01*
D69*
%TO.N,+5V*%
X46500000Y-17400000D02*
X51912500Y-17400000D01*
X51912500Y-17400000D02*
X53600000Y-15712500D01*
X9400000Y-29800000D02*
X10900000Y-29800000D01*
X7080000Y-33600000D02*
X7490000Y-33190000D01*
X-300000Y-20100000D02*
X9400000Y-29800000D01*
X7490000Y-33190000D02*
X10610000Y-33190000D01*
D66*
X11692500Y-43252500D02*
X11692500Y-44822500D01*
D69*
X-300000Y-12700000D02*
X-300000Y-20100000D01*
X45300000Y-20651346D02*
X45300000Y-18600000D01*
X45300000Y-18600000D02*
X46500000Y-17400000D01*
D66*
X17080000Y-43160000D02*
X16592500Y-43647500D01*
D69*
X45900500Y-24100000D02*
X45900500Y-21251846D01*
X10610000Y-33190000D02*
X10890000Y-32910000D01*
X45900500Y-21251846D02*
X45300000Y-20651346D01*
X3900000Y-8500000D02*
X-300000Y-12700000D01*
D66*
X16592500Y-43647500D02*
X16592500Y-44822500D01*
D68*
%TO.N,Net-(J1-CC1)*%
X12892500Y-44822500D02*
X12892500Y-42900000D01*
X12892500Y-42900000D02*
X13530000Y-42262500D01*
%TO.N,Net-(J1-CC2)*%
X17500000Y-42100000D02*
X19352500Y-40247500D01*
X15892500Y-43392474D02*
X17184974Y-42100000D01*
X19352500Y-40247500D02*
X21170000Y-40247500D01*
X17184974Y-42100000D02*
X17500000Y-42100000D01*
X15892500Y-44822500D02*
X15892500Y-43392474D01*
D70*
%TO.N,/PB26*%
X26495495Y-19202245D02*
X26926386Y-18771354D01*
X17730000Y-5230000D02*
X13865000Y-1365000D01*
X26400000Y-16559509D02*
X31050000Y-11909509D01*
X26926386Y-18771354D02*
X26926386Y-18617377D01*
X26400000Y-18090991D02*
X26400000Y-16559509D01*
X30315736Y-5230000D02*
X17730000Y-5230000D01*
X31050000Y-5964264D02*
X30315736Y-5230000D01*
X26926386Y-18617377D02*
X26400000Y-18090991D01*
X31050000Y-11909509D02*
X31050000Y-5964264D01*
%TO.N,/PB25*%
X12690000Y0D02*
X13865000Y1175000D01*
X16220000Y-5530000D02*
X12690000Y-2000000D01*
X30190000Y-5530000D02*
X16220000Y-5530000D01*
X30750000Y-11785245D02*
X30750000Y-6090000D01*
X26100000Y-16435245D02*
X30750000Y-11785245D01*
X12690000Y-2000000D02*
X12690000Y0D01*
X26248008Y-18954757D02*
X26100000Y-18806749D01*
X30750000Y-6090000D02*
X30190000Y-5530000D01*
X26100000Y-18806749D02*
X26100000Y-16435245D01*
%TO.N,/CAM_PE*%
X14360000Y-18840000D02*
X8300000Y-18840000D01*
X21731434Y-21098566D02*
X22346054Y-21098566D01*
X21680000Y-21150000D02*
X21731434Y-21098566D01*
X22346054Y-21098566D02*
X22677119Y-21429631D01*
%TO.N,/I2C0_SCK*%
X22429631Y-21677119D02*
X22875000Y-22122488D01*
X22880000Y-22644264D02*
X21300000Y-24224264D01*
X22880000Y-22322463D02*
X22880000Y-22644264D01*
X22875000Y-22317463D02*
X22880000Y-22322463D01*
X21300000Y-24224264D02*
X21300000Y-25200000D01*
X22875000Y-22122488D02*
X22875000Y-22317463D01*
%TO.N,/I2C0_SDA*%
X22580000Y-22520000D02*
X20650000Y-24450000D01*
X22182144Y-21924606D02*
X22575000Y-22317462D01*
X22580000Y-22446727D02*
X22580000Y-22520000D01*
X20650000Y-24450000D02*
X20650000Y-24650000D01*
X22575000Y-22317462D02*
X22575000Y-22441727D01*
X20650000Y-24650000D02*
X20700000Y-24700000D01*
X22575000Y-22441727D02*
X22580000Y-22446727D01*
%TO.N,/AUX0*%
X10010000Y2490000D02*
X11325000Y1175000D01*
X8750000Y-30850000D02*
X-1200000Y-20900000D01*
X657537Y-3100000D02*
X1036575Y-3100000D01*
X21473540Y-27806460D02*
X18430000Y-30850000D01*
X6626575Y2490000D02*
X10010000Y2490000D01*
X1036575Y-3100000D02*
X6626575Y2490000D01*
X21851078Y-27806460D02*
X21473540Y-27806460D01*
X22182144Y-27475394D02*
X21851078Y-27806460D01*
X-1200000Y-4957537D02*
X657537Y-3100000D01*
X-1200000Y-20900000D02*
X-1200000Y-4957537D01*
X18430000Y-30850000D02*
X8750000Y-30850000D01*
D68*
%TO.N,Net-(U4-IO2)*%
X71730000Y-45359315D02*
X68375000Y-48714315D01*
X68042500Y-36480000D02*
X71730000Y-40167500D01*
X68375000Y-48714315D02*
X68375000Y-48810000D01*
X71730000Y-40167500D02*
X71730000Y-45359315D01*
D70*
%TO.N,/MDIO*%
X42800000Y-4000000D02*
X43825000Y-2975000D01*
X31302915Y-27825000D02*
X32127915Y-28650000D01*
X29567462Y-27825000D02*
X31302915Y-27825000D01*
X43825000Y-2975000D02*
X43825000Y-1365000D01*
X32127915Y-28650000D02*
X38750000Y-28650000D01*
X42800000Y-24600000D02*
X42800000Y-4000000D01*
X38750000Y-28650000D02*
X42800000Y-24600000D01*
X29217856Y-27475394D02*
X29567462Y-27825000D01*
%TO.N,/MDCK*%
X28976284Y-26301299D02*
X28976284Y-26738847D01*
X38975236Y-28000500D02*
X42500000Y-24475736D01*
X42500000Y-3400000D02*
X42750000Y-3150000D01*
X42750000Y100000D02*
X43825000Y1175000D01*
X42500000Y-24475736D02*
X42500000Y-3400000D01*
X32168744Y-27900500D02*
X32268744Y-28000500D01*
X28976284Y-26738847D02*
X29465344Y-27227907D01*
X42750000Y-3150000D02*
X42750000Y100000D01*
X32268744Y-28000500D02*
X38975236Y-28000500D01*
%TO.N,/RXDV*%
X32386207Y-27375500D02*
X32711207Y-27700500D01*
X42200000Y-2280000D02*
X41285000Y-1365000D01*
X38850972Y-27700500D02*
X42200000Y-24351472D01*
X32711207Y-27700500D02*
X38850972Y-27700500D01*
X42200000Y-24351472D02*
X42200000Y-2280000D01*
X29712831Y-26980419D02*
X30107912Y-27375500D01*
X30107912Y-27375500D02*
X32386207Y-27375500D01*
%TO.N,/RXD0*%
X33166257Y-27124500D02*
X33221757Y-27180000D01*
X33221757Y-27180000D02*
X38947208Y-27180000D01*
X40210000Y100000D02*
X41285000Y1175000D01*
X38947208Y-27180000D02*
X41900000Y-24227208D01*
X29500000Y-26272614D02*
X29960318Y-26732932D01*
X40210000Y-1910000D02*
X40210000Y100000D01*
X41900000Y-3600000D02*
X40210000Y-1910000D01*
X41900000Y-24227208D02*
X41900000Y-3600000D01*
X29700000Y-25700000D02*
X29500000Y-25900000D01*
X29500000Y-25900000D02*
X29500000Y-26272614D01*
%TO.N,/RXD1*%
X41600000Y-24102944D02*
X41600000Y-4220000D01*
X33384220Y-26600000D02*
X39102944Y-26600000D01*
X32472794Y-27075500D02*
X32948794Y-26599500D01*
X30207806Y-26485445D02*
X30797861Y-27075500D01*
X39102944Y-26600000D02*
X41600000Y-24102944D01*
X41600000Y-4220000D02*
X38745000Y-1365000D01*
X32948794Y-26599500D02*
X33383720Y-26599500D01*
X33383720Y-26599500D02*
X33384220Y-26600000D01*
X30797861Y-27075500D02*
X32472794Y-27075500D01*
%TO.N,/TXCLK*%
X37670000Y100000D02*
X38745000Y1175000D01*
X32824030Y-26300000D02*
X38978680Y-26300000D01*
X38978680Y-26300000D02*
X41300000Y-23978680D01*
X41300000Y-5440280D02*
X37670000Y-1810280D01*
X32348530Y-26775500D02*
X32824030Y-26300000D01*
X37670000Y-1810280D02*
X37670000Y100000D01*
X30992836Y-26775500D02*
X32348530Y-26775500D01*
X41300000Y-23978680D02*
X41300000Y-5440280D01*
X30455293Y-26237957D02*
X30992836Y-26775500D01*
%TO.N,/PHYCLK*%
X38854416Y-26000000D02*
X41000000Y-23854416D01*
X31187810Y-26475500D02*
X32224266Y-26475500D01*
X32224266Y-26475500D02*
X32699766Y-26000000D01*
X36800456Y-1365000D02*
X36205000Y-1365000D01*
X32699766Y-26000000D02*
X38854416Y-26000000D01*
X30702780Y-25990470D02*
X31187810Y-26475500D01*
X41000000Y-23854416D02*
X41000000Y-5564544D01*
X41000000Y-5564544D02*
X36800456Y-1365000D01*
%TO.N,/TXD0*%
X37451192Y-2440000D02*
X35759720Y-2440000D01*
X40700000Y-5688808D02*
X37451192Y-2440000D01*
X30950268Y-25742983D02*
X31382785Y-26175500D01*
X38730152Y-25700000D02*
X40700000Y-23730152D01*
X32375736Y-25700000D02*
X38730152Y-25700000D01*
X35759720Y-2440000D02*
X35130000Y-1810280D01*
X35130000Y100000D02*
X36205000Y1175000D01*
X31900236Y-26175500D02*
X32375736Y-25700000D01*
X35130000Y-1810280D02*
X35130000Y100000D01*
X40700000Y-23730152D02*
X40700000Y-5688808D01*
X31382785Y-26175500D02*
X31900236Y-26175500D01*
%TO.N,/TXD1*%
X33400000Y-25175500D02*
X33615500Y-24960000D01*
X39045888Y-24960000D02*
X40400000Y-23605888D01*
X37326928Y-2740000D02*
X35040000Y-2740000D01*
X33615500Y-24960000D02*
X39045888Y-24960000D01*
X40400000Y-5813072D02*
X37326928Y-2740000D01*
X40400000Y-23605888D02*
X40400000Y-5813072D01*
X35040000Y-2740000D02*
X33665000Y-1365000D01*
X30270000Y-25050000D02*
X30752260Y-25050000D01*
X30752260Y-25050000D02*
X31197755Y-25495495D01*
%TO.N,/TXEN*%
X33182537Y-24650500D02*
X33617463Y-24650500D01*
X40100000Y-5937336D02*
X37202664Y-3040000D01*
X33819720Y-3040000D02*
X32590000Y-1810280D01*
X37202664Y-3040000D02*
X33819720Y-3040000D01*
X40100000Y-23481624D02*
X40100000Y-5937336D01*
X38921624Y-24660000D02*
X40100000Y-23481624D01*
X32590000Y100000D02*
X33665000Y1175000D01*
X33626963Y-24660000D02*
X38921624Y-24660000D01*
X31445243Y-25248008D02*
X32585029Y-25248008D01*
X32585029Y-25248008D02*
X33182537Y-24650500D01*
X32590000Y-1810280D02*
X32590000Y100000D01*
X33617463Y-24650500D02*
X33626963Y-24660000D01*
%TO.N,/UART0_RTS*%
X34300000Y-19300000D02*
X33450000Y-18450000D01*
X33450000Y-4819500D02*
X31390500Y-2760000D01*
X31390500Y-2760000D02*
X27960000Y-2760000D01*
X32402122Y-23573614D02*
X34300000Y-21675736D01*
X33450000Y-18450000D02*
X33450000Y-4819500D01*
X31197755Y-23904505D02*
X31528646Y-23573614D01*
X27960000Y-2760000D02*
X24025000Y1175000D01*
X34300000Y-21675736D02*
X34300000Y-19300000D01*
X31528646Y-23573614D02*
X32402122Y-23573614D01*
%TO.N,/UART0_CTS*%
X34000000Y-21551472D02*
X34000000Y-19424264D01*
X31326386Y-23273614D02*
X32277858Y-23273614D01*
X30950268Y-23657017D02*
X31200000Y-23407285D01*
X31200000Y-23407285D02*
X31200000Y-23400000D01*
X31266236Y-3060000D02*
X25720000Y-3060000D01*
X33150000Y-18574264D02*
X33150000Y-4943764D01*
X33150000Y-4943764D02*
X31266236Y-3060000D01*
X34000000Y-19424264D02*
X33150000Y-18574264D01*
X25720000Y-3060000D02*
X24025000Y-1365000D01*
X31200000Y-23400000D02*
X31326386Y-23273614D01*
X32277858Y-23273614D02*
X34000000Y-21551472D01*
D68*
%TO.N,/UART0_TXD*%
X12392500Y-46717500D02*
X12080000Y-47030000D01*
D70*
X22750000Y-2000280D02*
X22750000Y-90000D01*
X32850000Y-18698528D02*
X32850000Y-5201472D01*
X30702780Y-23409530D02*
X31138696Y-22973614D01*
X22750000Y-90000D02*
X21485000Y1175000D01*
X32153594Y-22973614D02*
X33700000Y-21427208D01*
X24109720Y-3360000D02*
X22750000Y-2000280D01*
X31138696Y-22973614D02*
X32153594Y-22973614D01*
X32850000Y-5201472D02*
X31008528Y-3360000D01*
X33700000Y-19548528D02*
X32850000Y-18698528D01*
D68*
X12392500Y-44822500D02*
X12392500Y-46717500D01*
D70*
X31008528Y-3360000D02*
X24109720Y-3360000D01*
X33700000Y-21427208D02*
X33700000Y-19548528D01*
%TO.N,/UART0_RXD*%
X23850000Y-3730000D02*
X21485000Y-1365000D01*
X32550000Y-18822792D02*
X32550000Y-5325736D01*
X30954264Y-3730000D02*
X23850000Y-3730000D01*
D68*
X15392500Y-45697500D02*
X15392500Y-44822500D01*
D70*
X30455293Y-23162043D02*
X30943722Y-22673614D01*
X32550000Y-5325736D02*
X30954264Y-3730000D01*
X30943722Y-22673614D02*
X32029330Y-22673614D01*
X32029330Y-22673614D02*
X33400000Y-21302944D01*
D68*
X15780000Y-46085000D02*
X15392500Y-45697500D01*
D70*
X33400000Y-19672792D02*
X32550000Y-18822792D01*
X33400000Y-21302944D02*
X33400000Y-19672792D01*
D68*
X15780000Y-46980000D02*
X15780000Y-46085000D01*
D70*
%TO.N,/PB31*%
X28710000Y-20452563D02*
X28710000Y-19993396D01*
X21610000Y-4030000D02*
X18945000Y-1365000D01*
X32250000Y-16453396D02*
X32250000Y-5450000D01*
X30830000Y-4030000D02*
X21610000Y-4030000D01*
X32250000Y-5450000D02*
X30830000Y-4030000D01*
X28263262Y-20899301D02*
X28710000Y-20452563D01*
X28710000Y-19993396D02*
X32250000Y-16453396D01*
D66*
%TO.N,Net-(U4-VCC)*%
X65257500Y-35520000D02*
X66217500Y-36480000D01*
X66217500Y-36480000D02*
X65860000Y-36837500D01*
X72480000Y-38350000D02*
X72480000Y-44687500D01*
X65860000Y-41585000D02*
X65835000Y-41610000D01*
X65860000Y-36837500D02*
X65860000Y-41585000D01*
X65212500Y-35215000D02*
X66737500Y-33690000D01*
X67820000Y-33690000D02*
X72480000Y-38350000D01*
X65257500Y-34840000D02*
X65257500Y-35520000D01*
X72480000Y-44687500D02*
X75200000Y-47407500D01*
X54070000Y-35215000D02*
X65212500Y-35215000D01*
X66737500Y-33690000D02*
X67820000Y-33690000D01*
D68*
%TO.N,Net-(U5-VCC)*%
X46150000Y-43717500D02*
X46750000Y-43117500D01*
X52800000Y-35215000D02*
X52800000Y-36160000D01*
D66*
X50600000Y-37850000D02*
X50600000Y-40820000D01*
X50770000Y-38360000D02*
X50600000Y-38360000D01*
D68*
X46632000Y-47627500D02*
X46640000Y-47627500D01*
D66*
X52800000Y-36160000D02*
X52800000Y-36330000D01*
D68*
X46150000Y-43990000D02*
X46150000Y-43717500D01*
X46640000Y-47627500D02*
X46660000Y-47607500D01*
X45834500Y-46830000D02*
X46632000Y-47627500D01*
D66*
X52800000Y-36330000D02*
X50770000Y-38360000D01*
D68*
%TO.N,Net-(U5-IO2)*%
X52182500Y-44942500D02*
X55680000Y-48440000D01*
X46750000Y-44942500D02*
X52182500Y-44942500D01*
D69*
%TO.N,Net-(SW1-Pad4)*%
X51530000Y-29965000D02*
X52800000Y-29965000D01*
X52800000Y-29965000D02*
X54070000Y-29965000D01*
%TO.N,Net-(J3-Shield)*%
X3400000Y-45820000D02*
X4500000Y-46920000D01*
X3400000Y-43670000D02*
X3400000Y-45820000D01*
X4500000Y-46920000D02*
X4927500Y-46920000D01*
D72*
X3400000Y-30530000D02*
X3400000Y-43670000D01*
D69*
X4927500Y-46920000D02*
X5050000Y-46797500D01*
%TO.N,Net-(J1-SHIELD)*%
X8060000Y-45737500D02*
X7000000Y-46797500D01*
X9822500Y-45737500D02*
X8060000Y-45737500D01*
D68*
%TO.N,Net-(U5-IO3)*%
X53140000Y-40820000D02*
X53140000Y-38517500D01*
X53140000Y-38517500D02*
X52612500Y-37990000D01*
%TO.N,Net-(U4-IO3)*%
X67082500Y-41587500D02*
X67105000Y-41610000D01*
X67082500Y-34840000D02*
X67082500Y-41587500D01*
D70*
%TO.N,/PB17*%
X29305000Y-9775000D02*
X29305000Y-12805981D01*
X25800000Y-16310981D02*
X25800000Y-18306749D01*
X25800000Y-18306749D02*
X25151992Y-18954757D01*
X29305000Y-12805981D02*
X25800000Y-16310981D01*
%TO.N,/PB18*%
X24573439Y-18871179D02*
X24904505Y-19202245D01*
X25500000Y-16042463D02*
X25500000Y-17310000D01*
X29305000Y-7235000D02*
X28140000Y-8400000D01*
X24573439Y-18236561D02*
X24573439Y-18871179D01*
X28140000Y-8400000D02*
X28140000Y-13402463D01*
X25500000Y-17310000D02*
X24573439Y-18236561D01*
X28140000Y-13402463D02*
X25500000Y-16042463D01*
D66*
%TO.N,+2V8*%
X4600000Y-5000000D02*
X2950000Y-6650000D01*
X6037500Y-9400000D02*
X6037500Y-10800000D01*
D68*
X2300000Y-7300000D02*
X2950000Y-6650000D01*
D66*
X6037500Y-5075000D02*
X5962500Y-5000000D01*
X5962500Y-5000000D02*
X4600000Y-5000000D01*
X6037500Y-9400000D02*
X6037500Y-5075000D01*
D68*
X2300000Y-7400000D02*
X2300000Y-7300000D01*
%TD*%
M02*
