%TF.GenerationSoftware,KiCad,Pcbnew,7.0.1*%
%TF.CreationDate,2023-09-20T00:41:55-04:00*%
%TF.ProjectId,Teacup.kicad_pcb-revB,54656163-7570-42e6-9b69-6361645f7063,B*%
%TF.SameCoordinates,Original*%
%TF.FileFunction,Copper,L2,Inr*%
%TF.FilePolarity,Positive*%
%FSLAX46Y46*%
G04 Gerber Fmt 4.6, Leading zero omitted, Abs format (unit mm)*
G04 Created by KiCad (PCBNEW 7.0.1) date 2023-09-20 00:41:55*
%MOMM*%
%LPD*%
G01*
G04 APERTURE LIST*
%TA.AperFunction,ComponentPad*%
%ADD10C,0.800000*%
%TD*%
%TA.AperFunction,ComponentPad*%
%ADD11C,5.400000*%
%TD*%
%TA.AperFunction,ComponentPad*%
%ADD12R,1.700000X1.700000*%
%TD*%
%TA.AperFunction,ComponentPad*%
%ADD13O,1.700000X1.700000*%
%TD*%
%TA.AperFunction,ComponentPad*%
%ADD14O,1.000000X2.100000*%
%TD*%
%TA.AperFunction,ComponentPad*%
%ADD15O,1.000000X1.600000*%
%TD*%
%TA.AperFunction,ComponentPad*%
%ADD16C,3.000000*%
%TD*%
%TA.AperFunction,ComponentPad*%
%ADD17R,1.600000X2.400000*%
%TD*%
%TA.AperFunction,ComponentPad*%
%ADD18O,1.600000X2.400000*%
%TD*%
%TA.AperFunction,ComponentPad*%
%ADD19R,4.400000X1.800000*%
%TD*%
%TA.AperFunction,ComponentPad*%
%ADD20O,4.000000X1.800000*%
%TD*%
%TA.AperFunction,ComponentPad*%
%ADD21O,1.800000X4.000000*%
%TD*%
%TA.AperFunction,ViaPad*%
%ADD22C,0.600000*%
%TD*%
%TA.AperFunction,ViaPad*%
%ADD23C,1.000000*%
%TD*%
%TA.AperFunction,ViaPad*%
%ADD24C,3.000000*%
%TD*%
%TA.AperFunction,Conductor*%
%ADD25C,0.500000*%
%TD*%
%TA.AperFunction,Conductor*%
%ADD26C,0.200000*%
%TD*%
G04 APERTURE END LIST*
D10*
%TO.N,GND*%
%TO.C,H4*%
X77975000Y0D03*
X78568109Y1431891D03*
X78568109Y-1431891D03*
X80000000Y2025000D03*
D11*
X80000000Y0D03*
D10*
X80000000Y-2025000D03*
X81431891Y1431891D03*
X81431891Y-1431891D03*
X82025000Y0D03*
%TD*%
%TO.N,GND*%
%TO.C,H3*%
X77975000Y-50000000D03*
X78568109Y-48568109D03*
X78568109Y-51431891D03*
X80000000Y-47975000D03*
D11*
X80000000Y-50000000D03*
D10*
X80000000Y-52025000D03*
X81431891Y-48568109D03*
X81431891Y-51431891D03*
X82025000Y-50000000D03*
%TD*%
D12*
%TO.N,GND*%
%TO.C,J12*%
X35010000Y-35590000D03*
D13*
%TO.N,/HPOUTL*%
X37550000Y-35590000D03*
%TO.N,/MICLP*%
X40090000Y-35590000D03*
%TO.N,GND*%
X42630000Y-35590000D03*
%TD*%
D12*
%TO.N,/MDCK*%
%TO.C,J7*%
X43825000Y1175000D03*
D13*
%TO.N,/MDIO*%
X43825000Y-1365000D03*
%TO.N,/RXD0*%
X41285000Y1175000D03*
%TO.N,/RXDV*%
X41285000Y-1365000D03*
%TO.N,/TXCLK*%
X38745000Y1175000D03*
%TO.N,/RXD1*%
X38745000Y-1365000D03*
%TO.N,/TXD0*%
X36205000Y1175000D03*
%TO.N,/PHYCLK*%
X36205000Y-1365000D03*
%TO.N,/TXEN*%
X33665000Y1175000D03*
%TO.N,/TXD1*%
X33665000Y-1365000D03*
%TO.N,/PB27*%
X31125000Y1175000D03*
%TO.N,GND*%
X31125000Y-1365000D03*
%TO.N,+3V3*%
X28585000Y1175000D03*
%TO.N,+5V*%
X28585000Y-1365000D03*
%TD*%
D14*
%TO.N,Net-(J1-SHIELD)*%
%TO.C,J1*%
X9822500Y-45737500D03*
D15*
X9822500Y-49917500D03*
D14*
X18462500Y-45737500D03*
D15*
X18462500Y-49917500D03*
%TD*%
D12*
%TO.N,/UART0_RTS*%
%TO.C,J6*%
X24025000Y1175000D03*
D13*
%TO.N,/UART0_CTS*%
X24025000Y-1365000D03*
%TO.N,/UART0_TXD*%
X21485000Y1175000D03*
%TO.N,/UART0_RXD*%
X21485000Y-1365000D03*
%TO.N,/PB30*%
X18945000Y1175000D03*
%TO.N,/PB31*%
X18945000Y-1365000D03*
%TO.N,/PB27*%
X16405000Y1175000D03*
%TO.N,/PB28*%
X16405000Y-1365000D03*
%TO.N,/PB25*%
X13865000Y1175000D03*
%TO.N,/PB26*%
X13865000Y-1365000D03*
%TO.N,/AUX0*%
X11325000Y1175000D03*
%TO.N,GND*%
X11325000Y-1365000D03*
%TO.N,+3V3*%
X8785000Y1175000D03*
%TO.N,+5V*%
X8785000Y-1365000D03*
%TD*%
D10*
%TO.N,GND*%
%TO.C,H1*%
X-2025000Y-50000000D03*
X-1431891Y-48568109D03*
X-1431891Y-51431891D03*
X0Y-47975000D03*
D11*
X0Y-50000000D03*
D10*
X0Y-52025000D03*
X1431891Y-48568109D03*
X1431891Y-51431891D03*
X2025000Y-50000000D03*
%TD*%
D12*
%TO.N,/UART_TX*%
%TO.C,J5*%
X81170000Y-38570000D03*
D13*
%TO.N,/UART_RX*%
X81170000Y-41110000D03*
%TO.N,GND*%
X81170000Y-43650000D03*
%TD*%
D12*
%TO.N,+2V8*%
%TO.C,J4*%
X11525000Y-9775000D03*
D13*
%TO.N,+3V3*%
X11525000Y-7235000D03*
%TO.N,GND*%
X14065000Y-9775000D03*
%TO.N,+5V*%
X14065000Y-7235000D03*
%TO.N,/PA06*%
X16605000Y-9775000D03*
%TO.N,/PA07*%
X16605000Y-7235000D03*
%TO.N,/PA09*%
X19145000Y-9775000D03*
%TO.N,/PA08*%
X19145000Y-7235000D03*
%TO.N,/PA11*%
X21685000Y-9775000D03*
%TO.N,/PA10*%
X21685000Y-7235000D03*
%TO.N,/PA16*%
X24225000Y-9775000D03*
%TO.N,/PA14*%
X24225000Y-7235000D03*
%TO.N,/PA17*%
X26765000Y-9775000D03*
%TO.N,/PB29*%
X26765000Y-7235000D03*
%TO.N,/PB17*%
X29305000Y-9775000D03*
%TO.N,/PB18*%
X29305000Y-7235000D03*
%TD*%
D12*
%TO.N,+5V*%
%TO.C,J11*%
X10890000Y-32910000D03*
D13*
%TO.N,/USB_D-*%
X10890000Y-35450000D03*
%TO.N,/USB_D+*%
X10890000Y-37990000D03*
%TO.N,GND*%
X10890000Y-40530000D03*
%TD*%
D16*
%TO.N,Net-(J3-Shield)*%
%TO.C,J3*%
X3400000Y-30530000D03*
X3400000Y-43670000D03*
%TD*%
D10*
%TO.N,GND*%
%TO.C,H2*%
X-2025000Y0D03*
X-1431891Y1431891D03*
X-1431891Y-1431891D03*
X0Y2025000D03*
D11*
X0Y0D03*
D10*
X0Y-2025000D03*
X1431891Y1431891D03*
X1431891Y-1431891D03*
X2025000Y0D03*
%TD*%
D17*
%TO.N,/NOR_CE*%
%TO.C,U5*%
X50600000Y-48440000D03*
D18*
%TO.N,/NOR_DR*%
X53140000Y-48440000D03*
%TO.N,Net-(U5-IO2)*%
X55680000Y-48440000D03*
%TO.N,GND*%
X58220000Y-48440000D03*
%TO.N,/NOR_DT*%
X58220000Y-40820000D03*
%TO.N,/NOR_CK*%
X55680000Y-40820000D03*
%TO.N,Net-(U5-IO3)*%
X53140000Y-40820000D03*
%TO.N,Net-(U5-VCC)*%
X50600000Y-40820000D03*
%TD*%
D19*
%TO.N,+5V*%
%TO.C,J8*%
X27740000Y-38900000D03*
D20*
%TO.N,GND*%
X27740000Y-44700000D03*
D21*
%TO.N,N/C*%
X32540000Y-41900000D03*
%TD*%
D22*
%TO.N,GND*%
X47600000Y-11650000D03*
X54600000Y-23800000D03*
D23*
X20000000Y-52000000D03*
D22*
X20870000Y-31640000D03*
X29100000Y-16700000D03*
X58000000Y-11600000D03*
D23*
X-2000000Y-15000000D03*
D22*
X28579500Y-24090000D03*
X73300000Y-7000000D03*
X20400000Y-18940000D03*
X29700000Y-17500000D03*
D23*
X82000000Y-10000000D03*
X71830000Y-31820000D03*
X25000000Y-52000000D03*
D22*
X19410000Y-43230000D03*
D23*
X79300000Y-29000000D03*
D22*
X62100000Y-23800000D03*
X55700000Y-8000000D03*
X23210000Y-14690000D03*
D23*
X30000000Y-52000000D03*
D22*
X20900000Y-18600000D03*
X7800000Y-11900000D03*
X31730000Y-19150000D03*
X32440000Y-19840000D03*
X31030000Y-18430000D03*
X19050000Y-14880000D03*
X71500000Y-8950000D03*
D23*
X-2000000Y-35000000D03*
D22*
X55650000Y-9800000D03*
X49500000Y-4000000D03*
D23*
X48350000Y-52090000D03*
D22*
X56000000Y-11600000D03*
X8000000Y-6300000D03*
D23*
X-2000000Y-10000000D03*
X-2000000Y-20000001D03*
D22*
X26850000Y-35850000D03*
X21400000Y-18000000D03*
X26200000Y-32300000D03*
D23*
X-2000000Y-29999999D03*
X-1860000Y-3800000D03*
X48500000Y-29100000D03*
D22*
X73150000Y-4350000D03*
D23*
X-2000000Y-40000000D03*
X15000000Y-52000000D03*
D22*
X71500000Y-7100000D03*
D23*
X80225000Y-7575000D03*
X44320000Y-52090000D03*
D22*
X18600000Y-29800000D03*
X70500000Y1900000D03*
X18400000Y-16100000D03*
X58300000Y-9800000D03*
X66050000Y-8000000D03*
X31850000Y-30240000D03*
X700000Y-3800000D03*
D23*
X75000000Y-52000000D03*
D22*
X22500000Y-33000000D03*
D23*
X-2000000Y-45000000D03*
X71632500Y-49157500D03*
X5000000Y-52000000D03*
X65000000Y-52000000D03*
X60000000Y-52000000D03*
D22*
X73350000Y-10600000D03*
X21660000Y-32450000D03*
X7800000Y-8900000D03*
D24*
X25700000Y-24700000D03*
D22*
X23070000Y-24740000D03*
X20100000Y-30000000D03*
X70500000Y0D03*
D23*
X81850000Y-35390000D03*
D22*
X74300000Y2000000D03*
X7412000Y-21600000D03*
X23200000Y-13700000D03*
X66400000Y-11600000D03*
X22949500Y-23950000D03*
X24100000Y-16500000D03*
X32875500Y-20300000D03*
X7412500Y-20300000D03*
D23*
X5010000Y-50060000D03*
D22*
X48000000Y-8050000D03*
D23*
X82000000Y-5000000D03*
X70000000Y-52000000D03*
D22*
X49500000Y-6800000D03*
X36660000Y-10810000D03*
X47950000Y-9850000D03*
D23*
X82000000Y-20000000D03*
X55700000Y-52060000D03*
X-2000000Y-25000001D03*
D22*
X27132863Y-22444315D03*
D23*
X82000000Y-15000000D03*
D22*
X59900000Y-6800000D03*
D23*
X51900000Y-52090000D03*
D22*
X29140000Y-24650000D03*
X4700000Y-22900000D03*
X32340000Y-29690000D03*
X19040000Y-37680000D03*
X58350000Y-8000000D03*
X59900000Y-3900000D03*
X23350000Y-25575000D03*
X66000000Y-9800000D03*
X37900000Y-17120000D03*
X74300000Y-100000D03*
X25360000Y-27620000D03*
X71500000Y-10600000D03*
X28680000Y-25340000D03*
D23*
X33930000Y-50520000D03*
X10000000Y-52000000D03*
D22*
X71650000Y-4350000D03*
X73350000Y-8950000D03*
%TO.N,Net-(IC1-VREF)*%
X35650000Y-22685500D03*
X28550000Y-22625000D03*
%TO.N,+3V3*%
X28300000Y-26900000D03*
X0Y-7100000D03*
X39530000Y-15740000D03*
D23*
X36800000Y-5400000D03*
X47050000Y-30870000D03*
X47050000Y-20775000D03*
D22*
X47400000Y-19000000D03*
D23*
X62200000Y-18900000D03*
D22*
X70700000Y-20000000D03*
X78629240Y-23960996D03*
D23*
X47425000Y-5400000D03*
D22*
X55587500Y-19900000D03*
X63500000Y-20000000D03*
X46875000Y-15725000D03*
X27525500Y-17025000D03*
X68900000Y-20000000D03*
X26200000Y-20300000D03*
D23*
X74100000Y-18900000D03*
X51400000Y-15700000D03*
D22*
X76200000Y-20374500D03*
X59400000Y-19000000D03*
X53800000Y-19900000D03*
X24400000Y-28400000D03*
%TO.N,/USB_D-*%
X13390000Y-47070000D03*
X14630000Y-46640000D03*
%TO.N,/USB_D+*%
X13960000Y-38600000D03*
%TO.N,+1V8*%
X39105000Y-20905000D03*
D23*
X59100000Y-15700000D03*
D22*
X22800000Y-20000000D03*
X15324198Y-19475802D03*
X5326056Y-21473944D03*
X30600500Y-21666028D03*
X29287878Y-20202122D03*
X22000000Y-28350000D03*
X25010589Y-32160589D03*
X25300000Y-20100000D03*
X23200000Y-27200000D03*
X23221962Y-30539074D03*
%TO.N,+0V8*%
X23851886Y-32550000D03*
X22300000Y-26200000D03*
D23*
X72900000Y-15700000D03*
D22*
X27800000Y-27600000D03*
X23400000Y-22100000D03*
X26743815Y-20933824D03*
X31300000Y-22149114D03*
X29890901Y-20816528D03*
%TO.N,Net-(IC1-PPRST_)*%
X24454762Y-20945238D03*
X34280000Y-10060000D03*
%TO.N,/PA15*%
X12900000Y-16800000D03*
X16702603Y-16797397D03*
%TO.N,/MIPI_0_N*%
X17100000Y-23300000D03*
%TO.N,/MIPI_0_P*%
X17051658Y-24048331D03*
%TO.N,/MIPI_CLK_N*%
X17100000Y-25400000D03*
%TO.N,/MIPI_CLK_P*%
X16643390Y-25994357D03*
%TO.N,/MIPI_1_N*%
X14939500Y-26804104D03*
%TO.N,/MIPI_1_P*%
X14400000Y-27500000D03*
%TO.N,/MMC0_D1*%
X50800000Y-24400000D03*
X50800000Y-26900000D03*
%TO.N,/MMC0_D0*%
X52200000Y-26500000D03*
X52200000Y-24400000D03*
%TO.N,/MMC0_CLK*%
X57000000Y-26200000D03*
X57000000Y-24300000D03*
%TO.N,/MMC0_CMD*%
X64600000Y-24400000D03*
X64600000Y-25900000D03*
%TO.N,/MMC0_D3*%
X67100000Y-25524500D03*
X67100000Y-24300000D03*
%TO.N,/MICLP*%
X25770000Y-30910000D03*
X25700000Y-29480000D03*
%TO.N,/UART_RX*%
X43046538Y-28416538D03*
X34010886Y-23930000D03*
X29750000Y-23710000D03*
X38957184Y-23882684D03*
%TO.N,/UART_TX*%
X28977521Y-23240613D03*
X32320000Y-24520000D03*
X39487162Y-23352705D03*
X44290000Y-27730000D03*
%TO.N,/PB29*%
X25300000Y-15500000D03*
X27430000Y-21530000D03*
%TO.N,+5V*%
X3900000Y-8500000D03*
X17080000Y-43160000D03*
D23*
X45900500Y-24100000D03*
D22*
X10900000Y-29800000D03*
X11692500Y-43252500D03*
%TO.N,/CAM_PE*%
X14360000Y-18840000D03*
X8300000Y-18840000D03*
X21680000Y-21150000D03*
%TO.N,/I2C0_SCK*%
X1200000Y-16900000D03*
X21300000Y-25200000D03*
%TO.N,/I2C0_SDA*%
X20700000Y-24700000D03*
X1400000Y-19700000D03*
%TO.N,/MDCK*%
X28976284Y-26301299D03*
X32168744Y-27900500D03*
%TO.N,/RXD0*%
X33166257Y-27124500D03*
X29700000Y-25700000D03*
%TO.N,/TXD1*%
X33400000Y-25175500D03*
X30270000Y-25050000D03*
%TO.N,/UART0_TXD*%
X1240000Y-45690000D03*
X12080000Y-47030000D03*
%TO.N,/UART0_RXD*%
X1847054Y-46129591D03*
X15780000Y-46980000D03*
%TO.N,Net-(U5-VCC)*%
X45834500Y-46830000D03*
X46150000Y-43990000D03*
%TO.N,Net-(J9-Pin_7)*%
X5687500Y-20364500D03*
%TO.N,Net-(J9-Pin_11)*%
X5587500Y-18300000D03*
%TO.N,Net-(J9-Pin_14)*%
X5587500Y-16800000D03*
%TO.N,+2V8*%
X2300000Y-7400000D03*
X6037500Y-9400000D03*
%TD*%
D25*
%TO.N,GND*%
X15225000Y-11025000D02*
X14065000Y-9865000D01*
X12935000Y-8735000D02*
X13975000Y-9775000D01*
X14065000Y-9935000D02*
X14065000Y-9775000D01*
X32290000Y-200000D02*
X31125000Y-1365000D01*
X14225000Y-9775000D02*
X15235000Y-8765000D01*
X29950000Y-190000D02*
X31125000Y-1365000D01*
X13975000Y-9775000D02*
X14225000Y-9775000D01*
X14065000Y-9865000D02*
X14065000Y-9775000D01*
X12570000Y-2610000D02*
X11325000Y-1365000D01*
X29950000Y-190000D02*
X29940000Y-190000D01*
D26*
X13890000Y-11200000D02*
X13900000Y-11200000D01*
D25*
X12510000Y-180000D02*
X11325000Y-1365000D01*
X31125000Y-3065000D02*
X31125000Y-1365000D01*
X29900000Y-2590000D02*
X31125000Y-1365000D01*
X32570000Y-2810000D02*
X31125000Y-1365000D01*
D26*
X31125000Y-3065000D02*
X31110000Y-3080000D01*
D25*
X12775000Y-11225000D02*
X14065000Y-9935000D01*
X32290000Y-200000D02*
X32290000Y-180000D01*
X10160000Y-2530000D02*
X11325000Y-1365000D01*
X10170000Y-210000D02*
X11325000Y-1365000D01*
X29900000Y-2590000D02*
X29900000Y-2600000D01*
%TD*%
%TA.AperFunction,Conductor*%
%TO.N,GND*%
G36*
X80002595Y3099364D02*
G01*
X80133464Y3092506D01*
X80326004Y3081693D01*
X80335909Y3080633D01*
X80489630Y3056286D01*
X80490444Y3056152D01*
X80658005Y3027682D01*
X80667015Y3025715D01*
X80821588Y2984297D01*
X80823229Y2983841D01*
X80982208Y2938040D01*
X80990244Y2935345D01*
X81141338Y2877345D01*
X81143572Y2876454D01*
X81294728Y2813843D01*
X81301787Y2810589D01*
X81446754Y2736725D01*
X81449660Y2735182D01*
X81591986Y2656521D01*
X81597987Y2652921D01*
X81734858Y2564035D01*
X81738226Y2561748D01*
X81870408Y2467960D01*
X81875422Y2464157D01*
X82002484Y2361265D01*
X82006138Y2358156D01*
X82096719Y2277207D01*
X82126799Y2250326D01*
X82130835Y2246512D01*
X82246510Y2130837D01*
X82250324Y2126801D01*
X82358143Y2006152D01*
X82361263Y2002486D01*
X82464155Y1875424D01*
X82467958Y1870410D01*
X82561746Y1738228D01*
X82564033Y1734860D01*
X82652910Y1598003D01*
X82656529Y1591971D01*
X82735170Y1449680D01*
X82736733Y1446737D01*
X82810587Y1301789D01*
X82813841Y1294730D01*
X82876425Y1143641D01*
X82877386Y1141233D01*
X82935335Y990270D01*
X82938041Y982199D01*
X82983819Y823302D01*
X82984315Y821518D01*
X83025709Y667032D01*
X83027683Y657992D01*
X83056125Y490594D01*
X83056305Y489498D01*
X83080629Y335925D01*
X83081692Y325989D01*
X83092505Y133448D01*
X83092525Y133079D01*
X83099364Y2595D01*
X83099500Y-2587D01*
X83099500Y-49997413D01*
X83099364Y-50002595D01*
X83092525Y-50133077D01*
X83092505Y-50133446D01*
X83081692Y-50325987D01*
X83080629Y-50335923D01*
X83056305Y-50489496D01*
X83056125Y-50490592D01*
X83027683Y-50657990D01*
X83025709Y-50667030D01*
X82984315Y-50821516D01*
X82983819Y-50823300D01*
X82938041Y-50982197D01*
X82935335Y-50990268D01*
X82877386Y-51141231D01*
X82876425Y-51143639D01*
X82813841Y-51294728D01*
X82810587Y-51301787D01*
X82736733Y-51446735D01*
X82735170Y-51449678D01*
X82656529Y-51591969D01*
X82652910Y-51598001D01*
X82564033Y-51734858D01*
X82561746Y-51738226D01*
X82467958Y-51870408D01*
X82464155Y-51875422D01*
X82361263Y-52002484D01*
X82358143Y-52006150D01*
X82250324Y-52126799D01*
X82246510Y-52130835D01*
X82130835Y-52246510D01*
X82126799Y-52250324D01*
X82006150Y-52358143D01*
X82002484Y-52361263D01*
X81875422Y-52464155D01*
X81870408Y-52467958D01*
X81738226Y-52561746D01*
X81734858Y-52564033D01*
X81598001Y-52652910D01*
X81591969Y-52656529D01*
X81449678Y-52735170D01*
X81446735Y-52736733D01*
X81301787Y-52810587D01*
X81294728Y-52813841D01*
X81143639Y-52876425D01*
X81141231Y-52877386D01*
X80990268Y-52935335D01*
X80982197Y-52938041D01*
X80823300Y-52983819D01*
X80821516Y-52984315D01*
X80667030Y-53025709D01*
X80657990Y-53027683D01*
X80490592Y-53056125D01*
X80489496Y-53056305D01*
X80335923Y-53080629D01*
X80325987Y-53081692D01*
X80133446Y-53092505D01*
X80133077Y-53092525D01*
X80002595Y-53099364D01*
X79997413Y-53099500D01*
X2587Y-53099500D01*
X-2595Y-53099364D01*
X-133079Y-53092525D01*
X-133448Y-53092505D01*
X-325989Y-53081692D01*
X-335925Y-53080629D01*
X-489498Y-53056305D01*
X-490594Y-53056125D01*
X-657992Y-53027683D01*
X-667032Y-53025709D01*
X-821518Y-52984315D01*
X-823302Y-52983819D01*
X-982199Y-52938041D01*
X-990270Y-52935335D01*
X-1023918Y-52922419D01*
X-1141260Y-52877375D01*
X-1143641Y-52876425D01*
X-1294730Y-52813841D01*
X-1301789Y-52810587D01*
X-1446737Y-52736733D01*
X-1449680Y-52735170D01*
X-1591971Y-52656529D01*
X-1598003Y-52652910D01*
X-1734860Y-52564033D01*
X-1738228Y-52561746D01*
X-1870410Y-52467958D01*
X-1875424Y-52464155D01*
X-2002486Y-52361263D01*
X-2006152Y-52358143D01*
X-2126801Y-52250324D01*
X-2130837Y-52246510D01*
X-2246512Y-52130835D01*
X-2250326Y-52126799D01*
X-2264828Y-52110571D01*
X-2358156Y-52006138D01*
X-2361265Y-52002484D01*
X-2464157Y-51875422D01*
X-2467960Y-51870408D01*
X-2561748Y-51738226D01*
X-2564035Y-51734858D01*
X-2620906Y-51647285D01*
X-2652921Y-51597987D01*
X-2656521Y-51591986D01*
X-2681971Y-51545938D01*
X39025630Y-51545938D01*
X39056443Y-51747072D01*
X39127112Y-51937885D01*
X39234747Y-52110571D01*
X39363968Y-52246510D01*
X39374941Y-52258053D01*
X39541951Y-52374295D01*
X39728942Y-52454540D01*
X39928259Y-52495500D01*
X40080742Y-52495500D01*
X40080744Y-52495500D01*
X40156590Y-52487786D01*
X40232438Y-52480074D01*
X40426588Y-52419159D01*
X40604502Y-52320409D01*
X40758895Y-52187866D01*
X40883448Y-52026958D01*
X40973060Y-51844271D01*
X41024063Y-51647285D01*
X41034369Y-51444064D01*
X41029078Y-51409529D01*
X41003556Y-51242927D01*
X40932887Y-51052114D01*
X40825252Y-50879428D01*
X40685061Y-50731949D01*
X40685060Y-50731948D01*
X40685059Y-50731947D01*
X40518049Y-50615705D01*
X40518048Y-50615704D01*
X40518046Y-50615703D01*
X40331059Y-50535460D01*
X40264619Y-50521806D01*
X40131741Y-50494500D01*
X39979258Y-50494500D01*
X39979256Y-50494500D01*
X39827563Y-50509925D01*
X39633409Y-50570841D01*
X39455499Y-50669589D01*
X39301106Y-50802133D01*
X39301105Y-50802134D01*
X39286102Y-50821516D01*
X39176551Y-50963042D01*
X39086940Y-51145728D01*
X39035936Y-51342716D01*
X39025630Y-51545938D01*
X-2681971Y-51545938D01*
X-2735182Y-51449660D01*
X-2736735Y-51446735D01*
X-2810589Y-51301787D01*
X-2813843Y-51294728D01*
X-2835300Y-51242927D01*
X-2876454Y-51143572D01*
X-2877345Y-51141338D01*
X-2935345Y-50990244D01*
X-2938040Y-50982208D01*
X-2983841Y-50823229D01*
X-2984297Y-50821588D01*
X-3025715Y-50667015D01*
X-3027682Y-50658005D01*
X-3056152Y-50490444D01*
X-3056286Y-50489630D01*
X-3080633Y-50335909D01*
X-3081693Y-50326004D01*
X-3085262Y-50262451D01*
X9022000Y-50262451D01*
X9037132Y-50396758D01*
X9068252Y-50485691D01*
X9096711Y-50567022D01*
X9192684Y-50719762D01*
X9320238Y-50847316D01*
X9472978Y-50943289D01*
X9581351Y-50981210D01*
X9643241Y-51002867D01*
X9643242Y-51002867D01*
X9643245Y-51002868D01*
X9822500Y-51023065D01*
X10001755Y-51002868D01*
X10172022Y-50943289D01*
X10324762Y-50847316D01*
X10452316Y-50719762D01*
X10548289Y-50567022D01*
X10607868Y-50396755D01*
X10623000Y-50262454D01*
X10623000Y-50262451D01*
X17662000Y-50262451D01*
X17677132Y-50396758D01*
X17708252Y-50485691D01*
X17736711Y-50567022D01*
X17832684Y-50719762D01*
X17960238Y-50847316D01*
X18112978Y-50943289D01*
X18221351Y-50981210D01*
X18283241Y-51002867D01*
X18283242Y-51002867D01*
X18283245Y-51002868D01*
X18462500Y-51023065D01*
X18641755Y-51002868D01*
X18812022Y-50943289D01*
X18964762Y-50847316D01*
X19092316Y-50719762D01*
X19188289Y-50567022D01*
X19247868Y-50396755D01*
X19263000Y-50262454D01*
X19263000Y-49684862D01*
X49499500Y-49684862D01*
X49499501Y-49684867D01*
X49502415Y-49709991D01*
X49522451Y-49755369D01*
X49547793Y-49812764D01*
X49547794Y-49812765D01*
X49627235Y-49892206D01*
X49730009Y-49937585D01*
X49755135Y-49940500D01*
X51444864Y-49940499D01*
X51469991Y-49937585D01*
X51572765Y-49892206D01*
X51652206Y-49812765D01*
X51697585Y-49709991D01*
X51700500Y-49684865D01*
X51700500Y-48892425D01*
X52039500Y-48892425D01*
X52048596Y-48987683D01*
X52054472Y-49049219D01*
X52113683Y-49250875D01*
X52209989Y-49437682D01*
X52339908Y-49602887D01*
X52498740Y-49740516D01*
X52498741Y-49740516D01*
X52498744Y-49740519D01*
X52680756Y-49845604D01*
X52879367Y-49914344D01*
X52962579Y-49926308D01*
X53087395Y-49944254D01*
X53087397Y-49944253D01*
X53087398Y-49944254D01*
X53297330Y-49934254D01*
X53399452Y-49909479D01*
X53501574Y-49884705D01*
X53527864Y-49872698D01*
X53692753Y-49797396D01*
X53850781Y-49684865D01*
X53863948Y-49675489D01*
X53863948Y-49675488D01*
X53863952Y-49675486D01*
X54008986Y-49523378D01*
X54122613Y-49346572D01*
X54154077Y-49267980D01*
X54200724Y-49151460D01*
X54207706Y-49115238D01*
X54240500Y-48945085D01*
X54240500Y-48892425D01*
X54579500Y-48892425D01*
X54588596Y-48987683D01*
X54594472Y-49049219D01*
X54653683Y-49250875D01*
X54749989Y-49437682D01*
X54879908Y-49602887D01*
X55038740Y-49740516D01*
X55038741Y-49740516D01*
X55038744Y-49740519D01*
X55220756Y-49845604D01*
X55419367Y-49914344D01*
X55502579Y-49926308D01*
X55627395Y-49944254D01*
X55627397Y-49944253D01*
X55627398Y-49944254D01*
X55837330Y-49934254D01*
X55939452Y-49909479D01*
X56041574Y-49884705D01*
X56067864Y-49872698D01*
X56232753Y-49797396D01*
X56390781Y-49684865D01*
X56403948Y-49675489D01*
X56403948Y-49675488D01*
X56403952Y-49675486D01*
X56548986Y-49523378D01*
X56662613Y-49346572D01*
X56694077Y-49267980D01*
X56740724Y-49151459D01*
X56740723Y-49151459D01*
X56740725Y-49151457D01*
X56750007Y-49103295D01*
X56773332Y-49056138D01*
X56817523Y-49027590D01*
X56870100Y-49025712D01*
X56916215Y-49051035D01*
X56942845Y-49096408D01*
X56993734Y-49286329D01*
X57089864Y-49492480D01*
X57220335Y-49678812D01*
X57381187Y-49839664D01*
X57567519Y-49970135D01*
X57773670Y-50066265D01*
X57970000Y-50118872D01*
X58470000Y-50118872D01*
X58666329Y-50066265D01*
X58872480Y-49970135D01*
X59058812Y-49839664D01*
X59219664Y-49678812D01*
X59350135Y-49492480D01*
X59446265Y-49286329D01*
X59505141Y-49066601D01*
X59520000Y-48896766D01*
X59520000Y-48690001D01*
X59519999Y-48690000D01*
X58470001Y-48690000D01*
X58470000Y-48690001D01*
X58470000Y-50118872D01*
X57970000Y-50118872D01*
X57970000Y-46761128D01*
X58470000Y-46761128D01*
X58470000Y-48189999D01*
X58470001Y-48190000D01*
X59519999Y-48190000D01*
X59520000Y-48189999D01*
X59520000Y-47983234D01*
X59505141Y-47813398D01*
X59446265Y-47593670D01*
X59350135Y-47387519D01*
X59219664Y-47201187D01*
X59058812Y-47040335D01*
X58872480Y-46909864D01*
X58666329Y-46813734D01*
X58470000Y-46761128D01*
X57970000Y-46761128D01*
X57773670Y-46813734D01*
X57567519Y-46909864D01*
X57381187Y-47040335D01*
X57220335Y-47201187D01*
X57089864Y-47387519D01*
X56993734Y-47593670D01*
X56942897Y-47783397D01*
X56917606Y-47827444D01*
X56873802Y-47853152D01*
X56823015Y-47853757D01*
X56778612Y-47829097D01*
X56752280Y-47785665D01*
X56706316Y-47629124D01*
X56610010Y-47442317D01*
X56604791Y-47435681D01*
X56555373Y-47372841D01*
X56480091Y-47277112D01*
X56321259Y-47139483D01*
X56321256Y-47139481D01*
X56139244Y-47034396D01*
X55940633Y-46965656D01*
X55940632Y-46965655D01*
X55940630Y-46965655D01*
X55732604Y-46935745D01*
X55522667Y-46945746D01*
X55318425Y-46995294D01*
X55127245Y-47082604D01*
X54956051Y-47204510D01*
X54811013Y-47356622D01*
X54697384Y-47533431D01*
X54619275Y-47728539D01*
X54595142Y-47853757D01*
X54579500Y-47934915D01*
X54579500Y-48892425D01*
X54240500Y-48892425D01*
X54240500Y-47987575D01*
X54225528Y-47830782D01*
X54190929Y-47712949D01*
X54166316Y-47629124D01*
X54070010Y-47442317D01*
X54064791Y-47435681D01*
X54015373Y-47372841D01*
X53940091Y-47277112D01*
X53781259Y-47139483D01*
X53781256Y-47139481D01*
X53599244Y-47034396D01*
X53400633Y-46965656D01*
X53400632Y-46965655D01*
X53400630Y-46965655D01*
X53192604Y-46935745D01*
X52982667Y-46945746D01*
X52778425Y-46995294D01*
X52587245Y-47082604D01*
X52416051Y-47204510D01*
X52271013Y-47356622D01*
X52157384Y-47533431D01*
X52079275Y-47728539D01*
X52055142Y-47853757D01*
X52039500Y-47934915D01*
X52039500Y-48892425D01*
X51700500Y-48892425D01*
X51700499Y-47195136D01*
X51697585Y-47170009D01*
X51652206Y-47067235D01*
X51572765Y-46987794D01*
X51572764Y-46987793D01*
X51469989Y-46942414D01*
X51444867Y-46939500D01*
X49755137Y-46939500D01*
X49730009Y-46942415D01*
X49627235Y-46987793D01*
X49547793Y-47067235D01*
X49502414Y-47170010D01*
X49499500Y-47195132D01*
X49499500Y-49684862D01*
X19263000Y-49684862D01*
X19263000Y-49572546D01*
X19247868Y-49438245D01*
X19188289Y-49267978D01*
X19092316Y-49115238D01*
X18964762Y-48987684D01*
X18812022Y-48891711D01*
X18804315Y-48889014D01*
X18641758Y-48832132D01*
X18462500Y-48811935D01*
X18283241Y-48832132D01*
X18112980Y-48891710D01*
X18112978Y-48891710D01*
X18112978Y-48891711D01*
X18111842Y-48892425D01*
X17960239Y-48987683D01*
X17832683Y-49115239D01*
X17736710Y-49267980D01*
X17677132Y-49438241D01*
X17662000Y-49572549D01*
X17662000Y-50262451D01*
X10623000Y-50262451D01*
X10623000Y-49572546D01*
X10607868Y-49438245D01*
X10548289Y-49267978D01*
X10452316Y-49115238D01*
X10324762Y-48987684D01*
X10172022Y-48891711D01*
X10164315Y-48889014D01*
X10001758Y-48832132D01*
X9822500Y-48811935D01*
X9643241Y-48832132D01*
X9472980Y-48891710D01*
X9472978Y-48891710D01*
X9472978Y-48891711D01*
X9471842Y-48892425D01*
X9320239Y-48987683D01*
X9192683Y-49115239D01*
X9096710Y-49267980D01*
X9037132Y-49438241D01*
X9022000Y-49572549D01*
X9022000Y-50262451D01*
X-3085262Y-50262451D01*
X-3092507Y-50133446D01*
X-3099364Y-50002595D01*
X-3099500Y-49997414D01*
X-3099500Y-45689999D01*
X634318Y-45689999D01*
X654955Y-45846761D01*
X715464Y-45992841D01*
X811717Y-46118282D01*
X907971Y-46192139D01*
X937159Y-46214536D01*
X1083238Y-46275044D01*
X1210697Y-46291824D01*
X1258042Y-46311435D01*
X1289239Y-46352090D01*
X1322518Y-46432432D01*
X1322519Y-46432433D01*
X1418771Y-46557873D01*
X1475912Y-46601718D01*
X1544213Y-46654127D01*
X1690292Y-46714635D01*
X1847054Y-46735273D01*
X2003816Y-46714635D01*
X2149895Y-46654127D01*
X2275336Y-46557873D01*
X2371590Y-46432432D01*
X2413002Y-46332454D01*
X9022000Y-46332454D01*
X9026717Y-46374318D01*
X9037132Y-46466758D01*
X9094014Y-46629315D01*
X9096711Y-46637022D01*
X9192684Y-46789762D01*
X9320238Y-46917316D01*
X9472978Y-47013289D01*
X9581351Y-47051210D01*
X9643241Y-47072867D01*
X9643242Y-47072867D01*
X9643245Y-47072868D01*
X9822500Y-47093065D01*
X10001755Y-47072868D01*
X10172022Y-47013289D01*
X10324762Y-46917316D01*
X10452316Y-46789762D01*
X10548289Y-46637022D01*
X10569966Y-46575070D01*
X10599892Y-46531833D01*
X10647740Y-46510018D01*
X10700009Y-46515784D01*
X10741952Y-46547503D01*
X10842048Y-46677951D01*
X10916751Y-46735272D01*
X10962267Y-46770198D01*
X11067372Y-46813734D01*
X11102264Y-46828187D01*
X11214779Y-46843000D01*
X11214780Y-46843000D01*
X11290219Y-46843000D01*
X11290220Y-46843000D01*
X11374703Y-46831877D01*
X11433336Y-46842215D01*
X11475438Y-46884316D01*
X11485777Y-46942951D01*
X11474318Y-47029999D01*
X11494955Y-47186761D01*
X11555464Y-47332841D01*
X11651717Y-47458282D01*
X11747971Y-47532139D01*
X11777159Y-47554536D01*
X11923238Y-47615044D01*
X12080000Y-47635682D01*
X12236762Y-47615044D01*
X12382841Y-47554536D01*
X12508282Y-47458282D01*
X12604536Y-47332841D01*
X12635252Y-47258685D01*
X12671713Y-47214257D01*
X12726714Y-47197572D01*
X12781716Y-47214256D01*
X12818179Y-47258686D01*
X12865464Y-47372841D01*
X12961717Y-47498282D01*
X13035030Y-47554536D01*
X13087159Y-47594536D01*
X13233238Y-47655044D01*
X13390000Y-47675682D01*
X13546762Y-47655044D01*
X13692841Y-47594536D01*
X13818282Y-47498282D01*
X13914536Y-47372841D01*
X13975044Y-47226762D01*
X13994851Y-47076304D01*
X14018572Y-47023954D01*
X14067381Y-46993602D01*
X14124827Y-46995483D01*
X14171546Y-47028962D01*
X14201717Y-47068282D01*
X14276904Y-47125974D01*
X14327159Y-47164536D01*
X14473238Y-47225044D01*
X14630000Y-47245682D01*
X14786762Y-47225044D01*
X14932841Y-47164536D01*
X15038188Y-47083700D01*
X15085529Y-47064090D01*
X15136332Y-47070774D01*
X15176988Y-47101962D01*
X15186939Y-47125974D01*
X15189968Y-47124720D01*
X15255464Y-47282841D01*
X15351717Y-47408282D01*
X15416879Y-47458282D01*
X15477159Y-47504536D01*
X15623238Y-47565044D01*
X15780000Y-47585682D01*
X15936762Y-47565044D01*
X16082841Y-47504536D01*
X16208282Y-47408282D01*
X16304536Y-47282841D01*
X16365044Y-47136762D01*
X16385682Y-46980000D01*
X16365044Y-46823238D01*
X16304536Y-46677159D01*
X16277341Y-46641718D01*
X16208282Y-46551717D01*
X16082841Y-46455464D01*
X15936761Y-46394955D01*
X15780000Y-46374318D01*
X15623238Y-46394955D01*
X15477158Y-46455464D01*
X15371809Y-46536300D01*
X15324412Y-46555917D01*
X15273559Y-46549180D01*
X15232904Y-46517898D01*
X15223067Y-46494022D01*
X15220032Y-46495280D01*
X15208218Y-46466758D01*
X15154536Y-46337159D01*
X15122710Y-46295682D01*
X15101085Y-46267499D01*
X16452034Y-46267499D01*
X16471812Y-46417735D01*
X16529802Y-46557733D01*
X16622048Y-46677951D01*
X16696751Y-46735272D01*
X16742267Y-46770198D01*
X16847372Y-46813734D01*
X16882264Y-46828187D01*
X16994779Y-46843000D01*
X16994780Y-46843000D01*
X17070220Y-46843000D01*
X17070221Y-46843000D01*
X17126478Y-46835593D01*
X17182736Y-46828187D01*
X17322733Y-46770198D01*
X17442951Y-46677951D01*
X17535198Y-46557733D01*
X17535198Y-46557730D01*
X17543047Y-46547503D01*
X17584989Y-46515784D01*
X17637258Y-46510018D01*
X17685106Y-46531832D01*
X17715033Y-46575071D01*
X17736710Y-46637019D01*
X17736711Y-46637022D01*
X17832684Y-46789762D01*
X17960238Y-46917316D01*
X18112978Y-47013289D01*
X18221351Y-47051210D01*
X18283241Y-47072867D01*
X18283242Y-47072867D01*
X18283245Y-47072868D01*
X18462500Y-47093065D01*
X18641755Y-47072868D01*
X18812022Y-47013289D01*
X18964762Y-46917316D01*
X19052078Y-46830000D01*
X45228818Y-46830000D01*
X45249455Y-46986761D01*
X45309964Y-47132841D01*
X45406217Y-47258282D01*
X45502470Y-47332139D01*
X45531659Y-47354536D01*
X45677738Y-47415044D01*
X45834500Y-47435682D01*
X45991262Y-47415044D01*
X46137341Y-47354536D01*
X46262782Y-47258282D01*
X46359036Y-47132841D01*
X46419544Y-46986762D01*
X46440182Y-46830000D01*
X46419544Y-46673238D01*
X46359036Y-46527159D01*
X46294719Y-46443339D01*
X46262782Y-46401717D01*
X46137341Y-46305464D01*
X45991261Y-46244955D01*
X45834500Y-46224318D01*
X45677738Y-46244955D01*
X45531658Y-46305464D01*
X45406217Y-46401717D01*
X45309964Y-46527158D01*
X45249455Y-46673238D01*
X45228818Y-46830000D01*
X19052078Y-46830000D01*
X19092316Y-46789762D01*
X19188289Y-46637022D01*
X19247868Y-46466755D01*
X19263000Y-46332454D01*
X19263000Y-45142546D01*
X19247868Y-45008245D01*
X19227487Y-44950000D01*
X25261734Y-44950000D01*
X25296525Y-45111434D01*
X25385383Y-45332562D01*
X25510333Y-45535494D01*
X25667782Y-45714392D01*
X25853204Y-45864109D01*
X26061250Y-45980332D01*
X26285955Y-46059725D01*
X26520842Y-46100000D01*
X27489999Y-46100000D01*
X27490000Y-46099999D01*
X27990000Y-46099999D01*
X27990001Y-46100000D01*
X28899477Y-46100000D01*
X29077452Y-46084851D01*
X29308083Y-46024799D01*
X29525243Y-45926637D01*
X29722686Y-45793189D01*
X29894739Y-45628289D01*
X30036451Y-45436682D01*
X30143743Y-45223882D01*
X30213525Y-44996018D01*
X30219419Y-44950000D01*
X27990001Y-44950000D01*
X27990000Y-44950001D01*
X27990000Y-46099999D01*
X27490000Y-46099999D01*
X27490000Y-44950001D01*
X27489999Y-44950000D01*
X25261734Y-44950000D01*
X19227487Y-44950000D01*
X19188289Y-44837978D01*
X19092316Y-44685238D01*
X18964762Y-44557684D01*
X18946068Y-44545938D01*
X39025630Y-44545938D01*
X39056443Y-44747072D01*
X39127112Y-44937885D01*
X39234747Y-45110571D01*
X39351745Y-45233651D01*
X39374941Y-45258053D01*
X39541951Y-45374295D01*
X39728942Y-45454540D01*
X39928259Y-45495500D01*
X40080742Y-45495500D01*
X40080744Y-45495500D01*
X40156590Y-45487786D01*
X40232438Y-45480074D01*
X40426588Y-45419159D01*
X40604502Y-45320409D01*
X40758895Y-45187866D01*
X40883448Y-45026958D01*
X40973060Y-44844271D01*
X41024063Y-44647285D01*
X41034369Y-44444064D01*
X41030419Y-44418282D01*
X41003556Y-44242927D01*
X40932887Y-44052114D01*
X40894171Y-43989999D01*
X45544318Y-43989999D01*
X45564955Y-44146761D01*
X45625464Y-44292841D01*
X45721717Y-44418282D01*
X45778316Y-44461711D01*
X45847159Y-44514536D01*
X45993238Y-44575044D01*
X46150000Y-44595682D01*
X46306762Y-44575044D01*
X46452841Y-44514536D01*
X46578282Y-44418282D01*
X46674536Y-44292841D01*
X46735044Y-44146762D01*
X46755682Y-43990000D01*
X46743833Y-43900000D01*
X79839364Y-43900000D01*
X79896570Y-44113495D01*
X79996398Y-44327576D01*
X80131887Y-44521074D01*
X80298925Y-44688112D01*
X80492423Y-44823601D01*
X80706504Y-44923429D01*
X80920000Y-44980636D01*
X81420000Y-44980636D01*
X81633495Y-44923429D01*
X81847576Y-44823601D01*
X82041074Y-44688112D01*
X82208112Y-44521074D01*
X82343601Y-44327576D01*
X82443429Y-44113495D01*
X82500636Y-43900000D01*
X81420001Y-43900000D01*
X81420000Y-43900001D01*
X81420000Y-44980636D01*
X80920000Y-44980636D01*
X80920000Y-43900001D01*
X80919999Y-43900000D01*
X79839364Y-43900000D01*
X46743833Y-43900000D01*
X46735044Y-43833238D01*
X46674536Y-43687159D01*
X46652139Y-43657971D01*
X46578282Y-43561717D01*
X46452841Y-43465464D01*
X46306761Y-43404955D01*
X46269122Y-43400000D01*
X79839364Y-43400000D01*
X82500636Y-43400000D01*
X82443429Y-43186505D01*
X82343601Y-42972424D01*
X82208112Y-42778925D01*
X82041074Y-42611887D01*
X81847576Y-42476398D01*
X81633491Y-42376568D01*
X81602301Y-42368211D01*
X81551035Y-42334946D01*
X81529069Y-42277918D01*
X81544773Y-42218857D01*
X81592162Y-42180270D01*
X81685019Y-42144298D01*
X81866302Y-42032052D01*
X82023872Y-41888407D01*
X82152366Y-41718255D01*
X82247405Y-41527389D01*
X82305756Y-41322310D01*
X82325429Y-41110000D01*
X82305756Y-40897690D01*
X82247405Y-40692611D01*
X82152366Y-40501745D01*
X82152365Y-40501744D01*
X82152365Y-40501743D01*
X82023874Y-40331595D01*
X81866300Y-40187946D01*
X81685021Y-40075703D01*
X81685019Y-40075702D01*
X81642898Y-40059384D01*
X81486195Y-39998677D01*
X81276612Y-39959500D01*
X81276610Y-39959500D01*
X81063390Y-39959500D01*
X81063388Y-39959500D01*
X80853804Y-39998677D01*
X80654978Y-40075703D01*
X80473699Y-40187946D01*
X80316125Y-40331595D01*
X80187634Y-40501743D01*
X80092596Y-40692608D01*
X80092595Y-40692611D01*
X80034244Y-40897690D01*
X80014571Y-41110000D01*
X80034244Y-41322310D01*
X80064662Y-41429218D01*
X80092596Y-41527391D01*
X80187634Y-41718256D01*
X80316125Y-41888404D01*
X80316127Y-41888406D01*
X80316128Y-41888407D01*
X80339505Y-41909718D01*
X80473699Y-42032053D01*
X80511545Y-42055486D01*
X80654981Y-42144298D01*
X80747837Y-42180270D01*
X80795226Y-42218857D01*
X80810930Y-42277918D01*
X80788964Y-42334946D01*
X80737698Y-42368211D01*
X80706509Y-42376568D01*
X80492424Y-42476398D01*
X80298925Y-42611887D01*
X80131887Y-42778925D01*
X79996398Y-42972424D01*
X79896570Y-43186505D01*
X79839364Y-43400000D01*
X46269122Y-43400000D01*
X46150000Y-43384318D01*
X45993238Y-43404955D01*
X45847158Y-43465464D01*
X45721717Y-43561717D01*
X45625464Y-43687158D01*
X45564955Y-43833238D01*
X45544318Y-43989999D01*
X40894171Y-43989999D01*
X40825252Y-43879428D01*
X40685061Y-43731949D01*
X40685060Y-43731948D01*
X40685059Y-43731947D01*
X40518049Y-43615705D01*
X40518048Y-43615704D01*
X40518046Y-43615703D01*
X40331059Y-43535460D01*
X40264619Y-43521806D01*
X40131741Y-43494500D01*
X39979258Y-43494500D01*
X39979256Y-43494500D01*
X39827563Y-43509925D01*
X39633409Y-43570841D01*
X39455499Y-43669589D01*
X39330340Y-43777036D01*
X39301105Y-43802134D01*
X39278150Y-43831788D01*
X39176551Y-43963042D01*
X39086940Y-44145728D01*
X39035936Y-44342716D01*
X39025630Y-44545938D01*
X18946068Y-44545938D01*
X18812022Y-44461711D01*
X18778554Y-44450000D01*
X18778551Y-44449999D01*
X25260580Y-44449999D01*
X25260581Y-44450000D01*
X27489999Y-44450000D01*
X27490000Y-44449999D01*
X27990000Y-44449999D01*
X27990001Y-44450000D01*
X30218266Y-44450000D01*
X30218266Y-44449999D01*
X30183474Y-44288565D01*
X30094616Y-44067437D01*
X29969666Y-43864505D01*
X29812217Y-43685607D01*
X29626795Y-43535890D01*
X29418749Y-43419667D01*
X29194044Y-43340274D01*
X28959158Y-43300000D01*
X27990001Y-43300000D01*
X27990000Y-43300001D01*
X27990000Y-44449999D01*
X27490000Y-44449999D01*
X27490000Y-43300001D01*
X27489999Y-43300000D01*
X26580523Y-43300000D01*
X26402547Y-43315148D01*
X26171916Y-43375200D01*
X25954756Y-43473362D01*
X25757313Y-43606810D01*
X25585260Y-43771710D01*
X25443548Y-43963317D01*
X25336256Y-44176117D01*
X25266474Y-44403981D01*
X25260580Y-44449999D01*
X18778551Y-44449999D01*
X18641758Y-44402132D01*
X18462500Y-44381935D01*
X18283241Y-44402132D01*
X18112980Y-44461710D01*
X17960239Y-44557683D01*
X17832683Y-44685239D01*
X17736710Y-44837980D01*
X17677132Y-45008241D01*
X17668863Y-45081631D01*
X17665506Y-45111434D01*
X17662000Y-45142549D01*
X17662000Y-45850874D01*
X17643472Y-45908539D01*
X17594822Y-45944620D01*
X17534262Y-45945611D01*
X17484458Y-45911141D01*
X17442951Y-45857048D01*
X17322733Y-45764802D01*
X17182735Y-45706812D01*
X17070221Y-45692000D01*
X17070220Y-45692000D01*
X16994780Y-45692000D01*
X16994779Y-45692000D01*
X16882264Y-45706812D01*
X16742266Y-45764802D01*
X16622048Y-45857048D01*
X16529802Y-45977266D01*
X16471812Y-46117264D01*
X16452034Y-46267499D01*
X15101085Y-46267499D01*
X15058282Y-46211717D01*
X14932841Y-46115464D01*
X14786761Y-46054955D01*
X14630000Y-46034318D01*
X14473238Y-46054955D01*
X14327158Y-46115464D01*
X14201717Y-46211717D01*
X14105464Y-46337158D01*
X14044955Y-46483238D01*
X14025148Y-46633692D01*
X14001427Y-46686045D01*
X13952618Y-46716397D01*
X13895172Y-46714516D01*
X13848453Y-46681037D01*
X13818282Y-46641717D01*
X13692841Y-46545464D01*
X13546761Y-46484955D01*
X13390000Y-46464318D01*
X13233238Y-46484955D01*
X13087158Y-46545464D01*
X12961717Y-46641717D01*
X12865464Y-46767158D01*
X12834748Y-46841313D01*
X12798285Y-46885743D01*
X12743284Y-46902427D01*
X12688283Y-46885742D01*
X12651820Y-46841313D01*
X12647911Y-46831877D01*
X12604536Y-46727159D01*
X12604535Y-46727158D01*
X12604535Y-46727157D01*
X12508282Y-46601717D01*
X12382841Y-46505464D01*
X12236761Y-46444955D01*
X12100637Y-46427034D01*
X12080000Y-46424318D01*
X12079999Y-46424318D01*
X11935513Y-46443339D01*
X11876878Y-46433000D01*
X11834778Y-46390899D01*
X11824439Y-46332265D01*
X11832966Y-46267500D01*
X11813187Y-46117264D01*
X11755198Y-45977267D01*
X11716348Y-45926637D01*
X11662951Y-45857048D01*
X11542733Y-45764802D01*
X11402735Y-45706812D01*
X11290221Y-45692000D01*
X11290220Y-45692000D01*
X11214780Y-45692000D01*
X11214779Y-45692000D01*
X11102264Y-45706812D01*
X10962266Y-45764802D01*
X10842048Y-45857048D01*
X10800542Y-45911141D01*
X10750738Y-45945611D01*
X10690178Y-45944620D01*
X10641528Y-45908539D01*
X10623000Y-45850874D01*
X10623000Y-45142549D01*
X10623000Y-45142546D01*
X10607868Y-45008245D01*
X10548289Y-44837978D01*
X10452316Y-44685238D01*
X10324762Y-44557684D01*
X10172022Y-44461711D01*
X10138554Y-44450000D01*
X10001758Y-44402132D01*
X9822500Y-44381935D01*
X9643241Y-44402132D01*
X9472980Y-44461710D01*
X9320239Y-44557683D01*
X9192683Y-44685239D01*
X9096710Y-44837980D01*
X9037132Y-45008241D01*
X9028863Y-45081631D01*
X9022000Y-45142546D01*
X9022000Y-46332454D01*
X2413002Y-46332454D01*
X2432098Y-46286353D01*
X2452736Y-46129591D01*
X2432098Y-45972829D01*
X2371590Y-45826750D01*
X2324056Y-45764802D01*
X2275336Y-45701308D01*
X2149895Y-45605055D01*
X2003815Y-45544546D01*
X1876355Y-45527766D01*
X1829009Y-45508155D01*
X1797813Y-45467498D01*
X1785049Y-45436682D01*
X1764536Y-45387159D01*
X1736589Y-45350738D01*
X1668282Y-45261717D01*
X1542841Y-45165464D01*
X1396761Y-45104955D01*
X1240000Y-45084318D01*
X1083238Y-45104955D01*
X937158Y-45165464D01*
X811717Y-45261717D01*
X715464Y-45387158D01*
X654955Y-45533238D01*
X634318Y-45689999D01*
X-3099500Y-45689999D01*
X-3099500Y-43669999D01*
X1594450Y-43669999D01*
X1614616Y-43939099D01*
X1674667Y-44202199D01*
X1773254Y-44453393D01*
X1773257Y-44453398D01*
X1908185Y-44687102D01*
X1942261Y-44729831D01*
X2076439Y-44898086D01*
X2195159Y-45008241D01*
X2274259Y-45081635D01*
X2497226Y-45233651D01*
X2740359Y-45350738D01*
X2998228Y-45430280D01*
X2998229Y-45430280D01*
X2998232Y-45430281D01*
X3265069Y-45470500D01*
X3265071Y-45470500D01*
X3534929Y-45470500D01*
X3534931Y-45470500D01*
X3801767Y-45430281D01*
X3801768Y-45430280D01*
X3801772Y-45430280D01*
X4059641Y-45350738D01*
X4302775Y-45233651D01*
X4525741Y-45081635D01*
X4723561Y-44898085D01*
X4891815Y-44687102D01*
X5026743Y-44453398D01*
X5125334Y-44202195D01*
X5185383Y-43939103D01*
X5205549Y-43670000D01*
X5185383Y-43400897D01*
X5151512Y-43252499D01*
X11086818Y-43252499D01*
X11107455Y-43409261D01*
X11167964Y-43555341D01*
X11264217Y-43680782D01*
X11330900Y-43731949D01*
X11389659Y-43777036D01*
X11535738Y-43837544D01*
X11692500Y-43858182D01*
X11849262Y-43837544D01*
X11995341Y-43777036D01*
X12120782Y-43680782D01*
X12217036Y-43555341D01*
X12277544Y-43409262D01*
X12298182Y-43252500D01*
X12286004Y-43160000D01*
X16474318Y-43160000D01*
X16494955Y-43316761D01*
X16555464Y-43462841D01*
X16651717Y-43588282D01*
X16687456Y-43615705D01*
X16777159Y-43684536D01*
X16923238Y-43745044D01*
X17080000Y-43765682D01*
X17236762Y-43745044D01*
X17382841Y-43684536D01*
X17508282Y-43588282D01*
X17604536Y-43462841D01*
X17665044Y-43316762D01*
X17685682Y-43160000D01*
X17671925Y-43055503D01*
X31339500Y-43055503D01*
X31354885Y-43221536D01*
X31411258Y-43419667D01*
X31415772Y-43435530D01*
X31514940Y-43634686D01*
X31514941Y-43634687D01*
X31514942Y-43634689D01*
X31649019Y-43812236D01*
X31813438Y-43962124D01*
X32002599Y-44079247D01*
X32176875Y-44146762D01*
X32210063Y-44159619D01*
X32428755Y-44200500D01*
X32428757Y-44200500D01*
X32651243Y-44200500D01*
X32651245Y-44200500D01*
X32869936Y-44159619D01*
X32869937Y-44159618D01*
X32869940Y-44159618D01*
X33077401Y-44079247D01*
X33266562Y-43962124D01*
X33430981Y-43812236D01*
X33565058Y-43634689D01*
X33664229Y-43435528D01*
X33725115Y-43221536D01*
X33740500Y-43055503D01*
X33740500Y-41272425D01*
X49499500Y-41272425D01*
X49510729Y-41390019D01*
X49514472Y-41429219D01*
X49573683Y-41630875D01*
X49669989Y-41817682D01*
X49799908Y-41982887D01*
X49958740Y-42120516D01*
X49958741Y-42120516D01*
X49958744Y-42120519D01*
X50140756Y-42225604D01*
X50339367Y-42294344D01*
X50422579Y-42306307D01*
X50547395Y-42324254D01*
X50547397Y-42324253D01*
X50547398Y-42324254D01*
X50757330Y-42314254D01*
X50859452Y-42289479D01*
X50961574Y-42264705D01*
X50987864Y-42252698D01*
X51152753Y-42177396D01*
X51323952Y-42055486D01*
X51468986Y-41903378D01*
X51582613Y-41726572D01*
X51585943Y-41718256D01*
X51660724Y-41531460D01*
X51661509Y-41527391D01*
X51700500Y-41325085D01*
X51700500Y-41272425D01*
X52039500Y-41272425D01*
X52050729Y-41390019D01*
X52054472Y-41429219D01*
X52113683Y-41630875D01*
X52209989Y-41817682D01*
X52339908Y-41982887D01*
X52498740Y-42120516D01*
X52498741Y-42120516D01*
X52498744Y-42120519D01*
X52680756Y-42225604D01*
X52879367Y-42294344D01*
X52962579Y-42306307D01*
X53087395Y-42324254D01*
X53087397Y-42324253D01*
X53087398Y-42324254D01*
X53297330Y-42314254D01*
X53399452Y-42289479D01*
X53501574Y-42264705D01*
X53527864Y-42252698D01*
X53692753Y-42177396D01*
X53863952Y-42055486D01*
X54008986Y-41903378D01*
X54122613Y-41726572D01*
X54125943Y-41718256D01*
X54200724Y-41531460D01*
X54201509Y-41527391D01*
X54240500Y-41325085D01*
X54240500Y-41272425D01*
X54579500Y-41272425D01*
X54590729Y-41390019D01*
X54594472Y-41429219D01*
X54653683Y-41630875D01*
X54749989Y-41817682D01*
X54879908Y-41982887D01*
X55038740Y-42120516D01*
X55038741Y-42120516D01*
X55038744Y-42120519D01*
X55220756Y-42225604D01*
X55419367Y-42294344D01*
X55502579Y-42306307D01*
X55627395Y-42324254D01*
X55627397Y-42324253D01*
X55627398Y-42324254D01*
X55837330Y-42314254D01*
X55939452Y-42289479D01*
X56041574Y-42264705D01*
X56067864Y-42252698D01*
X56232753Y-42177396D01*
X56403952Y-42055486D01*
X56548986Y-41903378D01*
X56662613Y-41726572D01*
X56665943Y-41718256D01*
X56740724Y-41531460D01*
X56741509Y-41527391D01*
X56780500Y-41325085D01*
X56780500Y-41272425D01*
X57119500Y-41272425D01*
X57130729Y-41390019D01*
X57134472Y-41429219D01*
X57193683Y-41630875D01*
X57289989Y-41817682D01*
X57419908Y-41982887D01*
X57578740Y-42120516D01*
X57578741Y-42120516D01*
X57578744Y-42120519D01*
X57760756Y-42225604D01*
X57959367Y-42294344D01*
X58042579Y-42306307D01*
X58167395Y-42324254D01*
X58167397Y-42324253D01*
X58167398Y-42324254D01*
X58377330Y-42314254D01*
X58479452Y-42289479D01*
X58581574Y-42264705D01*
X58607864Y-42252698D01*
X58772753Y-42177396D01*
X58943952Y-42055486D01*
X59088986Y-41903378D01*
X59202613Y-41726572D01*
X59205943Y-41718256D01*
X59280724Y-41531460D01*
X59281509Y-41527391D01*
X59320500Y-41325085D01*
X59320500Y-40367575D01*
X59305528Y-40210782D01*
X59246316Y-40009125D01*
X59246316Y-40009124D01*
X59174587Y-39869989D01*
X59150011Y-39822318D01*
X59114724Y-39777448D01*
X59020091Y-39657112D01*
X58861259Y-39519483D01*
X58861256Y-39519481D01*
X58766653Y-39464862D01*
X80019500Y-39464862D01*
X80019501Y-39464867D01*
X80022415Y-39489991D01*
X80035436Y-39519481D01*
X80067793Y-39592764D01*
X80067794Y-39592765D01*
X80147235Y-39672206D01*
X80250009Y-39717585D01*
X80275135Y-39720500D01*
X82064864Y-39720499D01*
X82089991Y-39717585D01*
X82192765Y-39672206D01*
X82272206Y-39592765D01*
X82317585Y-39489991D01*
X82320500Y-39464865D01*
X82320499Y-37675136D01*
X82317585Y-37650009D01*
X82272206Y-37547235D01*
X82192765Y-37467794D01*
X82192765Y-37467793D01*
X82192764Y-37467793D01*
X82089989Y-37422414D01*
X82064867Y-37419500D01*
X80275137Y-37419500D01*
X80250009Y-37422415D01*
X80147235Y-37467793D01*
X80067793Y-37547235D01*
X80022414Y-37650010D01*
X80019500Y-37675132D01*
X80019500Y-39464862D01*
X58766653Y-39464862D01*
X58679244Y-39414396D01*
X58480633Y-39345656D01*
X58480632Y-39345655D01*
X58480630Y-39345655D01*
X58272604Y-39315745D01*
X58062667Y-39325746D01*
X57858425Y-39375294D01*
X57667245Y-39462604D01*
X57496051Y-39584510D01*
X57351013Y-39736622D01*
X57237384Y-39913431D01*
X57159275Y-40108539D01*
X57148333Y-40165313D01*
X57119500Y-40314915D01*
X57119500Y-41272425D01*
X56780500Y-41272425D01*
X56780500Y-40367575D01*
X56765528Y-40210782D01*
X56706316Y-40009125D01*
X56706316Y-40009124D01*
X56634587Y-39869989D01*
X56610011Y-39822318D01*
X56574724Y-39777448D01*
X56480091Y-39657112D01*
X56321259Y-39519483D01*
X56321256Y-39519481D01*
X56139244Y-39414396D01*
X55940633Y-39345656D01*
X55940632Y-39345655D01*
X55940630Y-39345655D01*
X55732604Y-39315745D01*
X55522667Y-39325746D01*
X55318425Y-39375294D01*
X55127245Y-39462604D01*
X54956051Y-39584510D01*
X54811013Y-39736622D01*
X54697384Y-39913431D01*
X54619275Y-40108539D01*
X54608333Y-40165313D01*
X54579500Y-40314915D01*
X54579500Y-41272425D01*
X54240500Y-41272425D01*
X54240500Y-40367575D01*
X54225528Y-40210782D01*
X54166316Y-40009125D01*
X54166316Y-40009124D01*
X54094587Y-39869989D01*
X54070011Y-39822318D01*
X54034724Y-39777448D01*
X53940091Y-39657112D01*
X53781259Y-39519483D01*
X53781256Y-39519481D01*
X53599244Y-39414396D01*
X53400633Y-39345656D01*
X53400632Y-39345655D01*
X53400630Y-39345655D01*
X53192604Y-39315745D01*
X52982667Y-39325746D01*
X52778425Y-39375294D01*
X52587245Y-39462604D01*
X52416051Y-39584510D01*
X52271013Y-39736622D01*
X52157384Y-39913431D01*
X52079275Y-40108539D01*
X52068333Y-40165313D01*
X52039500Y-40314915D01*
X52039500Y-41272425D01*
X51700500Y-41272425D01*
X51700500Y-40367575D01*
X51685528Y-40210782D01*
X51626316Y-40009125D01*
X51626316Y-40009124D01*
X51554587Y-39869989D01*
X51530011Y-39822318D01*
X51494724Y-39777448D01*
X51400091Y-39657112D01*
X51241259Y-39519483D01*
X51241256Y-39519481D01*
X51059244Y-39414396D01*
X50860633Y-39345656D01*
X50860632Y-39345655D01*
X50860630Y-39345655D01*
X50652604Y-39315745D01*
X50442667Y-39325746D01*
X50238425Y-39375294D01*
X50047245Y-39462604D01*
X49876051Y-39584510D01*
X49731013Y-39736622D01*
X49617384Y-39913431D01*
X49539275Y-40108539D01*
X49528333Y-40165313D01*
X49499500Y-40314915D01*
X49499500Y-41272425D01*
X33740500Y-41272425D01*
X33740500Y-40744497D01*
X33725115Y-40578464D01*
X33664229Y-40364472D01*
X33565058Y-40165311D01*
X33430981Y-39987764D01*
X33266562Y-39837876D01*
X33077401Y-39720753D01*
X33077399Y-39720752D01*
X32869936Y-39640380D01*
X32651245Y-39599500D01*
X32651243Y-39599500D01*
X32428757Y-39599500D01*
X32428755Y-39599500D01*
X32210063Y-39640380D01*
X32002600Y-39720752D01*
X31813436Y-39837877D01*
X31730558Y-39913431D01*
X31649019Y-39987764D01*
X31632889Y-40009124D01*
X31514940Y-40165313D01*
X31415772Y-40364469D01*
X31415771Y-40364472D01*
X31354885Y-40578464D01*
X31339500Y-40744497D01*
X31339500Y-43055503D01*
X17671925Y-43055503D01*
X17665044Y-43003238D01*
X17604536Y-42857159D01*
X17544505Y-42778925D01*
X17508282Y-42731717D01*
X17382841Y-42635464D01*
X17236761Y-42574955D01*
X17080000Y-42554318D01*
X16923238Y-42574955D01*
X16777158Y-42635464D01*
X16651717Y-42731717D01*
X16555464Y-42857158D01*
X16494955Y-43003238D01*
X16474318Y-43160000D01*
X12286004Y-43160000D01*
X12277544Y-43095738D01*
X12217036Y-42949659D01*
X12168651Y-42886602D01*
X12120782Y-42824217D01*
X11995341Y-42727964D01*
X11849261Y-42667455D01*
X11692500Y-42646818D01*
X11535738Y-42667455D01*
X11389658Y-42727964D01*
X11264217Y-42824217D01*
X11167964Y-42949658D01*
X11107455Y-43095738D01*
X11086818Y-43252499D01*
X5151512Y-43252499D01*
X5125334Y-43137805D01*
X5108824Y-43095738D01*
X5026745Y-42886606D01*
X5009744Y-42857159D01*
X4891815Y-42652898D01*
X4813200Y-42554318D01*
X4723560Y-42441913D01*
X4525744Y-42258368D01*
X4525741Y-42258365D01*
X4302775Y-42106349D01*
X4059641Y-41989262D01*
X3942148Y-41953020D01*
X3801767Y-41909718D01*
X3534931Y-41869500D01*
X3534929Y-41869500D01*
X3265071Y-41869500D01*
X3265069Y-41869500D01*
X2998232Y-41909718D01*
X2740359Y-41989262D01*
X2497227Y-42106348D01*
X2274255Y-42258368D01*
X2076439Y-42441913D01*
X1908186Y-42652896D01*
X1773254Y-42886606D01*
X1674667Y-43137800D01*
X1614616Y-43400900D01*
X1594450Y-43669999D01*
X-3099500Y-43669999D01*
X-3099500Y-40780000D01*
X9559364Y-40780000D01*
X9616570Y-40993495D01*
X9716398Y-41207576D01*
X9851887Y-41401074D01*
X10018925Y-41568112D01*
X10212423Y-41703601D01*
X10426504Y-41803429D01*
X10640000Y-41860636D01*
X11140000Y-41860636D01*
X11353495Y-41803429D01*
X11567576Y-41703601D01*
X11761074Y-41568112D01*
X11928112Y-41401074D01*
X12063601Y-41207576D01*
X12163429Y-40993495D01*
X12220636Y-40780000D01*
X11140001Y-40780000D01*
X11140000Y-40780001D01*
X11140000Y-41860636D01*
X10640000Y-41860636D01*
X10640000Y-40780001D01*
X10639999Y-40780000D01*
X9559364Y-40780000D01*
X-3099500Y-40780000D01*
X-3099500Y-40280000D01*
X9559364Y-40280000D01*
X12220636Y-40280000D01*
X12163429Y-40066505D01*
X12063601Y-39852424D01*
X12058306Y-39844862D01*
X25239500Y-39844862D01*
X25242415Y-39869990D01*
X25287793Y-39972764D01*
X25287794Y-39972765D01*
X25367235Y-40052206D01*
X25470009Y-40097585D01*
X25495135Y-40100500D01*
X29984864Y-40100499D01*
X30009991Y-40097585D01*
X30112765Y-40052206D01*
X30192206Y-39972765D01*
X30237585Y-39869991D01*
X30240500Y-39844865D01*
X30240499Y-37955136D01*
X30237585Y-37930009D01*
X30192206Y-37827235D01*
X30112765Y-37747794D01*
X30112764Y-37747793D01*
X30009989Y-37702414D01*
X29984867Y-37699500D01*
X25495137Y-37699500D01*
X25470009Y-37702415D01*
X25367235Y-37747793D01*
X25287793Y-37827235D01*
X25242414Y-37930010D01*
X25239500Y-37955132D01*
X25239500Y-39844862D01*
X12058306Y-39844862D01*
X11928112Y-39658925D01*
X11761074Y-39491887D01*
X11567576Y-39356398D01*
X11353491Y-39256568D01*
X11322301Y-39248211D01*
X11271035Y-39214946D01*
X11249069Y-39157918D01*
X11264773Y-39098857D01*
X11312162Y-39060270D01*
X11405019Y-39024298D01*
X11586302Y-38912052D01*
X11743872Y-38768407D01*
X11871049Y-38599999D01*
X13354318Y-38599999D01*
X13374955Y-38756761D01*
X13435464Y-38902841D01*
X13531717Y-39028282D01*
X13623693Y-39098857D01*
X13657159Y-39124536D01*
X13803238Y-39185044D01*
X13960000Y-39205682D01*
X14116762Y-39185044D01*
X14262841Y-39124536D01*
X14388282Y-39028282D01*
X14484536Y-38902841D01*
X14545044Y-38756762D01*
X14565682Y-38600000D01*
X14545044Y-38443238D01*
X14484536Y-38297159D01*
X14462139Y-38267971D01*
X14388282Y-38171717D01*
X14262841Y-38075464D01*
X14116761Y-38014955D01*
X13960000Y-37994318D01*
X13803238Y-38014955D01*
X13657158Y-38075464D01*
X13531717Y-38171717D01*
X13435464Y-38297158D01*
X13374955Y-38443238D01*
X13354318Y-38599999D01*
X11871049Y-38599999D01*
X11872366Y-38598255D01*
X11967405Y-38407389D01*
X12025756Y-38202310D01*
X12045429Y-37990000D01*
X12025756Y-37777690D01*
X11967405Y-37572611D01*
X11872366Y-37381745D01*
X11872365Y-37381744D01*
X11872365Y-37381743D01*
X11743874Y-37211595D01*
X11586300Y-37067946D01*
X11405021Y-36955703D01*
X11405019Y-36955702D01*
X11347962Y-36933598D01*
X11206195Y-36878677D01*
X10996612Y-36839500D01*
X10996610Y-36839500D01*
X10783390Y-36839500D01*
X10783388Y-36839500D01*
X10573804Y-36878677D01*
X10374978Y-36955703D01*
X10193699Y-37067946D01*
X10036125Y-37211595D01*
X9907634Y-37381743D01*
X9812596Y-37572608D01*
X9812595Y-37572611D01*
X9754244Y-37777690D01*
X9734571Y-37990000D01*
X9754244Y-38202310D01*
X9781231Y-38297159D01*
X9812596Y-38407391D01*
X9907634Y-38598256D01*
X10036125Y-38768404D01*
X10193699Y-38912053D01*
X10325622Y-38993736D01*
X10374981Y-39024298D01*
X10467837Y-39060270D01*
X10515226Y-39098857D01*
X10530930Y-39157918D01*
X10508964Y-39214946D01*
X10457698Y-39248211D01*
X10426509Y-39256568D01*
X10212424Y-39356398D01*
X10018925Y-39491887D01*
X9851887Y-39658925D01*
X9716398Y-39852424D01*
X9616570Y-40066505D01*
X9559364Y-40280000D01*
X-3099500Y-40280000D01*
X-3099500Y-35450000D01*
X9734571Y-35450000D01*
X9754244Y-35662310D01*
X9804802Y-35840001D01*
X9812596Y-35867391D01*
X9907634Y-36058256D01*
X10036125Y-36228404D01*
X10193699Y-36372053D01*
X10325622Y-36453736D01*
X10374981Y-36484298D01*
X10531681Y-36545003D01*
X10573804Y-36561322D01*
X10783388Y-36600500D01*
X10783390Y-36600500D01*
X10996610Y-36600500D01*
X10996612Y-36600500D01*
X11206195Y-36561322D01*
X11206198Y-36561321D01*
X11395912Y-36487826D01*
X33660000Y-36487826D01*
X33666401Y-36547376D01*
X33716646Y-36682089D01*
X33802811Y-36797188D01*
X33917910Y-36883353D01*
X34052623Y-36933598D01*
X34112174Y-36940000D01*
X34759999Y-36940000D01*
X34760000Y-36939999D01*
X35260000Y-36939999D01*
X35260001Y-36940000D01*
X35907826Y-36940000D01*
X35967376Y-36933598D01*
X36102089Y-36883353D01*
X36217188Y-36797188D01*
X36303353Y-36682089D01*
X36353598Y-36547376D01*
X36360000Y-36487826D01*
X36360000Y-36202191D01*
X36373880Y-36151638D01*
X36411628Y-36115261D01*
X36462659Y-36103259D01*
X36512664Y-36118997D01*
X36547621Y-36158063D01*
X36567634Y-36198256D01*
X36696125Y-36368404D01*
X36696127Y-36368406D01*
X36696128Y-36368407D01*
X36797778Y-36461074D01*
X36853699Y-36512053D01*
X36985622Y-36593736D01*
X37034981Y-36624298D01*
X37184158Y-36682089D01*
X37233804Y-36701322D01*
X37443388Y-36740500D01*
X37443390Y-36740500D01*
X37656610Y-36740500D01*
X37656612Y-36740500D01*
X37866195Y-36701322D01*
X37866198Y-36701321D01*
X38065019Y-36624298D01*
X38246302Y-36512052D01*
X38403872Y-36368407D01*
X38532366Y-36198255D01*
X38627405Y-36007389D01*
X38685756Y-35802310D01*
X38705429Y-35590000D01*
X38934571Y-35590000D01*
X38954244Y-35802310D01*
X39004609Y-35979323D01*
X39012596Y-36007391D01*
X39107634Y-36198256D01*
X39236125Y-36368404D01*
X39236127Y-36368406D01*
X39236128Y-36368407D01*
X39337778Y-36461074D01*
X39393699Y-36512053D01*
X39525622Y-36593736D01*
X39574981Y-36624298D01*
X39724158Y-36682089D01*
X39773804Y-36701322D01*
X39983388Y-36740500D01*
X39983390Y-36740500D01*
X40196610Y-36740500D01*
X40196612Y-36740500D01*
X40406195Y-36701322D01*
X40406198Y-36701321D01*
X40605019Y-36624298D01*
X40786302Y-36512052D01*
X40943872Y-36368407D01*
X41072366Y-36198255D01*
X41165795Y-36010621D01*
X41206573Y-35968079D01*
X41264306Y-35956247D01*
X41318534Y-35979323D01*
X41350040Y-36029127D01*
X41356569Y-36053492D01*
X41456398Y-36267576D01*
X41591887Y-36461074D01*
X41758925Y-36628112D01*
X41952423Y-36763601D01*
X42166504Y-36863429D01*
X42380000Y-36920636D01*
X42880000Y-36920636D01*
X43093495Y-36863429D01*
X43307576Y-36763601D01*
X43501074Y-36628112D01*
X43668112Y-36461074D01*
X43803601Y-36267576D01*
X43903429Y-36053495D01*
X43960636Y-35840000D01*
X42880001Y-35840000D01*
X42880000Y-35840001D01*
X42880000Y-36920636D01*
X42380000Y-36920636D01*
X42380000Y-34259364D01*
X42880000Y-34259364D01*
X42880000Y-35339999D01*
X42880001Y-35340000D01*
X43960636Y-35340000D01*
X43903429Y-35126505D01*
X43803601Y-34912424D01*
X43668112Y-34718925D01*
X43501074Y-34551887D01*
X43307576Y-34416398D01*
X43093495Y-34316570D01*
X42880000Y-34259364D01*
X42380000Y-34259364D01*
X42166505Y-34316570D01*
X41952424Y-34416398D01*
X41758925Y-34551887D01*
X41591887Y-34718925D01*
X41456398Y-34912424D01*
X41356568Y-35126508D01*
X41350040Y-35150872D01*
X41318534Y-35200677D01*
X41264306Y-35223752D01*
X41206573Y-35211920D01*
X41165793Y-35169374D01*
X41097692Y-35032608D01*
X41072366Y-34981745D01*
X40966642Y-34841745D01*
X40943874Y-34811595D01*
X40786300Y-34667946D01*
X40605021Y-34555703D01*
X40605019Y-34555702D01*
X40533372Y-34527946D01*
X40406195Y-34478677D01*
X40196612Y-34439500D01*
X40196610Y-34439500D01*
X39983390Y-34439500D01*
X39983388Y-34439500D01*
X39773804Y-34478677D01*
X39574978Y-34555703D01*
X39393699Y-34667946D01*
X39236125Y-34811595D01*
X39107634Y-34981743D01*
X39012596Y-35172608D01*
X39012595Y-35172611D01*
X38954244Y-35377690D01*
X38934571Y-35590000D01*
X38705429Y-35590000D01*
X38685756Y-35377690D01*
X38627405Y-35172611D01*
X38532366Y-34981745D01*
X38532365Y-34981744D01*
X38532365Y-34981743D01*
X38403874Y-34811595D01*
X38246300Y-34667946D01*
X38065021Y-34555703D01*
X38065019Y-34555702D01*
X37993372Y-34527946D01*
X37866195Y-34478677D01*
X37656612Y-34439500D01*
X37656610Y-34439500D01*
X37443390Y-34439500D01*
X37443388Y-34439500D01*
X37233804Y-34478677D01*
X37034978Y-34555703D01*
X36853699Y-34667946D01*
X36696125Y-34811595D01*
X36567634Y-34981743D01*
X36547621Y-35021937D01*
X36512664Y-35061003D01*
X36462659Y-35076741D01*
X36411628Y-35064739D01*
X36373880Y-35028362D01*
X36360000Y-34977809D01*
X36360000Y-34692174D01*
X36353598Y-34632623D01*
X36303353Y-34497910D01*
X36217188Y-34382811D01*
X36102089Y-34296646D01*
X35967376Y-34246401D01*
X35907826Y-34240000D01*
X35260001Y-34240000D01*
X35260000Y-34240001D01*
X35260000Y-36939999D01*
X34760000Y-36939999D01*
X34760000Y-35840001D01*
X34759999Y-35840000D01*
X33660001Y-35840000D01*
X33660000Y-35840001D01*
X33660000Y-36487826D01*
X11395912Y-36487826D01*
X11405019Y-36484298D01*
X11586302Y-36372052D01*
X11743872Y-36228407D01*
X11872366Y-36058255D01*
X11967405Y-35867389D01*
X12025756Y-35662310D01*
X12045429Y-35450000D01*
X12035236Y-35339999D01*
X33660000Y-35339999D01*
X33660001Y-35340000D01*
X34759999Y-35340000D01*
X34760000Y-35339999D01*
X34760000Y-34240001D01*
X34759999Y-34240000D01*
X34112174Y-34240000D01*
X34052623Y-34246401D01*
X33917910Y-34296646D01*
X33802811Y-34382811D01*
X33716646Y-34497910D01*
X33666401Y-34632623D01*
X33660000Y-34692174D01*
X33660000Y-35339999D01*
X12035236Y-35339999D01*
X12025756Y-35237690D01*
X11967405Y-35032611D01*
X11872366Y-34841745D01*
X11872365Y-34841744D01*
X11872365Y-34841743D01*
X11743874Y-34671595D01*
X11739873Y-34667948D01*
X11616748Y-34555703D01*
X11586300Y-34527946D01*
X11405021Y-34415703D01*
X11405019Y-34415702D01*
X11320117Y-34382811D01*
X11206195Y-34338677D01*
X10996612Y-34299500D01*
X10996610Y-34299500D01*
X10783390Y-34299500D01*
X10783388Y-34299500D01*
X10573804Y-34338677D01*
X10374978Y-34415703D01*
X10193699Y-34527946D01*
X10036125Y-34671595D01*
X9907634Y-34841743D01*
X9812596Y-35032608D01*
X9812595Y-35032611D01*
X9754244Y-35237690D01*
X9734571Y-35450000D01*
X-3099500Y-35450000D01*
X-3099500Y-33804862D01*
X9739500Y-33804862D01*
X9742415Y-33829990D01*
X9787793Y-33932764D01*
X9787794Y-33932765D01*
X9867235Y-34012206D01*
X9970009Y-34057585D01*
X9995135Y-34060500D01*
X11784864Y-34060499D01*
X11809991Y-34057585D01*
X11912765Y-34012206D01*
X11992206Y-33932765D01*
X12037585Y-33829991D01*
X12040500Y-33804865D01*
X12040499Y-32550000D01*
X23246204Y-32550000D01*
X23266841Y-32706761D01*
X23327350Y-32852841D01*
X23423603Y-32978282D01*
X23519857Y-33052139D01*
X23549045Y-33074536D01*
X23695124Y-33135044D01*
X23851886Y-33155682D01*
X24008648Y-33135044D01*
X24154727Y-33074536D01*
X24280168Y-32978282D01*
X24376422Y-32852841D01*
X24436930Y-32706762D01*
X24441983Y-32668376D01*
X24461593Y-32621032D01*
X24502250Y-32589835D01*
X24553057Y-32583146D01*
X24600403Y-32602757D01*
X24624220Y-32621032D01*
X24707748Y-32685125D01*
X24853827Y-32745633D01*
X25010589Y-32766271D01*
X25167351Y-32745633D01*
X25313430Y-32685125D01*
X25438871Y-32588871D01*
X25535125Y-32463430D01*
X25595633Y-32317351D01*
X25616271Y-32160589D01*
X25595633Y-32003827D01*
X25535125Y-31857748D01*
X25458652Y-31758086D01*
X25438871Y-31732306D01*
X25313430Y-31636053D01*
X25167350Y-31575544D01*
X25010589Y-31554907D01*
X24853827Y-31575544D01*
X24707747Y-31636053D01*
X24582306Y-31732306D01*
X24486053Y-31857747D01*
X24425544Y-32003827D01*
X24420491Y-32042212D01*
X24400880Y-32089557D01*
X24360224Y-32120753D01*
X24309416Y-32127442D01*
X24262071Y-32107831D01*
X24154727Y-32025464D01*
X24008647Y-31964955D01*
X23851886Y-31944318D01*
X23695124Y-31964955D01*
X23549044Y-32025464D01*
X23423603Y-32121717D01*
X23327350Y-32247158D01*
X23266841Y-32393238D01*
X23246204Y-32550000D01*
X12040499Y-32550000D01*
X12040499Y-32015136D01*
X12037585Y-31990009D01*
X11992206Y-31887235D01*
X11912765Y-31807794D01*
X11912764Y-31807793D01*
X11809989Y-31762414D01*
X11784867Y-31759500D01*
X9995137Y-31759500D01*
X9970009Y-31762415D01*
X9867235Y-31807793D01*
X9787793Y-31887235D01*
X9742414Y-31990010D01*
X9739500Y-32015132D01*
X9739500Y-33804862D01*
X-3099500Y-33804862D01*
X-3099500Y-30530000D01*
X1594450Y-30530000D01*
X1614616Y-30799099D01*
X1674667Y-31062199D01*
X1773254Y-31313393D01*
X1773257Y-31313398D01*
X1890044Y-31515681D01*
X1908186Y-31547103D01*
X2076439Y-31758086D01*
X2183849Y-31857747D01*
X2274259Y-31941635D01*
X2497226Y-32093651D01*
X2740359Y-32210738D01*
X2998228Y-32290280D01*
X2998229Y-32290280D01*
X2998232Y-32290281D01*
X3265069Y-32330500D01*
X3265071Y-32330500D01*
X3534929Y-32330500D01*
X3534931Y-32330500D01*
X3801767Y-32290281D01*
X3801768Y-32290280D01*
X3801772Y-32290280D01*
X4059641Y-32210738D01*
X4302775Y-32093651D01*
X4525741Y-31941635D01*
X4723561Y-31758085D01*
X4891815Y-31547102D01*
X5026743Y-31313398D01*
X5125334Y-31062195D01*
X5185383Y-30799103D01*
X5204869Y-30539074D01*
X22616280Y-30539074D01*
X22636917Y-30695835D01*
X22697426Y-30841915D01*
X22793679Y-30967356D01*
X22889933Y-31041213D01*
X22919121Y-31063610D01*
X23065200Y-31124118D01*
X23221962Y-31144756D01*
X23378724Y-31124118D01*
X23524803Y-31063610D01*
X23650244Y-30967356D01*
X23694255Y-30909999D01*
X25164318Y-30909999D01*
X25184955Y-31066761D01*
X25245464Y-31212841D01*
X25341717Y-31338282D01*
X25437970Y-31412139D01*
X25467159Y-31434536D01*
X25613238Y-31495044D01*
X25770000Y-31515682D01*
X25926762Y-31495044D01*
X26072841Y-31434536D01*
X26198282Y-31338282D01*
X26294536Y-31212841D01*
X26355044Y-31066762D01*
X26375682Y-30910000D01*
X26370416Y-30870000D01*
X46244435Y-30870000D01*
X46264632Y-31049258D01*
X46298049Y-31144756D01*
X46324211Y-31219522D01*
X46420184Y-31372262D01*
X46547738Y-31499816D01*
X46700478Y-31595789D01*
X46808851Y-31633710D01*
X46870741Y-31655367D01*
X46870742Y-31655367D01*
X46870745Y-31655368D01*
X47050000Y-31675565D01*
X47229255Y-31655368D01*
X47399522Y-31595789D01*
X47552262Y-31499816D01*
X47679816Y-31372262D01*
X47775789Y-31219522D01*
X47835368Y-31049255D01*
X47855565Y-30870000D01*
X47835368Y-30690745D01*
X47775789Y-30520478D01*
X47679816Y-30367738D01*
X47552262Y-30240184D01*
X47399522Y-30144211D01*
X47391815Y-30141514D01*
X47229258Y-30084632D01*
X47050000Y-30064435D01*
X46870741Y-30084632D01*
X46700480Y-30144210D01*
X46547739Y-30240183D01*
X46420183Y-30367739D01*
X46324210Y-30520480D01*
X46264632Y-30690741D01*
X46244435Y-30870000D01*
X26370416Y-30870000D01*
X26355044Y-30753238D01*
X26294536Y-30607159D01*
X26235330Y-30530000D01*
X26198282Y-30481717D01*
X26072841Y-30385464D01*
X25926761Y-30324955D01*
X25770000Y-30304318D01*
X25613238Y-30324955D01*
X25467158Y-30385464D01*
X25341717Y-30481717D01*
X25245464Y-30607158D01*
X25184955Y-30753238D01*
X25164318Y-30909999D01*
X23694255Y-30909999D01*
X23746498Y-30841915D01*
X23807006Y-30695836D01*
X23827644Y-30539074D01*
X23807006Y-30382312D01*
X23746498Y-30236233D01*
X23724101Y-30207044D01*
X23650244Y-30110791D01*
X23524803Y-30014538D01*
X23378723Y-29954029D01*
X23221962Y-29933392D01*
X23065200Y-29954029D01*
X22919120Y-30014538D01*
X22793679Y-30110791D01*
X22697426Y-30236232D01*
X22636917Y-30382312D01*
X22616280Y-30539074D01*
X5204869Y-30539074D01*
X5205549Y-30530000D01*
X5185383Y-30260897D01*
X5125334Y-29997805D01*
X5108153Y-29954029D01*
X5047701Y-29800000D01*
X10294318Y-29800000D01*
X10314955Y-29956761D01*
X10375464Y-30102841D01*
X10471717Y-30228282D01*
X10567971Y-30302139D01*
X10597159Y-30324536D01*
X10743238Y-30385044D01*
X10900000Y-30405682D01*
X11056762Y-30385044D01*
X11202841Y-30324536D01*
X11328282Y-30228282D01*
X11424536Y-30102841D01*
X11485044Y-29956762D01*
X11505682Y-29800000D01*
X11485044Y-29643238D01*
X11424536Y-29497159D01*
X11411369Y-29479999D01*
X25094318Y-29479999D01*
X25114955Y-29636761D01*
X25175464Y-29782841D01*
X25271717Y-29908282D01*
X25367970Y-29982139D01*
X25397159Y-30004536D01*
X25543238Y-30065044D01*
X25700000Y-30085682D01*
X25856762Y-30065044D01*
X26002841Y-30004536D01*
X26128282Y-29908282D01*
X26224536Y-29782841D01*
X26285044Y-29636762D01*
X26305682Y-29480000D01*
X26285044Y-29323238D01*
X26224536Y-29177159D01*
X26179422Y-29118365D01*
X26128282Y-29051717D01*
X26002841Y-28955464D01*
X25856761Y-28894955D01*
X25700000Y-28874318D01*
X25543238Y-28894955D01*
X25397158Y-28955464D01*
X25271717Y-29051717D01*
X25175464Y-29177158D01*
X25114955Y-29323238D01*
X25094318Y-29479999D01*
X11411369Y-29479999D01*
X11402139Y-29467970D01*
X11328282Y-29371717D01*
X11202841Y-29275464D01*
X11056761Y-29214955D01*
X10900000Y-29194318D01*
X10743238Y-29214955D01*
X10597158Y-29275464D01*
X10471717Y-29371717D01*
X10375464Y-29497158D01*
X10314955Y-29643238D01*
X10294318Y-29800000D01*
X5047701Y-29800000D01*
X5026745Y-29746606D01*
X4963327Y-29636762D01*
X4891815Y-29512898D01*
X4823662Y-29427437D01*
X4723560Y-29301913D01*
X4525744Y-29118368D01*
X4525741Y-29118365D01*
X4302775Y-28966349D01*
X4059641Y-28849262D01*
X3942148Y-28813020D01*
X3801767Y-28769718D01*
X3534931Y-28729500D01*
X3534929Y-28729500D01*
X3265071Y-28729500D01*
X3265069Y-28729500D01*
X2998232Y-28769718D01*
X2740359Y-28849262D01*
X2497227Y-28966348D01*
X2274255Y-29118368D01*
X2076439Y-29301913D01*
X1908186Y-29512896D01*
X1773254Y-29746606D01*
X1674667Y-29997800D01*
X1614616Y-30260900D01*
X1594450Y-30530000D01*
X-3099500Y-30530000D01*
X-3099500Y-28350000D01*
X21394318Y-28350000D01*
X21414955Y-28506761D01*
X21475464Y-28652841D01*
X21571717Y-28778282D01*
X21636879Y-28828282D01*
X21697159Y-28874536D01*
X21843238Y-28935044D01*
X22000000Y-28955682D01*
X22156762Y-28935044D01*
X22302841Y-28874536D01*
X22428282Y-28778282D01*
X22524536Y-28652841D01*
X22585044Y-28506762D01*
X22599099Y-28400000D01*
X23794318Y-28400000D01*
X23814955Y-28556761D01*
X23875464Y-28702841D01*
X23971717Y-28828282D01*
X24058608Y-28894955D01*
X24097159Y-28924536D01*
X24243238Y-28985044D01*
X24400000Y-29005682D01*
X24556762Y-28985044D01*
X24702841Y-28924536D01*
X24828282Y-28828282D01*
X24924536Y-28702841D01*
X24985044Y-28556762D01*
X25005682Y-28400000D01*
X24985044Y-28243238D01*
X24924536Y-28097159D01*
X24868810Y-28024535D01*
X24828282Y-27971717D01*
X24702841Y-27875464D01*
X24556761Y-27814955D01*
X24400000Y-27794318D01*
X24243238Y-27814955D01*
X24097158Y-27875464D01*
X23971717Y-27971717D01*
X23875464Y-28097158D01*
X23814955Y-28243238D01*
X23794318Y-28400000D01*
X22599099Y-28400000D01*
X22605682Y-28350000D01*
X22585044Y-28193238D01*
X22524536Y-28047159D01*
X22479338Y-27988256D01*
X22428282Y-27921717D01*
X22302841Y-27825464D01*
X22156761Y-27764955D01*
X22000000Y-27744318D01*
X21843238Y-27764955D01*
X21697158Y-27825464D01*
X21571717Y-27921717D01*
X21475464Y-28047158D01*
X21414955Y-28193238D01*
X21394318Y-28350000D01*
X-3099500Y-28350000D01*
X-3099500Y-27499999D01*
X13794318Y-27499999D01*
X13814955Y-27656761D01*
X13875464Y-27802841D01*
X13971717Y-27928282D01*
X14049878Y-27988256D01*
X14097159Y-28024536D01*
X14243238Y-28085044D01*
X14400000Y-28105682D01*
X14556762Y-28085044D01*
X14702841Y-28024536D01*
X14828282Y-27928282D01*
X14924536Y-27802841D01*
X14985044Y-27656762D01*
X15005682Y-27500000D01*
X15005681Y-27499999D01*
X15007383Y-27487078D01*
X15007619Y-27487109D01*
X15012489Y-27450106D01*
X15043687Y-27409447D01*
X15091032Y-27389836D01*
X15096262Y-27389148D01*
X15242341Y-27328640D01*
X15367782Y-27232386D01*
X15464036Y-27106945D01*
X15524544Y-26960866D01*
X15545182Y-26804104D01*
X15524544Y-26647342D01*
X15464036Y-26501263D01*
X15430885Y-26458060D01*
X15367782Y-26375821D01*
X15242341Y-26279568D01*
X15096261Y-26219059D01*
X14939500Y-26198422D01*
X14782738Y-26219059D01*
X14636658Y-26279568D01*
X14511217Y-26375821D01*
X14414964Y-26501262D01*
X14354455Y-26647342D01*
X14332117Y-26817026D01*
X14331880Y-26816994D01*
X14327009Y-26854000D01*
X14295813Y-26894655D01*
X14248469Y-26914267D01*
X14243238Y-26914955D01*
X14097158Y-26975464D01*
X13971717Y-27071717D01*
X13875464Y-27197158D01*
X13814955Y-27343238D01*
X13794318Y-27499999D01*
X-3099500Y-27499999D01*
X-3099500Y-25994357D01*
X16037708Y-25994357D01*
X16058345Y-26151118D01*
X16118854Y-26297198D01*
X16215107Y-26422639D01*
X16279068Y-26471717D01*
X16340549Y-26518893D01*
X16486628Y-26579401D01*
X16643390Y-26600039D01*
X16800152Y-26579401D01*
X16946231Y-26518893D01*
X17071672Y-26422639D01*
X17167926Y-26297198D01*
X17208187Y-26199999D01*
X21694318Y-26199999D01*
X21714955Y-26356761D01*
X21775464Y-26502841D01*
X21871717Y-26628282D01*
X21919945Y-26665288D01*
X21997159Y-26724536D01*
X22143238Y-26785044D01*
X22300000Y-26805682D01*
X22456762Y-26785044D01*
X22562128Y-26741399D01*
X22612933Y-26734711D01*
X22660278Y-26754321D01*
X22691475Y-26794976D01*
X22698165Y-26845783D01*
X22678556Y-26893128D01*
X22675465Y-26897155D01*
X22614955Y-27043238D01*
X22594318Y-27199999D01*
X22614955Y-27356761D01*
X22675464Y-27502841D01*
X22771717Y-27628282D01*
X22814572Y-27661165D01*
X22897159Y-27724536D01*
X23043238Y-27785044D01*
X23200000Y-27805682D01*
X23356762Y-27785044D01*
X23502841Y-27724536D01*
X23628282Y-27628282D01*
X23649984Y-27599999D01*
X27194318Y-27599999D01*
X27214955Y-27756761D01*
X27275464Y-27902841D01*
X27371717Y-28028282D01*
X27467971Y-28102139D01*
X27497159Y-28124536D01*
X27643238Y-28185044D01*
X27800000Y-28205682D01*
X27956762Y-28185044D01*
X28102841Y-28124536D01*
X28228282Y-28028282D01*
X28324536Y-27902841D01*
X28325506Y-27900499D01*
X31563062Y-27900499D01*
X31583699Y-28057261D01*
X31644208Y-28203341D01*
X31740461Y-28328782D01*
X31833275Y-28400000D01*
X31865903Y-28425036D01*
X32011982Y-28485544D01*
X32168744Y-28506182D01*
X32325506Y-28485544D01*
X32471585Y-28425036D01*
X32482661Y-28416537D01*
X42440856Y-28416537D01*
X42461493Y-28573299D01*
X42522002Y-28719379D01*
X42618255Y-28844820D01*
X42714509Y-28918677D01*
X42743697Y-28941074D01*
X42889776Y-29001582D01*
X43046538Y-29022220D01*
X43203300Y-29001582D01*
X43349379Y-28941074D01*
X43474820Y-28844820D01*
X43571074Y-28719379D01*
X43631582Y-28573300D01*
X43652220Y-28416538D01*
X43631582Y-28259776D01*
X43571074Y-28113697D01*
X43520017Y-28047158D01*
X43474820Y-27988255D01*
X43349379Y-27892002D01*
X43203299Y-27831493D01*
X43046538Y-27810856D01*
X42889776Y-27831493D01*
X42743696Y-27892002D01*
X42618255Y-27988255D01*
X42522002Y-28113696D01*
X42461493Y-28259776D01*
X42440856Y-28416537D01*
X32482661Y-28416537D01*
X32597026Y-28328782D01*
X32693280Y-28203341D01*
X32753788Y-28057262D01*
X32774426Y-27900500D01*
X32756659Y-27765548D01*
X32763348Y-27714744D01*
X32794545Y-27674087D01*
X32841890Y-27654476D01*
X32892697Y-27661164D01*
X33009495Y-27709544D01*
X33166257Y-27730182D01*
X33167639Y-27730000D01*
X43684318Y-27730000D01*
X43704955Y-27886761D01*
X43765464Y-28032841D01*
X43861717Y-28158282D01*
X43923491Y-28205682D01*
X43987159Y-28254536D01*
X44133238Y-28315044D01*
X44290000Y-28335682D01*
X44446762Y-28315044D01*
X44592841Y-28254536D01*
X44718282Y-28158282D01*
X44814536Y-28032841D01*
X44875044Y-27886762D01*
X44895682Y-27730000D01*
X44875044Y-27573238D01*
X44814536Y-27427159D01*
X44756030Y-27350912D01*
X44718282Y-27301717D01*
X44592841Y-27205464D01*
X44446761Y-27144955D01*
X44290000Y-27124318D01*
X44133238Y-27144955D01*
X43987158Y-27205464D01*
X43861717Y-27301717D01*
X43765464Y-27427158D01*
X43704955Y-27573238D01*
X43684318Y-27730000D01*
X33167639Y-27730000D01*
X33323019Y-27709544D01*
X33469098Y-27649036D01*
X33594539Y-27552782D01*
X33690793Y-27427341D01*
X33751301Y-27281262D01*
X33771939Y-27124500D01*
X33751301Y-26967738D01*
X33723243Y-26899999D01*
X50194318Y-26899999D01*
X50214955Y-27056761D01*
X50275464Y-27202841D01*
X50371717Y-27328282D01*
X50467970Y-27402139D01*
X50497159Y-27424536D01*
X50643238Y-27485044D01*
X50800000Y-27505682D01*
X50956762Y-27485044D01*
X51102841Y-27424536D01*
X51228282Y-27328282D01*
X51324536Y-27202841D01*
X51385044Y-27056762D01*
X51405682Y-26900000D01*
X51385044Y-26743238D01*
X51324536Y-26597159D01*
X51280259Y-26539456D01*
X51249983Y-26499999D01*
X51594318Y-26499999D01*
X51614955Y-26656761D01*
X51675464Y-26802841D01*
X51771717Y-26928282D01*
X51808263Y-26956324D01*
X51897159Y-27024536D01*
X52043238Y-27085044D01*
X52200000Y-27105682D01*
X52356762Y-27085044D01*
X52502841Y-27024536D01*
X52628282Y-26928282D01*
X52724536Y-26802841D01*
X52785044Y-26656762D01*
X52805682Y-26500000D01*
X52785044Y-26343238D01*
X52725712Y-26199999D01*
X56394318Y-26199999D01*
X56414955Y-26356761D01*
X56475464Y-26502841D01*
X56571717Y-26628282D01*
X56619945Y-26665288D01*
X56697159Y-26724536D01*
X56843238Y-26785044D01*
X57000000Y-26805682D01*
X57156762Y-26785044D01*
X57302841Y-26724536D01*
X57428282Y-26628282D01*
X57524536Y-26502841D01*
X57585044Y-26356762D01*
X57605682Y-26200000D01*
X57585044Y-26043238D01*
X57525713Y-25900000D01*
X63994318Y-25900000D01*
X64014955Y-26056761D01*
X64075464Y-26202841D01*
X64171717Y-26328282D01*
X64267971Y-26402139D01*
X64297159Y-26424536D01*
X64443238Y-26485044D01*
X64600000Y-26505682D01*
X64756762Y-26485044D01*
X64902841Y-26424536D01*
X65028282Y-26328282D01*
X65124536Y-26202841D01*
X65185044Y-26056762D01*
X65205682Y-25900000D01*
X65185044Y-25743238D01*
X65124536Y-25597159D01*
X65068783Y-25524500D01*
X66494318Y-25524500D01*
X66514955Y-25681261D01*
X66575464Y-25827341D01*
X66671717Y-25952782D01*
X66731243Y-25998457D01*
X66797159Y-26049036D01*
X66943238Y-26109544D01*
X67100000Y-26130182D01*
X67256762Y-26109544D01*
X67402841Y-26049036D01*
X67528282Y-25952782D01*
X67624536Y-25827341D01*
X67685044Y-25681262D01*
X67705682Y-25524500D01*
X67685044Y-25367738D01*
X67624536Y-25221659D01*
X67589116Y-25175498D01*
X67528282Y-25096217D01*
X67392501Y-24992030D01*
X67394493Y-24989433D01*
X67367464Y-24967252D01*
X67350779Y-24912250D01*
X67367464Y-24857248D01*
X67394493Y-24835066D01*
X67392501Y-24832470D01*
X67415845Y-24814558D01*
X67528282Y-24728282D01*
X67624536Y-24602841D01*
X67685044Y-24456762D01*
X67705682Y-24300000D01*
X67685044Y-24143238D01*
X67624536Y-23997159D01*
X67596787Y-23960996D01*
X78023558Y-23960996D01*
X78044195Y-24117757D01*
X78104704Y-24263837D01*
X78200957Y-24389278D01*
X78279466Y-24449519D01*
X78326399Y-24485532D01*
X78472478Y-24546040D01*
X78629240Y-24566678D01*
X78786002Y-24546040D01*
X78932081Y-24485532D01*
X79057522Y-24389278D01*
X79153776Y-24263837D01*
X79214284Y-24117758D01*
X79234922Y-23960996D01*
X79214284Y-23804234D01*
X79153776Y-23658155D01*
X79111332Y-23602841D01*
X79057522Y-23532713D01*
X78932081Y-23436460D01*
X78786001Y-23375951D01*
X78629240Y-23355314D01*
X78472478Y-23375951D01*
X78326398Y-23436460D01*
X78200957Y-23532713D01*
X78104704Y-23658154D01*
X78044195Y-23804234D01*
X78023558Y-23960996D01*
X67596787Y-23960996D01*
X67576806Y-23934956D01*
X67528282Y-23871717D01*
X67402841Y-23775464D01*
X67256761Y-23714955D01*
X67100000Y-23694318D01*
X66943238Y-23714955D01*
X66797158Y-23775464D01*
X66671717Y-23871717D01*
X66575464Y-23997158D01*
X66514955Y-24143238D01*
X66494318Y-24300000D01*
X66514955Y-24456761D01*
X66575464Y-24602841D01*
X66671717Y-24728282D01*
X66807499Y-24832470D01*
X66805507Y-24835065D01*
X66832538Y-24857252D01*
X66849220Y-24912250D01*
X66832538Y-24967248D01*
X66805507Y-24989434D01*
X66807499Y-24992030D01*
X66671717Y-25096217D01*
X66575464Y-25221658D01*
X66514955Y-25367738D01*
X66494318Y-25524500D01*
X65068783Y-25524500D01*
X65028282Y-25471717D01*
X64902841Y-25375464D01*
X64756761Y-25314955D01*
X64600000Y-25294318D01*
X64443238Y-25314955D01*
X64297158Y-25375464D01*
X64171717Y-25471717D01*
X64075464Y-25597158D01*
X64014955Y-25743238D01*
X63994318Y-25900000D01*
X57525713Y-25900000D01*
X57524536Y-25897159D01*
X57470963Y-25827341D01*
X57428282Y-25771717D01*
X57302841Y-25675464D01*
X57156761Y-25614955D01*
X57000000Y-25594318D01*
X56843238Y-25614955D01*
X56697158Y-25675464D01*
X56571717Y-25771717D01*
X56475464Y-25897158D01*
X56414955Y-26043238D01*
X56394318Y-26199999D01*
X52725712Y-26199999D01*
X52724536Y-26197159D01*
X52657307Y-26109544D01*
X52628282Y-26071717D01*
X52502841Y-25975464D01*
X52356761Y-25914955D01*
X52200000Y-25894318D01*
X52043238Y-25914955D01*
X51897158Y-25975464D01*
X51771717Y-26071717D01*
X51675464Y-26197158D01*
X51614955Y-26343238D01*
X51594318Y-26499999D01*
X51249983Y-26499999D01*
X51228282Y-26471717D01*
X51102841Y-26375464D01*
X50956761Y-26314955D01*
X50800000Y-26294318D01*
X50643238Y-26314955D01*
X50497158Y-26375464D01*
X50371717Y-26471717D01*
X50275464Y-26597158D01*
X50214955Y-26743238D01*
X50194318Y-26899999D01*
X33723243Y-26899999D01*
X33690793Y-26821659D01*
X33630619Y-26743238D01*
X33594539Y-26696217D01*
X33469098Y-26599964D01*
X33323018Y-26539455D01*
X33166257Y-26518818D01*
X33009495Y-26539455D01*
X32863415Y-26599964D01*
X32737974Y-26696217D01*
X32641721Y-26821658D01*
X32581212Y-26967738D01*
X32560575Y-27124500D01*
X32578341Y-27259448D01*
X32571652Y-27310256D01*
X32540455Y-27350912D01*
X32493110Y-27370523D01*
X32442303Y-27363834D01*
X32325507Y-27315455D01*
X32168744Y-27294818D01*
X32011982Y-27315455D01*
X31865902Y-27375964D01*
X31740461Y-27472217D01*
X31644208Y-27597658D01*
X31583699Y-27743738D01*
X31563062Y-27900499D01*
X28325506Y-27900499D01*
X28385044Y-27756762D01*
X28405682Y-27600000D01*
X28403887Y-27586367D01*
X28407622Y-27543676D01*
X28429049Y-27506563D01*
X28464154Y-27481982D01*
X28602841Y-27424536D01*
X28728282Y-27328282D01*
X28824536Y-27202841D01*
X28885044Y-27056762D01*
X28893586Y-26991877D01*
X28908243Y-26951607D01*
X28938546Y-26921304D01*
X28978814Y-26906647D01*
X29133046Y-26886343D01*
X29279125Y-26825835D01*
X29404566Y-26729581D01*
X29500820Y-26604140D01*
X29561328Y-26458061D01*
X29570487Y-26388483D01*
X29590098Y-26341140D01*
X29630755Y-26309943D01*
X29681560Y-26303254D01*
X29700000Y-26305682D01*
X29856762Y-26285044D01*
X30002841Y-26224536D01*
X30128282Y-26128282D01*
X30224536Y-26002841D01*
X30285044Y-25856762D01*
X30302333Y-25725433D01*
X30316990Y-25685164D01*
X30347294Y-25654861D01*
X30387564Y-25640204D01*
X30426762Y-25635044D01*
X30572841Y-25574536D01*
X30698282Y-25478282D01*
X30794536Y-25352841D01*
X30855044Y-25206762D01*
X30875682Y-25050000D01*
X30855044Y-24893238D01*
X30794536Y-24747159D01*
X30738201Y-24673741D01*
X30698282Y-24621717D01*
X30572841Y-24525464D01*
X30559647Y-24519999D01*
X31714318Y-24519999D01*
X31734955Y-24676761D01*
X31795464Y-24822841D01*
X31891717Y-24948282D01*
X31959071Y-24999964D01*
X32017159Y-25044536D01*
X32163238Y-25105044D01*
X32320000Y-25125682D01*
X32476762Y-25105044D01*
X32622841Y-25044536D01*
X32643151Y-25028951D01*
X32696939Y-25008706D01*
X32752914Y-25021757D01*
X32792206Y-25063706D01*
X32801569Y-25120414D01*
X32794317Y-25175498D01*
X32814955Y-25332261D01*
X32875464Y-25478341D01*
X32971717Y-25603782D01*
X33045189Y-25660158D01*
X33097159Y-25700036D01*
X33243238Y-25760544D01*
X33400000Y-25781182D01*
X33556762Y-25760544D01*
X33702841Y-25700036D01*
X33828282Y-25603782D01*
X33924536Y-25478341D01*
X33985044Y-25332262D01*
X34005682Y-25175500D01*
X33985044Y-25018738D01*
X33924536Y-24872659D01*
X33893698Y-24832470D01*
X33828282Y-24747217D01*
X33737048Y-24677211D01*
X33703993Y-24631716D01*
X33701051Y-24575557D01*
X33729169Y-24526856D01*
X33779276Y-24501326D01*
X33835200Y-24507205D01*
X33854124Y-24515044D01*
X34010886Y-24535682D01*
X34167648Y-24515044D01*
X34313727Y-24454536D01*
X34439168Y-24358282D01*
X34535422Y-24232841D01*
X34595930Y-24086762D01*
X34616568Y-23930000D01*
X34610339Y-23882684D01*
X38351502Y-23882684D01*
X38372139Y-24039445D01*
X38432648Y-24185525D01*
X38528901Y-24310966D01*
X38625154Y-24384823D01*
X38654343Y-24407220D01*
X38800422Y-24467728D01*
X38957184Y-24488366D01*
X39113946Y-24467728D01*
X39260025Y-24407220D01*
X39385466Y-24310966D01*
X39481720Y-24185525D01*
X39517146Y-24099999D01*
X45094935Y-24099999D01*
X45115132Y-24279258D01*
X45159909Y-24407220D01*
X45174711Y-24449522D01*
X45270684Y-24602262D01*
X45398238Y-24729816D01*
X45550978Y-24825789D01*
X45639491Y-24856761D01*
X45721241Y-24885367D01*
X45721242Y-24885367D01*
X45721245Y-24885368D01*
X45900500Y-24905565D01*
X46079755Y-24885368D01*
X46250022Y-24825789D01*
X46402762Y-24729816D01*
X46530316Y-24602262D01*
X46626289Y-24449522D01*
X46643618Y-24399999D01*
X50194318Y-24399999D01*
X50214955Y-24556761D01*
X50275464Y-24702841D01*
X50371717Y-24828282D01*
X50467970Y-24902139D01*
X50497159Y-24924536D01*
X50643238Y-24985044D01*
X50800000Y-25005682D01*
X50956762Y-24985044D01*
X51102841Y-24924536D01*
X51228282Y-24828282D01*
X51324536Y-24702841D01*
X51385044Y-24556762D01*
X51401847Y-24429128D01*
X51414816Y-24399999D01*
X51585183Y-24399999D01*
X51598153Y-24429129D01*
X51614955Y-24556761D01*
X51675464Y-24702841D01*
X51771717Y-24828282D01*
X51867970Y-24902139D01*
X51897159Y-24924536D01*
X52043238Y-24985044D01*
X52200000Y-25005682D01*
X52356762Y-24985044D01*
X52502841Y-24924536D01*
X52628282Y-24828282D01*
X52724536Y-24702841D01*
X52785044Y-24556762D01*
X52805682Y-24400000D01*
X52792517Y-24300000D01*
X56394318Y-24300000D01*
X56414955Y-24456761D01*
X56475464Y-24602841D01*
X56571717Y-24728282D01*
X56628325Y-24771718D01*
X56697159Y-24824536D01*
X56843238Y-24885044D01*
X57000000Y-24905682D01*
X57156762Y-24885044D01*
X57302841Y-24824536D01*
X57428282Y-24728282D01*
X57524536Y-24602841D01*
X57585044Y-24456762D01*
X57592517Y-24399999D01*
X63994318Y-24399999D01*
X64014955Y-24556761D01*
X64075464Y-24702841D01*
X64171717Y-24828282D01*
X64267970Y-24902139D01*
X64297159Y-24924536D01*
X64443238Y-24985044D01*
X64600000Y-25005682D01*
X64756762Y-24985044D01*
X64902841Y-24924536D01*
X65028282Y-24828282D01*
X65124536Y-24702841D01*
X65185044Y-24556762D01*
X65205682Y-24400000D01*
X65185044Y-24243238D01*
X65124536Y-24097159D01*
X65087068Y-24048330D01*
X65028282Y-23971717D01*
X64902841Y-23875464D01*
X64756761Y-23814955D01*
X64600000Y-23794318D01*
X64443238Y-23814955D01*
X64297158Y-23875464D01*
X64171717Y-23971717D01*
X64075464Y-24097158D01*
X64014955Y-24243238D01*
X63994318Y-24399999D01*
X57592517Y-24399999D01*
X57605682Y-24300000D01*
X57585044Y-24143238D01*
X57524536Y-23997159D01*
X57476806Y-23934956D01*
X57428282Y-23871717D01*
X57302841Y-23775464D01*
X57156761Y-23714955D01*
X57000000Y-23694318D01*
X56843238Y-23714955D01*
X56697158Y-23775464D01*
X56571717Y-23871717D01*
X56475464Y-23997158D01*
X56414955Y-24143238D01*
X56394318Y-24300000D01*
X52792517Y-24300000D01*
X52785044Y-24243238D01*
X52724536Y-24097159D01*
X52687068Y-24048330D01*
X52628282Y-23971717D01*
X52502841Y-23875464D01*
X52356761Y-23814955D01*
X52200000Y-23794318D01*
X52043238Y-23814955D01*
X51897158Y-23875464D01*
X51771717Y-23971717D01*
X51675464Y-24097158D01*
X51614955Y-24243238D01*
X51598153Y-24370870D01*
X51585183Y-24399999D01*
X51414816Y-24399999D01*
X51401847Y-24370870D01*
X51385044Y-24243238D01*
X51385043Y-24243237D01*
X51324536Y-24097159D01*
X51287068Y-24048330D01*
X51228282Y-23971717D01*
X51102841Y-23875464D01*
X50956761Y-23814955D01*
X50800000Y-23794318D01*
X50643238Y-23814955D01*
X50497158Y-23875464D01*
X50371717Y-23971717D01*
X50275464Y-24097158D01*
X50214955Y-24243238D01*
X50194318Y-24399999D01*
X46643618Y-24399999D01*
X46685868Y-24279255D01*
X46706065Y-24100000D01*
X46685868Y-23920745D01*
X46670023Y-23875464D01*
X46641629Y-23794318D01*
X46626289Y-23750478D01*
X46530316Y-23597738D01*
X46402762Y-23470184D01*
X46250022Y-23374211D01*
X46204117Y-23358148D01*
X46079758Y-23314632D01*
X45900500Y-23294435D01*
X45721241Y-23314632D01*
X45550980Y-23374210D01*
X45550978Y-23374210D01*
X45550978Y-23374211D01*
X45514113Y-23397375D01*
X45398239Y-23470183D01*
X45270683Y-23597739D01*
X45174710Y-23750480D01*
X45115132Y-23920741D01*
X45094935Y-24099999D01*
X39517146Y-24099999D01*
X39542228Y-24039446D01*
X39544143Y-24024896D01*
X39558800Y-23984625D01*
X39589104Y-23954321D01*
X39629377Y-23939664D01*
X39629927Y-23939591D01*
X39643924Y-23937749D01*
X39790003Y-23877241D01*
X39915444Y-23780987D01*
X40011698Y-23655546D01*
X40072206Y-23509467D01*
X40092844Y-23352705D01*
X40072206Y-23195943D01*
X40011698Y-23049864D01*
X39971256Y-22997159D01*
X39915444Y-22924422D01*
X39790003Y-22828169D01*
X39643923Y-22767660D01*
X39487162Y-22747023D01*
X39330400Y-22767660D01*
X39184320Y-22828169D01*
X39058879Y-22924422D01*
X38962626Y-23049863D01*
X38902117Y-23195942D01*
X38900201Y-23210497D01*
X38885543Y-23250765D01*
X38855241Y-23281067D01*
X38814972Y-23295724D01*
X38800422Y-23297639D01*
X38654342Y-23358148D01*
X38528901Y-23454401D01*
X38432648Y-23579842D01*
X38372139Y-23725922D01*
X38351502Y-23882684D01*
X34610339Y-23882684D01*
X34595930Y-23773238D01*
X34535422Y-23627159D01*
X34499115Y-23579843D01*
X34439168Y-23501717D01*
X34313727Y-23405464D01*
X34167647Y-23344955D01*
X34010886Y-23324318D01*
X33854124Y-23344955D01*
X33708044Y-23405464D01*
X33582603Y-23501717D01*
X33486350Y-23627158D01*
X33425841Y-23773238D01*
X33406423Y-23920741D01*
X33405204Y-23930000D01*
X33406224Y-23937749D01*
X33425841Y-24086761D01*
X33486350Y-24232841D01*
X33582603Y-24358282D01*
X33673837Y-24428288D01*
X33706891Y-24473783D01*
X33709835Y-24529941D01*
X33681717Y-24578642D01*
X33631611Y-24604172D01*
X33575684Y-24598294D01*
X33566086Y-24594318D01*
X33556761Y-24590455D01*
X33400000Y-24569818D01*
X33243238Y-24590455D01*
X33097158Y-24650964D01*
X33076849Y-24666548D01*
X33023057Y-24686793D01*
X32967082Y-24673741D01*
X32927792Y-24631791D01*
X32918430Y-24575083D01*
X32919123Y-24569818D01*
X32925682Y-24520000D01*
X32905044Y-24363238D01*
X32844536Y-24217159D01*
X32784012Y-24138282D01*
X32748282Y-24091717D01*
X32622841Y-23995464D01*
X32476761Y-23934955D01*
X32320000Y-23914318D01*
X32163238Y-23934955D01*
X32017158Y-23995464D01*
X31891717Y-24091717D01*
X31795464Y-24217158D01*
X31734955Y-24363238D01*
X31714318Y-24519999D01*
X30559647Y-24519999D01*
X30426761Y-24464955D01*
X30270000Y-24444318D01*
X30113238Y-24464955D01*
X29967158Y-24525464D01*
X29841717Y-24621717D01*
X29745464Y-24747158D01*
X29684955Y-24893238D01*
X29667666Y-25024564D01*
X29653009Y-25064835D01*
X29622706Y-25095138D01*
X29582436Y-25109795D01*
X29543238Y-25114955D01*
X29397158Y-25175464D01*
X29271717Y-25271717D01*
X29175464Y-25397158D01*
X29114955Y-25543238D01*
X29105796Y-25612813D01*
X29086185Y-25660158D01*
X29045530Y-25691355D01*
X28994722Y-25698044D01*
X28976285Y-25695617D01*
X28976284Y-25695617D01*
X28958047Y-25698017D01*
X28819522Y-25716254D01*
X28673442Y-25776763D01*
X28548001Y-25873016D01*
X28451748Y-25998457D01*
X28391239Y-26144537D01*
X28382697Y-26209421D01*
X28368039Y-26249691D01*
X28337736Y-26279994D01*
X28297466Y-26294651D01*
X28143238Y-26314955D01*
X27997158Y-26375464D01*
X27871717Y-26471717D01*
X27775464Y-26597158D01*
X27714955Y-26743238D01*
X27694317Y-26900002D01*
X27696112Y-26913634D01*
X27692377Y-26956324D01*
X27670949Y-26993437D01*
X27635846Y-27018017D01*
X27497157Y-27075465D01*
X27371717Y-27171717D01*
X27275464Y-27297158D01*
X27214955Y-27443238D01*
X27194318Y-27599999D01*
X23649984Y-27599999D01*
X23724536Y-27502841D01*
X23785044Y-27356762D01*
X23805682Y-27200000D01*
X23785044Y-27043238D01*
X23724536Y-26897159D01*
X23685114Y-26845783D01*
X23628282Y-26771717D01*
X23502841Y-26675464D01*
X23356761Y-26614955D01*
X23200000Y-26594318D01*
X23043236Y-26614955D01*
X22937872Y-26658599D01*
X22887064Y-26665288D01*
X22839718Y-26645676D01*
X22808522Y-26605019D01*
X22801834Y-26554210D01*
X22821445Y-26506868D01*
X22824536Y-26502841D01*
X22885044Y-26356762D01*
X22905682Y-26200000D01*
X22885044Y-26043238D01*
X22824536Y-25897159D01*
X22770963Y-25827341D01*
X22728282Y-25771717D01*
X22602841Y-25675464D01*
X22456761Y-25614955D01*
X22300000Y-25594318D01*
X22143238Y-25614955D01*
X21997158Y-25675464D01*
X21871717Y-25771717D01*
X21775464Y-25897158D01*
X21714955Y-26043238D01*
X21694318Y-26199999D01*
X17208187Y-26199999D01*
X17228434Y-26151119D01*
X17242464Y-26044542D01*
X17262075Y-25997199D01*
X17302730Y-25966003D01*
X17402841Y-25924536D01*
X17528282Y-25828282D01*
X17624536Y-25702841D01*
X17685044Y-25556762D01*
X17705682Y-25400000D01*
X17685044Y-25243238D01*
X17624536Y-25097159D01*
X17568832Y-25024564D01*
X17528282Y-24971717D01*
X17402841Y-24875464D01*
X17256761Y-24814955D01*
X17253741Y-24814558D01*
X17206397Y-24794946D01*
X17175201Y-24754289D01*
X17168513Y-24703482D01*
X17169955Y-24700000D01*
X20094318Y-24700000D01*
X20097034Y-24720637D01*
X20114955Y-24856761D01*
X20175464Y-25002841D01*
X20271717Y-25128282D01*
X20333254Y-25175500D01*
X20397159Y-25224536D01*
X20543238Y-25285044D01*
X20636772Y-25297357D01*
X20684116Y-25316968D01*
X20715313Y-25357624D01*
X20775464Y-25502841D01*
X20871717Y-25628282D01*
X20954125Y-25691515D01*
X20997159Y-25724536D01*
X21143238Y-25785044D01*
X21300000Y-25805682D01*
X21456762Y-25785044D01*
X21602841Y-25724536D01*
X21728282Y-25628282D01*
X21824536Y-25502841D01*
X21885044Y-25356762D01*
X21905682Y-25200000D01*
X21885044Y-25043238D01*
X21824536Y-24897159D01*
X21793538Y-24856761D01*
X21728282Y-24771717D01*
X21602841Y-24675464D01*
X21456761Y-24614955D01*
X21363228Y-24602642D01*
X21315883Y-24583031D01*
X21284687Y-24542376D01*
X21224536Y-24397159D01*
X21224535Y-24397158D01*
X21224535Y-24397157D01*
X21128282Y-24271717D01*
X21002841Y-24175464D01*
X20856761Y-24114955D01*
X20700000Y-24094318D01*
X20543238Y-24114955D01*
X20397158Y-24175464D01*
X20271717Y-24271717D01*
X20175464Y-24397158D01*
X20114955Y-24543238D01*
X20098722Y-24666548D01*
X20094318Y-24700000D01*
X17169955Y-24700000D01*
X17188124Y-24656137D01*
X17228778Y-24624942D01*
X17354499Y-24572867D01*
X17479940Y-24476613D01*
X17576194Y-24351172D01*
X17636702Y-24205093D01*
X17657340Y-24048331D01*
X17636702Y-23891569D01*
X17576640Y-23746568D01*
X17569952Y-23695761D01*
X17589562Y-23648418D01*
X17624536Y-23602841D01*
X17685044Y-23456762D01*
X17705682Y-23300000D01*
X17685044Y-23143238D01*
X17624536Y-22997159D01*
X17578967Y-22937772D01*
X17528282Y-22871717D01*
X17402841Y-22775464D01*
X17256761Y-22714955D01*
X17100000Y-22694318D01*
X16943238Y-22714955D01*
X16797158Y-22775464D01*
X16671717Y-22871717D01*
X16575464Y-22997158D01*
X16514955Y-23143238D01*
X16494318Y-23299999D01*
X16514955Y-23456761D01*
X16536787Y-23509467D01*
X16565937Y-23579842D01*
X16575016Y-23601759D01*
X16581705Y-23652566D01*
X16562095Y-23699911D01*
X16527122Y-23745489D01*
X16466613Y-23891569D01*
X16445976Y-24048330D01*
X16466613Y-24205092D01*
X16527122Y-24351172D01*
X16623375Y-24476613D01*
X16700355Y-24535681D01*
X16748817Y-24572867D01*
X16850429Y-24614956D01*
X16894896Y-24633375D01*
X16897911Y-24633772D01*
X16945257Y-24653382D01*
X16976454Y-24694038D01*
X16983144Y-24744846D01*
X16963534Y-24792191D01*
X16922877Y-24823389D01*
X16797158Y-24875464D01*
X16671717Y-24971717D01*
X16575464Y-25097158D01*
X16514955Y-25243238D01*
X16500925Y-25349812D01*
X16481314Y-25397157D01*
X16440658Y-25428354D01*
X16340548Y-25469821D01*
X16215107Y-25566074D01*
X16118854Y-25691515D01*
X16058345Y-25837595D01*
X16037708Y-25994357D01*
X-3099500Y-25994357D01*
X-3099500Y-22100000D01*
X22794318Y-22100000D01*
X22814955Y-22256761D01*
X22875464Y-22402841D01*
X22971717Y-22528282D01*
X23067970Y-22602139D01*
X23097159Y-22624536D01*
X23243238Y-22685044D01*
X23400000Y-22705682D01*
X23556762Y-22685044D01*
X23701723Y-22624999D01*
X27944318Y-22624999D01*
X27964955Y-22781761D01*
X28025464Y-22927841D01*
X28121717Y-23053282D01*
X28247157Y-23149535D01*
X28247158Y-23149535D01*
X28247159Y-23149536D01*
X28313542Y-23177032D01*
X28354197Y-23208229D01*
X28373808Y-23255574D01*
X28392476Y-23397374D01*
X28452985Y-23543454D01*
X28549238Y-23668895D01*
X28609267Y-23714956D01*
X28674680Y-23765149D01*
X28820759Y-23825657D01*
X28977521Y-23846295D01*
X29071911Y-23833868D01*
X29114599Y-23837603D01*
X29151713Y-23859030D01*
X29176294Y-23894135D01*
X29225464Y-24012841D01*
X29321717Y-24138282D01*
X29383286Y-24185525D01*
X29447159Y-24234536D01*
X29593238Y-24295044D01*
X29750000Y-24315682D01*
X29906762Y-24295044D01*
X30052841Y-24234536D01*
X30178282Y-24138282D01*
X30274536Y-24012841D01*
X30335044Y-23866762D01*
X30355682Y-23710000D01*
X30335044Y-23553238D01*
X30274536Y-23407159D01*
X30232752Y-23352705D01*
X30178282Y-23281717D01*
X30052841Y-23185464D01*
X29906761Y-23124955D01*
X29770637Y-23107034D01*
X29750000Y-23104318D01*
X29749999Y-23104318D01*
X29655612Y-23116744D01*
X29612920Y-23113009D01*
X29575807Y-23091581D01*
X29551226Y-23056477D01*
X29548486Y-23049863D01*
X29502057Y-22937772D01*
X29502056Y-22937771D01*
X29502056Y-22937770D01*
X29405803Y-22812330D01*
X29280362Y-22716077D01*
X29277653Y-22714955D01*
X29213978Y-22688579D01*
X29173323Y-22657383D01*
X29153712Y-22610038D01*
X29135044Y-22468238D01*
X29128299Y-22451955D01*
X29074536Y-22322159D01*
X29035825Y-22271710D01*
X28978282Y-22196717D01*
X28852841Y-22100464D01*
X28706761Y-22039955D01*
X28550000Y-22019318D01*
X28393238Y-22039955D01*
X28247158Y-22100464D01*
X28121717Y-22196717D01*
X28025464Y-22322158D01*
X27964955Y-22468238D01*
X27944318Y-22624999D01*
X23701723Y-22624999D01*
X23702841Y-22624536D01*
X23828282Y-22528282D01*
X23924536Y-22402841D01*
X23985044Y-22256762D01*
X24005682Y-22100000D01*
X23985044Y-21943238D01*
X23924536Y-21797159D01*
X23876874Y-21735044D01*
X23828282Y-21671717D01*
X23702841Y-21575464D01*
X23556761Y-21514955D01*
X23400000Y-21494318D01*
X23243238Y-21514955D01*
X23097158Y-21575464D01*
X22971717Y-21671717D01*
X22875464Y-21797158D01*
X22814955Y-21943238D01*
X22794318Y-22100000D01*
X-3099500Y-22100000D01*
X-3099500Y-21473943D01*
X4720374Y-21473943D01*
X4741011Y-21630705D01*
X4801520Y-21776785D01*
X4897773Y-21902226D01*
X4951222Y-21943238D01*
X5023215Y-21998480D01*
X5169294Y-22058988D01*
X5326056Y-22079626D01*
X5482818Y-22058988D01*
X5628897Y-21998480D01*
X5754338Y-21902226D01*
X5850592Y-21776785D01*
X5911100Y-21630706D01*
X5931738Y-21473944D01*
X5911100Y-21317182D01*
X5850592Y-21171103D01*
X5834399Y-21150000D01*
X21074318Y-21150000D01*
X21094955Y-21306761D01*
X21155464Y-21452841D01*
X21251717Y-21578282D01*
X21320037Y-21630705D01*
X21377159Y-21674536D01*
X21523238Y-21735044D01*
X21680000Y-21755682D01*
X21836762Y-21735044D01*
X21982841Y-21674536D01*
X22108282Y-21578282D01*
X22204536Y-21452841D01*
X22265044Y-21306762D01*
X22285682Y-21150000D01*
X22265044Y-20993238D01*
X22245162Y-20945238D01*
X23849080Y-20945238D01*
X23850963Y-20959544D01*
X23869717Y-21101999D01*
X23930226Y-21248079D01*
X24026479Y-21373520D01*
X24122733Y-21447377D01*
X24151921Y-21469774D01*
X24298000Y-21530282D01*
X24454762Y-21550920D01*
X24611524Y-21530282D01*
X24757603Y-21469774D01*
X24883044Y-21373520D01*
X24979298Y-21248079D01*
X25039806Y-21102000D01*
X25060444Y-20945238D01*
X25040964Y-20797274D01*
X25051303Y-20738642D01*
X25093404Y-20696541D01*
X25152036Y-20686202D01*
X25300000Y-20705682D01*
X25456762Y-20685044D01*
X25600402Y-20625546D01*
X25642601Y-20618105D01*
X25683996Y-20629197D01*
X25716825Y-20656744D01*
X25771717Y-20728282D01*
X25855776Y-20792782D01*
X25897159Y-20824536D01*
X26043238Y-20885044D01*
X26057952Y-20886981D01*
X26098224Y-20901637D01*
X26128528Y-20931940D01*
X26143186Y-20972212D01*
X26158770Y-21090585D01*
X26219279Y-21236665D01*
X26315532Y-21362106D01*
X26392060Y-21420827D01*
X26440974Y-21458360D01*
X26587053Y-21518868D01*
X26743815Y-21539506D01*
X26743816Y-21539505D01*
X26751695Y-21540543D01*
X26791965Y-21555200D01*
X26822268Y-21585503D01*
X26836926Y-21625773D01*
X26844955Y-21686761D01*
X26905464Y-21832841D01*
X27001717Y-21958282D01*
X27054105Y-21998480D01*
X27127159Y-22054536D01*
X27273238Y-22115044D01*
X27430000Y-22135682D01*
X27586762Y-22115044D01*
X27732841Y-22054536D01*
X27858282Y-21958282D01*
X27954536Y-21832841D01*
X28015044Y-21686762D01*
X28035682Y-21530000D01*
X28015044Y-21373238D01*
X27954536Y-21227159D01*
X27888802Y-21141492D01*
X27858282Y-21101717D01*
X27732841Y-21005464D01*
X27586761Y-20944955D01*
X27422119Y-20923280D01*
X27381848Y-20908623D01*
X27351545Y-20878319D01*
X27336888Y-20838049D01*
X27328859Y-20777062D01*
X27311476Y-20735097D01*
X27268351Y-20630983D01*
X27233101Y-20585044D01*
X27172097Y-20505541D01*
X27046656Y-20409288D01*
X26900576Y-20348779D01*
X26885854Y-20346841D01*
X26845585Y-20332182D01*
X26815283Y-20301879D01*
X26800628Y-20261612D01*
X26792796Y-20202122D01*
X28682196Y-20202122D01*
X28702833Y-20358883D01*
X28763342Y-20504963D01*
X28859595Y-20630404D01*
X28945788Y-20696541D01*
X28985037Y-20726658D01*
X29101745Y-20775000D01*
X29131116Y-20787166D01*
X29208686Y-20797378D01*
X29248957Y-20812035D01*
X29279260Y-20842338D01*
X29293918Y-20882609D01*
X29305856Y-20973289D01*
X29366365Y-21119369D01*
X29462618Y-21244810D01*
X29556936Y-21317182D01*
X29588060Y-21341064D01*
X29734139Y-21401572D01*
X29890901Y-21422210D01*
X29901401Y-21420827D01*
X29960033Y-21431165D01*
X30002135Y-21473266D01*
X30012475Y-21531901D01*
X29994818Y-21666027D01*
X30015455Y-21822789D01*
X30075964Y-21968869D01*
X30172217Y-22094310D01*
X30226135Y-22135682D01*
X30297659Y-22190564D01*
X30443738Y-22251072D01*
X30600500Y-22271710D01*
X30620304Y-22269102D01*
X30662991Y-22272836D01*
X30700106Y-22294264D01*
X30724687Y-22329369D01*
X30775464Y-22451955D01*
X30871717Y-22577396D01*
X30933757Y-22625000D01*
X30997159Y-22673650D01*
X31143238Y-22734158D01*
X31300000Y-22754796D01*
X31456762Y-22734158D01*
X31574233Y-22685500D01*
X35044318Y-22685500D01*
X35064955Y-22842261D01*
X35125464Y-22988341D01*
X35221717Y-23113782D01*
X35304147Y-23177032D01*
X35347159Y-23210036D01*
X35493238Y-23270544D01*
X35650000Y-23291182D01*
X35806762Y-23270544D01*
X35952841Y-23210036D01*
X36078282Y-23113782D01*
X36174536Y-22988341D01*
X36235044Y-22842262D01*
X36255682Y-22685500D01*
X36235044Y-22528738D01*
X36174536Y-22382659D01*
X36128112Y-22322158D01*
X36078282Y-22257217D01*
X35952841Y-22160964D01*
X35806761Y-22100455D01*
X35650000Y-22079818D01*
X35493238Y-22100455D01*
X35347158Y-22160964D01*
X35221717Y-22257217D01*
X35125464Y-22382658D01*
X35064955Y-22528738D01*
X35044318Y-22685500D01*
X31574233Y-22685500D01*
X31602841Y-22673650D01*
X31728282Y-22577396D01*
X31824536Y-22451955D01*
X31885044Y-22305876D01*
X31905682Y-22149114D01*
X31885044Y-21992352D01*
X31824536Y-21846273D01*
X31771216Y-21776785D01*
X31728282Y-21720831D01*
X31602841Y-21624578D01*
X31456761Y-21564069D01*
X31300000Y-21543432D01*
X31280195Y-21546039D01*
X31237504Y-21542302D01*
X31200392Y-21520875D01*
X31175812Y-21485771D01*
X31164458Y-21458360D01*
X31125036Y-21363187D01*
X31059104Y-21277262D01*
X31028782Y-21237745D01*
X30903341Y-21141492D01*
X30757261Y-21080983D01*
X30600497Y-21060345D01*
X30589998Y-21061728D01*
X30531364Y-21051388D01*
X30489264Y-21009287D01*
X30478925Y-20950653D01*
X30479675Y-20944955D01*
X30484935Y-20904999D01*
X38499318Y-20904999D01*
X38519955Y-21061761D01*
X38580464Y-21207841D01*
X38676717Y-21333282D01*
X38769943Y-21404816D01*
X38802159Y-21429536D01*
X38948238Y-21490044D01*
X39105000Y-21510682D01*
X39261762Y-21490044D01*
X39407841Y-21429536D01*
X39533282Y-21333282D01*
X39629536Y-21207841D01*
X39690044Y-21061762D01*
X39710682Y-20905000D01*
X39693567Y-20775000D01*
X46244435Y-20775000D01*
X46264632Y-20954258D01*
X46321514Y-21116815D01*
X46324211Y-21124522D01*
X46420184Y-21277262D01*
X46547738Y-21404816D01*
X46700478Y-21500789D01*
X46789391Y-21531901D01*
X46870741Y-21560367D01*
X46870742Y-21560367D01*
X46870745Y-21560368D01*
X47050000Y-21580565D01*
X47229255Y-21560368D01*
X47399522Y-21500789D01*
X47552262Y-21404816D01*
X47679816Y-21277262D01*
X47775789Y-21124522D01*
X47835368Y-20954255D01*
X47855565Y-20775000D01*
X47835368Y-20595745D01*
X47824831Y-20565633D01*
X47810451Y-20524536D01*
X47775789Y-20425478D01*
X47679816Y-20272738D01*
X47552262Y-20145184D01*
X47399522Y-20049211D01*
X47391815Y-20046514D01*
X47229258Y-19989632D01*
X47050000Y-19969435D01*
X46870741Y-19989632D01*
X46700480Y-20049210D01*
X46700478Y-20049210D01*
X46700478Y-20049211D01*
X46649116Y-20081484D01*
X46547739Y-20145183D01*
X46420183Y-20272739D01*
X46390515Y-20319956D01*
X46347606Y-20388246D01*
X46324210Y-20425480D01*
X46264632Y-20595741D01*
X46244435Y-20775000D01*
X39693567Y-20775000D01*
X39690044Y-20748238D01*
X39629536Y-20602159D01*
X39600989Y-20564956D01*
X39533282Y-20476717D01*
X39407841Y-20380464D01*
X39261761Y-20319955D01*
X39105000Y-20299318D01*
X38948238Y-20319955D01*
X38802158Y-20380464D01*
X38676717Y-20476717D01*
X38580464Y-20602158D01*
X38519955Y-20748238D01*
X38499318Y-20904999D01*
X30484935Y-20904999D01*
X30496583Y-20816528D01*
X30475945Y-20659766D01*
X30415437Y-20513687D01*
X30347754Y-20425480D01*
X30319183Y-20388245D01*
X30193742Y-20291992D01*
X30047662Y-20231483D01*
X29970091Y-20221271D01*
X29929820Y-20206614D01*
X29899517Y-20176310D01*
X29884860Y-20136040D01*
X29872922Y-20045360D01*
X29852956Y-19997158D01*
X29812711Y-19899999D01*
X53194318Y-19899999D01*
X53214955Y-20056761D01*
X53275464Y-20202841D01*
X53371717Y-20328282D01*
X53449865Y-20388246D01*
X53497159Y-20424536D01*
X53643238Y-20485044D01*
X53800000Y-20505682D01*
X53956762Y-20485044D01*
X54102841Y-20424536D01*
X54228282Y-20328282D01*
X54324536Y-20202841D01*
X54385044Y-20056762D01*
X54405682Y-19900000D01*
X54405682Y-19899999D01*
X54981818Y-19899999D01*
X55002455Y-20056761D01*
X55062964Y-20202841D01*
X55159217Y-20328282D01*
X55237365Y-20388246D01*
X55284659Y-20424536D01*
X55430738Y-20485044D01*
X55587500Y-20505682D01*
X55744262Y-20485044D01*
X55890341Y-20424536D01*
X56015782Y-20328282D01*
X56112036Y-20202841D01*
X56172544Y-20056762D01*
X56180017Y-20000000D01*
X62894318Y-20000000D01*
X62894692Y-20002841D01*
X62914955Y-20156761D01*
X62975464Y-20302841D01*
X63071717Y-20428282D01*
X63134840Y-20476717D01*
X63197159Y-20524536D01*
X63343238Y-20585044D01*
X63500000Y-20605682D01*
X63656762Y-20585044D01*
X63802841Y-20524536D01*
X63928282Y-20428282D01*
X64024536Y-20302841D01*
X64085044Y-20156762D01*
X64105682Y-20000000D01*
X68294318Y-20000000D01*
X68294692Y-20002841D01*
X68314955Y-20156761D01*
X68375464Y-20302841D01*
X68471717Y-20428282D01*
X68534840Y-20476717D01*
X68597159Y-20524536D01*
X68743238Y-20585044D01*
X68900000Y-20605682D01*
X69056762Y-20585044D01*
X69202841Y-20524536D01*
X69328282Y-20428282D01*
X69424536Y-20302841D01*
X69485044Y-20156762D01*
X69505682Y-20000000D01*
X70094318Y-20000000D01*
X70094692Y-20002841D01*
X70114955Y-20156761D01*
X70175464Y-20302841D01*
X70271717Y-20428282D01*
X70334840Y-20476717D01*
X70397159Y-20524536D01*
X70543238Y-20585044D01*
X70700000Y-20605682D01*
X70856762Y-20585044D01*
X71002841Y-20524536D01*
X71128282Y-20428282D01*
X71169550Y-20374500D01*
X75594318Y-20374500D01*
X75614955Y-20531261D01*
X75675464Y-20677341D01*
X75771717Y-20802782D01*
X75829550Y-20847158D01*
X75897159Y-20899036D01*
X76043238Y-20959544D01*
X76200000Y-20980182D01*
X76356762Y-20959544D01*
X76502841Y-20899036D01*
X76628282Y-20802782D01*
X76724536Y-20677341D01*
X76785044Y-20531262D01*
X76805682Y-20374500D01*
X76785044Y-20217738D01*
X76724536Y-20071659D01*
X76702139Y-20042471D01*
X76628282Y-19946217D01*
X76502841Y-19849964D01*
X76356761Y-19789455D01*
X76200000Y-19768818D01*
X76043238Y-19789455D01*
X75897158Y-19849964D01*
X75771717Y-19946217D01*
X75675464Y-20071658D01*
X75614955Y-20217738D01*
X75594318Y-20374500D01*
X71169550Y-20374500D01*
X71224536Y-20302841D01*
X71285044Y-20156762D01*
X71305682Y-20000000D01*
X71285044Y-19843238D01*
X71224536Y-19697159D01*
X71163087Y-19617077D01*
X71128282Y-19571717D01*
X71002841Y-19475464D01*
X70856761Y-19414955D01*
X70700000Y-19394318D01*
X70543238Y-19414955D01*
X70397158Y-19475464D01*
X70271717Y-19571717D01*
X70175464Y-19697158D01*
X70114955Y-19843238D01*
X70101398Y-19946218D01*
X70094318Y-20000000D01*
X69505682Y-20000000D01*
X69485044Y-19843238D01*
X69424536Y-19697159D01*
X69363087Y-19617077D01*
X69328282Y-19571717D01*
X69202841Y-19475464D01*
X69056761Y-19414955D01*
X68900000Y-19394318D01*
X68743238Y-19414955D01*
X68597158Y-19475464D01*
X68471717Y-19571717D01*
X68375464Y-19697158D01*
X68314955Y-19843238D01*
X68301398Y-19946218D01*
X68294318Y-20000000D01*
X64105682Y-20000000D01*
X64085044Y-19843238D01*
X64024536Y-19697159D01*
X63963087Y-19617077D01*
X63928282Y-19571717D01*
X63802841Y-19475464D01*
X63656761Y-19414955D01*
X63500000Y-19394318D01*
X63343238Y-19414955D01*
X63197158Y-19475464D01*
X63071717Y-19571717D01*
X62975464Y-19697158D01*
X62914955Y-19843238D01*
X62901398Y-19946218D01*
X62894318Y-20000000D01*
X56180017Y-20000000D01*
X56193182Y-19900000D01*
X56172544Y-19743238D01*
X56112036Y-19597159D01*
X56018916Y-19475802D01*
X56015782Y-19471717D01*
X55890341Y-19375464D01*
X55744261Y-19314955D01*
X55587500Y-19294318D01*
X55430738Y-19314955D01*
X55284658Y-19375464D01*
X55159217Y-19471717D01*
X55062964Y-19597158D01*
X55002455Y-19743238D01*
X54981818Y-19899999D01*
X54405682Y-19899999D01*
X54385044Y-19743238D01*
X54324536Y-19597159D01*
X54231416Y-19475802D01*
X54228282Y-19471717D01*
X54102841Y-19375464D01*
X53956761Y-19314955D01*
X53800000Y-19294318D01*
X53643238Y-19314955D01*
X53497158Y-19375464D01*
X53371717Y-19471717D01*
X53275464Y-19597158D01*
X53214955Y-19743238D01*
X53194318Y-19899999D01*
X29812711Y-19899999D01*
X29812414Y-19899281D01*
X29753867Y-19822981D01*
X29716160Y-19773839D01*
X29590719Y-19677586D01*
X29444639Y-19617077D01*
X29287878Y-19596440D01*
X29131116Y-19617077D01*
X28985036Y-19677586D01*
X28859595Y-19773839D01*
X28763342Y-19899280D01*
X28702833Y-20045360D01*
X28682196Y-20202122D01*
X26792796Y-20202122D01*
X26785044Y-20143238D01*
X26724536Y-19997159D01*
X26683161Y-19943238D01*
X26628282Y-19871717D01*
X26502841Y-19775464D01*
X26356761Y-19714955D01*
X26200000Y-19694318D01*
X26043236Y-19714955D01*
X25899601Y-19774451D01*
X25857397Y-19781893D01*
X25816003Y-19770801D01*
X25783174Y-19743254D01*
X25728282Y-19671717D01*
X25602841Y-19575464D01*
X25456761Y-19514955D01*
X25300000Y-19494318D01*
X25143238Y-19514955D01*
X24997158Y-19575464D01*
X24871717Y-19671717D01*
X24775464Y-19797158D01*
X24714955Y-19943238D01*
X24694318Y-20100000D01*
X24713797Y-20247960D01*
X24703458Y-20306595D01*
X24661357Y-20348696D01*
X24602722Y-20359035D01*
X24454762Y-20339556D01*
X24298000Y-20360193D01*
X24151920Y-20420702D01*
X24026479Y-20516955D01*
X23930226Y-20642396D01*
X23869717Y-20788476D01*
X23850436Y-20934935D01*
X23849080Y-20945238D01*
X22245162Y-20945238D01*
X22204536Y-20847159D01*
X22181031Y-20816527D01*
X22108282Y-20721717D01*
X21982841Y-20625464D01*
X21836761Y-20564955D01*
X21680000Y-20544318D01*
X21523238Y-20564955D01*
X21377158Y-20625464D01*
X21251717Y-20721717D01*
X21155464Y-20847158D01*
X21094955Y-20993238D01*
X21074318Y-21150000D01*
X5834399Y-21150000D01*
X5798600Y-21103346D01*
X5778238Y-21047398D01*
X5793648Y-20989887D01*
X5839258Y-20951616D01*
X5844259Y-20949544D01*
X5844262Y-20949544D01*
X5990341Y-20889036D01*
X6115782Y-20792782D01*
X6212036Y-20667341D01*
X6272544Y-20521262D01*
X6293182Y-20364500D01*
X6272544Y-20207738D01*
X6212036Y-20061659D01*
X6189639Y-20032471D01*
X6115782Y-19936217D01*
X5990341Y-19839964D01*
X5844261Y-19779455D01*
X5687500Y-19758818D01*
X5530738Y-19779455D01*
X5384658Y-19839964D01*
X5259217Y-19936217D01*
X5162964Y-20061658D01*
X5102455Y-20207738D01*
X5081818Y-20364499D01*
X5102455Y-20521261D01*
X5162964Y-20667341D01*
X5214954Y-20735097D01*
X5235317Y-20791045D01*
X5219907Y-20848556D01*
X5174297Y-20886827D01*
X5023214Y-20949408D01*
X4897773Y-21045661D01*
X4801520Y-21171102D01*
X4741011Y-21317182D01*
X4720374Y-21473943D01*
X-3099500Y-21473943D01*
X-3099500Y-19700000D01*
X794318Y-19700000D01*
X814955Y-19856761D01*
X875464Y-20002841D01*
X971717Y-20128282D01*
X1034309Y-20176310D01*
X1097159Y-20224536D01*
X1243238Y-20285044D01*
X1400000Y-20305682D01*
X1556762Y-20285044D01*
X1702841Y-20224536D01*
X1828282Y-20128282D01*
X1924536Y-20002841D01*
X1985044Y-19856762D01*
X2005682Y-19700000D01*
X1985044Y-19543238D01*
X1924536Y-19397159D01*
X1899503Y-19364535D01*
X1828282Y-19271717D01*
X1702841Y-19175464D01*
X1556761Y-19114955D01*
X1400000Y-19094318D01*
X1243238Y-19114955D01*
X1097158Y-19175464D01*
X971717Y-19271717D01*
X875464Y-19397158D01*
X814955Y-19543238D01*
X794318Y-19700000D01*
X-3099500Y-19700000D01*
X-3099500Y-18300000D01*
X4981818Y-18300000D01*
X5002455Y-18456761D01*
X5062964Y-18602841D01*
X5159217Y-18728282D01*
X5255471Y-18802139D01*
X5284659Y-18824536D01*
X5430738Y-18885044D01*
X5587500Y-18905682D01*
X5744262Y-18885044D01*
X5853008Y-18840000D01*
X7694318Y-18840000D01*
X7714955Y-18996761D01*
X7775464Y-19142841D01*
X7871717Y-19268282D01*
X7932545Y-19314956D01*
X7997159Y-19364536D01*
X8143238Y-19425044D01*
X8300000Y-19445682D01*
X8456762Y-19425044D01*
X8602841Y-19364536D01*
X8728282Y-19268282D01*
X8824536Y-19142841D01*
X8885044Y-18996762D01*
X8905682Y-18840000D01*
X13754318Y-18840000D01*
X13774955Y-18996761D01*
X13835464Y-19142841D01*
X13931717Y-19268282D01*
X13992545Y-19314956D01*
X14057159Y-19364536D01*
X14203238Y-19425044D01*
X14360000Y-19445682D01*
X14516762Y-19425044D01*
X14582550Y-19397793D01*
X14641860Y-19392605D01*
X14693423Y-19422374D01*
X14718586Y-19476336D01*
X14739153Y-19632563D01*
X14799662Y-19778643D01*
X14895915Y-19904084D01*
X14950825Y-19946217D01*
X15021357Y-20000338D01*
X15167436Y-20060846D01*
X15324198Y-20081484D01*
X15480960Y-20060846D01*
X15627039Y-20000338D01*
X15627479Y-20000000D01*
X22194318Y-20000000D01*
X22194692Y-20002841D01*
X22214955Y-20156761D01*
X22275464Y-20302841D01*
X22371717Y-20428282D01*
X22434840Y-20476717D01*
X22497159Y-20524536D01*
X22643238Y-20585044D01*
X22800000Y-20605682D01*
X22956762Y-20585044D01*
X23102841Y-20524536D01*
X23228282Y-20428282D01*
X23324536Y-20302841D01*
X23385044Y-20156762D01*
X23405682Y-20000000D01*
X23385044Y-19843238D01*
X23324536Y-19697159D01*
X23263087Y-19617077D01*
X23228282Y-19571717D01*
X23102841Y-19475464D01*
X22956761Y-19414955D01*
X22800000Y-19394318D01*
X22643238Y-19414955D01*
X22497158Y-19475464D01*
X22371717Y-19571717D01*
X22275464Y-19697158D01*
X22214955Y-19843238D01*
X22201398Y-19946218D01*
X22194318Y-20000000D01*
X15627479Y-20000000D01*
X15752480Y-19904084D01*
X15848734Y-19778643D01*
X15909242Y-19632564D01*
X15929880Y-19475802D01*
X15909242Y-19319040D01*
X15848734Y-19172961D01*
X15825622Y-19142841D01*
X15752480Y-19047519D01*
X15690551Y-19000000D01*
X46794318Y-19000000D01*
X46814955Y-19156761D01*
X46875464Y-19302841D01*
X46971717Y-19428282D01*
X47028325Y-19471718D01*
X47097159Y-19524536D01*
X47243238Y-19585044D01*
X47400000Y-19605682D01*
X47556762Y-19585044D01*
X47702841Y-19524536D01*
X47828282Y-19428282D01*
X47924536Y-19302841D01*
X47985044Y-19156762D01*
X48005682Y-19000000D01*
X58794318Y-19000000D01*
X58814955Y-19156761D01*
X58875464Y-19302841D01*
X58971717Y-19428282D01*
X59028325Y-19471718D01*
X59097159Y-19524536D01*
X59243238Y-19585044D01*
X59400000Y-19605682D01*
X59556762Y-19585044D01*
X59702841Y-19524536D01*
X59828282Y-19428282D01*
X59924536Y-19302841D01*
X59985044Y-19156762D01*
X60005682Y-19000000D01*
X59992517Y-18900000D01*
X61394435Y-18900000D01*
X61414632Y-19079258D01*
X61447421Y-19172961D01*
X61474211Y-19249522D01*
X61570184Y-19402262D01*
X61697738Y-19529816D01*
X61850478Y-19625789D01*
X61958851Y-19663710D01*
X62020741Y-19685367D01*
X62020742Y-19685367D01*
X62020745Y-19685368D01*
X62200000Y-19705565D01*
X62379255Y-19685368D01*
X62549522Y-19625789D01*
X62702262Y-19529816D01*
X62829816Y-19402262D01*
X62925789Y-19249522D01*
X62985368Y-19079255D01*
X63005565Y-18900000D01*
X73294435Y-18900000D01*
X73314632Y-19079258D01*
X73347421Y-19172961D01*
X73374211Y-19249522D01*
X73470184Y-19402262D01*
X73597738Y-19529816D01*
X73750478Y-19625789D01*
X73858851Y-19663710D01*
X73920741Y-19685367D01*
X73920742Y-19685367D01*
X73920745Y-19685368D01*
X74100000Y-19705565D01*
X74279255Y-19685368D01*
X74449522Y-19625789D01*
X74602262Y-19529816D01*
X74729816Y-19402262D01*
X74825789Y-19249522D01*
X74885368Y-19079255D01*
X74905565Y-18900000D01*
X74885368Y-18720745D01*
X74825789Y-18550478D01*
X74729816Y-18397738D01*
X74602262Y-18270184D01*
X74449522Y-18174211D01*
X74441815Y-18171514D01*
X74279258Y-18114632D01*
X74100000Y-18094435D01*
X73920741Y-18114632D01*
X73750480Y-18174210D01*
X73597739Y-18270183D01*
X73470183Y-18397739D01*
X73374210Y-18550480D01*
X73314632Y-18720741D01*
X73294435Y-18900000D01*
X63005565Y-18900000D01*
X62985368Y-18720745D01*
X62925789Y-18550478D01*
X62829816Y-18397738D01*
X62702262Y-18270184D01*
X62549522Y-18174211D01*
X62541815Y-18171514D01*
X62379258Y-18114632D01*
X62200000Y-18094435D01*
X62020741Y-18114632D01*
X61850480Y-18174210D01*
X61697739Y-18270183D01*
X61570183Y-18397739D01*
X61474210Y-18550480D01*
X61414632Y-18720741D01*
X61394435Y-18900000D01*
X59992517Y-18900000D01*
X59985044Y-18843238D01*
X59924536Y-18697159D01*
X59902139Y-18667971D01*
X59828282Y-18571717D01*
X59702841Y-18475464D01*
X59556761Y-18414955D01*
X59400000Y-18394318D01*
X59243238Y-18414955D01*
X59097158Y-18475464D01*
X58971717Y-18571717D01*
X58875464Y-18697158D01*
X58814955Y-18843238D01*
X58794318Y-19000000D01*
X48005682Y-19000000D01*
X47985044Y-18843238D01*
X47924536Y-18697159D01*
X47902139Y-18667971D01*
X47828282Y-18571717D01*
X47702841Y-18475464D01*
X47556761Y-18414955D01*
X47400000Y-18394318D01*
X47243238Y-18414955D01*
X47097158Y-18475464D01*
X46971717Y-18571717D01*
X46875464Y-18697158D01*
X46814955Y-18843238D01*
X46794318Y-19000000D01*
X15690551Y-19000000D01*
X15627039Y-18951266D01*
X15480959Y-18890757D01*
X15324198Y-18870120D01*
X15167434Y-18890757D01*
X15101649Y-18918007D01*
X15042336Y-18923196D01*
X14990773Y-18893426D01*
X14965611Y-18839466D01*
X14945044Y-18683238D01*
X14884536Y-18537159D01*
X14837196Y-18475464D01*
X14788282Y-18411717D01*
X14662841Y-18315464D01*
X14516761Y-18254955D01*
X14360000Y-18234318D01*
X14203238Y-18254955D01*
X14057158Y-18315464D01*
X13931717Y-18411717D01*
X13835464Y-18537158D01*
X13774955Y-18683238D01*
X13754318Y-18840000D01*
X8905682Y-18840000D01*
X8885044Y-18683238D01*
X8824536Y-18537159D01*
X8777196Y-18475464D01*
X8728282Y-18411717D01*
X8602841Y-18315464D01*
X8456761Y-18254955D01*
X8300000Y-18234318D01*
X8143238Y-18254955D01*
X7997158Y-18315464D01*
X7871717Y-18411717D01*
X7775464Y-18537158D01*
X7714955Y-18683238D01*
X7694318Y-18840000D01*
X5853008Y-18840000D01*
X5890341Y-18824536D01*
X6015782Y-18728282D01*
X6112036Y-18602841D01*
X6172544Y-18456762D01*
X6193182Y-18300000D01*
X6172544Y-18143238D01*
X6112036Y-17997159D01*
X6089639Y-17967971D01*
X6015782Y-17871717D01*
X5890341Y-17775464D01*
X5744261Y-17714955D01*
X5587500Y-17694318D01*
X5430738Y-17714955D01*
X5284658Y-17775464D01*
X5159217Y-17871717D01*
X5062964Y-17997158D01*
X5002455Y-18143238D01*
X4981818Y-18300000D01*
X-3099500Y-18300000D01*
X-3099500Y-16900000D01*
X594318Y-16900000D01*
X614955Y-17056761D01*
X675464Y-17202841D01*
X771717Y-17328282D01*
X845692Y-17385044D01*
X897159Y-17424536D01*
X1043238Y-17485044D01*
X1200000Y-17505682D01*
X1356762Y-17485044D01*
X1502841Y-17424536D01*
X1628282Y-17328282D01*
X1724536Y-17202841D01*
X1785044Y-17056762D01*
X1805682Y-16900000D01*
X1792517Y-16799999D01*
X4981818Y-16799999D01*
X5002455Y-16956761D01*
X5062964Y-17102841D01*
X5159217Y-17228282D01*
X5255471Y-17302139D01*
X5284659Y-17324536D01*
X5430738Y-17385044D01*
X5587500Y-17405682D01*
X5744262Y-17385044D01*
X5890341Y-17324536D01*
X6015782Y-17228282D01*
X6112036Y-17102841D01*
X6172544Y-16956762D01*
X6193182Y-16800000D01*
X6193182Y-16799999D01*
X12294318Y-16799999D01*
X12314955Y-16956761D01*
X12375464Y-17102841D01*
X12471717Y-17228282D01*
X12567971Y-17302139D01*
X12597159Y-17324536D01*
X12743238Y-17385044D01*
X12900000Y-17405682D01*
X13056762Y-17385044D01*
X13202841Y-17324536D01*
X13328282Y-17228282D01*
X13424536Y-17102841D01*
X13485044Y-16956762D01*
X13505682Y-16800000D01*
X13505339Y-16797397D01*
X16096921Y-16797397D01*
X16117558Y-16954158D01*
X16178067Y-17100238D01*
X16274320Y-17225679D01*
X16370573Y-17299536D01*
X16399762Y-17321933D01*
X16545841Y-17382441D01*
X16702603Y-17403079D01*
X16859365Y-17382441D01*
X17005444Y-17321933D01*
X17130885Y-17225679D01*
X17227139Y-17100238D01*
X17258304Y-17024999D01*
X26919818Y-17024999D01*
X26940455Y-17181761D01*
X27000964Y-17327841D01*
X27097217Y-17453282D01*
X27138611Y-17485044D01*
X27222659Y-17549536D01*
X27368738Y-17610044D01*
X27525500Y-17630682D01*
X27682262Y-17610044D01*
X27828341Y-17549536D01*
X27953782Y-17453282D01*
X28050036Y-17327841D01*
X28110544Y-17181762D01*
X28131182Y-17025000D01*
X28110544Y-16868238D01*
X28050036Y-16722159D01*
X27987481Y-16640635D01*
X27953782Y-16596717D01*
X27828341Y-16500464D01*
X27682261Y-16439955D01*
X27525500Y-16419318D01*
X27368738Y-16439955D01*
X27222658Y-16500464D01*
X27097217Y-16596717D01*
X27000964Y-16722158D01*
X26940455Y-16868238D01*
X26919818Y-17024999D01*
X17258304Y-17024999D01*
X17287647Y-16954159D01*
X17308285Y-16797397D01*
X17287647Y-16640635D01*
X17227139Y-16494556D01*
X17185242Y-16439955D01*
X17130885Y-16369114D01*
X17005444Y-16272861D01*
X16859364Y-16212352D01*
X16702603Y-16191715D01*
X16545841Y-16212352D01*
X16399761Y-16272861D01*
X16274320Y-16369114D01*
X16178067Y-16494555D01*
X16117558Y-16640635D01*
X16096921Y-16797397D01*
X13505339Y-16797397D01*
X13485044Y-16643238D01*
X13424536Y-16497159D01*
X13364807Y-16419318D01*
X13328282Y-16371717D01*
X13202841Y-16275464D01*
X13056761Y-16214955D01*
X12900000Y-16194318D01*
X12743238Y-16214955D01*
X12597158Y-16275464D01*
X12471717Y-16371717D01*
X12375464Y-16497158D01*
X12314955Y-16643238D01*
X12294318Y-16799999D01*
X6193182Y-16799999D01*
X6172544Y-16643238D01*
X6112036Y-16497159D01*
X6052307Y-16419318D01*
X6015782Y-16371717D01*
X5890341Y-16275464D01*
X5744261Y-16214955D01*
X5587500Y-16194318D01*
X5430738Y-16214955D01*
X5284658Y-16275464D01*
X5159217Y-16371717D01*
X5062964Y-16497158D01*
X5002455Y-16643238D01*
X4981818Y-16799999D01*
X1792517Y-16799999D01*
X1785044Y-16743238D01*
X1724536Y-16597159D01*
X1647803Y-16497158D01*
X1628282Y-16471717D01*
X1502841Y-16375464D01*
X1356761Y-16314955D01*
X1200000Y-16294318D01*
X1043238Y-16314955D01*
X897158Y-16375464D01*
X771717Y-16471717D01*
X675464Y-16597158D01*
X614955Y-16743238D01*
X594318Y-16900000D01*
X-3099500Y-16900000D01*
X-3099500Y-15500000D01*
X24694318Y-15500000D01*
X24714955Y-15656761D01*
X24775464Y-15802841D01*
X24871717Y-15928282D01*
X24967971Y-16002139D01*
X24997159Y-16024536D01*
X25143238Y-16085044D01*
X25300000Y-16105682D01*
X25456762Y-16085044D01*
X25602841Y-16024536D01*
X25728282Y-15928282D01*
X25824536Y-15802841D01*
X25850566Y-15740000D01*
X38924318Y-15740000D01*
X38944955Y-15896761D01*
X39005464Y-16042841D01*
X39101717Y-16168282D01*
X39162545Y-16214956D01*
X39227159Y-16264536D01*
X39373238Y-16325044D01*
X39530000Y-16345682D01*
X39686762Y-16325044D01*
X39832841Y-16264536D01*
X39958282Y-16168282D01*
X40054536Y-16042841D01*
X40115044Y-15896762D01*
X40135682Y-15740000D01*
X40133707Y-15724999D01*
X46269318Y-15724999D01*
X46289955Y-15881761D01*
X46350464Y-16027841D01*
X46446717Y-16153282D01*
X46510550Y-16202262D01*
X46572159Y-16249536D01*
X46718238Y-16310044D01*
X46875000Y-16330682D01*
X47031762Y-16310044D01*
X47177841Y-16249536D01*
X47303282Y-16153282D01*
X47399536Y-16027841D01*
X47460044Y-15881762D01*
X47480682Y-15725000D01*
X47477391Y-15699999D01*
X50594435Y-15699999D01*
X50614632Y-15879258D01*
X50631787Y-15928282D01*
X50674211Y-16049522D01*
X50770184Y-16202262D01*
X50897738Y-16329816D01*
X51050478Y-16425789D01*
X51158851Y-16463710D01*
X51220741Y-16485367D01*
X51220742Y-16485367D01*
X51220745Y-16485368D01*
X51400000Y-16505565D01*
X51579255Y-16485368D01*
X51749522Y-16425789D01*
X51902262Y-16329816D01*
X52029816Y-16202262D01*
X52125789Y-16049522D01*
X52185368Y-15879255D01*
X52205565Y-15700000D01*
X52205565Y-15699999D01*
X58294435Y-15699999D01*
X58314632Y-15879258D01*
X58331787Y-15928282D01*
X58374211Y-16049522D01*
X58470184Y-16202262D01*
X58597738Y-16329816D01*
X58750478Y-16425789D01*
X58858851Y-16463710D01*
X58920741Y-16485367D01*
X58920742Y-16485367D01*
X58920745Y-16485368D01*
X59100000Y-16505565D01*
X59279255Y-16485368D01*
X59449522Y-16425789D01*
X59602262Y-16329816D01*
X59729816Y-16202262D01*
X59825789Y-16049522D01*
X59885368Y-15879255D01*
X59905565Y-15700000D01*
X59905565Y-15699999D01*
X72094435Y-15699999D01*
X72114632Y-15879258D01*
X72131787Y-15928282D01*
X72174211Y-16049522D01*
X72270184Y-16202262D01*
X72397738Y-16329816D01*
X72550478Y-16425789D01*
X72658851Y-16463710D01*
X72720741Y-16485367D01*
X72720742Y-16485367D01*
X72720745Y-16485368D01*
X72900000Y-16505565D01*
X73079255Y-16485368D01*
X73249522Y-16425789D01*
X73402262Y-16329816D01*
X73529816Y-16202262D01*
X73625789Y-16049522D01*
X73685368Y-15879255D01*
X73705565Y-15700000D01*
X73685368Y-15520745D01*
X73625789Y-15350478D01*
X73529816Y-15197738D01*
X73402262Y-15070184D01*
X73249522Y-14974211D01*
X73241815Y-14971514D01*
X73079258Y-14914632D01*
X72900000Y-14894435D01*
X72720741Y-14914632D01*
X72550480Y-14974210D01*
X72397739Y-15070183D01*
X72270183Y-15197739D01*
X72174210Y-15350480D01*
X72114632Y-15520741D01*
X72094435Y-15699999D01*
X59905565Y-15699999D01*
X59885368Y-15520745D01*
X59825789Y-15350478D01*
X59729816Y-15197738D01*
X59602262Y-15070184D01*
X59449522Y-14974211D01*
X59441815Y-14971514D01*
X59279258Y-14914632D01*
X59100000Y-14894435D01*
X58920741Y-14914632D01*
X58750480Y-14974210D01*
X58597739Y-15070183D01*
X58470183Y-15197739D01*
X58374210Y-15350480D01*
X58314632Y-15520741D01*
X58294435Y-15699999D01*
X52205565Y-15699999D01*
X52185368Y-15520745D01*
X52125789Y-15350478D01*
X52029816Y-15197738D01*
X51902262Y-15070184D01*
X51749522Y-14974211D01*
X51741815Y-14971514D01*
X51579258Y-14914632D01*
X51400000Y-14894435D01*
X51220741Y-14914632D01*
X51050480Y-14974210D01*
X50897739Y-15070183D01*
X50770183Y-15197739D01*
X50674210Y-15350480D01*
X50614632Y-15520741D01*
X50594435Y-15699999D01*
X47477391Y-15699999D01*
X47460044Y-15568238D01*
X47399536Y-15422159D01*
X47344535Y-15350480D01*
X47303282Y-15296717D01*
X47177841Y-15200464D01*
X47031761Y-15139955D01*
X46875000Y-15119318D01*
X46718238Y-15139955D01*
X46572158Y-15200464D01*
X46446717Y-15296717D01*
X46350464Y-15422158D01*
X46289955Y-15568238D01*
X46269318Y-15724999D01*
X40133707Y-15724999D01*
X40115044Y-15583238D01*
X40054536Y-15437159D01*
X40032139Y-15407971D01*
X39958282Y-15311717D01*
X39832841Y-15215464D01*
X39686761Y-15154955D01*
X39550637Y-15137034D01*
X39530000Y-15134318D01*
X39529999Y-15134318D01*
X39373238Y-15154955D01*
X39227158Y-15215464D01*
X39101717Y-15311717D01*
X39005464Y-15437158D01*
X38944955Y-15583238D01*
X38924318Y-15740000D01*
X25850566Y-15740000D01*
X25885044Y-15656762D01*
X25905682Y-15500000D01*
X25885044Y-15343238D01*
X25824536Y-15197159D01*
X25764807Y-15119318D01*
X25728282Y-15071717D01*
X25602841Y-14975464D01*
X25456761Y-14914955D01*
X25300000Y-14894318D01*
X25143238Y-14914955D01*
X24997158Y-14975464D01*
X24871717Y-15071717D01*
X24775464Y-15197158D01*
X24714955Y-15343238D01*
X24694318Y-15500000D01*
X-3099500Y-15500000D01*
X-3099500Y-10669862D01*
X10374500Y-10669862D01*
X10374501Y-10669867D01*
X10377415Y-10694991D01*
X10397451Y-10740369D01*
X10422793Y-10797764D01*
X10422794Y-10797764D01*
X10422794Y-10797765D01*
X10502235Y-10877206D01*
X10605009Y-10922585D01*
X10630135Y-10925500D01*
X12419864Y-10925499D01*
X12444991Y-10922585D01*
X12547765Y-10877206D01*
X12627206Y-10797765D01*
X12672585Y-10694991D01*
X12675500Y-10669865D01*
X12675499Y-10436135D01*
X12689639Y-10385151D01*
X12728021Y-10348727D01*
X12779680Y-10337275D01*
X12829859Y-10354064D01*
X12864223Y-10394299D01*
X12891399Y-10452578D01*
X13026887Y-10646074D01*
X13193925Y-10813112D01*
X13387423Y-10948601D01*
X13601504Y-11048429D01*
X13815000Y-11105636D01*
X13815000Y-9624000D01*
X13828263Y-9574500D01*
X13864500Y-9538263D01*
X13914000Y-9525000D01*
X14216000Y-9525000D01*
X14265500Y-9538263D01*
X14301737Y-9574500D01*
X14315000Y-9624000D01*
X14315000Y-11105636D01*
X14528495Y-11048429D01*
X14742576Y-10948601D01*
X14936074Y-10813112D01*
X15103112Y-10646074D01*
X15238601Y-10452576D01*
X15338429Y-10238494D01*
X15344958Y-10214130D01*
X15376463Y-10164324D01*
X15430691Y-10141248D01*
X15488426Y-10153079D01*
X15529206Y-10195624D01*
X15622634Y-10383256D01*
X15751125Y-10553404D01*
X15908699Y-10697053D01*
X16040622Y-10778736D01*
X16089981Y-10809298D01*
X16246681Y-10870003D01*
X16288804Y-10886322D01*
X16498388Y-10925500D01*
X16498390Y-10925500D01*
X16711610Y-10925500D01*
X16711612Y-10925500D01*
X16921195Y-10886322D01*
X16921198Y-10886321D01*
X17120019Y-10809298D01*
X17301302Y-10697052D01*
X17458872Y-10553407D01*
X17587366Y-10383255D01*
X17682405Y-10192389D01*
X17740756Y-9987310D01*
X17760429Y-9775000D01*
X17989571Y-9775000D01*
X18009244Y-9987310D01*
X18056410Y-10153079D01*
X18067596Y-10192391D01*
X18162634Y-10383256D01*
X18291125Y-10553404D01*
X18448699Y-10697053D01*
X18580622Y-10778736D01*
X18629981Y-10809298D01*
X18786681Y-10870003D01*
X18828804Y-10886322D01*
X19038388Y-10925500D01*
X19038390Y-10925500D01*
X19251610Y-10925500D01*
X19251612Y-10925500D01*
X19461195Y-10886322D01*
X19461198Y-10886321D01*
X19660019Y-10809298D01*
X19841302Y-10697052D01*
X19998872Y-10553407D01*
X20127366Y-10383255D01*
X20222405Y-10192389D01*
X20280756Y-9987310D01*
X20300429Y-9775000D01*
X20529571Y-9775000D01*
X20549244Y-9987310D01*
X20596410Y-10153079D01*
X20607596Y-10192391D01*
X20702634Y-10383256D01*
X20831125Y-10553404D01*
X20988699Y-10697053D01*
X21120622Y-10778736D01*
X21169981Y-10809298D01*
X21326681Y-10870003D01*
X21368804Y-10886322D01*
X21578388Y-10925500D01*
X21578390Y-10925500D01*
X21791610Y-10925500D01*
X21791612Y-10925500D01*
X22001195Y-10886322D01*
X22001198Y-10886321D01*
X22200019Y-10809298D01*
X22381302Y-10697052D01*
X22538872Y-10553407D01*
X22667366Y-10383255D01*
X22762405Y-10192389D01*
X22820756Y-9987310D01*
X22840429Y-9775000D01*
X23069571Y-9775000D01*
X23089244Y-9987310D01*
X23136410Y-10153079D01*
X23147596Y-10192391D01*
X23242634Y-10383256D01*
X23371125Y-10553404D01*
X23528699Y-10697053D01*
X23660622Y-10778736D01*
X23709981Y-10809298D01*
X23866681Y-10870003D01*
X23908804Y-10886322D01*
X24118388Y-10925500D01*
X24118390Y-10925500D01*
X24331610Y-10925500D01*
X24331612Y-10925500D01*
X24541195Y-10886322D01*
X24541198Y-10886321D01*
X24740019Y-10809298D01*
X24921302Y-10697052D01*
X25078872Y-10553407D01*
X25207366Y-10383255D01*
X25302405Y-10192389D01*
X25360756Y-9987310D01*
X25380429Y-9775000D01*
X25609571Y-9775000D01*
X25629244Y-9987310D01*
X25676410Y-10153079D01*
X25687596Y-10192391D01*
X25782634Y-10383256D01*
X25911125Y-10553404D01*
X26068699Y-10697053D01*
X26200622Y-10778736D01*
X26249981Y-10809298D01*
X26406681Y-10870003D01*
X26448804Y-10886322D01*
X26658388Y-10925500D01*
X26658390Y-10925500D01*
X26871610Y-10925500D01*
X26871612Y-10925500D01*
X27081195Y-10886322D01*
X27081198Y-10886321D01*
X27280019Y-10809298D01*
X27461302Y-10697052D01*
X27618872Y-10553407D01*
X27747366Y-10383255D01*
X27842405Y-10192389D01*
X27900756Y-9987310D01*
X27920429Y-9775000D01*
X28149571Y-9775000D01*
X28169244Y-9987310D01*
X28216410Y-10153079D01*
X28227596Y-10192391D01*
X28322634Y-10383256D01*
X28451125Y-10553404D01*
X28608699Y-10697053D01*
X28740622Y-10778736D01*
X28789981Y-10809298D01*
X28946681Y-10870003D01*
X28988804Y-10886322D01*
X29198388Y-10925500D01*
X29198390Y-10925500D01*
X29411610Y-10925500D01*
X29411612Y-10925500D01*
X29621195Y-10886322D01*
X29621198Y-10886321D01*
X29820019Y-10809298D01*
X30001302Y-10697052D01*
X30158872Y-10553407D01*
X30287366Y-10383255D01*
X30382405Y-10192389D01*
X30420074Y-10059999D01*
X33674318Y-10059999D01*
X33694955Y-10216761D01*
X33755464Y-10362841D01*
X33851717Y-10488282D01*
X33936587Y-10553404D01*
X33977159Y-10584536D01*
X34123238Y-10645044D01*
X34280000Y-10665682D01*
X34436762Y-10645044D01*
X34582841Y-10584536D01*
X34708282Y-10488282D01*
X34804536Y-10362841D01*
X34865044Y-10216762D01*
X34885682Y-10060000D01*
X34865044Y-9903238D01*
X34804536Y-9757159D01*
X34782139Y-9727970D01*
X34708282Y-9631717D01*
X34582841Y-9535464D01*
X34436761Y-9474955D01*
X34280000Y-9454318D01*
X34123238Y-9474955D01*
X33977158Y-9535464D01*
X33851717Y-9631717D01*
X33755464Y-9757158D01*
X33694955Y-9903238D01*
X33674318Y-10059999D01*
X30420074Y-10059999D01*
X30440756Y-9987310D01*
X30460429Y-9775000D01*
X30440756Y-9562690D01*
X30382405Y-9357611D01*
X30287366Y-9166745D01*
X30287365Y-9166744D01*
X30287365Y-9166743D01*
X30158874Y-8996595D01*
X30131585Y-8971718D01*
X30001302Y-8852948D01*
X30001300Y-8852946D01*
X29820021Y-8740703D01*
X29820019Y-8740702D01*
X29777898Y-8724384D01*
X29621195Y-8663677D01*
X29411612Y-8624500D01*
X29411610Y-8624500D01*
X29198390Y-8624500D01*
X29198388Y-8624500D01*
X28988804Y-8663677D01*
X28789978Y-8740703D01*
X28608699Y-8852946D01*
X28451125Y-8996595D01*
X28322634Y-9166743D01*
X28229206Y-9354375D01*
X28227595Y-9357611D01*
X28169244Y-9562690D01*
X28149571Y-9775000D01*
X27920429Y-9775000D01*
X27900756Y-9562690D01*
X27842405Y-9357611D01*
X27747366Y-9166745D01*
X27747365Y-9166744D01*
X27747365Y-9166743D01*
X27618874Y-8996595D01*
X27591585Y-8971718D01*
X27461302Y-8852948D01*
X27461300Y-8852946D01*
X27280021Y-8740703D01*
X27280019Y-8740702D01*
X27237898Y-8724384D01*
X27081195Y-8663677D01*
X26871612Y-8624500D01*
X26871610Y-8624500D01*
X26658390Y-8624500D01*
X26658388Y-8624500D01*
X26448804Y-8663677D01*
X26249978Y-8740703D01*
X26068699Y-8852946D01*
X25911125Y-8996595D01*
X25782634Y-9166743D01*
X25689206Y-9354375D01*
X25687595Y-9357611D01*
X25629244Y-9562690D01*
X25609571Y-9775000D01*
X25380429Y-9775000D01*
X25360756Y-9562690D01*
X25302405Y-9357611D01*
X25207366Y-9166745D01*
X25207365Y-9166744D01*
X25207365Y-9166743D01*
X25078874Y-8996595D01*
X25051585Y-8971718D01*
X24921302Y-8852948D01*
X24921300Y-8852946D01*
X24740021Y-8740703D01*
X24740019Y-8740702D01*
X24697898Y-8724384D01*
X24541195Y-8663677D01*
X24331612Y-8624500D01*
X24331610Y-8624500D01*
X24118390Y-8624500D01*
X24118388Y-8624500D01*
X23908804Y-8663677D01*
X23709978Y-8740703D01*
X23528699Y-8852946D01*
X23371125Y-8996595D01*
X23242634Y-9166743D01*
X23149206Y-9354375D01*
X23147595Y-9357611D01*
X23089244Y-9562690D01*
X23069571Y-9775000D01*
X22840429Y-9775000D01*
X22820756Y-9562690D01*
X22762405Y-9357611D01*
X22667366Y-9166745D01*
X22667365Y-9166744D01*
X22667365Y-9166743D01*
X22538874Y-8996595D01*
X22511585Y-8971718D01*
X22381302Y-8852948D01*
X22381300Y-8852946D01*
X22200021Y-8740703D01*
X22200019Y-8740702D01*
X22157898Y-8724384D01*
X22001195Y-8663677D01*
X21791612Y-8624500D01*
X21791610Y-8624500D01*
X21578390Y-8624500D01*
X21578388Y-8624500D01*
X21368804Y-8663677D01*
X21169978Y-8740703D01*
X20988699Y-8852946D01*
X20831125Y-8996595D01*
X20702634Y-9166743D01*
X20609206Y-9354375D01*
X20607595Y-9357611D01*
X20549244Y-9562690D01*
X20529571Y-9775000D01*
X20300429Y-9775000D01*
X20280756Y-9562690D01*
X20222405Y-9357611D01*
X20127366Y-9166745D01*
X20127365Y-9166744D01*
X20127365Y-9166743D01*
X19998874Y-8996595D01*
X19971585Y-8971718D01*
X19841302Y-8852948D01*
X19841300Y-8852946D01*
X19660021Y-8740703D01*
X19660019Y-8740702D01*
X19617898Y-8724384D01*
X19461195Y-8663677D01*
X19251612Y-8624500D01*
X19251610Y-8624500D01*
X19038390Y-8624500D01*
X19038388Y-8624500D01*
X18828804Y-8663677D01*
X18629978Y-8740703D01*
X18448699Y-8852946D01*
X18291125Y-8996595D01*
X18162634Y-9166743D01*
X18069206Y-9354375D01*
X18067595Y-9357611D01*
X18009244Y-9562690D01*
X17989571Y-9775000D01*
X17760429Y-9775000D01*
X17740756Y-9562690D01*
X17682405Y-9357611D01*
X17587366Y-9166745D01*
X17587365Y-9166744D01*
X17587365Y-9166743D01*
X17458874Y-8996595D01*
X17431585Y-8971718D01*
X17301302Y-8852948D01*
X17301300Y-8852946D01*
X17120021Y-8740703D01*
X17120019Y-8740702D01*
X17077898Y-8724384D01*
X16921195Y-8663677D01*
X16711612Y-8624500D01*
X16711610Y-8624500D01*
X16498390Y-8624500D01*
X16498388Y-8624500D01*
X16288804Y-8663677D01*
X16089978Y-8740703D01*
X15908699Y-8852946D01*
X15751125Y-8996595D01*
X15622634Y-9166743D01*
X15529206Y-9354375D01*
X15488426Y-9396920D01*
X15430692Y-9408751D01*
X15376463Y-9385675D01*
X15344958Y-9335870D01*
X15338429Y-9311504D01*
X15238601Y-9097424D01*
X15103112Y-8903925D01*
X14936074Y-8736887D01*
X14742576Y-8601398D01*
X14528491Y-8501568D01*
X14497301Y-8493211D01*
X14446035Y-8459946D01*
X14424069Y-8402918D01*
X14439773Y-8343857D01*
X14487162Y-8305270D01*
X14580019Y-8269298D01*
X14761302Y-8157052D01*
X14918872Y-8013407D01*
X15047366Y-7843255D01*
X15142405Y-7652389D01*
X15200756Y-7447310D01*
X15220429Y-7235000D01*
X15449571Y-7235000D01*
X15469244Y-7447310D01*
X15500386Y-7556762D01*
X15527596Y-7652391D01*
X15622634Y-7843256D01*
X15751125Y-8013404D01*
X15908699Y-8157053D01*
X15973471Y-8197158D01*
X16089981Y-8269298D01*
X16246681Y-8330003D01*
X16288804Y-8346322D01*
X16498388Y-8385500D01*
X16498390Y-8385500D01*
X16711610Y-8385500D01*
X16711612Y-8385500D01*
X16921195Y-8346322D01*
X16929156Y-8343238D01*
X17120019Y-8269298D01*
X17301302Y-8157052D01*
X17458872Y-8013407D01*
X17587366Y-7843255D01*
X17682405Y-7652389D01*
X17740756Y-7447310D01*
X17760429Y-7235000D01*
X17989571Y-7235000D01*
X18009244Y-7447310D01*
X18040386Y-7556762D01*
X18067596Y-7652391D01*
X18162634Y-7843256D01*
X18291125Y-8013404D01*
X18448699Y-8157053D01*
X18513471Y-8197158D01*
X18629981Y-8269298D01*
X18786681Y-8330003D01*
X18828804Y-8346322D01*
X19038388Y-8385500D01*
X19038390Y-8385500D01*
X19251610Y-8385500D01*
X19251612Y-8385500D01*
X19461195Y-8346322D01*
X19469156Y-8343238D01*
X19660019Y-8269298D01*
X19841302Y-8157052D01*
X19998872Y-8013407D01*
X20127366Y-7843255D01*
X20222405Y-7652389D01*
X20280756Y-7447310D01*
X20300429Y-7235000D01*
X20529571Y-7235000D01*
X20549244Y-7447310D01*
X20580386Y-7556762D01*
X20607596Y-7652391D01*
X20702634Y-7843256D01*
X20831125Y-8013404D01*
X20988699Y-8157053D01*
X21053471Y-8197158D01*
X21169981Y-8269298D01*
X21326681Y-8330003D01*
X21368804Y-8346322D01*
X21578388Y-8385500D01*
X21578390Y-8385500D01*
X21791610Y-8385500D01*
X21791612Y-8385500D01*
X22001195Y-8346322D01*
X22009156Y-8343238D01*
X22200019Y-8269298D01*
X22381302Y-8157052D01*
X22538872Y-8013407D01*
X22667366Y-7843255D01*
X22762405Y-7652389D01*
X22820756Y-7447310D01*
X22840429Y-7235000D01*
X23069571Y-7235000D01*
X23089244Y-7447310D01*
X23120386Y-7556762D01*
X23147596Y-7652391D01*
X23242634Y-7843256D01*
X23371125Y-8013404D01*
X23528699Y-8157053D01*
X23593471Y-8197158D01*
X23709981Y-8269298D01*
X23866681Y-8330003D01*
X23908804Y-8346322D01*
X24118388Y-8385500D01*
X24118390Y-8385500D01*
X24331610Y-8385500D01*
X24331612Y-8385500D01*
X24541195Y-8346322D01*
X24549156Y-8343238D01*
X24740019Y-8269298D01*
X24921302Y-8157052D01*
X25078872Y-8013407D01*
X25207366Y-7843255D01*
X25302405Y-7652389D01*
X25360756Y-7447310D01*
X25380429Y-7235000D01*
X25609571Y-7235000D01*
X25629244Y-7447310D01*
X25660386Y-7556762D01*
X25687596Y-7652391D01*
X25782634Y-7843256D01*
X25911125Y-8013404D01*
X26068699Y-8157053D01*
X26133471Y-8197158D01*
X26249981Y-8269298D01*
X26406681Y-8330003D01*
X26448804Y-8346322D01*
X26658388Y-8385500D01*
X26658390Y-8385500D01*
X26871610Y-8385500D01*
X26871612Y-8385500D01*
X27081195Y-8346322D01*
X27089156Y-8343238D01*
X27280019Y-8269298D01*
X27461302Y-8157052D01*
X27618872Y-8013407D01*
X27747366Y-7843255D01*
X27842405Y-7652389D01*
X27900756Y-7447310D01*
X27920429Y-7235000D01*
X28149571Y-7235000D01*
X28169244Y-7447310D01*
X28200386Y-7556762D01*
X28227596Y-7652391D01*
X28322634Y-7843256D01*
X28451125Y-8013404D01*
X28608699Y-8157053D01*
X28673471Y-8197158D01*
X28789981Y-8269298D01*
X28946681Y-8330003D01*
X28988804Y-8346322D01*
X29198388Y-8385500D01*
X29198390Y-8385500D01*
X29411610Y-8385500D01*
X29411612Y-8385500D01*
X29621195Y-8346322D01*
X29629156Y-8343238D01*
X29820019Y-8269298D01*
X30001302Y-8157052D01*
X30158872Y-8013407D01*
X30287366Y-7843255D01*
X30382405Y-7652389D01*
X30440756Y-7447310D01*
X30460429Y-7235000D01*
X30440756Y-7022690D01*
X30382405Y-6817611D01*
X30287366Y-6626745D01*
X30287365Y-6626744D01*
X30287365Y-6626743D01*
X30158874Y-6456595D01*
X30001300Y-6312946D01*
X29820021Y-6200703D01*
X29820019Y-6200702D01*
X29777898Y-6184384D01*
X29621195Y-6123677D01*
X29411612Y-6084500D01*
X29411610Y-6084500D01*
X29198390Y-6084500D01*
X29198388Y-6084500D01*
X28988804Y-6123677D01*
X28789978Y-6200703D01*
X28608699Y-6312946D01*
X28451125Y-6456595D01*
X28322634Y-6626743D01*
X28228917Y-6814956D01*
X28227595Y-6817611D01*
X28169244Y-7022690D01*
X28149571Y-7235000D01*
X27920429Y-7235000D01*
X27900756Y-7022690D01*
X27842405Y-6817611D01*
X27747366Y-6626745D01*
X27747365Y-6626744D01*
X27747365Y-6626743D01*
X27618874Y-6456595D01*
X27461300Y-6312946D01*
X27280021Y-6200703D01*
X27280019Y-6200702D01*
X27237898Y-6184384D01*
X27081195Y-6123677D01*
X26871612Y-6084500D01*
X26871610Y-6084500D01*
X26658390Y-6084500D01*
X26658388Y-6084500D01*
X26448804Y-6123677D01*
X26249978Y-6200703D01*
X26068699Y-6312946D01*
X25911125Y-6456595D01*
X25782634Y-6626743D01*
X25688917Y-6814956D01*
X25687595Y-6817611D01*
X25629244Y-7022690D01*
X25609571Y-7235000D01*
X25380429Y-7235000D01*
X25360756Y-7022690D01*
X25302405Y-6817611D01*
X25207366Y-6626745D01*
X25207365Y-6626744D01*
X25207365Y-6626743D01*
X25078874Y-6456595D01*
X24921300Y-6312946D01*
X24740021Y-6200703D01*
X24740019Y-6200702D01*
X24697898Y-6184384D01*
X24541195Y-6123677D01*
X24331612Y-6084500D01*
X24331610Y-6084500D01*
X24118390Y-6084500D01*
X24118388Y-6084500D01*
X23908804Y-6123677D01*
X23709978Y-6200703D01*
X23528699Y-6312946D01*
X23371125Y-6456595D01*
X23242634Y-6626743D01*
X23148917Y-6814956D01*
X23147595Y-6817611D01*
X23089244Y-7022690D01*
X23069571Y-7235000D01*
X22840429Y-7235000D01*
X22820756Y-7022690D01*
X22762405Y-6817611D01*
X22667366Y-6626745D01*
X22667365Y-6626744D01*
X22667365Y-6626743D01*
X22538874Y-6456595D01*
X22381300Y-6312946D01*
X22200021Y-6200703D01*
X22200019Y-6200702D01*
X22157898Y-6184384D01*
X22001195Y-6123677D01*
X21791612Y-6084500D01*
X21791610Y-6084500D01*
X21578390Y-6084500D01*
X21578388Y-6084500D01*
X21368804Y-6123677D01*
X21169978Y-6200703D01*
X20988699Y-6312946D01*
X20831125Y-6456595D01*
X20702634Y-6626743D01*
X20608917Y-6814956D01*
X20607595Y-6817611D01*
X20549244Y-7022690D01*
X20529571Y-7235000D01*
X20300429Y-7235000D01*
X20280756Y-7022690D01*
X20222405Y-6817611D01*
X20127366Y-6626745D01*
X20127365Y-6626744D01*
X20127365Y-6626743D01*
X19998874Y-6456595D01*
X19841300Y-6312946D01*
X19660021Y-6200703D01*
X19660019Y-6200702D01*
X19617898Y-6184384D01*
X19461195Y-6123677D01*
X19251612Y-6084500D01*
X19251610Y-6084500D01*
X19038390Y-6084500D01*
X19038388Y-6084500D01*
X18828804Y-6123677D01*
X18629978Y-6200703D01*
X18448699Y-6312946D01*
X18291125Y-6456595D01*
X18162634Y-6626743D01*
X18068917Y-6814956D01*
X18067595Y-6817611D01*
X18009244Y-7022690D01*
X17989571Y-7235000D01*
X17760429Y-7235000D01*
X17740756Y-7022690D01*
X17682405Y-6817611D01*
X17587366Y-6626745D01*
X17587365Y-6626744D01*
X17587365Y-6626743D01*
X17458874Y-6456595D01*
X17301300Y-6312946D01*
X17120021Y-6200703D01*
X17120019Y-6200702D01*
X17077898Y-6184384D01*
X16921195Y-6123677D01*
X16711612Y-6084500D01*
X16711610Y-6084500D01*
X16498390Y-6084500D01*
X16498388Y-6084500D01*
X16288804Y-6123677D01*
X16089978Y-6200703D01*
X15908699Y-6312946D01*
X15751125Y-6456595D01*
X15622634Y-6626743D01*
X15528917Y-6814956D01*
X15527595Y-6817611D01*
X15469244Y-7022690D01*
X15449571Y-7235000D01*
X15220429Y-7235000D01*
X15200756Y-7022690D01*
X15142405Y-6817611D01*
X15047366Y-6626745D01*
X15047365Y-6626744D01*
X15047365Y-6626743D01*
X14918874Y-6456595D01*
X14761300Y-6312946D01*
X14580021Y-6200703D01*
X14580019Y-6200702D01*
X14537898Y-6184384D01*
X14381195Y-6123677D01*
X14171612Y-6084500D01*
X14171610Y-6084500D01*
X13958390Y-6084500D01*
X13958388Y-6084500D01*
X13748804Y-6123677D01*
X13549978Y-6200703D01*
X13368699Y-6312946D01*
X13211125Y-6456595D01*
X13082634Y-6626743D01*
X12988917Y-6814956D01*
X12987595Y-6817611D01*
X12929244Y-7022690D01*
X12909571Y-7235000D01*
X12929244Y-7447310D01*
X12960386Y-7556762D01*
X12987596Y-7652391D01*
X13082634Y-7843256D01*
X13211125Y-8013404D01*
X13368699Y-8157053D01*
X13433471Y-8197158D01*
X13549981Y-8269298D01*
X13642837Y-8305270D01*
X13690226Y-8343857D01*
X13705930Y-8402918D01*
X13683964Y-8459946D01*
X13632698Y-8493211D01*
X13601509Y-8501568D01*
X13387424Y-8601398D01*
X13193925Y-8736887D01*
X13026887Y-8903925D01*
X12891399Y-9097422D01*
X12864223Y-9155702D01*
X12829859Y-9195937D01*
X12779680Y-9212726D01*
X12728021Y-9201274D01*
X12689639Y-9164851D01*
X12675499Y-9113862D01*
X12675499Y-8880138D01*
X12675499Y-8880135D01*
X12672585Y-8855009D01*
X12627206Y-8752235D01*
X12547765Y-8672794D01*
X12547765Y-8672793D01*
X12547764Y-8672793D01*
X12444989Y-8627414D01*
X12419867Y-8624500D01*
X10630137Y-8624500D01*
X10605009Y-8627415D01*
X10502235Y-8672793D01*
X10422793Y-8752235D01*
X10377414Y-8855010D01*
X10374500Y-8880132D01*
X10374500Y-10669862D01*
X-3099500Y-10669862D01*
X-3099500Y-9399999D01*
X5431818Y-9399999D01*
X5452455Y-9556761D01*
X5512964Y-9702841D01*
X5609217Y-9828282D01*
X5705470Y-9902139D01*
X5734659Y-9924536D01*
X5880738Y-9985044D01*
X6037500Y-10005682D01*
X6194262Y-9985044D01*
X6340341Y-9924536D01*
X6465782Y-9828282D01*
X6562036Y-9702841D01*
X6622544Y-9556762D01*
X6643182Y-9400000D01*
X6622544Y-9243238D01*
X6562036Y-9097159D01*
X6484871Y-8996595D01*
X6465782Y-8971717D01*
X6340341Y-8875464D01*
X6194261Y-8814955D01*
X6037500Y-8794318D01*
X5880738Y-8814955D01*
X5734658Y-8875464D01*
X5609217Y-8971717D01*
X5512964Y-9097158D01*
X5452455Y-9243238D01*
X5431818Y-9399999D01*
X-3099500Y-9399999D01*
X-3099500Y-8500000D01*
X3294318Y-8500000D01*
X3314955Y-8656761D01*
X3375464Y-8802841D01*
X3471717Y-8928282D01*
X3528325Y-8971718D01*
X3597159Y-9024536D01*
X3743238Y-9085044D01*
X3900000Y-9105682D01*
X4056762Y-9085044D01*
X4202841Y-9024536D01*
X4328282Y-8928282D01*
X4424536Y-8802841D01*
X4485044Y-8656762D01*
X4505682Y-8500000D01*
X4485044Y-8343238D01*
X4424536Y-8197159D01*
X4393761Y-8157052D01*
X4328282Y-8071717D01*
X4202841Y-7975464D01*
X4056761Y-7914955D01*
X3920636Y-7897034D01*
X3900000Y-7894318D01*
X3899999Y-7894318D01*
X3743238Y-7914955D01*
X3597158Y-7975464D01*
X3471717Y-8071717D01*
X3375464Y-8197158D01*
X3314955Y-8343238D01*
X3294318Y-8500000D01*
X-3099500Y-8500000D01*
X-3099500Y-7100000D01*
X-605682Y-7100000D01*
X-585045Y-7256761D01*
X-524536Y-7402841D01*
X-428283Y-7528282D01*
X-332029Y-7602139D01*
X-302841Y-7624536D01*
X-156762Y-7685044D01*
X0Y-7705682D01*
X156762Y-7685044D01*
X302841Y-7624536D01*
X428282Y-7528282D01*
X524536Y-7402841D01*
X525713Y-7399999D01*
X1694318Y-7399999D01*
X1714955Y-7556761D01*
X1775464Y-7702841D01*
X1871717Y-7828282D01*
X1957778Y-7894318D01*
X1997159Y-7924536D01*
X2143238Y-7985044D01*
X2300000Y-8005682D01*
X2456762Y-7985044D01*
X2602841Y-7924536D01*
X2728282Y-7828282D01*
X2824536Y-7702841D01*
X2885044Y-7556762D01*
X2905682Y-7400000D01*
X2885044Y-7243238D01*
X2881632Y-7235000D01*
X10369571Y-7235000D01*
X10389244Y-7447310D01*
X10420386Y-7556762D01*
X10447596Y-7652391D01*
X10542634Y-7843256D01*
X10671125Y-8013404D01*
X10828699Y-8157053D01*
X10893471Y-8197158D01*
X11009981Y-8269298D01*
X11166681Y-8330003D01*
X11208804Y-8346322D01*
X11418388Y-8385500D01*
X11418390Y-8385500D01*
X11631610Y-8385500D01*
X11631612Y-8385500D01*
X11841195Y-8346322D01*
X11849156Y-8343238D01*
X12040019Y-8269298D01*
X12221302Y-8157052D01*
X12378872Y-8013407D01*
X12507366Y-7843255D01*
X12602405Y-7652389D01*
X12660756Y-7447310D01*
X12680429Y-7235000D01*
X12660756Y-7022690D01*
X12602405Y-6817611D01*
X12507366Y-6626745D01*
X12507365Y-6626744D01*
X12507365Y-6626743D01*
X12378874Y-6456595D01*
X12221300Y-6312946D01*
X12040021Y-6200703D01*
X12040019Y-6200702D01*
X11997898Y-6184384D01*
X11841195Y-6123677D01*
X11631612Y-6084500D01*
X11631610Y-6084500D01*
X11418390Y-6084500D01*
X11418388Y-6084500D01*
X11208804Y-6123677D01*
X11009978Y-6200703D01*
X10828699Y-6312946D01*
X10671125Y-6456595D01*
X10542634Y-6626743D01*
X10448917Y-6814956D01*
X10447595Y-6817611D01*
X10389244Y-7022690D01*
X10369571Y-7235000D01*
X2881632Y-7235000D01*
X2824536Y-7097159D01*
X2767394Y-7022690D01*
X2728282Y-6971717D01*
X2602841Y-6875464D01*
X2456761Y-6814955D01*
X2300000Y-6794318D01*
X2143238Y-6814955D01*
X1997158Y-6875464D01*
X1871717Y-6971717D01*
X1775464Y-7097158D01*
X1714955Y-7243238D01*
X1694318Y-7399999D01*
X525713Y-7399999D01*
X585044Y-7256762D01*
X605682Y-7100000D01*
X585044Y-6943238D01*
X524536Y-6797159D01*
X502139Y-6767970D01*
X428282Y-6671717D01*
X302841Y-6575464D01*
X156761Y-6514955D01*
X0Y-6494318D01*
X-156762Y-6514955D01*
X-302842Y-6575464D01*
X-428283Y-6671717D01*
X-524536Y-6797158D01*
X-585045Y-6943238D01*
X-605682Y-7100000D01*
X-3099500Y-7100000D01*
X-3099500Y-5400000D01*
X35994435Y-5400000D01*
X36014632Y-5579258D01*
X36071514Y-5741815D01*
X36074211Y-5749522D01*
X36170184Y-5902262D01*
X36297738Y-6029816D01*
X36450478Y-6125789D01*
X36558851Y-6163710D01*
X36620741Y-6185367D01*
X36620742Y-6185367D01*
X36620745Y-6185368D01*
X36800000Y-6205565D01*
X36979255Y-6185368D01*
X37149522Y-6125789D01*
X37302262Y-6029816D01*
X37429816Y-5902262D01*
X37525789Y-5749522D01*
X37585368Y-5579255D01*
X37605565Y-5400000D01*
X46619435Y-5400000D01*
X46639632Y-5579258D01*
X46696514Y-5741815D01*
X46699211Y-5749522D01*
X46795184Y-5902262D01*
X46922738Y-6029816D01*
X47075478Y-6125789D01*
X47183851Y-6163710D01*
X47245741Y-6185367D01*
X47245742Y-6185367D01*
X47245745Y-6185368D01*
X47425000Y-6205565D01*
X47604255Y-6185368D01*
X47774522Y-6125789D01*
X47927262Y-6029816D01*
X48054816Y-5902262D01*
X48150789Y-5749522D01*
X48210368Y-5579255D01*
X48230565Y-5400000D01*
X48210368Y-5220745D01*
X48150789Y-5050478D01*
X48054816Y-4897738D01*
X47927262Y-4770184D01*
X47774522Y-4674211D01*
X47766815Y-4671514D01*
X47604258Y-4614632D01*
X47469813Y-4599484D01*
X47425000Y-4594435D01*
X47424999Y-4594435D01*
X47245741Y-4614632D01*
X47075480Y-4674210D01*
X46922739Y-4770183D01*
X46795183Y-4897739D01*
X46699210Y-5050480D01*
X46639632Y-5220741D01*
X46619435Y-5400000D01*
X37605565Y-5400000D01*
X37585368Y-5220745D01*
X37525789Y-5050478D01*
X37429816Y-4897738D01*
X37302262Y-4770184D01*
X37149522Y-4674211D01*
X37141815Y-4671514D01*
X36979258Y-4614632D01*
X36844813Y-4599484D01*
X36800000Y-4594435D01*
X36799999Y-4594435D01*
X36620741Y-4614632D01*
X36450480Y-4674210D01*
X36297739Y-4770183D01*
X36170183Y-4897739D01*
X36074210Y-5050480D01*
X36014632Y-5220741D01*
X35994435Y-5400000D01*
X-3099500Y-5400000D01*
X-3099500Y-1365000D01*
X7629571Y-1365000D01*
X7649244Y-1577310D01*
X7699609Y-1754323D01*
X7707596Y-1782391D01*
X7802634Y-1973256D01*
X7931125Y-2143404D01*
X8088699Y-2287053D01*
X8220622Y-2368736D01*
X8269981Y-2399298D01*
X8426681Y-2460003D01*
X8468804Y-2476322D01*
X8678388Y-2515500D01*
X8678390Y-2515500D01*
X8891610Y-2515500D01*
X8891612Y-2515500D01*
X9101195Y-2476322D01*
X9101198Y-2476321D01*
X9300019Y-2399298D01*
X9481302Y-2287052D01*
X9638872Y-2143407D01*
X9767366Y-1973255D01*
X9860795Y-1785621D01*
X9901573Y-1743079D01*
X9959306Y-1731247D01*
X10013534Y-1754323D01*
X10045040Y-1804127D01*
X10051569Y-1828492D01*
X10151398Y-2042576D01*
X10286887Y-2236074D01*
X10453925Y-2403112D01*
X10647423Y-2538601D01*
X10861504Y-2638429D01*
X11075000Y-2695636D01*
X11075000Y-1214000D01*
X11088263Y-1164500D01*
X11124500Y-1128263D01*
X11174000Y-1115000D01*
X11476000Y-1115000D01*
X11525500Y-1128263D01*
X11561737Y-1164500D01*
X11575000Y-1214000D01*
X11575000Y-2695636D01*
X11788495Y-2638429D01*
X12002576Y-2538601D01*
X12196074Y-2403112D01*
X12363112Y-2236074D01*
X12498601Y-2042576D01*
X12598429Y-1828494D01*
X12604958Y-1804130D01*
X12636463Y-1754324D01*
X12690691Y-1731248D01*
X12748426Y-1743079D01*
X12789206Y-1785624D01*
X12882634Y-1973256D01*
X13011125Y-2143404D01*
X13168699Y-2287053D01*
X13300622Y-2368736D01*
X13349981Y-2399298D01*
X13506681Y-2460003D01*
X13548804Y-2476322D01*
X13758388Y-2515500D01*
X13758390Y-2515500D01*
X13971610Y-2515500D01*
X13971612Y-2515500D01*
X14181195Y-2476322D01*
X14181198Y-2476321D01*
X14380019Y-2399298D01*
X14561302Y-2287052D01*
X14718872Y-2143407D01*
X14847366Y-1973255D01*
X14942405Y-1782389D01*
X15000756Y-1577310D01*
X15020429Y-1365000D01*
X15249571Y-1365000D01*
X15269244Y-1577310D01*
X15319609Y-1754323D01*
X15327596Y-1782391D01*
X15422634Y-1973256D01*
X15551125Y-2143404D01*
X15708699Y-2287053D01*
X15840622Y-2368736D01*
X15889981Y-2399298D01*
X16046681Y-2460003D01*
X16088804Y-2476322D01*
X16298388Y-2515500D01*
X16298390Y-2515500D01*
X16511610Y-2515500D01*
X16511612Y-2515500D01*
X16721195Y-2476322D01*
X16721198Y-2476321D01*
X16920019Y-2399298D01*
X17101302Y-2287052D01*
X17258872Y-2143407D01*
X17387366Y-1973255D01*
X17482405Y-1782389D01*
X17540756Y-1577310D01*
X17560429Y-1365000D01*
X17789571Y-1365000D01*
X17809244Y-1577310D01*
X17859609Y-1754323D01*
X17867596Y-1782391D01*
X17962634Y-1973256D01*
X18091125Y-2143404D01*
X18248699Y-2287053D01*
X18380622Y-2368736D01*
X18429981Y-2399298D01*
X18586681Y-2460003D01*
X18628804Y-2476322D01*
X18838388Y-2515500D01*
X18838390Y-2515500D01*
X19051610Y-2515500D01*
X19051612Y-2515500D01*
X19261195Y-2476322D01*
X19261198Y-2476321D01*
X19460019Y-2399298D01*
X19641302Y-2287052D01*
X19798872Y-2143407D01*
X19927366Y-1973255D01*
X20022405Y-1782389D01*
X20080756Y-1577310D01*
X20100429Y-1365000D01*
X20329571Y-1365000D01*
X20349244Y-1577310D01*
X20399609Y-1754323D01*
X20407596Y-1782391D01*
X20502634Y-1973256D01*
X20631125Y-2143404D01*
X20788699Y-2287053D01*
X20920622Y-2368736D01*
X20969981Y-2399298D01*
X21126681Y-2460003D01*
X21168804Y-2476322D01*
X21378388Y-2515500D01*
X21378390Y-2515500D01*
X21591610Y-2515500D01*
X21591612Y-2515500D01*
X21801195Y-2476322D01*
X21801198Y-2476321D01*
X22000019Y-2399298D01*
X22181302Y-2287052D01*
X22338872Y-2143407D01*
X22467366Y-1973255D01*
X22562405Y-1782389D01*
X22620756Y-1577310D01*
X22640429Y-1365000D01*
X22869571Y-1365000D01*
X22889244Y-1577310D01*
X22939609Y-1754323D01*
X22947596Y-1782391D01*
X23042634Y-1973256D01*
X23171125Y-2143404D01*
X23328699Y-2287053D01*
X23460622Y-2368736D01*
X23509981Y-2399298D01*
X23666681Y-2460003D01*
X23708804Y-2476322D01*
X23918388Y-2515500D01*
X23918390Y-2515500D01*
X24131610Y-2515500D01*
X24131612Y-2515500D01*
X24341195Y-2476322D01*
X24341198Y-2476321D01*
X24540019Y-2399298D01*
X24721302Y-2287052D01*
X24878872Y-2143407D01*
X25007366Y-1973255D01*
X25102405Y-1782389D01*
X25160756Y-1577310D01*
X25180429Y-1365000D01*
X27429571Y-1365000D01*
X27449244Y-1577310D01*
X27499609Y-1754323D01*
X27507596Y-1782391D01*
X27602634Y-1973256D01*
X27731125Y-2143404D01*
X27888699Y-2287053D01*
X28020622Y-2368736D01*
X28069981Y-2399298D01*
X28226681Y-2460003D01*
X28268804Y-2476322D01*
X28478388Y-2515500D01*
X28478390Y-2515500D01*
X28691610Y-2515500D01*
X28691612Y-2515500D01*
X28901195Y-2476322D01*
X28901198Y-2476321D01*
X29100019Y-2399298D01*
X29281302Y-2287052D01*
X29438872Y-2143407D01*
X29567366Y-1973255D01*
X29660795Y-1785621D01*
X29701573Y-1743079D01*
X29759306Y-1731247D01*
X29813534Y-1754323D01*
X29845040Y-1804127D01*
X29851569Y-1828492D01*
X29951398Y-2042576D01*
X30086887Y-2236074D01*
X30253925Y-2403112D01*
X30447423Y-2538601D01*
X30661504Y-2638429D01*
X30875000Y-2695636D01*
X30875000Y-1214000D01*
X30888263Y-1164500D01*
X30924500Y-1128263D01*
X30974000Y-1115000D01*
X31276000Y-1115000D01*
X31325500Y-1128263D01*
X31361737Y-1164500D01*
X31375000Y-1214000D01*
X31375000Y-2695636D01*
X31588495Y-2638429D01*
X31802576Y-2538601D01*
X31996074Y-2403112D01*
X32163112Y-2236074D01*
X32298601Y-2042576D01*
X32398429Y-1828494D01*
X32404958Y-1804130D01*
X32436463Y-1754324D01*
X32490691Y-1731248D01*
X32548426Y-1743079D01*
X32589206Y-1785624D01*
X32682634Y-1973256D01*
X32811125Y-2143404D01*
X32968699Y-2287053D01*
X33100622Y-2368736D01*
X33149981Y-2399298D01*
X33306681Y-2460003D01*
X33348804Y-2476322D01*
X33558388Y-2515500D01*
X33558390Y-2515500D01*
X33771610Y-2515500D01*
X33771612Y-2515500D01*
X33981195Y-2476322D01*
X33981198Y-2476321D01*
X34180019Y-2399298D01*
X34361302Y-2287052D01*
X34518872Y-2143407D01*
X34647366Y-1973255D01*
X34742405Y-1782389D01*
X34800756Y-1577310D01*
X34820429Y-1365000D01*
X35049571Y-1365000D01*
X35069244Y-1577310D01*
X35119609Y-1754323D01*
X35127596Y-1782391D01*
X35222634Y-1973256D01*
X35351125Y-2143404D01*
X35508699Y-2287053D01*
X35640622Y-2368736D01*
X35689981Y-2399298D01*
X35846681Y-2460003D01*
X35888804Y-2476322D01*
X36098388Y-2515500D01*
X36098390Y-2515500D01*
X36311610Y-2515500D01*
X36311612Y-2515500D01*
X36521195Y-2476322D01*
X36521198Y-2476321D01*
X36720019Y-2399298D01*
X36901302Y-2287052D01*
X37058872Y-2143407D01*
X37187366Y-1973255D01*
X37282405Y-1782389D01*
X37340756Y-1577310D01*
X37360429Y-1365000D01*
X37589571Y-1365000D01*
X37609244Y-1577310D01*
X37659609Y-1754323D01*
X37667596Y-1782391D01*
X37762634Y-1973256D01*
X37891125Y-2143404D01*
X38048699Y-2287053D01*
X38180622Y-2368736D01*
X38229981Y-2399298D01*
X38386681Y-2460003D01*
X38428804Y-2476322D01*
X38638388Y-2515500D01*
X38638390Y-2515500D01*
X38851610Y-2515500D01*
X38851612Y-2515500D01*
X39061195Y-2476322D01*
X39061198Y-2476321D01*
X39260019Y-2399298D01*
X39441302Y-2287052D01*
X39598872Y-2143407D01*
X39727366Y-1973255D01*
X39822405Y-1782389D01*
X39880756Y-1577310D01*
X39900429Y-1365000D01*
X40129571Y-1365000D01*
X40149244Y-1577310D01*
X40199609Y-1754323D01*
X40207596Y-1782391D01*
X40302634Y-1973256D01*
X40431125Y-2143404D01*
X40588699Y-2287053D01*
X40720622Y-2368736D01*
X40769981Y-2399298D01*
X40926681Y-2460003D01*
X40968804Y-2476322D01*
X41178388Y-2515500D01*
X41178390Y-2515500D01*
X41391610Y-2515500D01*
X41391612Y-2515500D01*
X41601195Y-2476322D01*
X41601198Y-2476321D01*
X41800019Y-2399298D01*
X41981302Y-2287052D01*
X42138872Y-2143407D01*
X42267366Y-1973255D01*
X42362405Y-1782389D01*
X42420756Y-1577310D01*
X42440429Y-1365000D01*
X42669571Y-1365000D01*
X42689244Y-1577310D01*
X42739609Y-1754323D01*
X42747596Y-1782391D01*
X42842634Y-1973256D01*
X42971125Y-2143404D01*
X43128699Y-2287053D01*
X43260622Y-2368736D01*
X43309981Y-2399298D01*
X43466681Y-2460003D01*
X43508804Y-2476322D01*
X43718388Y-2515500D01*
X43718390Y-2515500D01*
X43931610Y-2515500D01*
X43931612Y-2515500D01*
X44141195Y-2476322D01*
X44141198Y-2476321D01*
X44340019Y-2399298D01*
X44521302Y-2287052D01*
X44678872Y-2143407D01*
X44807366Y-1973255D01*
X44902405Y-1782389D01*
X44960756Y-1577310D01*
X44980429Y-1365000D01*
X44960756Y-1152690D01*
X44902405Y-947611D01*
X44807366Y-756745D01*
X44807365Y-756744D01*
X44807365Y-756743D01*
X44678874Y-586595D01*
X44521300Y-442946D01*
X44340021Y-330703D01*
X44340019Y-330702D01*
X44297898Y-314384D01*
X44141195Y-253677D01*
X43931612Y-214500D01*
X43931610Y-214500D01*
X43718390Y-214500D01*
X43718388Y-214500D01*
X43508804Y-253677D01*
X43309978Y-330703D01*
X43128699Y-442946D01*
X42971125Y-586595D01*
X42842634Y-756743D01*
X42749206Y-944375D01*
X42747595Y-947611D01*
X42689244Y-1152690D01*
X42669571Y-1365000D01*
X42440429Y-1365000D01*
X42420756Y-1152690D01*
X42362405Y-947611D01*
X42267366Y-756745D01*
X42267365Y-756744D01*
X42267365Y-756743D01*
X42138874Y-586595D01*
X41981300Y-442946D01*
X41800021Y-330703D01*
X41800019Y-330702D01*
X41757898Y-314384D01*
X41601195Y-253677D01*
X41391612Y-214500D01*
X41391610Y-214500D01*
X41178390Y-214500D01*
X41178388Y-214500D01*
X40968804Y-253677D01*
X40769978Y-330703D01*
X40588699Y-442946D01*
X40431125Y-586595D01*
X40302634Y-756743D01*
X40209206Y-944375D01*
X40207595Y-947611D01*
X40149244Y-1152690D01*
X40129571Y-1365000D01*
X39900429Y-1365000D01*
X39880756Y-1152690D01*
X39822405Y-947611D01*
X39727366Y-756745D01*
X39727365Y-756744D01*
X39727365Y-756743D01*
X39598874Y-586595D01*
X39441300Y-442946D01*
X39260021Y-330703D01*
X39260019Y-330702D01*
X39217898Y-314384D01*
X39061195Y-253677D01*
X38851612Y-214500D01*
X38851610Y-214500D01*
X38638390Y-214500D01*
X38638388Y-214500D01*
X38428804Y-253677D01*
X38229978Y-330703D01*
X38048699Y-442946D01*
X37891125Y-586595D01*
X37762634Y-756743D01*
X37669206Y-944375D01*
X37667595Y-947611D01*
X37609244Y-1152690D01*
X37589571Y-1365000D01*
X37360429Y-1365000D01*
X37340756Y-1152690D01*
X37282405Y-947611D01*
X37187366Y-756745D01*
X37187365Y-756744D01*
X37187365Y-756743D01*
X37058874Y-586595D01*
X36901300Y-442946D01*
X36720021Y-330703D01*
X36720019Y-330702D01*
X36677898Y-314384D01*
X36521195Y-253677D01*
X36311612Y-214500D01*
X36311610Y-214500D01*
X36098390Y-214500D01*
X36098388Y-214500D01*
X35888804Y-253677D01*
X35689978Y-330703D01*
X35508699Y-442946D01*
X35351125Y-586595D01*
X35222634Y-756743D01*
X35129206Y-944375D01*
X35127595Y-947611D01*
X35069244Y-1152690D01*
X35049571Y-1365000D01*
X34820429Y-1365000D01*
X34800756Y-1152690D01*
X34742405Y-947611D01*
X34647366Y-756745D01*
X34647365Y-756744D01*
X34647365Y-756743D01*
X34518874Y-586595D01*
X34361300Y-442946D01*
X34180021Y-330703D01*
X34180019Y-330702D01*
X34137898Y-314384D01*
X33981195Y-253677D01*
X33771612Y-214500D01*
X33771610Y-214500D01*
X33558390Y-214500D01*
X33558388Y-214500D01*
X33348804Y-253677D01*
X33149978Y-330703D01*
X32968699Y-442946D01*
X32811125Y-586595D01*
X32682634Y-756743D01*
X32589206Y-944375D01*
X32548426Y-986920D01*
X32490692Y-998751D01*
X32436463Y-975675D01*
X32404958Y-925870D01*
X32398429Y-901504D01*
X32298601Y-687424D01*
X32163112Y-493925D01*
X31996074Y-326887D01*
X31802576Y-191398D01*
X31588491Y-91568D01*
X31557301Y-83211D01*
X31506035Y-49946D01*
X31484069Y7082D01*
X31499773Y66143D01*
X31547162Y104730D01*
X31640019Y140702D01*
X31821302Y252948D01*
X31978872Y396593D01*
X32107366Y566745D01*
X32202405Y757611D01*
X32260756Y962690D01*
X32280429Y1175000D01*
X32509571Y1175000D01*
X32529244Y962690D01*
X32574518Y803570D01*
X32587596Y757609D01*
X32682634Y566744D01*
X32811125Y396596D01*
X32811127Y396594D01*
X32811128Y396593D01*
X32888576Y325989D01*
X32968699Y252947D01*
X33100622Y171264D01*
X33149981Y140702D01*
X33306681Y79997D01*
X33348804Y63678D01*
X33558388Y24500D01*
X33558390Y24500D01*
X33771610Y24500D01*
X33771612Y24500D01*
X33981195Y63678D01*
X33987558Y66143D01*
X34180019Y140702D01*
X34361302Y252948D01*
X34518872Y396593D01*
X34647366Y566745D01*
X34742405Y757611D01*
X34800756Y962690D01*
X34820429Y1175000D01*
X35049571Y1175000D01*
X35069244Y962690D01*
X35114518Y803570D01*
X35127596Y757609D01*
X35222634Y566744D01*
X35351125Y396596D01*
X35351127Y396594D01*
X35351128Y396593D01*
X35428576Y325989D01*
X35508699Y252947D01*
X35640622Y171264D01*
X35689981Y140702D01*
X35846681Y79997D01*
X35888804Y63678D01*
X36098388Y24500D01*
X36098390Y24500D01*
X36311610Y24500D01*
X36311612Y24500D01*
X36521195Y63678D01*
X36527558Y66143D01*
X36720019Y140702D01*
X36901302Y252948D01*
X37058872Y396593D01*
X37187366Y566745D01*
X37282405Y757611D01*
X37340756Y962690D01*
X37360429Y1175000D01*
X37589571Y1175000D01*
X37609244Y962690D01*
X37654518Y803570D01*
X37667596Y757609D01*
X37762634Y566744D01*
X37891125Y396596D01*
X37891127Y396594D01*
X37891128Y396593D01*
X37968576Y325989D01*
X38048699Y252947D01*
X38180622Y171264D01*
X38229981Y140702D01*
X38386681Y79997D01*
X38428804Y63678D01*
X38638388Y24500D01*
X38638390Y24500D01*
X38851610Y24500D01*
X38851612Y24500D01*
X39061195Y63678D01*
X39067558Y66143D01*
X39260019Y140702D01*
X39441302Y252948D01*
X39598872Y396593D01*
X39727366Y566745D01*
X39822405Y757611D01*
X39880756Y962690D01*
X39900429Y1175000D01*
X40129571Y1175000D01*
X40149244Y962690D01*
X40194518Y803570D01*
X40207596Y757609D01*
X40302634Y566744D01*
X40431125Y396596D01*
X40431127Y396594D01*
X40431128Y396593D01*
X40508576Y325989D01*
X40588699Y252947D01*
X40720622Y171264D01*
X40769981Y140702D01*
X40926681Y79997D01*
X40968804Y63678D01*
X41178388Y24500D01*
X41178390Y24500D01*
X41391610Y24500D01*
X41391612Y24500D01*
X41601195Y63678D01*
X41607558Y66143D01*
X41800019Y140702D01*
X41981302Y252948D01*
X42011128Y280138D01*
X42674500Y280138D01*
X42674501Y280133D01*
X42677415Y255009D01*
X42697451Y209632D01*
X42722793Y152236D01*
X42722794Y152235D01*
X42802235Y72794D01*
X42905009Y27415D01*
X42930135Y24500D01*
X44719864Y24501D01*
X44744991Y27415D01*
X44847765Y72794D01*
X44927206Y152235D01*
X44972585Y255009D01*
X44975500Y280135D01*
X44975499Y2069864D01*
X44972585Y2094991D01*
X44927206Y2197765D01*
X44847765Y2277206D01*
X44847765Y2277207D01*
X44847764Y2277207D01*
X44744989Y2322586D01*
X44719867Y2325500D01*
X42930137Y2325500D01*
X42905009Y2322585D01*
X42802235Y2277207D01*
X42722793Y2197765D01*
X42677414Y2094990D01*
X42674500Y2069868D01*
X42674500Y280138D01*
X42011128Y280138D01*
X42138872Y396593D01*
X42267366Y566745D01*
X42362405Y757611D01*
X42420756Y962690D01*
X42440429Y1175000D01*
X42420756Y1387310D01*
X42362405Y1592389D01*
X42267366Y1783255D01*
X42267365Y1783256D01*
X42267365Y1783257D01*
X42138874Y1953405D01*
X42138346Y1953886D01*
X41981302Y2097052D01*
X41981300Y2097054D01*
X41800021Y2209297D01*
X41800019Y2209298D01*
X41757898Y2225616D01*
X41601195Y2286323D01*
X41391612Y2325500D01*
X41391610Y2325500D01*
X41178390Y2325500D01*
X41178388Y2325500D01*
X40968804Y2286323D01*
X40769978Y2209297D01*
X40588699Y2097054D01*
X40431125Y1953405D01*
X40302634Y1783257D01*
X40278536Y1734860D01*
X40207595Y1592389D01*
X40149244Y1387310D01*
X40129571Y1175000D01*
X39900429Y1175000D01*
X39880756Y1387310D01*
X39822405Y1592389D01*
X39727366Y1783255D01*
X39727365Y1783256D01*
X39727365Y1783257D01*
X39598874Y1953405D01*
X39598346Y1953886D01*
X39441302Y2097052D01*
X39441300Y2097054D01*
X39260021Y2209297D01*
X39260019Y2209298D01*
X39217898Y2225616D01*
X39061195Y2286323D01*
X38851612Y2325500D01*
X38851610Y2325500D01*
X38638390Y2325500D01*
X38638388Y2325500D01*
X38428804Y2286323D01*
X38229978Y2209297D01*
X38048699Y2097054D01*
X37891125Y1953405D01*
X37762634Y1783257D01*
X37738536Y1734860D01*
X37667595Y1592389D01*
X37609244Y1387310D01*
X37589571Y1175000D01*
X37360429Y1175000D01*
X37340756Y1387310D01*
X37282405Y1592389D01*
X37187366Y1783255D01*
X37187365Y1783256D01*
X37187365Y1783257D01*
X37058874Y1953405D01*
X37058346Y1953886D01*
X36901302Y2097052D01*
X36901300Y2097054D01*
X36720021Y2209297D01*
X36720019Y2209298D01*
X36677898Y2225616D01*
X36521195Y2286323D01*
X36311612Y2325500D01*
X36311610Y2325500D01*
X36098390Y2325500D01*
X36098388Y2325500D01*
X35888804Y2286323D01*
X35689978Y2209297D01*
X35508699Y2097054D01*
X35351125Y1953405D01*
X35222634Y1783257D01*
X35198536Y1734860D01*
X35127595Y1592389D01*
X35069244Y1387310D01*
X35049571Y1175000D01*
X34820429Y1175000D01*
X34800756Y1387310D01*
X34742405Y1592389D01*
X34647366Y1783255D01*
X34647365Y1783256D01*
X34647365Y1783257D01*
X34518874Y1953405D01*
X34518346Y1953886D01*
X34361302Y2097052D01*
X34361300Y2097054D01*
X34180021Y2209297D01*
X34180019Y2209298D01*
X34137898Y2225616D01*
X33981195Y2286323D01*
X33771612Y2325500D01*
X33771610Y2325500D01*
X33558390Y2325500D01*
X33558388Y2325500D01*
X33348804Y2286323D01*
X33149978Y2209297D01*
X32968699Y2097054D01*
X32811125Y1953405D01*
X32682634Y1783257D01*
X32658536Y1734860D01*
X32587595Y1592389D01*
X32529244Y1387310D01*
X32509571Y1175000D01*
X32280429Y1175000D01*
X32260756Y1387310D01*
X32202405Y1592389D01*
X32107366Y1783255D01*
X32107365Y1783256D01*
X32107365Y1783257D01*
X31978874Y1953405D01*
X31978346Y1953886D01*
X31821302Y2097052D01*
X31821300Y2097054D01*
X31640021Y2209297D01*
X31640019Y2209298D01*
X31597898Y2225616D01*
X31441195Y2286323D01*
X31231612Y2325500D01*
X31231610Y2325500D01*
X31018390Y2325500D01*
X31018388Y2325500D01*
X30808804Y2286323D01*
X30609978Y2209297D01*
X30428699Y2097054D01*
X30271125Y1953405D01*
X30142634Y1783257D01*
X30118536Y1734860D01*
X30047595Y1592389D01*
X29989244Y1387310D01*
X29969571Y1175000D01*
X29989244Y962690D01*
X30034518Y803570D01*
X30047596Y757609D01*
X30142634Y566744D01*
X30271125Y396596D01*
X30271127Y396594D01*
X30271128Y396593D01*
X30348576Y325989D01*
X30428699Y252947D01*
X30560622Y171264D01*
X30609981Y140702D01*
X30702837Y104730D01*
X30750226Y66143D01*
X30765930Y7082D01*
X30743964Y-49946D01*
X30692698Y-83211D01*
X30661509Y-91568D01*
X30447424Y-191398D01*
X30253925Y-326887D01*
X30086887Y-493925D01*
X29951398Y-687424D01*
X29851568Y-901508D01*
X29845040Y-925872D01*
X29813534Y-975677D01*
X29759306Y-998752D01*
X29701573Y-986920D01*
X29660793Y-944374D01*
X29567366Y-756745D01*
X29438874Y-586595D01*
X29281300Y-442946D01*
X29100021Y-330703D01*
X29100019Y-330702D01*
X29057898Y-314384D01*
X28901195Y-253677D01*
X28691612Y-214500D01*
X28691610Y-214500D01*
X28478390Y-214500D01*
X28478388Y-214500D01*
X28268804Y-253677D01*
X28069978Y-330703D01*
X27888699Y-442946D01*
X27731125Y-586595D01*
X27602634Y-756743D01*
X27509206Y-944375D01*
X27507595Y-947611D01*
X27449244Y-1152690D01*
X27429571Y-1365000D01*
X25180429Y-1365000D01*
X25160756Y-1152690D01*
X25102405Y-947611D01*
X25007366Y-756745D01*
X25007365Y-756744D01*
X25007365Y-756743D01*
X24878874Y-586595D01*
X24721300Y-442946D01*
X24540021Y-330703D01*
X24540019Y-330702D01*
X24497898Y-314384D01*
X24341195Y-253677D01*
X24131612Y-214500D01*
X24131610Y-214500D01*
X23918390Y-214500D01*
X23918388Y-214500D01*
X23708804Y-253677D01*
X23509978Y-330703D01*
X23328699Y-442946D01*
X23171125Y-586595D01*
X23042634Y-756743D01*
X22949206Y-944375D01*
X22947595Y-947611D01*
X22889244Y-1152690D01*
X22869571Y-1365000D01*
X22640429Y-1365000D01*
X22620756Y-1152690D01*
X22562405Y-947611D01*
X22467366Y-756745D01*
X22467365Y-756744D01*
X22467365Y-756743D01*
X22338874Y-586595D01*
X22181300Y-442946D01*
X22000021Y-330703D01*
X22000019Y-330702D01*
X21957898Y-314384D01*
X21801195Y-253677D01*
X21591612Y-214500D01*
X21591610Y-214500D01*
X21378390Y-214500D01*
X21378388Y-214500D01*
X21168804Y-253677D01*
X20969978Y-330703D01*
X20788699Y-442946D01*
X20631125Y-586595D01*
X20502634Y-756743D01*
X20409206Y-944375D01*
X20407595Y-947611D01*
X20349244Y-1152690D01*
X20329571Y-1365000D01*
X20100429Y-1365000D01*
X20080756Y-1152690D01*
X20022405Y-947611D01*
X19927366Y-756745D01*
X19927365Y-756744D01*
X19927365Y-756743D01*
X19798874Y-586595D01*
X19641300Y-442946D01*
X19460021Y-330703D01*
X19460019Y-330702D01*
X19417898Y-314384D01*
X19261195Y-253677D01*
X19051612Y-214500D01*
X19051610Y-214500D01*
X18838390Y-214500D01*
X18838388Y-214500D01*
X18628804Y-253677D01*
X18429978Y-330703D01*
X18248699Y-442946D01*
X18091125Y-586595D01*
X17962634Y-756743D01*
X17869206Y-944375D01*
X17867595Y-947611D01*
X17809244Y-1152690D01*
X17789571Y-1365000D01*
X17560429Y-1365000D01*
X17540756Y-1152690D01*
X17482405Y-947611D01*
X17387366Y-756745D01*
X17387365Y-756744D01*
X17387365Y-756743D01*
X17258874Y-586595D01*
X17101300Y-442946D01*
X16920021Y-330703D01*
X16920019Y-330702D01*
X16877898Y-314384D01*
X16721195Y-253677D01*
X16511612Y-214500D01*
X16511610Y-214500D01*
X16298390Y-214500D01*
X16298388Y-214500D01*
X16088804Y-253677D01*
X15889978Y-330703D01*
X15708699Y-442946D01*
X15551125Y-586595D01*
X15422634Y-756743D01*
X15329206Y-944375D01*
X15327595Y-947611D01*
X15269244Y-1152690D01*
X15249571Y-1365000D01*
X15020429Y-1365000D01*
X15000756Y-1152690D01*
X14942405Y-947611D01*
X14847366Y-756745D01*
X14847365Y-756744D01*
X14847365Y-756743D01*
X14718874Y-586595D01*
X14561300Y-442946D01*
X14380021Y-330703D01*
X14380019Y-330702D01*
X14337898Y-314384D01*
X14181195Y-253677D01*
X13971612Y-214500D01*
X13971610Y-214500D01*
X13758390Y-214500D01*
X13758388Y-214500D01*
X13548804Y-253677D01*
X13349978Y-330703D01*
X13168699Y-442946D01*
X13011125Y-586595D01*
X12882634Y-756743D01*
X12789206Y-944375D01*
X12748426Y-986920D01*
X12690692Y-998751D01*
X12636463Y-975675D01*
X12604958Y-925870D01*
X12598429Y-901504D01*
X12498601Y-687424D01*
X12363112Y-493925D01*
X12196074Y-326887D01*
X12002576Y-191398D01*
X11788491Y-91568D01*
X11757301Y-83211D01*
X11706035Y-49946D01*
X11684069Y7082D01*
X11699773Y66143D01*
X11747162Y104730D01*
X11840019Y140702D01*
X12021302Y252948D01*
X12178872Y396593D01*
X12307366Y566745D01*
X12402405Y757611D01*
X12460756Y962690D01*
X12480429Y1175000D01*
X12709571Y1175000D01*
X12729244Y962690D01*
X12774518Y803570D01*
X12787596Y757609D01*
X12882634Y566744D01*
X13011125Y396596D01*
X13011127Y396594D01*
X13011128Y396593D01*
X13088576Y325989D01*
X13168699Y252947D01*
X13300622Y171264D01*
X13349981Y140702D01*
X13506681Y79997D01*
X13548804Y63678D01*
X13758388Y24500D01*
X13758390Y24500D01*
X13971610Y24500D01*
X13971612Y24500D01*
X14181195Y63678D01*
X14187558Y66143D01*
X14380019Y140702D01*
X14561302Y252948D01*
X14718872Y396593D01*
X14847366Y566745D01*
X14942405Y757611D01*
X15000756Y962690D01*
X15020429Y1175000D01*
X15249571Y1175000D01*
X15269244Y962690D01*
X15314518Y803570D01*
X15327596Y757609D01*
X15422634Y566744D01*
X15551125Y396596D01*
X15551127Y396594D01*
X15551128Y396593D01*
X15628576Y325989D01*
X15708699Y252947D01*
X15840622Y171264D01*
X15889981Y140702D01*
X16046681Y79997D01*
X16088804Y63678D01*
X16298388Y24500D01*
X16298390Y24500D01*
X16511610Y24500D01*
X16511612Y24500D01*
X16721195Y63678D01*
X16727558Y66143D01*
X16920019Y140702D01*
X17101302Y252948D01*
X17258872Y396593D01*
X17387366Y566745D01*
X17482405Y757611D01*
X17540756Y962690D01*
X17560429Y1175000D01*
X17789571Y1175000D01*
X17809244Y962690D01*
X17854518Y803570D01*
X17867596Y757609D01*
X17962634Y566744D01*
X18091125Y396596D01*
X18091127Y396594D01*
X18091128Y396593D01*
X18168576Y325989D01*
X18248699Y252947D01*
X18380622Y171264D01*
X18429981Y140702D01*
X18586681Y79997D01*
X18628804Y63678D01*
X18838388Y24500D01*
X18838390Y24500D01*
X19051610Y24500D01*
X19051612Y24500D01*
X19261195Y63678D01*
X19267558Y66143D01*
X19460019Y140702D01*
X19641302Y252948D01*
X19798872Y396593D01*
X19927366Y566745D01*
X20022405Y757611D01*
X20080756Y962690D01*
X20100429Y1175000D01*
X20329571Y1175000D01*
X20349244Y962690D01*
X20394518Y803570D01*
X20407596Y757609D01*
X20502634Y566744D01*
X20631125Y396596D01*
X20631127Y396594D01*
X20631128Y396593D01*
X20708576Y325989D01*
X20788699Y252947D01*
X20920622Y171264D01*
X20969981Y140702D01*
X21126681Y79997D01*
X21168804Y63678D01*
X21378388Y24500D01*
X21378390Y24500D01*
X21591610Y24500D01*
X21591612Y24500D01*
X21801195Y63678D01*
X21807558Y66143D01*
X22000019Y140702D01*
X22181302Y252948D01*
X22211128Y280138D01*
X22874500Y280138D01*
X22874501Y280133D01*
X22877415Y255009D01*
X22897451Y209632D01*
X22922793Y152236D01*
X22922794Y152235D01*
X23002235Y72794D01*
X23105009Y27415D01*
X23130135Y24500D01*
X24919864Y24501D01*
X24944991Y27415D01*
X25047765Y72794D01*
X25127206Y152235D01*
X25172585Y255009D01*
X25175500Y280135D01*
X25175499Y1175000D01*
X27429571Y1175000D01*
X27449244Y962690D01*
X27494518Y803570D01*
X27507596Y757609D01*
X27602634Y566744D01*
X27731125Y396596D01*
X27731127Y396594D01*
X27731128Y396593D01*
X27808576Y325989D01*
X27888699Y252947D01*
X28020622Y171264D01*
X28069981Y140702D01*
X28226681Y79997D01*
X28268804Y63678D01*
X28478388Y24500D01*
X28478390Y24500D01*
X28691610Y24500D01*
X28691612Y24500D01*
X28901195Y63678D01*
X28907558Y66143D01*
X29100019Y140702D01*
X29281302Y252948D01*
X29438872Y396593D01*
X29567366Y566745D01*
X29662405Y757611D01*
X29720756Y962690D01*
X29740429Y1175000D01*
X29720756Y1387310D01*
X29662405Y1592389D01*
X29567366Y1783255D01*
X29567365Y1783256D01*
X29567365Y1783257D01*
X29438874Y1953405D01*
X29438346Y1953886D01*
X29281302Y2097052D01*
X29281300Y2097054D01*
X29100021Y2209297D01*
X29100019Y2209298D01*
X29057898Y2225616D01*
X28901195Y2286323D01*
X28691612Y2325500D01*
X28691610Y2325500D01*
X28478390Y2325500D01*
X28478388Y2325500D01*
X28268804Y2286323D01*
X28069978Y2209297D01*
X27888699Y2097054D01*
X27731125Y1953405D01*
X27602634Y1783257D01*
X27578536Y1734860D01*
X27507595Y1592389D01*
X27449244Y1387310D01*
X27429571Y1175000D01*
X25175499Y1175000D01*
X25175499Y2069864D01*
X25172585Y2094991D01*
X25127206Y2197765D01*
X25047765Y2277206D01*
X25047765Y2277207D01*
X25047764Y2277207D01*
X24944989Y2322586D01*
X24919867Y2325500D01*
X23130137Y2325500D01*
X23105009Y2322585D01*
X23002235Y2277207D01*
X22922793Y2197765D01*
X22877414Y2094990D01*
X22874500Y2069868D01*
X22874500Y280138D01*
X22211128Y280138D01*
X22338872Y396593D01*
X22467366Y566745D01*
X22562405Y757611D01*
X22620756Y962690D01*
X22640429Y1175000D01*
X22620756Y1387310D01*
X22562405Y1592389D01*
X22467366Y1783255D01*
X22467365Y1783256D01*
X22467365Y1783257D01*
X22338874Y1953405D01*
X22338346Y1953886D01*
X22181302Y2097052D01*
X22181300Y2097054D01*
X22000021Y2209297D01*
X22000019Y2209298D01*
X21957898Y2225616D01*
X21801195Y2286323D01*
X21591612Y2325500D01*
X21591610Y2325500D01*
X21378390Y2325500D01*
X21378388Y2325500D01*
X21168804Y2286323D01*
X20969978Y2209297D01*
X20788699Y2097054D01*
X20631125Y1953405D01*
X20502634Y1783257D01*
X20478536Y1734860D01*
X20407595Y1592389D01*
X20349244Y1387310D01*
X20329571Y1175000D01*
X20100429Y1175000D01*
X20080756Y1387310D01*
X20022405Y1592389D01*
X19927366Y1783255D01*
X19927365Y1783256D01*
X19927365Y1783257D01*
X19798874Y1953405D01*
X19798346Y1953886D01*
X19641302Y2097052D01*
X19641300Y2097054D01*
X19460021Y2209297D01*
X19460019Y2209298D01*
X19417898Y2225616D01*
X19261195Y2286323D01*
X19051612Y2325500D01*
X19051610Y2325500D01*
X18838390Y2325500D01*
X18838388Y2325500D01*
X18628804Y2286323D01*
X18429978Y2209297D01*
X18248699Y2097054D01*
X18091125Y1953405D01*
X17962634Y1783257D01*
X17938536Y1734860D01*
X17867595Y1592389D01*
X17809244Y1387310D01*
X17789571Y1175000D01*
X17560429Y1175000D01*
X17540756Y1387310D01*
X17482405Y1592389D01*
X17387366Y1783255D01*
X17387365Y1783256D01*
X17387365Y1783257D01*
X17258874Y1953405D01*
X17258346Y1953886D01*
X17101302Y2097052D01*
X17101300Y2097054D01*
X16920021Y2209297D01*
X16920019Y2209298D01*
X16877898Y2225616D01*
X16721195Y2286323D01*
X16511612Y2325500D01*
X16511610Y2325500D01*
X16298390Y2325500D01*
X16298388Y2325500D01*
X16088804Y2286323D01*
X15889978Y2209297D01*
X15708699Y2097054D01*
X15551125Y1953405D01*
X15422634Y1783257D01*
X15398536Y1734860D01*
X15327595Y1592389D01*
X15269244Y1387310D01*
X15249571Y1175000D01*
X15020429Y1175000D01*
X15000756Y1387310D01*
X14942405Y1592389D01*
X14847366Y1783255D01*
X14847365Y1783256D01*
X14847365Y1783257D01*
X14718874Y1953405D01*
X14718346Y1953886D01*
X14561302Y2097052D01*
X14561300Y2097054D01*
X14380021Y2209297D01*
X14380019Y2209298D01*
X14337898Y2225616D01*
X14181195Y2286323D01*
X13971612Y2325500D01*
X13971610Y2325500D01*
X13758390Y2325500D01*
X13758388Y2325500D01*
X13548804Y2286323D01*
X13349978Y2209297D01*
X13168699Y2097054D01*
X13011125Y1953405D01*
X12882634Y1783257D01*
X12858536Y1734860D01*
X12787595Y1592389D01*
X12729244Y1387310D01*
X12709571Y1175000D01*
X12480429Y1175000D01*
X12460756Y1387310D01*
X12402405Y1592389D01*
X12307366Y1783255D01*
X12307365Y1783256D01*
X12307365Y1783257D01*
X12178874Y1953405D01*
X12178346Y1953886D01*
X12021302Y2097052D01*
X12021300Y2097054D01*
X11840021Y2209297D01*
X11840019Y2209298D01*
X11797898Y2225616D01*
X11641195Y2286323D01*
X11431612Y2325500D01*
X11431610Y2325500D01*
X11218390Y2325500D01*
X11218388Y2325500D01*
X11008804Y2286323D01*
X10809978Y2209297D01*
X10628699Y2097054D01*
X10471125Y1953405D01*
X10342634Y1783257D01*
X10318536Y1734860D01*
X10247595Y1592389D01*
X10189244Y1387310D01*
X10169571Y1175000D01*
X10189244Y962690D01*
X10234518Y803570D01*
X10247596Y757609D01*
X10342634Y566744D01*
X10471125Y396596D01*
X10471127Y396594D01*
X10471128Y396593D01*
X10548576Y325989D01*
X10628699Y252947D01*
X10760622Y171264D01*
X10809981Y140702D01*
X10902837Y104730D01*
X10950226Y66143D01*
X10965930Y7082D01*
X10943964Y-49946D01*
X10892698Y-83211D01*
X10861509Y-91568D01*
X10647424Y-191398D01*
X10453925Y-326887D01*
X10286887Y-493925D01*
X10151398Y-687424D01*
X10051568Y-901508D01*
X10045040Y-925872D01*
X10013534Y-975677D01*
X9959306Y-998752D01*
X9901573Y-986920D01*
X9860793Y-944374D01*
X9767366Y-756745D01*
X9638874Y-586595D01*
X9481300Y-442946D01*
X9300021Y-330703D01*
X9300019Y-330702D01*
X9257898Y-314384D01*
X9101195Y-253677D01*
X8891612Y-214500D01*
X8891610Y-214500D01*
X8678390Y-214500D01*
X8678388Y-214500D01*
X8468804Y-253677D01*
X8269978Y-330703D01*
X8088699Y-442946D01*
X7931125Y-586595D01*
X7802634Y-756743D01*
X7709206Y-944375D01*
X7707595Y-947611D01*
X7649244Y-1152690D01*
X7629571Y-1365000D01*
X-3099500Y-1365000D01*
X-3099500Y-2586D01*
X-3099364Y2595D01*
X-3095685Y72794D01*
X-3092506Y133448D01*
X-3081692Y326009D01*
X-3080634Y335906D01*
X-3056273Y489711D01*
X-3056162Y490387D01*
X-3027681Y658015D01*
X-3025717Y667007D01*
X-2984282Y821648D01*
X-2983857Y823175D01*
X-2938035Y982223D01*
X-2935351Y990232D01*
X-2877324Y1141396D01*
X-2876476Y1143521D01*
X-2863437Y1175000D01*
X7629571Y1175000D01*
X7649244Y962690D01*
X7694518Y803570D01*
X7707596Y757609D01*
X7802634Y566744D01*
X7931125Y396596D01*
X7931127Y396594D01*
X7931128Y396593D01*
X8008576Y325989D01*
X8088699Y252947D01*
X8220622Y171264D01*
X8269981Y140702D01*
X8426681Y79997D01*
X8468804Y63678D01*
X8678388Y24500D01*
X8678390Y24500D01*
X8891610Y24500D01*
X8891612Y24500D01*
X9101195Y63678D01*
X9107558Y66143D01*
X9300019Y140702D01*
X9481302Y252948D01*
X9638872Y396593D01*
X9767366Y566745D01*
X9862405Y757611D01*
X9920756Y962690D01*
X9940429Y1175000D01*
X9920756Y1387310D01*
X9862405Y1592389D01*
X9767366Y1783255D01*
X9767365Y1783256D01*
X9767365Y1783257D01*
X9638874Y1953405D01*
X9638346Y1953886D01*
X9481302Y2097052D01*
X9481300Y2097054D01*
X9300021Y2209297D01*
X9300019Y2209298D01*
X9257898Y2225616D01*
X9101195Y2286323D01*
X8891612Y2325500D01*
X8891610Y2325500D01*
X8678390Y2325500D01*
X8678388Y2325500D01*
X8468804Y2286323D01*
X8269978Y2209297D01*
X8088699Y2097054D01*
X7931125Y1953405D01*
X7802634Y1783257D01*
X7778536Y1734860D01*
X7707595Y1592389D01*
X7649244Y1387310D01*
X7629571Y1175000D01*
X-2863437Y1175000D01*
X-2813834Y1294750D01*
X-2810599Y1301769D01*
X-2736700Y1446805D01*
X-2735209Y1449612D01*
X-2656507Y1592012D01*
X-2652937Y1597963D01*
X-2564005Y1734905D01*
X-2561778Y1738184D01*
X-2467941Y1870436D01*
X-2464157Y1875424D01*
X-2361237Y2002520D01*
X-2358191Y2006099D01*
X-2250292Y2126838D01*
X-2246547Y2130801D01*
X-2130801Y2246547D01*
X-2126838Y2250292D01*
X-2006099Y2358191D01*
X-2002520Y2361237D01*
X-1875415Y2464165D01*
X-1870436Y2467941D01*
X-1738184Y2561778D01*
X-1734905Y2564005D01*
X-1597963Y2652937D01*
X-1592012Y2656507D01*
X-1449612Y2735209D01*
X-1446805Y2736700D01*
X-1301769Y2810599D01*
X-1294750Y2813834D01*
X-1143521Y2876476D01*
X-1141396Y2877324D01*
X-990232Y2935351D01*
X-982223Y2938035D01*
X-823175Y2983857D01*
X-821648Y2984282D01*
X-667007Y3025717D01*
X-658015Y3027681D01*
X-490387Y3056162D01*
X-489711Y3056273D01*
X-335906Y3080634D01*
X-326009Y3081692D01*
X-133516Y3092503D01*
X-2596Y3099364D01*
X2586Y3099500D01*
X79997414Y3099500D01*
X80002595Y3099364D01*
G37*
%TD.AperFunction*%
%TD*%
M02*
