M48
INCH
T1C0.0118
T2C0.0197
T3C0.0197
T4C0.0236
T5C0.0315
T6C0.0394
T7C0.0787
T8C0.0906
T9C0.1063
%
G90
G05
T1
X0.0Y-0.2795
X0.0276Y-0.1496
X0.0472Y-0.6654
X0.0488Y-1.7988
X0.0551Y-0.7756
X0.0727Y-1.8161
X0.0906Y-0.2913
X0.1535Y-0.3346
X0.185Y-0.9016
X0.2097Y-0.8454
X0.22Y-0.6614
X0.22Y-0.7205
X0.2239Y-0.8018
X0.2377Y-0.3701
X0.2918Y-0.8504
X0.2918Y-0.7992
X0.3071Y-0.3504
X0.3071Y-0.4685
X0.315Y-0.248
X0.3268Y-0.7417
X0.4291Y-1.1732
X0.4603Y-1.7029
X0.4756Y-1.8516
X0.5079Y-0.6614
X0.5272Y-1.8531
X0.5496Y-1.5197
X0.5654Y-0.7417
X0.5669Y-1.0827
X0.576Y-1.8362
X0.5882Y-1.0553
X0.6033Y-0.7668
X0.6213Y-1.8496
X0.6553Y-1.0234
X0.6576Y-0.6613
X0.6713Y-0.9468
X0.6724Y-1.6992
X0.6732Y-0.9173
X0.6732Y-1.0
X0.7244Y-0.6339
X0.7323Y-1.1732
X0.7496Y-1.4835
X0.75Y-0.5858
X0.7642Y-1.702
X0.7913Y-1.1811
X0.8031Y-0.7457
X0.815Y-0.9724
X0.8217Y-1.2457
X0.8228Y-0.7323
X0.8386Y-0.9921
X0.8425Y-0.7087
X0.8528Y-1.2776
X0.8535Y-0.8327
X0.8661Y-1.1161
X0.878Y-1.0315
X0.8858Y-1.2992
X0.8976Y-0.7874
X0.9035Y-0.9429
X0.9083Y-0.974
X0.9134Y-0.5394
X0.9134Y-1.0709
X0.9138Y-0.5783
X0.9143Y-1.2023
X0.9193Y-1.0069
X0.9213Y-0.8701
X0.9391Y-1.2815
X0.9488Y-0.6496
X0.9606Y-1.1181
X0.9628Y-0.8246
X0.9847Y-1.2662
X0.9961Y-0.6102
X0.9961Y-0.7913
X0.9984Y-1.0874
X1.0118Y-1.1606
X1.0146Y-1.2169
X1.0315Y-0.7992
X1.0315Y-1.2717
X1.0529Y-0.8242
X1.0571Y-1.4114
X1.0682Y-0.8836
X1.0799Y-0.8476
X1.0837Y-0.6703
X1.0945Y-1.0866
X1.1142Y-1.0591
X1.124Y-0.8907
X1.1252Y-0.9484
X1.1291Y-0.9976
X1.1408Y-1.0355
X1.1408Y-0.915
X1.1457Y-0.6575
X1.1472Y-0.9705
X1.1531Y-0.7954
X1.1693Y-0.689
X1.1693Y-1.0118
X1.1713Y-0.9335
X1.1768Y-0.8195
X1.1917Y-0.9862
X1.2047Y-0.853
X1.2217Y-0.7256
X1.2323Y-0.872
X1.2492Y-0.7539
X1.2539Y-1.1906
X1.2665Y-1.0984
X1.2724Y-0.9654
X1.2732Y-1.1689
X1.2772Y-0.7811
X1.2943Y-0.7992
X1.3058Y-1.0679
X1.315Y-0.9912
X1.339Y-0.9421
X1.3496Y-0.3961
X1.4035Y-0.8931
X1.4433Y-0.4256
X1.4921Y-0.674
X1.5337Y-0.9403
X1.5396Y-0.823
X1.5546Y-0.9194
X1.5563Y-0.6197
X1.6947Y-1.1188
X1.7437Y-1.0917
X1.8045Y-1.8437
X1.8169Y-1.7319
X1.8455Y-0.6191
X1.8661Y-0.748
X1.874Y-0.4587
X1.8878Y-0.3878
X1.8898Y-0.3169
X1.9488Y-0.1575
X1.9488Y-0.2677
X2.0Y-0.9606
X2.0Y-1.0591
X2.0551Y-0.9606
X2.0551Y-1.0433
X2.1181Y-0.7835
X2.1496Y-0.937
X2.1885Y-0.7835
X2.1909Y-0.3858
X2.1929Y-0.315
X2.2047Y-0.4567
X2.2441Y-0.9567
X2.2441Y-1.0315
X2.2835Y-0.4567
X2.2953Y-0.3858
X2.2972Y-0.315
X2.3386Y-0.748
X2.3583Y-0.1535
X2.3583Y-0.2677
X2.4449Y-0.937
X2.5Y-0.7874
X2.5433Y-0.9606
X2.5433Y-1.0197
X2.5984Y-0.3858
X2.6004Y-0.315
X2.6142Y-0.4567
X2.6417Y-0.9567
X2.6417Y-1.0049
X2.7126Y-0.7874
X2.7756Y0.0748
X2.7756Y0.0
X2.7835Y-0.7874
X2.815Y-0.2795
X2.815Y-0.3524
X2.815Y-0.4173
X2.8209Y-0.1713
X2.8799Y-0.1713
X2.8858Y-0.2756
X2.8878Y-0.3524
X2.8878Y-0.4173
X2.9252Y0.0787
X2.9252Y-0.0039
X3.0Y-0.8021
X3.0956Y-0.9433
T2
X-0.0787Y-0.3937
X-0.0787Y-0.5906
X-0.0787Y-0.7874
X-0.0787Y-0.9843
X-0.0787Y-1.1811
X-0.0787Y-1.378
X-0.0787Y-1.5748
X-0.0787Y-1.7717
X-0.0732Y-0.1496
X0.1969Y-2.0472
X0.1972Y-1.9709
X0.3937Y-2.0472
X0.5906Y-2.0472
X0.7874Y-2.0472
X0.9843Y-2.0472
X1.1811Y-2.0472
X1.3358Y-1.989
X1.4488Y-0.2126
X1.7449Y-2.0508
X1.8071Y-0.9488
X1.8524Y-0.8179
X1.8524Y-1.2154
X1.8671Y-0.2126
X1.9035Y-2.0508
X1.9094Y-1.1457
X2.0236Y-0.6181
X2.0433Y-2.0508
X2.1929Y-2.0496
X2.3268Y-0.6181
X2.3622Y-2.0472
X2.4488Y-0.7441
X2.5591Y-2.0472
X2.7559Y-2.0472
X2.8202Y-1.9353
X2.828Y-1.2528
X2.8701Y-0.6181
X2.9173Y-0.7441
X2.9528Y-2.0472
X3.122Y-1.1417
X3.1585Y-0.2982
X3.2224Y-1.3933
X3.2283Y-0.1969
X3.2283Y-0.3937
X3.2283Y-0.5906
X3.2283Y-0.7874
T3
X-0.0797Y0.0
X-0.0797Y-1.9685
X-0.0564Y0.0564
X-0.0564Y-0.0564
X-0.0564Y-1.9121
X-0.0564Y-2.0249
X0.0Y0.0797
X0.0Y-0.0797
X0.0Y-1.8888
X0.0Y-2.0482
X0.0564Y0.0564
X0.0564Y-0.0564
X0.0564Y-1.9121
X0.0564Y-2.0249
X0.0797Y0.0
X0.0797Y-1.9685
X3.0699Y0.0
X3.0699Y-1.9685
X3.0932Y0.0564
X3.0932Y-0.0564
X3.0932Y-1.9121
X3.0932Y-2.0249
X3.1496Y0.0797
X3.1496Y-0.0797
X3.1496Y-1.8888
X3.1496Y-2.0482
X3.206Y0.0564
X3.206Y-0.0564
X3.206Y-1.9121
X3.206Y-2.0249
X3.2293Y0.0
X3.2293Y-1.9685
T5
X1.9921Y-1.6071
X1.9921Y-1.9071
X2.0921Y-1.6071
X2.0921Y-1.9071
X2.1921Y-1.6071
X2.1921Y-1.9071
X2.2921Y-1.6071
X2.2921Y-1.9071
T6
X0.3459Y0.0463
X0.3459Y-0.0537
X0.4287Y-1.2957
X0.4287Y-1.3957
X0.4287Y-1.4957
X0.4287Y-1.5957
X0.4459Y0.0463
X0.4459Y-0.0537
X0.4537Y-0.2848
X0.4537Y-0.3848
X0.5459Y0.0463
X0.5459Y-0.0537
X0.5537Y-0.2848
X0.5537Y-0.3848
X0.6459Y0.0463
X0.6459Y-0.0537
X0.6537Y-0.2848
X0.6537Y-0.3848
X0.7459Y0.0463
X0.7459Y-0.0537
X0.7537Y-0.2848
X0.7537Y-0.3848
X0.8459Y0.0463
X0.8459Y-0.0537
X0.8537Y-0.2848
X0.8537Y-0.3848
X0.9459Y0.0463
X0.9459Y-0.0537
X0.9537Y-0.2848
X0.9537Y-0.3848
X1.0537Y-0.2848
X1.0537Y-0.3848
X1.1254Y0.0463
X1.1254Y-0.0537
X1.1537Y-0.2848
X1.1537Y-0.3848
X1.2254Y0.0463
X1.2254Y-0.0537
X1.3254Y0.0463
X1.3254Y-0.0537
X1.3783Y-1.4012
X1.4254Y0.0463
X1.4254Y-0.0537
X1.4783Y-1.4012
X1.5254Y0.0463
X1.5254Y-0.0537
X1.5783Y-1.4012
X1.6254Y0.0463
X1.6254Y-0.0537
X1.6783Y-1.4012
X1.7254Y0.0463
X1.7254Y-0.0537
X3.1957Y-1.5185
X3.1957Y-1.6185
X3.1957Y-1.7185
T7
X1.0118Y-0.9724
T8
X0.1339Y-1.202
X0.1339Y-1.7193
T9
X0.0Y0.0
X0.0Y-1.9685
X3.1496Y0.0
X3.1496Y-1.9685
T4
G00X0.3867Y-1.779
M15
G01X0.3867Y-1.8223
M16
G05
G00X0.3867Y-1.9534
M15
G01X0.3867Y-1.9771
M16
G05
G00X0.7269Y-1.779
M15
G01X0.7269Y-1.8223
M16
G05
G00X0.7269Y-1.9534
M15
G01X0.7269Y-1.9771
M16
G05
T5
G00X1.0409Y-1.5315
M15
G01X1.1433Y-1.5315
M16
G05
G00X1.0488Y-1.7598
M15
G01X1.1354Y-1.7598
M16
G05
G00X1.2811Y-1.6929
M15
G01X1.2811Y-1.6063
M16
G05
T0
M30
