%TF.GenerationSoftware,KiCad,Pcbnew,7.0.1*%
%TF.CreationDate,2023-09-20T00:41:55-04:00*%
%TF.ProjectId,Teacup.kicad_pcb-revB,54656163-7570-42e6-9b69-6361645f7063,B*%
%TF.SameCoordinates,Original*%
%TF.FileFunction,Soldermask,Bot*%
%TF.FilePolarity,Negative*%
%FSLAX46Y46*%
G04 Gerber Fmt 4.6, Leading zero omitted, Abs format (unit mm)*
G04 Created by KiCad (PCBNEW 7.0.1) date 2023-09-20 00:41:55*
%MOMM*%
%LPD*%
G01*
G04 APERTURE LIST*
%ADD10C,0.800000*%
%ADD11C,5.400000*%
%ADD12R,1.700000X1.700000*%
%ADD13O,1.700000X1.700000*%
%ADD14C,0.650000*%
%ADD15O,1.000000X2.100000*%
%ADD16O,1.000000X1.600000*%
%ADD17C,1.500000*%
%ADD18C,3.000000*%
%ADD19R,1.600000X2.400000*%
%ADD20O,1.600000X2.400000*%
%ADD21R,4.400000X1.800000*%
%ADD22O,4.000000X1.800000*%
%ADD23O,1.800000X4.000000*%
%ADD24R,1.300000X0.300000*%
%ADD25R,1.800000X2.000000*%
G04 APERTURE END LIST*
D10*
%TO.C,H4*%
X77975000Y0D03*
X78568109Y1431891D03*
X78568109Y-1431891D03*
X80000000Y2025000D03*
D11*
X80000000Y0D03*
D10*
X80000000Y-2025000D03*
X81431891Y1431891D03*
X81431891Y-1431891D03*
X82025000Y0D03*
%TD*%
%TO.C,H3*%
X77975000Y-50000000D03*
X78568109Y-48568109D03*
X78568109Y-51431891D03*
X80000000Y-47975000D03*
D11*
X80000000Y-50000000D03*
D10*
X80000000Y-52025000D03*
X81431891Y-48568109D03*
X81431891Y-51431891D03*
X82025000Y-50000000D03*
%TD*%
D12*
%TO.C,J12*%
X35010000Y-35590000D03*
D13*
X37550000Y-35590000D03*
X40090000Y-35590000D03*
X42630000Y-35590000D03*
%TD*%
D12*
%TO.C,J7*%
X43825000Y1175000D03*
D13*
X43825000Y-1365000D03*
X41285000Y1175000D03*
X41285000Y-1365000D03*
X38745000Y1175000D03*
X38745000Y-1365000D03*
X36205000Y1175000D03*
X36205000Y-1365000D03*
X33665000Y1175000D03*
X33665000Y-1365000D03*
X31125000Y1175000D03*
X31125000Y-1365000D03*
X28585000Y1175000D03*
X28585000Y-1365000D03*
%TD*%
D14*
%TO.C,J1*%
X11252500Y-46267500D03*
X17032500Y-46267500D03*
D15*
X9822500Y-45737500D03*
D16*
X9822500Y-49917500D03*
D15*
X18462500Y-45737500D03*
D16*
X18462500Y-49917500D03*
%TD*%
D17*
%TO.C,J10*%
X40030000Y-51495000D03*
X40030000Y-44495000D03*
%TD*%
D12*
%TO.C,J6*%
X24025000Y1175000D03*
D13*
X24025000Y-1365000D03*
X21485000Y1175000D03*
X21485000Y-1365000D03*
X18945000Y1175000D03*
X18945000Y-1365000D03*
X16405000Y1175000D03*
X16405000Y-1365000D03*
X13865000Y1175000D03*
X13865000Y-1365000D03*
X11325000Y1175000D03*
X11325000Y-1365000D03*
X8785000Y1175000D03*
X8785000Y-1365000D03*
%TD*%
D10*
%TO.C,H1*%
X-2025000Y-50000000D03*
X-1431891Y-48568109D03*
X-1431891Y-51431891D03*
X0Y-47975000D03*
D11*
X0Y-50000000D03*
D10*
X0Y-52025000D03*
X1431891Y-48568109D03*
X1431891Y-51431891D03*
X2025000Y-50000000D03*
%TD*%
D12*
%TO.C,J5*%
X81170000Y-38570000D03*
D13*
X81170000Y-41110000D03*
X81170000Y-43650000D03*
%TD*%
D12*
%TO.C,J4*%
X11525000Y-9775000D03*
D13*
X11525000Y-7235000D03*
X14065000Y-9775000D03*
X14065000Y-7235000D03*
X16605000Y-9775000D03*
X16605000Y-7235000D03*
X19145000Y-9775000D03*
X19145000Y-7235000D03*
X21685000Y-9775000D03*
X21685000Y-7235000D03*
X24225000Y-9775000D03*
X24225000Y-7235000D03*
X26765000Y-9775000D03*
X26765000Y-7235000D03*
X29305000Y-9775000D03*
X29305000Y-7235000D03*
%TD*%
D12*
%TO.C,J11*%
X10890000Y-32910000D03*
D13*
X10890000Y-35450000D03*
X10890000Y-37990000D03*
X10890000Y-40530000D03*
%TD*%
D18*
%TO.C,J3*%
X3400000Y-30530000D03*
X3400000Y-43670000D03*
%TD*%
D10*
%TO.C,H2*%
X-2025000Y0D03*
X-1431891Y1431891D03*
X-1431891Y-1431891D03*
X0Y2025000D03*
D11*
X0Y0D03*
D10*
X0Y-2025000D03*
X1431891Y1431891D03*
X1431891Y-1431891D03*
X2025000Y0D03*
%TD*%
D19*
%TO.C,U5*%
X50600000Y-48440000D03*
D20*
X53140000Y-48440000D03*
X55680000Y-48440000D03*
X58220000Y-48440000D03*
X58220000Y-40820000D03*
X55680000Y-40820000D03*
X53140000Y-40820000D03*
X50600000Y-40820000D03*
%TD*%
D21*
%TO.C,J8*%
X27740000Y-38900000D03*
D22*
X27740000Y-44700000D03*
D23*
X32540000Y-41900000D03*
%TD*%
D24*
%TO.C,J9*%
X3565000Y-23340000D03*
X3565000Y-22840000D03*
X3565000Y-22340000D03*
X3565000Y-21840000D03*
X3565000Y-21340000D03*
X3565000Y-20840000D03*
X3565000Y-20340000D03*
X3565000Y-19840000D03*
X3565000Y-19340000D03*
X3565000Y-18840000D03*
X3565000Y-18340000D03*
X3565000Y-17840000D03*
X3565000Y-17340000D03*
X3565000Y-16840000D03*
X3565000Y-16340000D03*
X3565000Y-15840000D03*
X3565000Y-15340000D03*
X3565000Y-14840000D03*
X3565000Y-14340000D03*
X3565000Y-13840000D03*
X3565000Y-13340000D03*
X3565000Y-12840000D03*
X3565000Y-12340000D03*
X3565000Y-11840000D03*
D25*
X815000Y-25140000D03*
X815000Y-10040000D03*
%TD*%
M02*
