%TF.GenerationSoftware,KiCad,Pcbnew,7.0.1*%
%TF.CreationDate,2023-09-20T00:41:55-04:00*%
%TF.ProjectId,Teacup.kicad_pcb-revB,54656163-7570-42e6-9b69-6361645f7063,B*%
%TF.SameCoordinates,Original*%
%TF.FileFunction,Soldermask,Top*%
%TF.FilePolarity,Negative*%
%FSLAX46Y46*%
G04 Gerber Fmt 4.6, Leading zero omitted, Abs format (unit mm)*
G04 Created by KiCad (PCBNEW 7.0.1) date 2023-09-20 00:41:55*
%MOMM*%
%LPD*%
G01*
G04 APERTURE LIST*
G04 Aperture macros list*
%AMRoundRect*
0 Rectangle with rounded corners*
0 $1 Rounding radius*
0 $2 $3 $4 $5 $6 $7 $8 $9 X,Y pos of 4 corners*
0 Add a 4 corners polygon primitive as box body*
4,1,4,$2,$3,$4,$5,$6,$7,$8,$9,$2,$3,0*
0 Add four circle primitives for the rounded corners*
1,1,$1+$1,$2,$3*
1,1,$1+$1,$4,$5*
1,1,$1+$1,$6,$7*
1,1,$1+$1,$8,$9*
0 Add four rect primitives between the rounded corners*
20,1,$1+$1,$2,$3,$4,$5,0*
20,1,$1+$1,$4,$5,$6,$7,0*
20,1,$1+$1,$6,$7,$8,$9,0*
20,1,$1+$1,$8,$9,$2,$3,0*%
%AMRotRect*
0 Rectangle, with rotation*
0 The origin of the aperture is its center*
0 $1 length*
0 $2 width*
0 $3 Rotation angle, in degrees counterclockwise*
0 Add horizontal line*
21,1,$1,$2,0,0,$3*%
G04 Aperture macros list end*
%ADD10RoundRect,0.237500X0.300000X0.237500X-0.300000X0.237500X-0.300000X-0.237500X0.300000X-0.237500X0*%
%ADD11RoundRect,0.237500X-0.300000X-0.237500X0.300000X-0.237500X0.300000X0.237500X-0.300000X0.237500X0*%
%ADD12C,1.500000*%
%ADD13RoundRect,0.140000X-0.219203X-0.021213X-0.021213X-0.219203X0.219203X0.021213X0.021213X0.219203X0*%
%ADD14R,1.500000X2.000000*%
%ADD15R,3.800000X2.000000*%
%ADD16C,0.800000*%
%ADD17C,5.400000*%
%ADD18R,0.400000X0.650000*%
%ADD19RoundRect,0.250000X-0.337500X-0.475000X0.337500X-0.475000X0.337500X0.475000X-0.337500X0.475000X0*%
%ADD20R,1.000000X1.600000*%
%ADD21RoundRect,0.140000X0.219203X0.021213X0.021213X0.219203X-0.219203X-0.021213X-0.021213X-0.219203X0*%
%ADD22RoundRect,0.237500X0.237500X-0.250000X0.237500X0.250000X-0.237500X0.250000X-0.237500X-0.250000X0*%
%ADD23R,1.700000X1.700000*%
%ADD24O,1.700000X1.700000*%
%ADD25RoundRect,0.237500X0.250000X0.237500X-0.250000X0.237500X-0.250000X-0.237500X0.250000X-0.237500X0*%
%ADD26RoundRect,0.250000X0.337500X0.475000X-0.337500X0.475000X-0.337500X-0.475000X0.337500X-0.475000X0*%
%ADD27RoundRect,0.237500X-0.250000X-0.237500X0.250000X-0.237500X0.250000X0.237500X-0.250000X0.237500X0*%
%ADD28RoundRect,0.140000X0.021213X-0.219203X0.219203X-0.021213X-0.021213X0.219203X-0.219203X0.021213X0*%
%ADD29R,0.950000X1.400000*%
%ADD30R,1.750000X0.700000*%
%ADD31R,1.000000X1.450000*%
%ADD32R,1.550000X1.000000*%
%ADD33R,1.500000X0.800000*%
%ADD34R,1.500000X1.300000*%
%ADD35R,1.500000X1.500000*%
%ADD36R,1.400000X0.800000*%
%ADD37C,0.650000*%
%ADD38R,0.600000X1.450000*%
%ADD39R,0.300000X1.450000*%
%ADD40O,1.000000X2.100000*%
%ADD41O,1.000000X1.600000*%
%ADD42R,2.500000X1.200000*%
%ADD43RoundRect,0.150000X-0.256326X-0.468458X0.468458X0.256326X0.256326X0.468458X-0.468458X-0.256326X0*%
%ADD44RoundRect,0.140000X-0.021213X0.219203X-0.219203X0.021213X0.021213X-0.219203X0.219203X-0.021213X0*%
%ADD45RotRect,0.150000X0.850000X45.000000*%
%ADD46RotRect,0.150000X0.850000X315.000000*%
%ADD47RotRect,5.800000X5.800000X315.000000*%
%ADD48RoundRect,0.150000X0.150000X-0.650000X0.150000X0.650000X-0.150000X0.650000X-0.150000X-0.650000X0*%
%ADD49RoundRect,0.140000X0.170000X-0.140000X0.170000X0.140000X-0.170000X0.140000X-0.170000X-0.140000X0*%
%ADD50R,3.000000X1.250000*%
%ADD51C,3.000000*%
%ADD52RoundRect,0.237500X-0.380070X0.044194X0.044194X-0.380070X0.380070X-0.044194X-0.044194X0.380070X0*%
%ADD53RoundRect,0.237500X-0.237500X0.250000X-0.237500X-0.250000X0.237500X-0.250000X0.237500X0.250000X0*%
%ADD54R,1.600000X2.400000*%
%ADD55O,1.600000X2.400000*%
%ADD56R,0.760000X2.650000*%
%ADD57RoundRect,0.140000X0.140000X0.170000X-0.140000X0.170000X-0.140000X-0.170000X0.140000X-0.170000X0*%
%ADD58RotRect,0.900000X0.800000X45.000000*%
%ADD59R,4.400000X1.800000*%
%ADD60O,4.000000X1.800000*%
%ADD61O,1.800000X4.000000*%
%ADD62RoundRect,0.135000X0.035355X-0.226274X0.226274X-0.035355X-0.035355X0.226274X-0.226274X0.035355X0*%
%ADD63RoundRect,0.140000X-0.140000X-0.170000X0.140000X-0.170000X0.140000X0.170000X-0.140000X0.170000X0*%
G04 APERTURE END LIST*
D10*
%TO.C,C19*%
X37922500Y-18419999D03*
X36197500Y-18419999D03*
%TD*%
D11*
%TO.C,C2*%
X52737500Y-9800000D03*
X54462500Y-9800000D03*
%TD*%
D12*
%TO.C,TP8*%
X80200000Y-5600000D03*
%TD*%
D13*
%TO.C,C20*%
X18951922Y-16693954D03*
X19630744Y-17372776D03*
%TD*%
D14*
%TO.C,U2*%
X59900000Y-5350000D03*
X62200000Y-5350000D03*
D15*
X62200000Y950000D03*
D14*
X64500000Y-5350000D03*
%TD*%
D16*
%TO.C,H4*%
X77975000Y0D03*
X78568109Y1431891D03*
X78568109Y-1431891D03*
X80000000Y2025000D03*
D17*
X80000000Y0D03*
D16*
X80000000Y-2025000D03*
X81431891Y1431891D03*
X81431891Y-1431891D03*
X82025000Y0D03*
%TD*%
D18*
%TO.C,U6*%
X2950000Y-4750000D03*
X2300000Y-4750000D03*
X1650000Y-4750000D03*
X1650000Y-6650000D03*
X2950000Y-6650000D03*
%TD*%
D19*
%TO.C,C1*%
X52762500Y-11600000D03*
X54837500Y-11600000D03*
%TD*%
D20*
%TO.C,S1*%
X34850000Y-15000000D03*
X36600000Y-12700000D03*
X38350000Y-15000000D03*
%TD*%
D12*
%TO.C,TP6*%
X77600000Y-15200000D03*
%TD*%
D21*
%TO.C,C37*%
X21529411Y-20209411D03*
X20850589Y-19530589D03*
%TD*%
D22*
%TO.C,R2*%
X53600000Y-15712500D03*
X53600000Y-13887500D03*
%TD*%
%TO.C,R3*%
X50000000Y-15712500D03*
X50000000Y-13887500D03*
%TD*%
D16*
%TO.C,H3*%
X77975000Y-50000000D03*
X78568109Y-48568109D03*
X78568109Y-51431891D03*
X80000000Y-47975000D03*
D17*
X80000000Y-50000000D03*
D16*
X80000000Y-52025000D03*
X81431891Y-48568109D03*
X81431891Y-51431891D03*
X82025000Y-50000000D03*
%TD*%
D23*
%TO.C,J12*%
X35010000Y-35590000D03*
D24*
X37550000Y-35590000D03*
X40090000Y-35590000D03*
X42630000Y-35590000D03*
%TD*%
D25*
%TO.C,R27*%
X7512500Y-20300000D03*
X5687500Y-20300000D03*
%TD*%
%TO.C,R28*%
X7412500Y-18300000D03*
X5587500Y-18300000D03*
%TD*%
D26*
%TO.C,C16*%
X75437500Y-11600000D03*
X73362500Y-11600000D03*
%TD*%
D27*
%TO.C,R18*%
X55587500Y-18987500D03*
X57412500Y-18987500D03*
%TD*%
D11*
%TO.C,C29*%
X6037500Y-8000000D03*
X7762500Y-8000000D03*
%TD*%
D13*
%TO.C,C21*%
X21855224Y-13612939D03*
X22534046Y-14291761D03*
%TD*%
%TO.C,C38*%
X31100589Y-28500589D03*
X31779411Y-29179411D03*
%TD*%
D23*
%TO.C,J7*%
X43825000Y1175000D03*
D24*
X43825000Y-1365000D03*
X41285000Y1175000D03*
X41285000Y-1365000D03*
X38745000Y1175000D03*
X38745000Y-1365000D03*
X36205000Y1175000D03*
X36205000Y-1365000D03*
X33665000Y1175000D03*
X33665000Y-1365000D03*
X31125000Y1175000D03*
X31125000Y-1365000D03*
X28585000Y1175000D03*
X28585000Y-1365000D03*
%TD*%
D27*
%TO.C,R17*%
X63537500Y-18987500D03*
X65362500Y-18987500D03*
%TD*%
D10*
%TO.C,C18*%
X75062500Y-8000000D03*
X73337500Y-8000000D03*
%TD*%
D27*
%TO.C,R13*%
X66217500Y-36480000D03*
X68042500Y-36480000D03*
%TD*%
D22*
%TO.C,R8*%
X70600000Y-15712500D03*
X70600000Y-13887500D03*
%TD*%
D28*
%TO.C,C25*%
X23960589Y-17739411D03*
X24639411Y-17060589D03*
%TD*%
D29*
%TO.C,S2*%
X34682500Y-8280000D03*
X38832500Y-8280000D03*
%TD*%
D21*
%TO.C,C30*%
X23039411Y-18889411D03*
X22360589Y-18210589D03*
%TD*%
D27*
%TO.C,R15*%
X70662500Y-18987500D03*
X72487500Y-18987500D03*
%TD*%
D30*
%TO.C,J2*%
X81110000Y-24645000D03*
X81110000Y-25745000D03*
X81110000Y-26845000D03*
X81110000Y-27945000D03*
X81110000Y-29045000D03*
X81110000Y-30145000D03*
X81110000Y-31245000D03*
X81110000Y-32345000D03*
D31*
X71885000Y-33470000D03*
D32*
X70310000Y-22245000D03*
D33*
X73385000Y-33795000D03*
D34*
X80985000Y-33545000D03*
D35*
X80985000Y-22195000D03*
D36*
X72735000Y-21845000D03*
%TD*%
D37*
%TO.C,J1*%
X11252500Y-46267500D03*
X17032500Y-46267500D03*
D38*
X10892500Y-44822500D03*
X11692500Y-44822500D03*
D39*
X12892500Y-44822500D03*
X13892500Y-44822500D03*
X14392500Y-44822500D03*
X15392500Y-44822500D03*
D38*
X16592500Y-44822500D03*
X17392500Y-44822500D03*
X17392500Y-44822500D03*
X16592500Y-44822500D03*
D39*
X15892500Y-44822500D03*
X14892500Y-44822500D03*
X13392500Y-44822500D03*
X12392500Y-44822500D03*
D38*
X11692500Y-44822500D03*
X10892500Y-44822500D03*
D40*
X9822500Y-45737500D03*
D41*
X9822500Y-49917500D03*
D40*
X18462500Y-45737500D03*
D41*
X18462500Y-49917500D03*
%TD*%
D11*
%TO.C,C15*%
X69737500Y-8000000D03*
X71462500Y-8000000D03*
%TD*%
D12*
%TO.C,J10*%
X40030000Y-51495000D03*
X40030000Y-44495000D03*
D42*
X36780000Y-46895000D03*
X36780000Y-49895000D03*
X43280000Y-41795000D03*
X36780000Y-42895000D03*
%TD*%
D10*
%TO.C,C5*%
X50862500Y-9800000D03*
X49137500Y-9800000D03*
%TD*%
D12*
%TO.C,TP1*%
X56800000Y-14800000D03*
%TD*%
D43*
%TO.C,D1*%
X16119581Y-39736917D03*
X17463083Y-41080419D03*
X18400000Y-38800000D03*
%TD*%
D10*
%TO.C,C12*%
X61262500Y-8000000D03*
X59537500Y-8000000D03*
%TD*%
D25*
%TO.C,R19*%
X53862500Y-18987500D03*
X52037500Y-18987500D03*
%TD*%
D44*
%TO.C,C43*%
X23689411Y-31760589D03*
X23010589Y-32439411D03*
%TD*%
%TO.C,C44*%
X19789411Y-28610589D03*
X19110589Y-29289411D03*
%TD*%
D45*
%TO.C,IC1*%
X25151992Y-18954757D03*
X24904505Y-19202245D03*
X24657017Y-19449732D03*
X24409530Y-19697220D03*
X24162043Y-19944707D03*
X23914555Y-20192194D03*
X23667068Y-20439682D03*
X23419581Y-20687169D03*
X23172093Y-20934656D03*
X22924606Y-21182144D03*
X22677119Y-21429631D03*
X22429631Y-21677119D03*
X22182144Y-21924606D03*
X21934656Y-22172093D03*
X21687169Y-22419581D03*
X21439682Y-22667068D03*
X21192194Y-22914555D03*
X20944707Y-23162043D03*
X20697220Y-23409530D03*
X20449732Y-23657017D03*
X20202245Y-23904505D03*
X19954757Y-24151992D03*
D46*
X19954757Y-25248008D03*
X20202245Y-25495495D03*
X20449732Y-25742983D03*
X20697220Y-25990470D03*
X20944707Y-26237957D03*
X21192194Y-26485445D03*
X21439682Y-26732932D03*
X21687169Y-26980419D03*
X21934656Y-27227907D03*
X22182144Y-27475394D03*
X22429631Y-27722881D03*
X22677119Y-27970369D03*
X22924606Y-28217856D03*
X23172093Y-28465344D03*
X23419581Y-28712831D03*
X23667068Y-28960318D03*
X23914555Y-29207806D03*
X24162043Y-29455293D03*
X24409530Y-29702780D03*
X24657017Y-29950268D03*
X24904505Y-30197755D03*
X25151992Y-30445243D03*
D45*
X26248008Y-30445243D03*
X26495495Y-30197755D03*
X26742983Y-29950268D03*
X26990470Y-29702780D03*
X27237957Y-29455293D03*
X27485445Y-29207806D03*
X27732932Y-28960318D03*
X27980419Y-28712831D03*
X28227907Y-28465344D03*
X28475394Y-28217856D03*
X28722881Y-27970369D03*
X28970369Y-27722881D03*
X29217856Y-27475394D03*
X29465344Y-27227907D03*
X29712831Y-26980419D03*
X29960318Y-26732932D03*
X30207806Y-26485445D03*
X30455293Y-26237957D03*
X30702780Y-25990470D03*
X30950268Y-25742983D03*
X31197755Y-25495495D03*
X31445243Y-25248008D03*
D46*
X31445243Y-24151992D03*
X31197755Y-23904505D03*
X30950268Y-23657017D03*
X30702780Y-23409530D03*
X30455293Y-23162043D03*
X30207806Y-22914555D03*
X29960318Y-22667068D03*
X29712831Y-22419581D03*
X29465344Y-22172093D03*
X29217856Y-21924606D03*
X28970369Y-21677119D03*
X28722881Y-21429631D03*
X28475394Y-21182144D03*
X28227907Y-20934656D03*
X27980419Y-20687169D03*
X27732932Y-20439682D03*
X27485445Y-20192194D03*
X27237957Y-19944707D03*
X26990470Y-19697220D03*
X26742983Y-19449732D03*
X26495495Y-19202245D03*
X26248008Y-18954757D03*
D47*
X25700000Y-24700000D03*
%TD*%
D25*
%TO.C,R16*%
X68912500Y-18987500D03*
X67087500Y-18987500D03*
%TD*%
D23*
%TO.C,J6*%
X24025000Y1175000D03*
D24*
X24025000Y-1365000D03*
X21485000Y1175000D03*
X21485000Y-1365000D03*
X18945000Y1175000D03*
X18945000Y-1365000D03*
X16405000Y1175000D03*
X16405000Y-1365000D03*
X13865000Y1175000D03*
X13865000Y-1365000D03*
X11325000Y1175000D03*
X11325000Y-1365000D03*
X8785000Y1175000D03*
X8785000Y-1365000D03*
%TD*%
D22*
%TO.C,R1*%
X5050000Y-48622500D03*
X5050000Y-46797500D03*
%TD*%
%TO.C,R12*%
X75200000Y-49232500D03*
X75200000Y-47407500D03*
%TD*%
D14*
%TO.C,U3*%
X70100000Y-5350000D03*
X72400000Y-5350000D03*
D15*
X72400000Y950000D03*
D14*
X74700000Y-5350000D03*
%TD*%
D25*
%TO.C,R11*%
X37972500Y-20020000D03*
X36147500Y-20020000D03*
%TD*%
D16*
%TO.C,H1*%
X-2025000Y-50000000D03*
X-1431891Y-48568109D03*
X-1431891Y-51431891D03*
X0Y-47975000D03*
D17*
X0Y-50000000D03*
D16*
X0Y-52025000D03*
X1431891Y-48568109D03*
X1431891Y-51431891D03*
X2025000Y-50000000D03*
%TD*%
D19*
%TO.C,C13*%
X69362500Y-11600000D03*
X71437500Y-11600000D03*
%TD*%
D44*
%TO.C,C39*%
X22109411Y-30450589D03*
X21430589Y-31129411D03*
%TD*%
D12*
%TO.C,TP2*%
X45400000Y-10200000D03*
%TD*%
D14*
%TO.C,U1*%
X49500000Y-5350000D03*
X51800000Y-5350000D03*
D15*
X51800000Y950000D03*
D14*
X54100000Y-5350000D03*
%TD*%
D11*
%TO.C,C9*%
X63037500Y-8000000D03*
X64762500Y-8000000D03*
%TD*%
D48*
%TO.C,U4*%
X65835000Y-48810000D03*
X67105000Y-48810000D03*
X68375000Y-48810000D03*
X69645000Y-48810000D03*
X69645000Y-41610000D03*
X68375000Y-41610000D03*
X67105000Y-41610000D03*
X65835000Y-41610000D03*
%TD*%
D12*
%TO.C,TP7*%
X1400000Y-19700000D03*
%TD*%
D23*
%TO.C,J5*%
X81170000Y-38570000D03*
D24*
X81170000Y-41110000D03*
X81170000Y-43650000D03*
%TD*%
D11*
%TO.C,C33*%
X6037500Y-10800000D03*
X7762500Y-10800000D03*
%TD*%
D23*
%TO.C,J4*%
X11525000Y-9775000D03*
D24*
X11525000Y-7235000D03*
X14065000Y-9775000D03*
X14065000Y-7235000D03*
X16605000Y-9775000D03*
X16605000Y-7235000D03*
X19145000Y-9775000D03*
X19145000Y-7235000D03*
X21685000Y-9775000D03*
X21685000Y-7235000D03*
X24225000Y-9775000D03*
X24225000Y-7235000D03*
X26765000Y-9775000D03*
X26765000Y-7235000D03*
X29305000Y-9775000D03*
X29305000Y-7235000D03*
%TD*%
D23*
%TO.C,J11*%
X10890000Y-32910000D03*
D24*
X10890000Y-35450000D03*
X10890000Y-37990000D03*
X10890000Y-40530000D03*
%TD*%
D21*
%TO.C,C34*%
X22339411Y-19589411D03*
X21660589Y-18910589D03*
%TD*%
D49*
%TO.C,C23*%
X48500000Y-30870000D03*
X48500000Y-29910000D03*
%TD*%
D50*
%TO.C,J3*%
X7080000Y-33600000D03*
X7080000Y-36100000D03*
X7080000Y-38100000D03*
X7080000Y-40600000D03*
D51*
X3400000Y-30530000D03*
X3400000Y-43670000D03*
%TD*%
D10*
%TO.C,C11*%
X61262500Y-9800000D03*
X59537500Y-9800000D03*
%TD*%
D22*
%TO.C,R9*%
X74200000Y-15712500D03*
X74200000Y-13887500D03*
%TD*%
D28*
%TO.C,C46*%
X31960589Y-21739411D03*
X32639411Y-21060589D03*
%TD*%
%TO.C,C45*%
X28460589Y-18739411D03*
X29139411Y-18060589D03*
%TD*%
D16*
%TO.C,H2*%
X-2025000Y0D03*
X-1431891Y1431891D03*
X-1431891Y-1431891D03*
X0Y2025000D03*
D17*
X0Y0D03*
D16*
X0Y-2025000D03*
X1431891Y1431891D03*
X1431891Y-1431891D03*
X2025000Y0D03*
%TD*%
D11*
%TO.C,C8*%
X63075000Y-9800000D03*
X64800000Y-9800000D03*
%TD*%
D25*
%TO.C,R22*%
X52612500Y-37990000D03*
X50787500Y-37990000D03*
%TD*%
D52*
%TO.C,C22*%
X24890120Y-33940120D03*
X26109880Y-35159880D03*
%TD*%
D10*
%TO.C,C6*%
X50862500Y-8000000D03*
X49137500Y-8000000D03*
%TD*%
D53*
%TO.C,R23*%
X46750000Y-43117500D03*
X46750000Y-44942500D03*
%TD*%
D22*
%TO.C,R25*%
X7000000Y-48622500D03*
X7000000Y-46797500D03*
%TD*%
%TO.C,R24*%
X46780000Y-49452500D03*
X46780000Y-47627500D03*
%TD*%
D10*
%TO.C,C17*%
X75062500Y-9800000D03*
X73337500Y-9800000D03*
%TD*%
D54*
%TO.C,U5*%
X50600000Y-48440000D03*
D55*
X53140000Y-48440000D03*
X55680000Y-48440000D03*
X58220000Y-48440000D03*
X58220000Y-40820000D03*
X55680000Y-40820000D03*
X53140000Y-40820000D03*
X50600000Y-40820000D03*
%TD*%
D13*
%TO.C,C42*%
X30350589Y-29200589D03*
X31029411Y-29879411D03*
%TD*%
D22*
%TO.C,R7*%
X60400000Y-15712500D03*
X60400000Y-13887500D03*
%TD*%
D28*
%TO.C,C41*%
X30540589Y-20339411D03*
X31219411Y-19660589D03*
%TD*%
%TO.C,C26*%
X31250589Y-21029411D03*
X31929411Y-20350589D03*
%TD*%
D44*
%TO.C,C32*%
X21339411Y-28810589D03*
X20660589Y-29489411D03*
%TD*%
D56*
%TO.C,SW1*%
X51530000Y-35215000D03*
X52800000Y-35215000D03*
X54070000Y-35215000D03*
X54070000Y-29965000D03*
X52800000Y-29965000D03*
X51530000Y-29965000D03*
%TD*%
D57*
%TO.C,C40*%
X3280000Y-3500000D03*
X2320000Y-3500000D03*
%TD*%
D13*
%TO.C,C31*%
X25010589Y-32160589D03*
X25689411Y-32839411D03*
%TD*%
D25*
%TO.C,R10*%
X37972500Y-21619999D03*
X36147500Y-21619999D03*
%TD*%
%TO.C,R14*%
X67082500Y-34840000D03*
X65257500Y-34840000D03*
%TD*%
D19*
%TO.C,C7*%
X63162500Y-11600000D03*
X65237500Y-11600000D03*
%TD*%
D22*
%TO.C,R5*%
X21170000Y-42072500D03*
X21170000Y-40247500D03*
%TD*%
D44*
%TO.C,C28*%
X22849411Y-31210589D03*
X22170589Y-31889411D03*
%TD*%
D58*
%TO.C,Y1*%
X20652514Y-16450000D03*
X21642463Y-15460051D03*
X20864646Y-14682234D03*
X19874697Y-15672183D03*
%TD*%
D59*
%TO.C,J8*%
X27740000Y-38900000D03*
D60*
X27740000Y-44700000D03*
D61*
X32540000Y-41900000D03*
%TD*%
D28*
%TO.C,C36*%
X27860589Y-17939411D03*
X28539411Y-17260589D03*
%TD*%
D22*
%TO.C,R6*%
X63800000Y-15712500D03*
X63800000Y-13887500D03*
%TD*%
D25*
%TO.C,R26*%
X7412500Y-16800000D03*
X5587500Y-16800000D03*
%TD*%
D11*
%TO.C,C14*%
X69737500Y-9800000D03*
X71462500Y-9800000D03*
%TD*%
D62*
%TO.C,R21*%
X21730852Y-17280852D03*
X22452100Y-16559604D03*
%TD*%
D11*
%TO.C,C3*%
X52737500Y-8000000D03*
X54462500Y-8000000D03*
%TD*%
D27*
%TO.C,R20*%
X48437500Y-18987500D03*
X50262500Y-18987500D03*
%TD*%
D12*
%TO.C,TP4*%
X57000000Y-2800000D03*
%TD*%
D53*
%TO.C,R4*%
X13530000Y-40437500D03*
X13530000Y-42262500D03*
%TD*%
D28*
%TO.C,C35*%
X29840589Y-19619411D03*
X30519411Y-18940589D03*
%TD*%
D26*
%TO.C,C10*%
X61237500Y-11600000D03*
X59162500Y-11600000D03*
%TD*%
D12*
%TO.C,TP9*%
X1200000Y-16900000D03*
%TD*%
D63*
%TO.C,C24*%
X60145000Y-18987500D03*
X61105000Y-18987500D03*
%TD*%
D19*
%TO.C,C27*%
X5962500Y-5000000D03*
X8037500Y-5000000D03*
%TD*%
D26*
%TO.C,C4*%
X50837500Y-11600000D03*
X48762500Y-11600000D03*
%TD*%
M02*
